%TF.GenerationSoftware,KiCad,Pcbnew,8.0.5*%
%TF.CreationDate,2024-11-03T18:03:42-05:00*%
%TF.ProjectId,emerald_pcb,656d6572-616c-4645-9f70-63622e6b6963,rev?*%
%TF.SameCoordinates,Original*%
%TF.FileFunction,Drillmap*%
%TF.FilePolarity,Positive*%
%FSLAX45Y45*%
G04 Gerber Fmt 4.5, Leading zero omitted, Abs format (unit mm)*
G04 Created by KiCad (PCBNEW 8.0.5) date 2024-11-03 18:03:42*
%MOMM*%
%LPD*%
G01*
G04 APERTURE LIST*
%ADD10C,0.050000*%
%ADD11C,0.200000*%
%ADD12C,0.100000*%
%ADD13C,0.210000*%
G04 APERTURE END LIST*
D10*
X3474720Y-3454400D02*
X10957560Y-3454400D01*
X10957560Y-8945880D01*
X3474720Y-8945880D01*
X3474720Y-3454400D01*
D11*
D12*
X9755220Y-7873240D02*
X9855220Y-7973240D01*
X9855220Y-7873240D02*
X9755220Y-7973240D01*
X9755220Y-8313240D02*
X9855220Y-8413240D01*
X9855220Y-8313240D02*
X9755220Y-8413240D01*
D13*
X3848960Y-3810000D02*
G75*
G02*
X3638960Y-3810000I-105000J0D01*
G01*
X3638960Y-3810000D02*
G75*
G02*
X3848960Y-3810000I105000J0D01*
G01*
X3859120Y-8001000D02*
G75*
G02*
X3649120Y-8001000I-105000J0D01*
G01*
X3649120Y-8001000D02*
G75*
G02*
X3859120Y-8001000I105000J0D01*
G01*
X10519000Y-6614160D02*
G75*
G02*
X10309000Y-6614160I-105000J0D01*
G01*
X10309000Y-6614160D02*
G75*
G02*
X10519000Y-6614160I105000J0D01*
G01*
X10798400Y-3937000D02*
G75*
G02*
X10588400Y-3937000I-105000J0D01*
G01*
X10588400Y-3937000D02*
G75*
G02*
X10798400Y-3937000I105000J0D01*
G01*
D11*
X3732997Y-9259864D02*
X3732997Y-9059864D01*
X3732997Y-9059864D02*
X3780616Y-9059864D01*
X3780616Y-9059864D02*
X3809187Y-9069388D01*
X3809187Y-9069388D02*
X3828235Y-9088435D01*
X3828235Y-9088435D02*
X3837759Y-9107483D01*
X3837759Y-9107483D02*
X3847282Y-9145578D01*
X3847282Y-9145578D02*
X3847282Y-9174150D01*
X3847282Y-9174150D02*
X3837759Y-9212245D01*
X3837759Y-9212245D02*
X3828235Y-9231292D01*
X3828235Y-9231292D02*
X3809187Y-9250340D01*
X3809187Y-9250340D02*
X3780616Y-9259864D01*
X3780616Y-9259864D02*
X3732997Y-9259864D01*
X3932997Y-9259864D02*
X3932997Y-9126530D01*
X3932997Y-9164626D02*
X3942521Y-9145578D01*
X3942521Y-9145578D02*
X3952044Y-9136054D01*
X3952044Y-9136054D02*
X3971092Y-9126530D01*
X3971092Y-9126530D02*
X3990140Y-9126530D01*
X4056806Y-9259864D02*
X4056806Y-9126530D01*
X4056806Y-9059864D02*
X4047282Y-9069388D01*
X4047282Y-9069388D02*
X4056806Y-9078911D01*
X4056806Y-9078911D02*
X4066330Y-9069388D01*
X4066330Y-9069388D02*
X4056806Y-9059864D01*
X4056806Y-9059864D02*
X4056806Y-9078911D01*
X4180616Y-9259864D02*
X4161568Y-9250340D01*
X4161568Y-9250340D02*
X4152044Y-9231292D01*
X4152044Y-9231292D02*
X4152044Y-9059864D01*
X4285378Y-9259864D02*
X4266330Y-9250340D01*
X4266330Y-9250340D02*
X4256806Y-9231292D01*
X4256806Y-9231292D02*
X4256806Y-9059864D01*
X4513949Y-9259864D02*
X4513949Y-9059864D01*
X4513949Y-9059864D02*
X4580616Y-9202721D01*
X4580616Y-9202721D02*
X4647283Y-9059864D01*
X4647283Y-9059864D02*
X4647283Y-9259864D01*
X4828235Y-9259864D02*
X4828235Y-9155102D01*
X4828235Y-9155102D02*
X4818711Y-9136054D01*
X4818711Y-9136054D02*
X4799664Y-9126530D01*
X4799664Y-9126530D02*
X4761568Y-9126530D01*
X4761568Y-9126530D02*
X4742521Y-9136054D01*
X4828235Y-9250340D02*
X4809187Y-9259864D01*
X4809187Y-9259864D02*
X4761568Y-9259864D01*
X4761568Y-9259864D02*
X4742521Y-9250340D01*
X4742521Y-9250340D02*
X4732997Y-9231292D01*
X4732997Y-9231292D02*
X4732997Y-9212245D01*
X4732997Y-9212245D02*
X4742521Y-9193197D01*
X4742521Y-9193197D02*
X4761568Y-9183673D01*
X4761568Y-9183673D02*
X4809187Y-9183673D01*
X4809187Y-9183673D02*
X4828235Y-9174150D01*
X4923473Y-9126530D02*
X4923473Y-9326530D01*
X4923473Y-9136054D02*
X4942521Y-9126530D01*
X4942521Y-9126530D02*
X4980616Y-9126530D01*
X4980616Y-9126530D02*
X4999664Y-9136054D01*
X4999664Y-9136054D02*
X5009187Y-9145578D01*
X5009187Y-9145578D02*
X5018711Y-9164626D01*
X5018711Y-9164626D02*
X5018711Y-9221769D01*
X5018711Y-9221769D02*
X5009187Y-9240816D01*
X5009187Y-9240816D02*
X4999664Y-9250340D01*
X4999664Y-9250340D02*
X4980616Y-9259864D01*
X4980616Y-9259864D02*
X4942521Y-9259864D01*
X4942521Y-9259864D02*
X4923473Y-9250340D01*
X5104425Y-9240816D02*
X5113949Y-9250340D01*
X5113949Y-9250340D02*
X5104425Y-9259864D01*
X5104425Y-9259864D02*
X5094902Y-9250340D01*
X5094902Y-9250340D02*
X5104425Y-9240816D01*
X5104425Y-9240816D02*
X5104425Y-9259864D01*
X5104425Y-9136054D02*
X5113949Y-9145578D01*
X5113949Y-9145578D02*
X5104425Y-9155102D01*
X5104425Y-9155102D02*
X5094902Y-9145578D01*
X5094902Y-9145578D02*
X5104425Y-9136054D01*
X5104425Y-9136054D02*
X5104425Y-9155102D01*
D12*
X3372220Y-9538380D02*
X3472220Y-9638380D01*
X3472220Y-9538380D02*
X3372220Y-9638380D01*
D11*
X3837759Y-9679864D02*
X3723473Y-9679864D01*
X3780616Y-9679864D02*
X3780616Y-9479864D01*
X3780616Y-9479864D02*
X3761568Y-9508435D01*
X3761568Y-9508435D02*
X3742521Y-9527483D01*
X3742521Y-9527483D02*
X3723473Y-9537007D01*
X3923473Y-9660816D02*
X3932997Y-9670340D01*
X3932997Y-9670340D02*
X3923473Y-9679864D01*
X3923473Y-9679864D02*
X3913949Y-9670340D01*
X3913949Y-9670340D02*
X3923473Y-9660816D01*
X3923473Y-9660816D02*
X3923473Y-9679864D01*
X4056806Y-9479864D02*
X4075854Y-9479864D01*
X4075854Y-9479864D02*
X4094902Y-9489388D01*
X4094902Y-9489388D02*
X4104425Y-9498911D01*
X4104425Y-9498911D02*
X4113949Y-9517959D01*
X4113949Y-9517959D02*
X4123473Y-9556054D01*
X4123473Y-9556054D02*
X4123473Y-9603673D01*
X4123473Y-9603673D02*
X4113949Y-9641769D01*
X4113949Y-9641769D02*
X4104425Y-9660816D01*
X4104425Y-9660816D02*
X4094902Y-9670340D01*
X4094902Y-9670340D02*
X4075854Y-9679864D01*
X4075854Y-9679864D02*
X4056806Y-9679864D01*
X4056806Y-9679864D02*
X4037759Y-9670340D01*
X4037759Y-9670340D02*
X4028235Y-9660816D01*
X4028235Y-9660816D02*
X4018711Y-9641769D01*
X4018711Y-9641769D02*
X4009187Y-9603673D01*
X4009187Y-9603673D02*
X4009187Y-9556054D01*
X4009187Y-9556054D02*
X4018711Y-9517959D01*
X4018711Y-9517959D02*
X4028235Y-9498911D01*
X4028235Y-9498911D02*
X4037759Y-9489388D01*
X4037759Y-9489388D02*
X4056806Y-9479864D01*
X4247283Y-9479864D02*
X4266330Y-9479864D01*
X4266330Y-9479864D02*
X4285378Y-9489388D01*
X4285378Y-9489388D02*
X4294902Y-9498911D01*
X4294902Y-9498911D02*
X4304425Y-9517959D01*
X4304425Y-9517959D02*
X4313949Y-9556054D01*
X4313949Y-9556054D02*
X4313949Y-9603673D01*
X4313949Y-9603673D02*
X4304425Y-9641769D01*
X4304425Y-9641769D02*
X4294902Y-9660816D01*
X4294902Y-9660816D02*
X4285378Y-9670340D01*
X4285378Y-9670340D02*
X4266330Y-9679864D01*
X4266330Y-9679864D02*
X4247283Y-9679864D01*
X4247283Y-9679864D02*
X4228235Y-9670340D01*
X4228235Y-9670340D02*
X4218711Y-9660816D01*
X4218711Y-9660816D02*
X4209187Y-9641769D01*
X4209187Y-9641769D02*
X4199664Y-9603673D01*
X4199664Y-9603673D02*
X4199664Y-9556054D01*
X4199664Y-9556054D02*
X4209187Y-9517959D01*
X4209187Y-9517959D02*
X4218711Y-9498911D01*
X4218711Y-9498911D02*
X4228235Y-9489388D01*
X4228235Y-9489388D02*
X4247283Y-9479864D01*
X4437759Y-9479864D02*
X4456806Y-9479864D01*
X4456806Y-9479864D02*
X4475854Y-9489388D01*
X4475854Y-9489388D02*
X4485378Y-9498911D01*
X4485378Y-9498911D02*
X4494902Y-9517959D01*
X4494902Y-9517959D02*
X4504425Y-9556054D01*
X4504425Y-9556054D02*
X4504425Y-9603673D01*
X4504425Y-9603673D02*
X4494902Y-9641769D01*
X4494902Y-9641769D02*
X4485378Y-9660816D01*
X4485378Y-9660816D02*
X4475854Y-9670340D01*
X4475854Y-9670340D02*
X4456806Y-9679864D01*
X4456806Y-9679864D02*
X4437759Y-9679864D01*
X4437759Y-9679864D02*
X4418711Y-9670340D01*
X4418711Y-9670340D02*
X4409187Y-9660816D01*
X4409187Y-9660816D02*
X4399664Y-9641769D01*
X4399664Y-9641769D02*
X4390140Y-9603673D01*
X4390140Y-9603673D02*
X4390140Y-9556054D01*
X4390140Y-9556054D02*
X4399664Y-9517959D01*
X4399664Y-9517959D02*
X4409187Y-9498911D01*
X4409187Y-9498911D02*
X4418711Y-9489388D01*
X4418711Y-9489388D02*
X4437759Y-9479864D01*
X4590140Y-9679864D02*
X4590140Y-9546530D01*
X4590140Y-9565578D02*
X4599664Y-9556054D01*
X4599664Y-9556054D02*
X4618711Y-9546530D01*
X4618711Y-9546530D02*
X4647283Y-9546530D01*
X4647283Y-9546530D02*
X4666330Y-9556054D01*
X4666330Y-9556054D02*
X4675854Y-9575102D01*
X4675854Y-9575102D02*
X4675854Y-9679864D01*
X4675854Y-9575102D02*
X4685378Y-9556054D01*
X4685378Y-9556054D02*
X4704425Y-9546530D01*
X4704425Y-9546530D02*
X4732997Y-9546530D01*
X4732997Y-9546530D02*
X4752045Y-9556054D01*
X4752045Y-9556054D02*
X4761568Y-9575102D01*
X4761568Y-9575102D02*
X4761568Y-9679864D01*
X4856806Y-9679864D02*
X4856806Y-9546530D01*
X4856806Y-9565578D02*
X4866330Y-9556054D01*
X4866330Y-9556054D02*
X4885378Y-9546530D01*
X4885378Y-9546530D02*
X4913949Y-9546530D01*
X4913949Y-9546530D02*
X4932997Y-9556054D01*
X4932997Y-9556054D02*
X4942521Y-9575102D01*
X4942521Y-9575102D02*
X4942521Y-9679864D01*
X4942521Y-9575102D02*
X4952045Y-9556054D01*
X4952045Y-9556054D02*
X4971092Y-9546530D01*
X4971092Y-9546530D02*
X4999664Y-9546530D01*
X4999664Y-9546530D02*
X5018711Y-9556054D01*
X5018711Y-9556054D02*
X5028235Y-9575102D01*
X5028235Y-9575102D02*
X5028235Y-9679864D01*
X5418711Y-9470340D02*
X5247283Y-9727483D01*
X5675854Y-9479864D02*
X5694902Y-9479864D01*
X5694902Y-9479864D02*
X5713949Y-9489388D01*
X5713949Y-9489388D02*
X5723473Y-9498911D01*
X5723473Y-9498911D02*
X5732997Y-9517959D01*
X5732997Y-9517959D02*
X5742521Y-9556054D01*
X5742521Y-9556054D02*
X5742521Y-9603673D01*
X5742521Y-9603673D02*
X5732997Y-9641769D01*
X5732997Y-9641769D02*
X5723473Y-9660816D01*
X5723473Y-9660816D02*
X5713949Y-9670340D01*
X5713949Y-9670340D02*
X5694902Y-9679864D01*
X5694902Y-9679864D02*
X5675854Y-9679864D01*
X5675854Y-9679864D02*
X5656806Y-9670340D01*
X5656806Y-9670340D02*
X5647283Y-9660816D01*
X5647283Y-9660816D02*
X5637759Y-9641769D01*
X5637759Y-9641769D02*
X5628235Y-9603673D01*
X5628235Y-9603673D02*
X5628235Y-9556054D01*
X5628235Y-9556054D02*
X5637759Y-9517959D01*
X5637759Y-9517959D02*
X5647283Y-9498911D01*
X5647283Y-9498911D02*
X5656806Y-9489388D01*
X5656806Y-9489388D02*
X5675854Y-9479864D01*
X5828235Y-9660816D02*
X5837759Y-9670340D01*
X5837759Y-9670340D02*
X5828235Y-9679864D01*
X5828235Y-9679864D02*
X5818711Y-9670340D01*
X5818711Y-9670340D02*
X5828235Y-9660816D01*
X5828235Y-9660816D02*
X5828235Y-9679864D01*
X5961568Y-9479864D02*
X5980616Y-9479864D01*
X5980616Y-9479864D02*
X5999664Y-9489388D01*
X5999664Y-9489388D02*
X6009187Y-9498911D01*
X6009187Y-9498911D02*
X6018711Y-9517959D01*
X6018711Y-9517959D02*
X6028235Y-9556054D01*
X6028235Y-9556054D02*
X6028235Y-9603673D01*
X6028235Y-9603673D02*
X6018711Y-9641769D01*
X6018711Y-9641769D02*
X6009187Y-9660816D01*
X6009187Y-9660816D02*
X5999664Y-9670340D01*
X5999664Y-9670340D02*
X5980616Y-9679864D01*
X5980616Y-9679864D02*
X5961568Y-9679864D01*
X5961568Y-9679864D02*
X5942521Y-9670340D01*
X5942521Y-9670340D02*
X5932997Y-9660816D01*
X5932997Y-9660816D02*
X5923473Y-9641769D01*
X5923473Y-9641769D02*
X5913949Y-9603673D01*
X5913949Y-9603673D02*
X5913949Y-9556054D01*
X5913949Y-9556054D02*
X5923473Y-9517959D01*
X5923473Y-9517959D02*
X5932997Y-9498911D01*
X5932997Y-9498911D02*
X5942521Y-9489388D01*
X5942521Y-9489388D02*
X5961568Y-9479864D01*
X6094902Y-9479864D02*
X6218711Y-9479864D01*
X6218711Y-9479864D02*
X6152045Y-9556054D01*
X6152045Y-9556054D02*
X6180616Y-9556054D01*
X6180616Y-9556054D02*
X6199664Y-9565578D01*
X6199664Y-9565578D02*
X6209187Y-9575102D01*
X6209187Y-9575102D02*
X6218711Y-9594150D01*
X6218711Y-9594150D02*
X6218711Y-9641769D01*
X6218711Y-9641769D02*
X6209187Y-9660816D01*
X6209187Y-9660816D02*
X6199664Y-9670340D01*
X6199664Y-9670340D02*
X6180616Y-9679864D01*
X6180616Y-9679864D02*
X6123473Y-9679864D01*
X6123473Y-9679864D02*
X6104426Y-9670340D01*
X6104426Y-9670340D02*
X6094902Y-9660816D01*
X6313949Y-9679864D02*
X6352045Y-9679864D01*
X6352045Y-9679864D02*
X6371092Y-9670340D01*
X6371092Y-9670340D02*
X6380616Y-9660816D01*
X6380616Y-9660816D02*
X6399664Y-9632245D01*
X6399664Y-9632245D02*
X6409187Y-9594150D01*
X6409187Y-9594150D02*
X6409187Y-9517959D01*
X6409187Y-9517959D02*
X6399664Y-9498911D01*
X6399664Y-9498911D02*
X6390140Y-9489388D01*
X6390140Y-9489388D02*
X6371092Y-9479864D01*
X6371092Y-9479864D02*
X6332997Y-9479864D01*
X6332997Y-9479864D02*
X6313949Y-9489388D01*
X6313949Y-9489388D02*
X6304426Y-9498911D01*
X6304426Y-9498911D02*
X6294902Y-9517959D01*
X6294902Y-9517959D02*
X6294902Y-9565578D01*
X6294902Y-9565578D02*
X6304426Y-9584626D01*
X6304426Y-9584626D02*
X6313949Y-9594150D01*
X6313949Y-9594150D02*
X6332997Y-9603673D01*
X6332997Y-9603673D02*
X6371092Y-9603673D01*
X6371092Y-9603673D02*
X6390140Y-9594150D01*
X6390140Y-9594150D02*
X6399664Y-9584626D01*
X6399664Y-9584626D02*
X6409187Y-9565578D01*
X6580616Y-9546530D02*
X6580616Y-9679864D01*
X6532997Y-9470340D02*
X6485378Y-9613197D01*
X6485378Y-9613197D02*
X6609187Y-9613197D01*
X6675854Y-9479864D02*
X6675854Y-9517959D01*
X6752045Y-9479864D02*
X6752045Y-9517959D01*
X7047283Y-9756054D02*
X7037759Y-9746530D01*
X7037759Y-9746530D02*
X7018711Y-9717959D01*
X7018711Y-9717959D02*
X7009188Y-9698911D01*
X7009188Y-9698911D02*
X6999664Y-9670340D01*
X6999664Y-9670340D02*
X6990140Y-9622721D01*
X6990140Y-9622721D02*
X6990140Y-9584626D01*
X6990140Y-9584626D02*
X6999664Y-9537007D01*
X6999664Y-9537007D02*
X7009188Y-9508435D01*
X7009188Y-9508435D02*
X7018711Y-9489388D01*
X7018711Y-9489388D02*
X7037759Y-9460816D01*
X7037759Y-9460816D02*
X7047283Y-9451292D01*
X7113949Y-9498911D02*
X7123473Y-9489388D01*
X7123473Y-9489388D02*
X7142521Y-9479864D01*
X7142521Y-9479864D02*
X7190140Y-9479864D01*
X7190140Y-9479864D02*
X7209188Y-9489388D01*
X7209188Y-9489388D02*
X7218711Y-9498911D01*
X7218711Y-9498911D02*
X7228235Y-9517959D01*
X7228235Y-9517959D02*
X7228235Y-9537007D01*
X7228235Y-9537007D02*
X7218711Y-9565578D01*
X7218711Y-9565578D02*
X7104426Y-9679864D01*
X7104426Y-9679864D02*
X7228235Y-9679864D01*
X7466330Y-9679864D02*
X7466330Y-9479864D01*
X7552045Y-9679864D02*
X7552045Y-9575102D01*
X7552045Y-9575102D02*
X7542521Y-9556054D01*
X7542521Y-9556054D02*
X7523473Y-9546530D01*
X7523473Y-9546530D02*
X7494902Y-9546530D01*
X7494902Y-9546530D02*
X7475854Y-9556054D01*
X7475854Y-9556054D02*
X7466330Y-9565578D01*
X7675854Y-9679864D02*
X7656807Y-9670340D01*
X7656807Y-9670340D02*
X7647283Y-9660816D01*
X7647283Y-9660816D02*
X7637759Y-9641769D01*
X7637759Y-9641769D02*
X7637759Y-9584626D01*
X7637759Y-9584626D02*
X7647283Y-9565578D01*
X7647283Y-9565578D02*
X7656807Y-9556054D01*
X7656807Y-9556054D02*
X7675854Y-9546530D01*
X7675854Y-9546530D02*
X7704426Y-9546530D01*
X7704426Y-9546530D02*
X7723473Y-9556054D01*
X7723473Y-9556054D02*
X7732997Y-9565578D01*
X7732997Y-9565578D02*
X7742521Y-9584626D01*
X7742521Y-9584626D02*
X7742521Y-9641769D01*
X7742521Y-9641769D02*
X7732997Y-9660816D01*
X7732997Y-9660816D02*
X7723473Y-9670340D01*
X7723473Y-9670340D02*
X7704426Y-9679864D01*
X7704426Y-9679864D02*
X7675854Y-9679864D01*
X7856807Y-9679864D02*
X7837759Y-9670340D01*
X7837759Y-9670340D02*
X7828235Y-9651292D01*
X7828235Y-9651292D02*
X7828235Y-9479864D01*
X8009188Y-9670340D02*
X7990140Y-9679864D01*
X7990140Y-9679864D02*
X7952045Y-9679864D01*
X7952045Y-9679864D02*
X7932997Y-9670340D01*
X7932997Y-9670340D02*
X7923473Y-9651292D01*
X7923473Y-9651292D02*
X7923473Y-9575102D01*
X7923473Y-9575102D02*
X7932997Y-9556054D01*
X7932997Y-9556054D02*
X7952045Y-9546530D01*
X7952045Y-9546530D02*
X7990140Y-9546530D01*
X7990140Y-9546530D02*
X8009188Y-9556054D01*
X8009188Y-9556054D02*
X8018711Y-9575102D01*
X8018711Y-9575102D02*
X8018711Y-9594150D01*
X8018711Y-9594150D02*
X7923473Y-9613197D01*
X8094902Y-9670340D02*
X8113950Y-9679864D01*
X8113950Y-9679864D02*
X8152045Y-9679864D01*
X8152045Y-9679864D02*
X8171092Y-9670340D01*
X8171092Y-9670340D02*
X8180616Y-9651292D01*
X8180616Y-9651292D02*
X8180616Y-9641769D01*
X8180616Y-9641769D02*
X8171092Y-9622721D01*
X8171092Y-9622721D02*
X8152045Y-9613197D01*
X8152045Y-9613197D02*
X8123473Y-9613197D01*
X8123473Y-9613197D02*
X8104426Y-9603673D01*
X8104426Y-9603673D02*
X8094902Y-9584626D01*
X8094902Y-9584626D02*
X8094902Y-9575102D01*
X8094902Y-9575102D02*
X8104426Y-9556054D01*
X8104426Y-9556054D02*
X8123473Y-9546530D01*
X8123473Y-9546530D02*
X8152045Y-9546530D01*
X8152045Y-9546530D02*
X8171092Y-9556054D01*
X8247283Y-9756054D02*
X8256807Y-9746530D01*
X8256807Y-9746530D02*
X8275854Y-9717959D01*
X8275854Y-9717959D02*
X8285378Y-9698911D01*
X8285378Y-9698911D02*
X8294902Y-9670340D01*
X8294902Y-9670340D02*
X8304426Y-9622721D01*
X8304426Y-9622721D02*
X8304426Y-9584626D01*
X8304426Y-9584626D02*
X8294902Y-9537007D01*
X8294902Y-9537007D02*
X8285378Y-9508435D01*
X8285378Y-9508435D02*
X8275854Y-9489388D01*
X8275854Y-9489388D02*
X8256807Y-9460816D01*
X8256807Y-9460816D02*
X8247283Y-9451292D01*
X8609188Y-9756054D02*
X8599664Y-9746530D01*
X8599664Y-9746530D02*
X8580616Y-9717959D01*
X8580616Y-9717959D02*
X8571093Y-9698911D01*
X8571093Y-9698911D02*
X8561569Y-9670340D01*
X8561569Y-9670340D02*
X8552045Y-9622721D01*
X8552045Y-9622721D02*
X8552045Y-9584626D01*
X8552045Y-9584626D02*
X8561569Y-9537007D01*
X8561569Y-9537007D02*
X8571093Y-9508435D01*
X8571093Y-9508435D02*
X8580616Y-9489388D01*
X8580616Y-9489388D02*
X8599664Y-9460816D01*
X8599664Y-9460816D02*
X8609188Y-9451292D01*
X8685378Y-9546530D02*
X8685378Y-9679864D01*
X8685378Y-9565578D02*
X8694902Y-9556054D01*
X8694902Y-9556054D02*
X8713950Y-9546530D01*
X8713950Y-9546530D02*
X8742521Y-9546530D01*
X8742521Y-9546530D02*
X8761569Y-9556054D01*
X8761569Y-9556054D02*
X8771093Y-9575102D01*
X8771093Y-9575102D02*
X8771093Y-9679864D01*
X8894902Y-9679864D02*
X8875854Y-9670340D01*
X8875854Y-9670340D02*
X8866331Y-9660816D01*
X8866331Y-9660816D02*
X8856807Y-9641769D01*
X8856807Y-9641769D02*
X8856807Y-9584626D01*
X8856807Y-9584626D02*
X8866331Y-9565578D01*
X8866331Y-9565578D02*
X8875854Y-9556054D01*
X8875854Y-9556054D02*
X8894902Y-9546530D01*
X8894902Y-9546530D02*
X8923474Y-9546530D01*
X8923474Y-9546530D02*
X8942521Y-9556054D01*
X8942521Y-9556054D02*
X8952045Y-9565578D01*
X8952045Y-9565578D02*
X8961569Y-9584626D01*
X8961569Y-9584626D02*
X8961569Y-9641769D01*
X8961569Y-9641769D02*
X8952045Y-9660816D01*
X8952045Y-9660816D02*
X8942521Y-9670340D01*
X8942521Y-9670340D02*
X8923474Y-9679864D01*
X8923474Y-9679864D02*
X8894902Y-9679864D01*
X9018712Y-9546530D02*
X9094902Y-9546530D01*
X9047283Y-9479864D02*
X9047283Y-9651292D01*
X9047283Y-9651292D02*
X9056807Y-9670340D01*
X9056807Y-9670340D02*
X9075854Y-9679864D01*
X9075854Y-9679864D02*
X9094902Y-9679864D01*
X9313950Y-9546530D02*
X9313950Y-9746530D01*
X9313950Y-9556054D02*
X9332997Y-9546530D01*
X9332997Y-9546530D02*
X9371093Y-9546530D01*
X9371093Y-9546530D02*
X9390140Y-9556054D01*
X9390140Y-9556054D02*
X9399664Y-9565578D01*
X9399664Y-9565578D02*
X9409188Y-9584626D01*
X9409188Y-9584626D02*
X9409188Y-9641769D01*
X9409188Y-9641769D02*
X9399664Y-9660816D01*
X9399664Y-9660816D02*
X9390140Y-9670340D01*
X9390140Y-9670340D02*
X9371093Y-9679864D01*
X9371093Y-9679864D02*
X9332997Y-9679864D01*
X9332997Y-9679864D02*
X9313950Y-9670340D01*
X9523474Y-9679864D02*
X9504426Y-9670340D01*
X9504426Y-9670340D02*
X9494902Y-9651292D01*
X9494902Y-9651292D02*
X9494902Y-9479864D01*
X9685378Y-9679864D02*
X9685378Y-9575102D01*
X9685378Y-9575102D02*
X9675855Y-9556054D01*
X9675855Y-9556054D02*
X9656807Y-9546530D01*
X9656807Y-9546530D02*
X9618712Y-9546530D01*
X9618712Y-9546530D02*
X9599664Y-9556054D01*
X9685378Y-9670340D02*
X9666331Y-9679864D01*
X9666331Y-9679864D02*
X9618712Y-9679864D01*
X9618712Y-9679864D02*
X9599664Y-9670340D01*
X9599664Y-9670340D02*
X9590140Y-9651292D01*
X9590140Y-9651292D02*
X9590140Y-9632245D01*
X9590140Y-9632245D02*
X9599664Y-9613197D01*
X9599664Y-9613197D02*
X9618712Y-9603673D01*
X9618712Y-9603673D02*
X9666331Y-9603673D01*
X9666331Y-9603673D02*
X9685378Y-9594150D01*
X9752045Y-9546530D02*
X9828235Y-9546530D01*
X9780616Y-9479864D02*
X9780616Y-9651292D01*
X9780616Y-9651292D02*
X9790140Y-9670340D01*
X9790140Y-9670340D02*
X9809188Y-9679864D01*
X9809188Y-9679864D02*
X9828235Y-9679864D01*
X9971093Y-9670340D02*
X9952045Y-9679864D01*
X9952045Y-9679864D02*
X9913950Y-9679864D01*
X9913950Y-9679864D02*
X9894902Y-9670340D01*
X9894902Y-9670340D02*
X9885378Y-9651292D01*
X9885378Y-9651292D02*
X9885378Y-9575102D01*
X9885378Y-9575102D02*
X9894902Y-9556054D01*
X9894902Y-9556054D02*
X9913950Y-9546530D01*
X9913950Y-9546530D02*
X9952045Y-9546530D01*
X9952045Y-9546530D02*
X9971093Y-9556054D01*
X9971093Y-9556054D02*
X9980616Y-9575102D01*
X9980616Y-9575102D02*
X9980616Y-9594150D01*
X9980616Y-9594150D02*
X9885378Y-9613197D01*
X10152045Y-9679864D02*
X10152045Y-9479864D01*
X10152045Y-9670340D02*
X10132997Y-9679864D01*
X10132997Y-9679864D02*
X10094902Y-9679864D01*
X10094902Y-9679864D02*
X10075855Y-9670340D01*
X10075855Y-9670340D02*
X10066331Y-9660816D01*
X10066331Y-9660816D02*
X10056807Y-9641769D01*
X10056807Y-9641769D02*
X10056807Y-9584626D01*
X10056807Y-9584626D02*
X10066331Y-9565578D01*
X10066331Y-9565578D02*
X10075855Y-9556054D01*
X10075855Y-9556054D02*
X10094902Y-9546530D01*
X10094902Y-9546530D02*
X10132997Y-9546530D01*
X10132997Y-9546530D02*
X10152045Y-9556054D01*
X10228236Y-9756054D02*
X10237759Y-9746530D01*
X10237759Y-9746530D02*
X10256807Y-9717959D01*
X10256807Y-9717959D02*
X10266331Y-9698911D01*
X10266331Y-9698911D02*
X10275855Y-9670340D01*
X10275855Y-9670340D02*
X10285378Y-9622721D01*
X10285378Y-9622721D02*
X10285378Y-9584626D01*
X10285378Y-9584626D02*
X10275855Y-9537007D01*
X10275855Y-9537007D02*
X10266331Y-9508435D01*
X10266331Y-9508435D02*
X10256807Y-9489388D01*
X10256807Y-9489388D02*
X10237759Y-9460816D01*
X10237759Y-9460816D02*
X10228236Y-9451292D01*
X3472220Y-9852380D02*
G75*
G02*
X3272220Y-9852380I-100000J0D01*
G01*
X3272220Y-9852380D02*
G75*
G02*
X3472220Y-9852380I100000J0D01*
G01*
X3723473Y-9762911D02*
X3732997Y-9753388D01*
X3732997Y-9753388D02*
X3752044Y-9743864D01*
X3752044Y-9743864D02*
X3799663Y-9743864D01*
X3799663Y-9743864D02*
X3818711Y-9753388D01*
X3818711Y-9753388D02*
X3828235Y-9762911D01*
X3828235Y-9762911D02*
X3837759Y-9781959D01*
X3837759Y-9781959D02*
X3837759Y-9801007D01*
X3837759Y-9801007D02*
X3828235Y-9829578D01*
X3828235Y-9829578D02*
X3713949Y-9943864D01*
X3713949Y-9943864D02*
X3837759Y-9943864D01*
X3923473Y-9924816D02*
X3932997Y-9934340D01*
X3932997Y-9934340D02*
X3923473Y-9943864D01*
X3923473Y-9943864D02*
X3913949Y-9934340D01*
X3913949Y-9934340D02*
X3923473Y-9924816D01*
X3923473Y-9924816D02*
X3923473Y-9943864D01*
X4123473Y-9943864D02*
X4009187Y-9943864D01*
X4066330Y-9943864D02*
X4066330Y-9743864D01*
X4066330Y-9743864D02*
X4047282Y-9772435D01*
X4047282Y-9772435D02*
X4028235Y-9791483D01*
X4028235Y-9791483D02*
X4009187Y-9801007D01*
X4247283Y-9743864D02*
X4266330Y-9743864D01*
X4266330Y-9743864D02*
X4285378Y-9753388D01*
X4285378Y-9753388D02*
X4294902Y-9762911D01*
X4294902Y-9762911D02*
X4304425Y-9781959D01*
X4304425Y-9781959D02*
X4313949Y-9820054D01*
X4313949Y-9820054D02*
X4313949Y-9867673D01*
X4313949Y-9867673D02*
X4304425Y-9905769D01*
X4304425Y-9905769D02*
X4294902Y-9924816D01*
X4294902Y-9924816D02*
X4285378Y-9934340D01*
X4285378Y-9934340D02*
X4266330Y-9943864D01*
X4266330Y-9943864D02*
X4247283Y-9943864D01*
X4247283Y-9943864D02*
X4228235Y-9934340D01*
X4228235Y-9934340D02*
X4218711Y-9924816D01*
X4218711Y-9924816D02*
X4209187Y-9905769D01*
X4209187Y-9905769D02*
X4199664Y-9867673D01*
X4199664Y-9867673D02*
X4199664Y-9820054D01*
X4199664Y-9820054D02*
X4209187Y-9781959D01*
X4209187Y-9781959D02*
X4218711Y-9762911D01*
X4218711Y-9762911D02*
X4228235Y-9753388D01*
X4228235Y-9753388D02*
X4247283Y-9743864D01*
X4437759Y-9743864D02*
X4456806Y-9743864D01*
X4456806Y-9743864D02*
X4475854Y-9753388D01*
X4475854Y-9753388D02*
X4485378Y-9762911D01*
X4485378Y-9762911D02*
X4494902Y-9781959D01*
X4494902Y-9781959D02*
X4504425Y-9820054D01*
X4504425Y-9820054D02*
X4504425Y-9867673D01*
X4504425Y-9867673D02*
X4494902Y-9905769D01*
X4494902Y-9905769D02*
X4485378Y-9924816D01*
X4485378Y-9924816D02*
X4475854Y-9934340D01*
X4475854Y-9934340D02*
X4456806Y-9943864D01*
X4456806Y-9943864D02*
X4437759Y-9943864D01*
X4437759Y-9943864D02*
X4418711Y-9934340D01*
X4418711Y-9934340D02*
X4409187Y-9924816D01*
X4409187Y-9924816D02*
X4399664Y-9905769D01*
X4399664Y-9905769D02*
X4390140Y-9867673D01*
X4390140Y-9867673D02*
X4390140Y-9820054D01*
X4390140Y-9820054D02*
X4399664Y-9781959D01*
X4399664Y-9781959D02*
X4409187Y-9762911D01*
X4409187Y-9762911D02*
X4418711Y-9753388D01*
X4418711Y-9753388D02*
X4437759Y-9743864D01*
X4590140Y-9943864D02*
X4590140Y-9810530D01*
X4590140Y-9829578D02*
X4599664Y-9820054D01*
X4599664Y-9820054D02*
X4618711Y-9810530D01*
X4618711Y-9810530D02*
X4647283Y-9810530D01*
X4647283Y-9810530D02*
X4666330Y-9820054D01*
X4666330Y-9820054D02*
X4675854Y-9839102D01*
X4675854Y-9839102D02*
X4675854Y-9943864D01*
X4675854Y-9839102D02*
X4685378Y-9820054D01*
X4685378Y-9820054D02*
X4704425Y-9810530D01*
X4704425Y-9810530D02*
X4732997Y-9810530D01*
X4732997Y-9810530D02*
X4752045Y-9820054D01*
X4752045Y-9820054D02*
X4761568Y-9839102D01*
X4761568Y-9839102D02*
X4761568Y-9943864D01*
X4856806Y-9943864D02*
X4856806Y-9810530D01*
X4856806Y-9829578D02*
X4866330Y-9820054D01*
X4866330Y-9820054D02*
X4885378Y-9810530D01*
X4885378Y-9810530D02*
X4913949Y-9810530D01*
X4913949Y-9810530D02*
X4932997Y-9820054D01*
X4932997Y-9820054D02*
X4942521Y-9839102D01*
X4942521Y-9839102D02*
X4942521Y-9943864D01*
X4942521Y-9839102D02*
X4952045Y-9820054D01*
X4952045Y-9820054D02*
X4971092Y-9810530D01*
X4971092Y-9810530D02*
X4999664Y-9810530D01*
X4999664Y-9810530D02*
X5018711Y-9820054D01*
X5018711Y-9820054D02*
X5028235Y-9839102D01*
X5028235Y-9839102D02*
X5028235Y-9943864D01*
X5418711Y-9734340D02*
X5247283Y-9991483D01*
X5675854Y-9743864D02*
X5694902Y-9743864D01*
X5694902Y-9743864D02*
X5713949Y-9753388D01*
X5713949Y-9753388D02*
X5723473Y-9762911D01*
X5723473Y-9762911D02*
X5732997Y-9781959D01*
X5732997Y-9781959D02*
X5742521Y-9820054D01*
X5742521Y-9820054D02*
X5742521Y-9867673D01*
X5742521Y-9867673D02*
X5732997Y-9905769D01*
X5732997Y-9905769D02*
X5723473Y-9924816D01*
X5723473Y-9924816D02*
X5713949Y-9934340D01*
X5713949Y-9934340D02*
X5694902Y-9943864D01*
X5694902Y-9943864D02*
X5675854Y-9943864D01*
X5675854Y-9943864D02*
X5656806Y-9934340D01*
X5656806Y-9934340D02*
X5647283Y-9924816D01*
X5647283Y-9924816D02*
X5637759Y-9905769D01*
X5637759Y-9905769D02*
X5628235Y-9867673D01*
X5628235Y-9867673D02*
X5628235Y-9820054D01*
X5628235Y-9820054D02*
X5637759Y-9781959D01*
X5637759Y-9781959D02*
X5647283Y-9762911D01*
X5647283Y-9762911D02*
X5656806Y-9753388D01*
X5656806Y-9753388D02*
X5675854Y-9743864D01*
X5828235Y-9924816D02*
X5837759Y-9934340D01*
X5837759Y-9934340D02*
X5828235Y-9943864D01*
X5828235Y-9943864D02*
X5818711Y-9934340D01*
X5818711Y-9934340D02*
X5828235Y-9924816D01*
X5828235Y-9924816D02*
X5828235Y-9943864D01*
X5961568Y-9743864D02*
X5980616Y-9743864D01*
X5980616Y-9743864D02*
X5999664Y-9753388D01*
X5999664Y-9753388D02*
X6009187Y-9762911D01*
X6009187Y-9762911D02*
X6018711Y-9781959D01*
X6018711Y-9781959D02*
X6028235Y-9820054D01*
X6028235Y-9820054D02*
X6028235Y-9867673D01*
X6028235Y-9867673D02*
X6018711Y-9905769D01*
X6018711Y-9905769D02*
X6009187Y-9924816D01*
X6009187Y-9924816D02*
X5999664Y-9934340D01*
X5999664Y-9934340D02*
X5980616Y-9943864D01*
X5980616Y-9943864D02*
X5961568Y-9943864D01*
X5961568Y-9943864D02*
X5942521Y-9934340D01*
X5942521Y-9934340D02*
X5932997Y-9924816D01*
X5932997Y-9924816D02*
X5923473Y-9905769D01*
X5923473Y-9905769D02*
X5913949Y-9867673D01*
X5913949Y-9867673D02*
X5913949Y-9820054D01*
X5913949Y-9820054D02*
X5923473Y-9781959D01*
X5923473Y-9781959D02*
X5932997Y-9762911D01*
X5932997Y-9762911D02*
X5942521Y-9753388D01*
X5942521Y-9753388D02*
X5961568Y-9743864D01*
X6142521Y-9829578D02*
X6123473Y-9820054D01*
X6123473Y-9820054D02*
X6113949Y-9810530D01*
X6113949Y-9810530D02*
X6104426Y-9791483D01*
X6104426Y-9791483D02*
X6104426Y-9781959D01*
X6104426Y-9781959D02*
X6113949Y-9762911D01*
X6113949Y-9762911D02*
X6123473Y-9753388D01*
X6123473Y-9753388D02*
X6142521Y-9743864D01*
X6142521Y-9743864D02*
X6180616Y-9743864D01*
X6180616Y-9743864D02*
X6199664Y-9753388D01*
X6199664Y-9753388D02*
X6209187Y-9762911D01*
X6209187Y-9762911D02*
X6218711Y-9781959D01*
X6218711Y-9781959D02*
X6218711Y-9791483D01*
X6218711Y-9791483D02*
X6209187Y-9810530D01*
X6209187Y-9810530D02*
X6199664Y-9820054D01*
X6199664Y-9820054D02*
X6180616Y-9829578D01*
X6180616Y-9829578D02*
X6142521Y-9829578D01*
X6142521Y-9829578D02*
X6123473Y-9839102D01*
X6123473Y-9839102D02*
X6113949Y-9848626D01*
X6113949Y-9848626D02*
X6104426Y-9867673D01*
X6104426Y-9867673D02*
X6104426Y-9905769D01*
X6104426Y-9905769D02*
X6113949Y-9924816D01*
X6113949Y-9924816D02*
X6123473Y-9934340D01*
X6123473Y-9934340D02*
X6142521Y-9943864D01*
X6142521Y-9943864D02*
X6180616Y-9943864D01*
X6180616Y-9943864D02*
X6199664Y-9934340D01*
X6199664Y-9934340D02*
X6209187Y-9924816D01*
X6209187Y-9924816D02*
X6218711Y-9905769D01*
X6218711Y-9905769D02*
X6218711Y-9867673D01*
X6218711Y-9867673D02*
X6209187Y-9848626D01*
X6209187Y-9848626D02*
X6199664Y-9839102D01*
X6199664Y-9839102D02*
X6180616Y-9829578D01*
X6294902Y-9762911D02*
X6304426Y-9753388D01*
X6304426Y-9753388D02*
X6323473Y-9743864D01*
X6323473Y-9743864D02*
X6371092Y-9743864D01*
X6371092Y-9743864D02*
X6390140Y-9753388D01*
X6390140Y-9753388D02*
X6399664Y-9762911D01*
X6399664Y-9762911D02*
X6409187Y-9781959D01*
X6409187Y-9781959D02*
X6409187Y-9801007D01*
X6409187Y-9801007D02*
X6399664Y-9829578D01*
X6399664Y-9829578D02*
X6285378Y-9943864D01*
X6285378Y-9943864D02*
X6409187Y-9943864D01*
X6475854Y-9743864D02*
X6609187Y-9743864D01*
X6609187Y-9743864D02*
X6523473Y-9943864D01*
X6675854Y-9743864D02*
X6675854Y-9781959D01*
X6752045Y-9743864D02*
X6752045Y-9781959D01*
X7047283Y-10020054D02*
X7037759Y-10010530D01*
X7037759Y-10010530D02*
X7018711Y-9981959D01*
X7018711Y-9981959D02*
X7009188Y-9962911D01*
X7009188Y-9962911D02*
X6999664Y-9934340D01*
X6999664Y-9934340D02*
X6990140Y-9886721D01*
X6990140Y-9886721D02*
X6990140Y-9848626D01*
X6990140Y-9848626D02*
X6999664Y-9801007D01*
X6999664Y-9801007D02*
X7009188Y-9772435D01*
X7009188Y-9772435D02*
X7018711Y-9753388D01*
X7018711Y-9753388D02*
X7037759Y-9724816D01*
X7037759Y-9724816D02*
X7047283Y-9715292D01*
X7209188Y-9810530D02*
X7209188Y-9943864D01*
X7161568Y-9734340D02*
X7113949Y-9877197D01*
X7113949Y-9877197D02*
X7237759Y-9877197D01*
X7466330Y-9943864D02*
X7466330Y-9743864D01*
X7552045Y-9943864D02*
X7552045Y-9839102D01*
X7552045Y-9839102D02*
X7542521Y-9820054D01*
X7542521Y-9820054D02*
X7523473Y-9810530D01*
X7523473Y-9810530D02*
X7494902Y-9810530D01*
X7494902Y-9810530D02*
X7475854Y-9820054D01*
X7475854Y-9820054D02*
X7466330Y-9829578D01*
X7675854Y-9943864D02*
X7656807Y-9934340D01*
X7656807Y-9934340D02*
X7647283Y-9924816D01*
X7647283Y-9924816D02*
X7637759Y-9905769D01*
X7637759Y-9905769D02*
X7637759Y-9848626D01*
X7637759Y-9848626D02*
X7647283Y-9829578D01*
X7647283Y-9829578D02*
X7656807Y-9820054D01*
X7656807Y-9820054D02*
X7675854Y-9810530D01*
X7675854Y-9810530D02*
X7704426Y-9810530D01*
X7704426Y-9810530D02*
X7723473Y-9820054D01*
X7723473Y-9820054D02*
X7732997Y-9829578D01*
X7732997Y-9829578D02*
X7742521Y-9848626D01*
X7742521Y-9848626D02*
X7742521Y-9905769D01*
X7742521Y-9905769D02*
X7732997Y-9924816D01*
X7732997Y-9924816D02*
X7723473Y-9934340D01*
X7723473Y-9934340D02*
X7704426Y-9943864D01*
X7704426Y-9943864D02*
X7675854Y-9943864D01*
X7856807Y-9943864D02*
X7837759Y-9934340D01*
X7837759Y-9934340D02*
X7828235Y-9915292D01*
X7828235Y-9915292D02*
X7828235Y-9743864D01*
X8009188Y-9934340D02*
X7990140Y-9943864D01*
X7990140Y-9943864D02*
X7952045Y-9943864D01*
X7952045Y-9943864D02*
X7932997Y-9934340D01*
X7932997Y-9934340D02*
X7923473Y-9915292D01*
X7923473Y-9915292D02*
X7923473Y-9839102D01*
X7923473Y-9839102D02*
X7932997Y-9820054D01*
X7932997Y-9820054D02*
X7952045Y-9810530D01*
X7952045Y-9810530D02*
X7990140Y-9810530D01*
X7990140Y-9810530D02*
X8009188Y-9820054D01*
X8009188Y-9820054D02*
X8018711Y-9839102D01*
X8018711Y-9839102D02*
X8018711Y-9858150D01*
X8018711Y-9858150D02*
X7923473Y-9877197D01*
X8094902Y-9934340D02*
X8113950Y-9943864D01*
X8113950Y-9943864D02*
X8152045Y-9943864D01*
X8152045Y-9943864D02*
X8171092Y-9934340D01*
X8171092Y-9934340D02*
X8180616Y-9915292D01*
X8180616Y-9915292D02*
X8180616Y-9905769D01*
X8180616Y-9905769D02*
X8171092Y-9886721D01*
X8171092Y-9886721D02*
X8152045Y-9877197D01*
X8152045Y-9877197D02*
X8123473Y-9877197D01*
X8123473Y-9877197D02*
X8104426Y-9867673D01*
X8104426Y-9867673D02*
X8094902Y-9848626D01*
X8094902Y-9848626D02*
X8094902Y-9839102D01*
X8094902Y-9839102D02*
X8104426Y-9820054D01*
X8104426Y-9820054D02*
X8123473Y-9810530D01*
X8123473Y-9810530D02*
X8152045Y-9810530D01*
X8152045Y-9810530D02*
X8171092Y-9820054D01*
X8247283Y-10020054D02*
X8256807Y-10010530D01*
X8256807Y-10010530D02*
X8275854Y-9981959D01*
X8275854Y-9981959D02*
X8285378Y-9962911D01*
X8285378Y-9962911D02*
X8294902Y-9934340D01*
X8294902Y-9934340D02*
X8304426Y-9886721D01*
X8304426Y-9886721D02*
X8304426Y-9848626D01*
X8304426Y-9848626D02*
X8294902Y-9801007D01*
X8294902Y-9801007D02*
X8285378Y-9772435D01*
X8285378Y-9772435D02*
X8275854Y-9753388D01*
X8275854Y-9753388D02*
X8256807Y-9724816D01*
X8256807Y-9724816D02*
X8247283Y-9715292D01*
X8609188Y-10020054D02*
X8599664Y-10010530D01*
X8599664Y-10010530D02*
X8580616Y-9981959D01*
X8580616Y-9981959D02*
X8571093Y-9962911D01*
X8571093Y-9962911D02*
X8561569Y-9934340D01*
X8561569Y-9934340D02*
X8552045Y-9886721D01*
X8552045Y-9886721D02*
X8552045Y-9848626D01*
X8552045Y-9848626D02*
X8561569Y-9801007D01*
X8561569Y-9801007D02*
X8571093Y-9772435D01*
X8571093Y-9772435D02*
X8580616Y-9753388D01*
X8580616Y-9753388D02*
X8599664Y-9724816D01*
X8599664Y-9724816D02*
X8609188Y-9715292D01*
X8685378Y-9810530D02*
X8685378Y-9943864D01*
X8685378Y-9829578D02*
X8694902Y-9820054D01*
X8694902Y-9820054D02*
X8713950Y-9810530D01*
X8713950Y-9810530D02*
X8742521Y-9810530D01*
X8742521Y-9810530D02*
X8761569Y-9820054D01*
X8761569Y-9820054D02*
X8771093Y-9839102D01*
X8771093Y-9839102D02*
X8771093Y-9943864D01*
X8894902Y-9943864D02*
X8875854Y-9934340D01*
X8875854Y-9934340D02*
X8866331Y-9924816D01*
X8866331Y-9924816D02*
X8856807Y-9905769D01*
X8856807Y-9905769D02*
X8856807Y-9848626D01*
X8856807Y-9848626D02*
X8866331Y-9829578D01*
X8866331Y-9829578D02*
X8875854Y-9820054D01*
X8875854Y-9820054D02*
X8894902Y-9810530D01*
X8894902Y-9810530D02*
X8923474Y-9810530D01*
X8923474Y-9810530D02*
X8942521Y-9820054D01*
X8942521Y-9820054D02*
X8952045Y-9829578D01*
X8952045Y-9829578D02*
X8961569Y-9848626D01*
X8961569Y-9848626D02*
X8961569Y-9905769D01*
X8961569Y-9905769D02*
X8952045Y-9924816D01*
X8952045Y-9924816D02*
X8942521Y-9934340D01*
X8942521Y-9934340D02*
X8923474Y-9943864D01*
X8923474Y-9943864D02*
X8894902Y-9943864D01*
X9018712Y-9810530D02*
X9094902Y-9810530D01*
X9047283Y-9743864D02*
X9047283Y-9915292D01*
X9047283Y-9915292D02*
X9056807Y-9934340D01*
X9056807Y-9934340D02*
X9075854Y-9943864D01*
X9075854Y-9943864D02*
X9094902Y-9943864D01*
X9313950Y-9810530D02*
X9313950Y-10010530D01*
X9313950Y-9820054D02*
X9332997Y-9810530D01*
X9332997Y-9810530D02*
X9371093Y-9810530D01*
X9371093Y-9810530D02*
X9390140Y-9820054D01*
X9390140Y-9820054D02*
X9399664Y-9829578D01*
X9399664Y-9829578D02*
X9409188Y-9848626D01*
X9409188Y-9848626D02*
X9409188Y-9905769D01*
X9409188Y-9905769D02*
X9399664Y-9924816D01*
X9399664Y-9924816D02*
X9390140Y-9934340D01*
X9390140Y-9934340D02*
X9371093Y-9943864D01*
X9371093Y-9943864D02*
X9332997Y-9943864D01*
X9332997Y-9943864D02*
X9313950Y-9934340D01*
X9523474Y-9943864D02*
X9504426Y-9934340D01*
X9504426Y-9934340D02*
X9494902Y-9915292D01*
X9494902Y-9915292D02*
X9494902Y-9743864D01*
X9685378Y-9943864D02*
X9685378Y-9839102D01*
X9685378Y-9839102D02*
X9675855Y-9820054D01*
X9675855Y-9820054D02*
X9656807Y-9810530D01*
X9656807Y-9810530D02*
X9618712Y-9810530D01*
X9618712Y-9810530D02*
X9599664Y-9820054D01*
X9685378Y-9934340D02*
X9666331Y-9943864D01*
X9666331Y-9943864D02*
X9618712Y-9943864D01*
X9618712Y-9943864D02*
X9599664Y-9934340D01*
X9599664Y-9934340D02*
X9590140Y-9915292D01*
X9590140Y-9915292D02*
X9590140Y-9896245D01*
X9590140Y-9896245D02*
X9599664Y-9877197D01*
X9599664Y-9877197D02*
X9618712Y-9867673D01*
X9618712Y-9867673D02*
X9666331Y-9867673D01*
X9666331Y-9867673D02*
X9685378Y-9858150D01*
X9752045Y-9810530D02*
X9828235Y-9810530D01*
X9780616Y-9743864D02*
X9780616Y-9915292D01*
X9780616Y-9915292D02*
X9790140Y-9934340D01*
X9790140Y-9934340D02*
X9809188Y-9943864D01*
X9809188Y-9943864D02*
X9828235Y-9943864D01*
X9971093Y-9934340D02*
X9952045Y-9943864D01*
X9952045Y-9943864D02*
X9913950Y-9943864D01*
X9913950Y-9943864D02*
X9894902Y-9934340D01*
X9894902Y-9934340D02*
X9885378Y-9915292D01*
X9885378Y-9915292D02*
X9885378Y-9839102D01*
X9885378Y-9839102D02*
X9894902Y-9820054D01*
X9894902Y-9820054D02*
X9913950Y-9810530D01*
X9913950Y-9810530D02*
X9952045Y-9810530D01*
X9952045Y-9810530D02*
X9971093Y-9820054D01*
X9971093Y-9820054D02*
X9980616Y-9839102D01*
X9980616Y-9839102D02*
X9980616Y-9858150D01*
X9980616Y-9858150D02*
X9885378Y-9877197D01*
X10152045Y-9943864D02*
X10152045Y-9743864D01*
X10152045Y-9934340D02*
X10132997Y-9943864D01*
X10132997Y-9943864D02*
X10094902Y-9943864D01*
X10094902Y-9943864D02*
X10075855Y-9934340D01*
X10075855Y-9934340D02*
X10066331Y-9924816D01*
X10066331Y-9924816D02*
X10056807Y-9905769D01*
X10056807Y-9905769D02*
X10056807Y-9848626D01*
X10056807Y-9848626D02*
X10066331Y-9829578D01*
X10066331Y-9829578D02*
X10075855Y-9820054D01*
X10075855Y-9820054D02*
X10094902Y-9810530D01*
X10094902Y-9810530D02*
X10132997Y-9810530D01*
X10132997Y-9810530D02*
X10152045Y-9820054D01*
X10228236Y-10020054D02*
X10237759Y-10010530D01*
X10237759Y-10010530D02*
X10256807Y-9981959D01*
X10256807Y-9981959D02*
X10266331Y-9962911D01*
X10266331Y-9962911D02*
X10275855Y-9934340D01*
X10275855Y-9934340D02*
X10285378Y-9886721D01*
X10285378Y-9886721D02*
X10285378Y-9848626D01*
X10285378Y-9848626D02*
X10275855Y-9801007D01*
X10275855Y-9801007D02*
X10266331Y-9772435D01*
X10266331Y-9772435D02*
X10256807Y-9753388D01*
X10256807Y-9753388D02*
X10237759Y-9724816D01*
X10237759Y-9724816D02*
X10228236Y-9715292D01*
M02*
