%TF.GenerationSoftware,KiCad,Pcbnew,8.0.5*%
%TF.CreationDate,2024-11-03T18:03:45-05:00*%
%TF.ProjectId,emerald_pcb,656d6572-616c-4645-9f70-63622e6b6963,rev?*%
%TF.SameCoordinates,Original*%
%TF.FileFunction,Soldermask,Top*%
%TF.FilePolarity,Negative*%
%FSLAX46Y46*%
G04 Gerber Fmt 4.6, Leading zero omitted, Abs format (unit mm)*
G04 Created by KiCad (PCBNEW 8.0.5) date 2024-11-03 18:03:45*
%MOMM*%
%LPD*%
G01*
G04 APERTURE LIST*
G04 Aperture macros list*
%AMRoundRect*
0 Rectangle with rounded corners*
0 $1 Rounding radius*
0 $2 $3 $4 $5 $6 $7 $8 $9 X,Y pos of 4 corners*
0 Add a 4 corners polygon primitive as box body*
4,1,4,$2,$3,$4,$5,$6,$7,$8,$9,$2,$3,0*
0 Add four circle primitives for the rounded corners*
1,1,$1+$1,$2,$3*
1,1,$1+$1,$4,$5*
1,1,$1+$1,$6,$7*
1,1,$1+$1,$8,$9*
0 Add four rect primitives between the rounded corners*
20,1,$1+$1,$2,$3,$4,$5,0*
20,1,$1+$1,$4,$5,$6,$7,0*
20,1,$1+$1,$6,$7,$8,$9,0*
20,1,$1+$1,$8,$9,$2,$3,0*%
%AMOutline5P*
0 Free polygon, 5 corners , with rotation*
0 The origin of the aperture is its center*
0 number of corners: always 5*
0 $1 to $10 corner X, Y*
0 $11 Rotation angle, in degrees counterclockwise*
0 create outline with 5 corners*
4,1,5,$1,$2,$3,$4,$5,$6,$7,$8,$9,$10,$1,$2,$11*%
%AMOutline6P*
0 Free polygon, 6 corners , with rotation*
0 The origin of the aperture is its center*
0 number of corners: always 6*
0 $1 to $12 corner X, Y*
0 $13 Rotation angle, in degrees counterclockwise*
0 create outline with 6 corners*
4,1,6,$1,$2,$3,$4,$5,$6,$7,$8,$9,$10,$11,$12,$1,$2,$13*%
%AMOutline7P*
0 Free polygon, 7 corners , with rotation*
0 The origin of the aperture is its center*
0 number of corners: always 7*
0 $1 to $14 corner X, Y*
0 $15 Rotation angle, in degrees counterclockwise*
0 create outline with 7 corners*
4,1,7,$1,$2,$3,$4,$5,$6,$7,$8,$9,$10,$11,$12,$13,$14,$1,$2,$15*%
%AMOutline8P*
0 Free polygon, 8 corners , with rotation*
0 The origin of the aperture is its center*
0 number of corners: always 8*
0 $1 to $16 corner X, Y*
0 $17 Rotation angle, in degrees counterclockwise*
0 create outline with 8 corners*
4,1,8,$1,$2,$3,$4,$5,$6,$7,$8,$9,$10,$11,$12,$13,$14,$15,$16,$1,$2,$17*%
G04 Aperture macros list end*
%ADD10C,2.100000*%
%ADD11RoundRect,0.250000X-0.787500X-0.925000X0.787500X-0.925000X0.787500X0.925000X-0.787500X0.925000X0*%
%ADD12RoundRect,0.100000X-0.130000X-0.100000X0.130000X-0.100000X0.130000X0.100000X-0.130000X0.100000X0*%
%ADD13RoundRect,0.100000X0.130000X0.100000X-0.130000X0.100000X-0.130000X-0.100000X0.130000X-0.100000X0*%
%ADD14RoundRect,0.100000X0.100000X-0.130000X0.100000X0.130000X-0.100000X0.130000X-0.100000X-0.130000X0*%
%ADD15R,1.000000X1.000000*%
%ADD16R,1.050000X2.200000*%
%ADD17R,2.200000X1.050000*%
%ADD18RoundRect,0.375000X-0.625000X-0.375000X0.625000X-0.375000X0.625000X0.375000X-0.625000X0.375000X0*%
%ADD19RoundRect,0.500000X-0.500000X-1.400000X0.500000X-1.400000X0.500000X1.400000X-0.500000X1.400000X0*%
%ADD20RoundRect,0.112500X0.112500X0.537500X-0.112500X0.537500X-0.112500X-0.537500X0.112500X-0.537500X0*%
%ADD21RoundRect,0.250000X0.450000X0.600000X-0.450000X0.600000X-0.450000X-0.600000X0.450000X-0.600000X0*%
%ADD22RoundRect,0.135000X0.135000X0.265000X-0.135000X0.265000X-0.135000X-0.265000X0.135000X-0.265000X0*%
%ADD23RoundRect,0.162500X0.162500X0.412500X-0.162500X0.412500X-0.162500X-0.412500X0.162500X-0.412500X0*%
%ADD24R,0.800000X0.400000*%
%ADD25R,0.400000X0.800000*%
%ADD26Outline5P,-0.600000X0.204000X-0.204000X0.600000X0.600000X0.600000X0.600000X-0.600000X-0.600000X-0.600000X0.000000*%
%ADD27R,1.200000X1.200000*%
%ADD28R,0.800000X0.800000*%
%ADD29R,1.000000X2.900000*%
%ADD30R,0.240000X0.900000*%
%ADD31R,0.900000X0.240000*%
%ADD32RoundRect,0.075000X-0.350000X-0.075000X0.350000X-0.075000X0.350000X0.075000X-0.350000X0.075000X0*%
%ADD33RoundRect,0.075000X0.075000X-0.350000X0.075000X0.350000X-0.075000X0.350000X-0.075000X-0.350000X0*%
%ADD34RoundRect,0.150000X-0.675000X-0.150000X0.675000X-0.150000X0.675000X0.150000X-0.675000X0.150000X0*%
%ADD35R,3.800000X3.800000*%
%ADD36C,4.000000*%
%ADD37O,0.600000X1.600000*%
%ADD38O,1.600000X0.600000*%
%ADD39R,4.800000X4.800000*%
%ADD40RoundRect,0.075000X-0.075000X-0.312500X0.075000X-0.312500X0.075000X0.312500X-0.075000X0.312500X0*%
%ADD41RoundRect,0.075000X-0.312500X-0.075000X0.312500X-0.075000X0.312500X0.075000X-0.312500X0.075000X0*%
%ADD42R,1.700000X2.000000*%
%ADD43R,2.000000X0.500000*%
%ADD44C,1.000000*%
G04 APERTURE END LIST*
D10*
%TO.C,REF\u002A\u002A*%
X104140000Y-66141600D03*
%TD*%
D11*
%TO.C,+C12*%
X55476200Y-52222400D03*
X60401200Y-52222400D03*
%TD*%
D12*
%TO.C,C15*%
X70556600Y-73660000D03*
X71196600Y-73660000D03*
%TD*%
%TO.C,C14*%
X52603800Y-51409600D03*
X51963800Y-51409600D03*
%TD*%
%TO.C,C13*%
X80818200Y-36322000D03*
X81458200Y-36322000D03*
%TD*%
%TO.C,R6*%
X68400200Y-72390000D03*
X69040200Y-72390000D03*
%TD*%
%TO.C,R1*%
X53691000Y-78333600D03*
X54331000Y-78333600D03*
%TD*%
%TO.C,R2*%
X52268600Y-76098400D03*
X52908600Y-76098400D03*
%TD*%
%TO.C,R8*%
X43053400Y-42976800D03*
X42413400Y-42976800D03*
%TD*%
%TO.C,R7*%
X47551800Y-45364400D03*
X46911800Y-45364400D03*
%TD*%
D13*
%TO.C,R5*%
X100194400Y-73253600D03*
X99554400Y-73253600D03*
%TD*%
%TO.C,R3*%
X67008200Y-38811200D03*
X66368200Y-38811200D03*
%TD*%
D14*
%TO.C,R4*%
X96672400Y-66473800D03*
X96672400Y-65833800D03*
%TD*%
D12*
%TO.C,C7*%
X74061800Y-36423600D03*
X74701800Y-36423600D03*
%TD*%
%TO.C,C8*%
X69591400Y-36322000D03*
X70231400Y-36322000D03*
%TD*%
D13*
%TO.C,C3*%
X49772400Y-87020400D03*
X49132400Y-87020400D03*
%TD*%
D12*
%TO.C,C1*%
X67559400Y-75438000D03*
X68199400Y-75438000D03*
%TD*%
D13*
%TO.C,C2*%
X49975600Y-81534000D03*
X49335600Y-81534000D03*
%TD*%
D12*
%TO.C,C10*%
X65313600Y-83312000D03*
X65953600Y-83312000D03*
%TD*%
%TO.C,C9*%
X74254400Y-83168000D03*
X74894400Y-83168000D03*
%TD*%
%TO.C,C6*%
X49188000Y-75641200D03*
X49828000Y-75641200D03*
%TD*%
%TO.C,C4*%
X42482400Y-76454000D03*
X43122400Y-76454000D03*
%TD*%
%TO.C,C5*%
X48781600Y-67564000D03*
X49421600Y-67564000D03*
%TD*%
D13*
%TO.C,C11*%
X44362000Y-39573200D03*
X45002000Y-39573200D03*
%TD*%
D15*
%TO.C,REF\u002A\u002A*%
X103124000Y-58853200D03*
D16*
X101649000Y-57353200D03*
D15*
X103124000Y-55853200D03*
D16*
X104599000Y-57353200D03*
%TD*%
D15*
%TO.C,REF\u002A\u002A*%
X36244400Y-86260200D03*
D17*
X37744400Y-84785200D03*
D15*
X39244400Y-86260200D03*
D17*
X37744400Y-87735200D03*
%TD*%
D18*
%TO.C,U7*%
X52120000Y-46699200D03*
D19*
X58420000Y-44399200D03*
D18*
X52120000Y-44399200D03*
X52120000Y-42099200D03*
%TD*%
D20*
%TO.C,J1*%
X90647400Y-48574400D03*
X90647400Y-50574400D03*
D21*
X90812400Y-39014400D03*
D22*
X94372400Y-39594400D03*
X99452400Y-39594400D03*
D21*
X103022400Y-39014400D03*
D20*
X103187400Y-48574400D03*
X103187400Y-50574400D03*
D23*
X97972400Y-52744400D03*
X95432400Y-52744400D03*
X92892400Y-52744400D03*
X99242400Y-52744400D03*
X96702400Y-52744400D03*
X94162400Y-52744400D03*
%TD*%
D10*
%TO.C,REF\u002A\u002A*%
X106934000Y-39370000D03*
%TD*%
D24*
%TO.C,U1*%
X75313200Y-62721200D03*
X75313200Y-63571200D03*
X75313200Y-64421200D03*
X75313200Y-65271200D03*
X75313200Y-66121200D03*
X75313200Y-66971200D03*
X75313200Y-67821200D03*
X75313200Y-68671200D03*
X75313200Y-69521200D03*
X75313200Y-70371200D03*
X75313200Y-71221200D03*
X75313200Y-72071200D03*
X75313200Y-72921200D03*
X75313200Y-73771200D03*
X75313200Y-74621200D03*
D25*
X76363200Y-75671200D03*
X77213200Y-75671200D03*
X78063200Y-75671200D03*
X78913200Y-75671200D03*
X79763200Y-75671200D03*
X80613200Y-75671200D03*
X81463200Y-75671200D03*
X82313200Y-75671200D03*
X83163200Y-75671200D03*
X84013200Y-75671200D03*
X84863200Y-75671200D03*
X85713200Y-75671200D03*
X86563200Y-75671200D03*
X87413200Y-75671200D03*
X88263200Y-75671200D03*
D24*
X89313200Y-74621200D03*
X89313200Y-73771200D03*
X89313200Y-72921200D03*
X89313200Y-72071200D03*
X89313200Y-71221200D03*
X89313200Y-70371200D03*
X89313200Y-69521200D03*
X89313200Y-68671200D03*
X89313200Y-67821200D03*
X89313200Y-66971200D03*
X89313200Y-66121200D03*
X89313200Y-65271200D03*
X89313200Y-64421200D03*
X89313200Y-63571200D03*
X89313200Y-62721200D03*
D25*
X88263200Y-61671200D03*
X87413200Y-61671200D03*
X86563200Y-61671200D03*
X85713200Y-61671200D03*
X84863200Y-61671200D03*
X84013200Y-61671200D03*
X83163200Y-61671200D03*
X82313200Y-61671200D03*
X81463200Y-61671200D03*
X80613200Y-61671200D03*
X79763200Y-61671200D03*
X78913200Y-61671200D03*
X78063200Y-61671200D03*
X77213200Y-61671200D03*
X76363200Y-61671200D03*
D26*
X80663200Y-67021200D03*
D27*
X80663200Y-68671200D03*
X80663200Y-70321200D03*
X82313200Y-67021200D03*
X82313200Y-68671200D03*
X82313200Y-70321200D03*
X83963200Y-67021200D03*
X83963200Y-68671200D03*
X83963200Y-70321200D03*
D28*
X75313200Y-61671200D03*
X75313200Y-75671200D03*
X89313200Y-75671200D03*
X89313200Y-61671200D03*
%TD*%
D10*
%TO.C,REF\u002A\u002A*%
X37541200Y-80010000D03*
%TD*%
D12*
%TO.C,GPRS1*%
X63221000Y-38760400D03*
X62581000Y-38760400D03*
%TD*%
D29*
%TO.C,U5*%
X63398400Y-58638400D03*
D30*
X63648400Y-56338400D03*
D31*
X64698400Y-56888400D03*
X64698400Y-57388400D03*
X64698400Y-57888400D03*
X64698400Y-58388400D03*
X64698400Y-58888400D03*
X64698400Y-59388400D03*
X64698400Y-59888400D03*
X64698400Y-60388400D03*
D30*
X63648400Y-60938400D03*
X63148400Y-60938400D03*
D31*
X62098400Y-60388400D03*
X62098400Y-59888400D03*
X62098400Y-59388400D03*
X62098400Y-58888400D03*
X62098400Y-58388400D03*
X62098400Y-57888400D03*
X62098400Y-57388400D03*
X62098400Y-56888400D03*
D30*
X63148400Y-56338400D03*
%TD*%
D32*
%TO.C,U4*%
X55657200Y-81960400D03*
X55657200Y-82460400D03*
X55657200Y-82960400D03*
X55657200Y-83460400D03*
X55657200Y-83960400D03*
X55657200Y-84460400D03*
D33*
X56357200Y-85160400D03*
X56857200Y-85160400D03*
X57357200Y-85160400D03*
X57857200Y-85160400D03*
X58357200Y-85160400D03*
X58857200Y-85160400D03*
D32*
X59557200Y-84460400D03*
X59557200Y-83960400D03*
X59557200Y-83460400D03*
X59557200Y-82960400D03*
X59557200Y-82460400D03*
X59557200Y-81960400D03*
D33*
X58857200Y-81260400D03*
X58357200Y-81260400D03*
X57857200Y-81260400D03*
X57357200Y-81260400D03*
X56857200Y-81260400D03*
X56357200Y-81260400D03*
%TD*%
D34*
%TO.C,U6*%
X81550600Y-80289400D03*
X81550600Y-81559400D03*
X81550600Y-82829400D03*
X81550600Y-84099400D03*
X86800600Y-84099400D03*
X86800600Y-82829400D03*
X86800600Y-81559400D03*
X86800600Y-80289400D03*
%TD*%
D13*
%TO.C,LORA1*%
X106248600Y-73914000D03*
X105608600Y-73914000D03*
%TD*%
D35*
%TO.C,PWR*%
X38608000Y-69465200D03*
D36*
X38608000Y-64465200D03*
%TD*%
D37*
%TO.C,U2*%
X75457600Y-40018800D03*
X76557600Y-40018800D03*
X77657600Y-40018800D03*
X78757600Y-40018800D03*
X79857600Y-40018800D03*
X80957600Y-40018800D03*
X82057600Y-40018800D03*
X83157600Y-40018800D03*
X84257600Y-40018800D03*
D38*
X87707600Y-42768800D03*
X87707600Y-43868800D03*
X87707600Y-44968800D03*
X87707600Y-46068800D03*
X87707600Y-47168800D03*
X87707600Y-48268800D03*
X87707600Y-49368800D03*
X87707600Y-50468800D03*
X87707600Y-51568800D03*
X87707600Y-52668800D03*
X87707600Y-53768800D03*
X87707600Y-54868800D03*
D37*
X84257600Y-57618800D03*
X83157600Y-57618800D03*
X82057600Y-57618800D03*
X80957600Y-57618800D03*
X79857600Y-57618800D03*
X78757600Y-57618800D03*
X77657600Y-57618800D03*
X76557600Y-57618800D03*
X75457600Y-57618800D03*
D38*
X72007600Y-54868800D03*
X72007600Y-53768800D03*
X72007600Y-52668800D03*
X72007600Y-51568800D03*
X72007600Y-50468800D03*
X72007600Y-49368800D03*
X72007600Y-48268800D03*
X72007600Y-47168800D03*
X72007600Y-46068800D03*
X72007600Y-44968800D03*
X72007600Y-43868800D03*
X72007600Y-42768800D03*
%TD*%
D14*
%TO.C,ACCEL1*%
X96570800Y-70607400D03*
X96570800Y-71247400D03*
%TD*%
D10*
%TO.C,REF\u002A\u002A*%
X37439600Y-38100000D03*
%TD*%
D39*
%TO.C,U3*%
X63322400Y-68656000D03*
D40*
X61372400Y-65668500D03*
X62022400Y-65668500D03*
X62672400Y-65668500D03*
X63322400Y-65668500D03*
X63972400Y-65668500D03*
X64622400Y-65668500D03*
X65272400Y-65668500D03*
D41*
X66309900Y-66706000D03*
X66309900Y-67356000D03*
X66309900Y-68006000D03*
X66309900Y-68656000D03*
X66309900Y-69306000D03*
X66309900Y-69956000D03*
X66309900Y-70606000D03*
D40*
X65272400Y-71643500D03*
X64622400Y-71643500D03*
X63972400Y-71643500D03*
X63322400Y-71643500D03*
X62672400Y-71643500D03*
X62022400Y-71643500D03*
X61372400Y-71643500D03*
D41*
X60334900Y-70606000D03*
X60334900Y-69956000D03*
X60334900Y-69306000D03*
X60334900Y-68656000D03*
X60334900Y-68006000D03*
X60334900Y-67356000D03*
X60334900Y-66706000D03*
%TD*%
D42*
%TO.C,J2*%
X100902200Y-76982400D03*
X95452200Y-76982400D03*
X100902200Y-85882400D03*
X95452200Y-85882400D03*
D43*
X95352200Y-79832400D03*
X95352200Y-80632400D03*
X95352200Y-81432400D03*
X95352200Y-82232400D03*
X95352200Y-83032400D03*
D44*
X98052200Y-79232400D03*
X98052200Y-83632400D03*
%TD*%
D18*
%TO.C,U8*%
X42620400Y-55589200D03*
D19*
X48920400Y-53289200D03*
D18*
X42620400Y-53289200D03*
X42620400Y-50989200D03*
%TD*%
M02*
