%TF.GenerationSoftware,KiCad,Pcbnew,8.0.5*%
%TF.CreationDate,2024-11-03T18:03:45-05:00*%
%TF.ProjectId,emerald_pcb,656d6572-616c-4645-9f70-63622e6b6963,rev?*%
%TF.SameCoordinates,Original*%
%TF.FileFunction,Copper,L1,Top*%
%TF.FilePolarity,Positive*%
%FSLAX46Y46*%
G04 Gerber Fmt 4.6, Leading zero omitted, Abs format (unit mm)*
G04 Created by KiCad (PCBNEW 8.0.5) date 2024-11-03 18:03:45*
%MOMM*%
%LPD*%
G01*
G04 APERTURE LIST*
G04 Aperture macros list*
%AMRoundRect*
0 Rectangle with rounded corners*
0 $1 Rounding radius*
0 $2 $3 $4 $5 $6 $7 $8 $9 X,Y pos of 4 corners*
0 Add a 4 corners polygon primitive as box body*
4,1,4,$2,$3,$4,$5,$6,$7,$8,$9,$2,$3,0*
0 Add four circle primitives for the rounded corners*
1,1,$1+$1,$2,$3*
1,1,$1+$1,$4,$5*
1,1,$1+$1,$6,$7*
1,1,$1+$1,$8,$9*
0 Add four rect primitives between the rounded corners*
20,1,$1+$1,$2,$3,$4,$5,0*
20,1,$1+$1,$4,$5,$6,$7,0*
20,1,$1+$1,$6,$7,$8,$9,0*
20,1,$1+$1,$8,$9,$2,$3,0*%
%AMOutline5P*
0 Free polygon, 5 corners , with rotation*
0 The origin of the aperture is its center*
0 number of corners: always 5*
0 $1 to $10 corner X, Y*
0 $11 Rotation angle, in degrees counterclockwise*
0 create outline with 5 corners*
4,1,5,$1,$2,$3,$4,$5,$6,$7,$8,$9,$10,$1,$2,$11*%
%AMOutline6P*
0 Free polygon, 6 corners , with rotation*
0 The origin of the aperture is its center*
0 number of corners: always 6*
0 $1 to $12 corner X, Y*
0 $13 Rotation angle, in degrees counterclockwise*
0 create outline with 6 corners*
4,1,6,$1,$2,$3,$4,$5,$6,$7,$8,$9,$10,$11,$12,$1,$2,$13*%
%AMOutline7P*
0 Free polygon, 7 corners , with rotation*
0 The origin of the aperture is its center*
0 number of corners: always 7*
0 $1 to $14 corner X, Y*
0 $15 Rotation angle, in degrees counterclockwise*
0 create outline with 7 corners*
4,1,7,$1,$2,$3,$4,$5,$6,$7,$8,$9,$10,$11,$12,$13,$14,$1,$2,$15*%
%AMOutline8P*
0 Free polygon, 8 corners , with rotation*
0 The origin of the aperture is its center*
0 number of corners: always 8*
0 $1 to $16 corner X, Y*
0 $17 Rotation angle, in degrees counterclockwise*
0 create outline with 8 corners*
4,1,8,$1,$2,$3,$4,$5,$6,$7,$8,$9,$10,$11,$12,$13,$14,$15,$16,$1,$2,$17*%
G04 Aperture macros list end*
%TA.AperFunction,SMDPad,CuDef*%
%ADD10RoundRect,0.250000X-0.787500X-0.925000X0.787500X-0.925000X0.787500X0.925000X-0.787500X0.925000X0*%
%TD*%
%TA.AperFunction,SMDPad,CuDef*%
%ADD11RoundRect,0.100000X-0.130000X-0.100000X0.130000X-0.100000X0.130000X0.100000X-0.130000X0.100000X0*%
%TD*%
%TA.AperFunction,SMDPad,CuDef*%
%ADD12RoundRect,0.100000X0.130000X0.100000X-0.130000X0.100000X-0.130000X-0.100000X0.130000X-0.100000X0*%
%TD*%
%TA.AperFunction,SMDPad,CuDef*%
%ADD13RoundRect,0.100000X0.100000X-0.130000X0.100000X0.130000X-0.100000X0.130000X-0.100000X-0.130000X0*%
%TD*%
%TA.AperFunction,SMDPad,CuDef*%
%ADD14R,1.000000X1.000000*%
%TD*%
%TA.AperFunction,SMDPad,CuDef*%
%ADD15R,1.050000X2.200000*%
%TD*%
%TA.AperFunction,SMDPad,CuDef*%
%ADD16R,2.200000X1.050000*%
%TD*%
%TA.AperFunction,SMDPad,CuDef*%
%ADD17RoundRect,0.375000X-0.625000X-0.375000X0.625000X-0.375000X0.625000X0.375000X-0.625000X0.375000X0*%
%TD*%
%TA.AperFunction,SMDPad,CuDef*%
%ADD18RoundRect,0.500000X-0.500000X-1.400000X0.500000X-1.400000X0.500000X1.400000X-0.500000X1.400000X0*%
%TD*%
%TA.AperFunction,SMDPad,CuDef*%
%ADD19RoundRect,0.112500X0.112500X0.537500X-0.112500X0.537500X-0.112500X-0.537500X0.112500X-0.537500X0*%
%TD*%
%TA.AperFunction,SMDPad,CuDef*%
%ADD20RoundRect,0.250000X0.450000X0.600000X-0.450000X0.600000X-0.450000X-0.600000X0.450000X-0.600000X0*%
%TD*%
%TA.AperFunction,SMDPad,CuDef*%
%ADD21RoundRect,0.135000X0.135000X0.265000X-0.135000X0.265000X-0.135000X-0.265000X0.135000X-0.265000X0*%
%TD*%
%TA.AperFunction,SMDPad,CuDef*%
%ADD22RoundRect,0.162500X0.162500X0.412500X-0.162500X0.412500X-0.162500X-0.412500X0.162500X-0.412500X0*%
%TD*%
%TA.AperFunction,SMDPad,CuDef*%
%ADD23R,0.800000X0.400000*%
%TD*%
%TA.AperFunction,SMDPad,CuDef*%
%ADD24R,0.400000X0.800000*%
%TD*%
%TA.AperFunction,SMDPad,CuDef*%
%ADD25Outline5P,-0.600000X0.204000X-0.204000X0.600000X0.600000X0.600000X0.600000X-0.600000X-0.600000X-0.600000X0.000000*%
%TD*%
%TA.AperFunction,SMDPad,CuDef*%
%ADD26R,1.200000X1.200000*%
%TD*%
%TA.AperFunction,SMDPad,CuDef*%
%ADD27R,0.800000X0.800000*%
%TD*%
%TA.AperFunction,SMDPad,CuDef*%
%ADD28R,1.000000X2.900000*%
%TD*%
%TA.AperFunction,SMDPad,CuDef*%
%ADD29R,0.240000X0.900000*%
%TD*%
%TA.AperFunction,SMDPad,CuDef*%
%ADD30R,0.900000X0.240000*%
%TD*%
%TA.AperFunction,SMDPad,CuDef*%
%ADD31RoundRect,0.075000X-0.350000X-0.075000X0.350000X-0.075000X0.350000X0.075000X-0.350000X0.075000X0*%
%TD*%
%TA.AperFunction,SMDPad,CuDef*%
%ADD32RoundRect,0.075000X0.075000X-0.350000X0.075000X0.350000X-0.075000X0.350000X-0.075000X-0.350000X0*%
%TD*%
%TA.AperFunction,SMDPad,CuDef*%
%ADD33RoundRect,0.150000X-0.675000X-0.150000X0.675000X-0.150000X0.675000X0.150000X-0.675000X0.150000X0*%
%TD*%
%TA.AperFunction,ComponentPad*%
%ADD34R,3.800000X3.800000*%
%TD*%
%TA.AperFunction,ComponentPad*%
%ADD35C,4.000000*%
%TD*%
%TA.AperFunction,SMDPad,CuDef*%
%ADD36O,0.600000X1.600000*%
%TD*%
%TA.AperFunction,SMDPad,CuDef*%
%ADD37O,1.600000X0.600000*%
%TD*%
%TA.AperFunction,HeatsinkPad*%
%ADD38R,4.800000X4.800000*%
%TD*%
%TA.AperFunction,SMDPad,CuDef*%
%ADD39RoundRect,0.075000X-0.075000X-0.312500X0.075000X-0.312500X0.075000X0.312500X-0.075000X0.312500X0*%
%TD*%
%TA.AperFunction,SMDPad,CuDef*%
%ADD40RoundRect,0.075000X-0.312500X-0.075000X0.312500X-0.075000X0.312500X0.075000X-0.312500X0.075000X0*%
%TD*%
%TA.AperFunction,SMDPad,CuDef*%
%ADD41R,1.700000X2.000000*%
%TD*%
%TA.AperFunction,SMDPad,CuDef*%
%ADD42R,2.000000X0.500000*%
%TD*%
%TA.AperFunction,ViaPad*%
%ADD43C,0.600000*%
%TD*%
%TA.AperFunction,Conductor*%
%ADD44C,0.200000*%
%TD*%
G04 APERTURE END LIST*
D10*
%TO.P,+C12,1*%
%TO.N,Net-(U7-VO)*%
X55476200Y-52222400D03*
%TO.P,+C12,2*%
%TO.N,Net-(ACCEL1-K)*%
X60401200Y-52222400D03*
%TD*%
D11*
%TO.P,C15,1*%
%TO.N,Net-(ACCEL1-K)*%
X70556600Y-73660000D03*
%TO.P,C15,2*%
%TO.N,Net-(U1-3V3)*%
X71196600Y-73660000D03*
%TD*%
%TO.P,C14,2*%
%TO.N,Net-(ACCEL1-K)*%
X52603800Y-51409600D03*
%TO.P,C14,1*%
%TO.N,Net-(U1-3V3)*%
X51963800Y-51409600D03*
%TD*%
%TO.P,C13,1*%
%TO.N,Net-(ACCEL1-K)*%
X80818200Y-36322000D03*
%TO.P,C13,2*%
%TO.N,Net-(U7-VO)*%
X81458200Y-36322000D03*
%TD*%
%TO.P,R6,1*%
%TO.N,Net-(U1-EN)*%
X68400200Y-72390000D03*
%TO.P,R6,2*%
%TO.N,Net-(U1-3V3)*%
X69040200Y-72390000D03*
%TD*%
%TO.P,R1,1*%
%TO.N,Net-(U1-3V3)*%
X53691000Y-78333600D03*
%TO.P,R1,2*%
%TO.N,Net-(U1-IO19)*%
X54331000Y-78333600D03*
%TD*%
%TO.P,R2,1*%
%TO.N,Net-(U1-3V3)*%
X52268600Y-76098400D03*
%TO.P,R2,2*%
%TO.N,Net-(U1-IO20)*%
X52908600Y-76098400D03*
%TD*%
%TO.P,R8,2*%
%TO.N,Net-(U7-ADJ)*%
X43053400Y-42976800D03*
%TO.P,R8,1*%
%TO.N,Net-(ACCEL1-K)*%
X42413400Y-42976800D03*
%TD*%
%TO.P,R7,2*%
%TO.N,Net-(U7-VO)*%
X47551800Y-45364400D03*
%TO.P,R7,1*%
%TO.N,Net-(U7-ADJ)*%
X46911800Y-45364400D03*
%TD*%
D12*
%TO.P,R5,1*%
%TO.N,Net-(LORA1-A)*%
X100194400Y-73253600D03*
%TO.P,R5,2*%
%TO.N,Net-(U1-IO40)*%
X99554400Y-73253600D03*
%TD*%
%TO.P,R3,1*%
%TO.N,Net-(U2-STATUS)*%
X67008200Y-38811200D03*
%TO.P,R3,2*%
%TO.N,Net-(GPRS1-A)*%
X66368200Y-38811200D03*
%TD*%
D13*
%TO.P,R4,1*%
%TO.N,Net-(ACCEL1-A)*%
X96672400Y-66473800D03*
%TO.P,R4,2*%
%TO.N,Net-(U1-IO41)*%
X96672400Y-65833800D03*
%TD*%
D11*
%TO.P,C7,1*%
%TO.N,Net-(ACCEL1-K)*%
X74061800Y-36423600D03*
%TO.P,C7,2*%
%TO.N,Net-(U7-VO)*%
X74701800Y-36423600D03*
%TD*%
%TO.P,C8,1*%
%TO.N,Net-(ACCEL1-K)*%
X69591400Y-36322000D03*
%TO.P,C8,2*%
%TO.N,Net-(U7-VO)*%
X70231400Y-36322000D03*
%TD*%
D12*
%TO.P,C3,1*%
%TO.N,Net-(U4-REGOUT)*%
X49772400Y-87020400D03*
%TO.P,C3,2*%
%TO.N,Net-(ACCEL1-K)*%
X49132400Y-87020400D03*
%TD*%
D11*
%TO.P,C1,1*%
%TO.N,Net-(ACCEL1-K)*%
X67559400Y-75438000D03*
%TO.P,C1,2*%
%TO.N,Net-(U1-3V3)*%
X68199400Y-75438000D03*
%TD*%
D12*
%TO.P,C2,1*%
%TO.N,Net-(U4-REGOUT)*%
X49975600Y-81534000D03*
%TO.P,C2,2*%
%TO.N,Net-(ACCEL1-K)*%
X49335600Y-81534000D03*
%TD*%
D11*
%TO.P,C10,1*%
%TO.N,Net-(U1-EN)*%
X65313600Y-83312000D03*
%TO.P,C10,2*%
%TO.N,Net-(U6-~{RTS})*%
X65953600Y-83312000D03*
%TD*%
%TO.P,C9,1*%
%TO.N,Net-(U1-IO0)*%
X74254400Y-83168000D03*
%TO.P,C9,2*%
%TO.N,Net-(U6-~{RTS})*%
X74894400Y-83168000D03*
%TD*%
%TO.P,C6,1*%
%TO.N,Net-(U1-3V3)*%
X49188000Y-75641200D03*
%TO.P,C6,2*%
%TO.N,Net-(ACCEL1-K)*%
X49828000Y-75641200D03*
%TD*%
%TO.P,C4,1*%
%TO.N,Net-(U1-3V3)*%
X42482400Y-76454000D03*
%TO.P,C4,2*%
%TO.N,Net-(ACCEL1-K)*%
X43122400Y-76454000D03*
%TD*%
%TO.P,C5,1*%
%TO.N,Net-(U1-3V3)*%
X48781600Y-67564000D03*
%TO.P,C5,2*%
%TO.N,Net-(ACCEL1-K)*%
X49421600Y-67564000D03*
%TD*%
D12*
%TO.P,C11,2*%
%TO.N,Net-(ACCEL1-K)*%
X44362000Y-39573200D03*
%TO.P,C11,1*%
%TO.N,Net-(U7-VO)*%
X45002000Y-39573200D03*
%TD*%
D14*
%TO.P,REF\u002A\u002A,1*%
%TO.N,Net-(AE2-A)*%
X103124000Y-58853200D03*
D15*
%TO.P,REF\u002A\u002A,2*%
X101649000Y-57353200D03*
D14*
X103124000Y-55853200D03*
D15*
X104599000Y-57353200D03*
%TD*%
D14*
%TO.P,REF\u002A\u002A,1*%
%TO.N,Net-(AE1-A)*%
X36244400Y-86260200D03*
D16*
%TO.P,REF\u002A\u002A,2*%
X37744400Y-84785200D03*
D14*
X39244400Y-86260200D03*
D16*
X37744400Y-87735200D03*
%TD*%
D17*
%TO.P,U7,3,VI*%
%TO.N,Net-(J3-Pin_1)*%
X52120000Y-46699200D03*
D18*
%TO.P,U7,2,VO*%
%TO.N,Net-(U7-VO)*%
X58420000Y-44399200D03*
D17*
X52120000Y-44399200D03*
%TO.P,U7,1,ADJ*%
%TO.N,Net-(U7-ADJ)*%
X52120000Y-42099200D03*
%TD*%
D19*
%TO.P,J1,SH*%
%TO.N,N/C*%
X90647400Y-48574400D03*
X90647400Y-50574400D03*
D20*
X90812400Y-39014400D03*
D21*
X94372400Y-39594400D03*
X99452400Y-39594400D03*
D20*
X103022400Y-39014400D03*
D19*
X103187400Y-48574400D03*
X103187400Y-50574400D03*
D22*
%TO.P,J1,7,I/O*%
%TO.N,Net-(J1-I{slash}O)*%
X97972400Y-52744400D03*
%TO.P,J1,6,VPP*%
%TO.N,unconnected-(J1-VPP-Pad6)*%
X95432400Y-52744400D03*
%TO.P,J1,5,GND*%
%TO.N,Net-(ACCEL1-K)*%
X92892400Y-52744400D03*
%TO.P,J1,3,CLK*%
%TO.N,Net-(J1-CLK)*%
X99242400Y-52744400D03*
%TO.P,J1,2,RST*%
%TO.N,Net-(J1-RST)*%
X96702400Y-52744400D03*
%TO.P,J1,1,VCC*%
%TO.N,Net-(J1-VCC)*%
X94162400Y-52744400D03*
%TD*%
D23*
%TO.P,U1,1,GND*%
%TO.N,Net-(ACCEL1-K)*%
X75313200Y-62721200D03*
%TO.P,U1,2,GND*%
X75313200Y-63571200D03*
%TO.P,U1,3,3V3*%
%TO.N,Net-(U1-3V3)*%
X75313200Y-64421200D03*
%TO.P,U1,4,IO0*%
%TO.N,Net-(U1-IO0)*%
X75313200Y-65271200D03*
%TO.P,U1,5,IO1*%
%TO.N,Net-(U1-IO1)*%
X75313200Y-66121200D03*
%TO.P,U1,6,IO2*%
%TO.N,Net-(U1-IO2)*%
X75313200Y-66971200D03*
%TO.P,U1,7,IO3*%
%TO.N,Net-(U1-IO3)*%
X75313200Y-67821200D03*
%TO.P,U1,8,IO4*%
%TO.N,Net-(U1-IO4)*%
X75313200Y-68671200D03*
%TO.P,U1,9,IO5*%
%TO.N,Net-(U1-IO5)*%
X75313200Y-69521200D03*
%TO.P,U1,10,IO6*%
%TO.N,Net-(U1-IO6)*%
X75313200Y-70371200D03*
%TO.P,U1,11,IO7*%
%TO.N,unconnected-(U1-IO7-Pad11)*%
X75313200Y-71221200D03*
%TO.P,U1,12,IO8*%
%TO.N,unconnected-(U1-IO8-Pad12)*%
X75313200Y-72071200D03*
%TO.P,U1,13,IO9*%
%TO.N,unconnected-(U1-IO9-Pad13)*%
X75313200Y-72921200D03*
%TO.P,U1,14,IO10*%
%TO.N,unconnected-(U1-IO10-Pad14)*%
X75313200Y-73771200D03*
%TO.P,U1,15,IO11*%
%TO.N,unconnected-(U1-IO11-Pad15)*%
X75313200Y-74621200D03*
D24*
%TO.P,U1,16,IO12*%
%TO.N,unconnected-(U1-IO12-Pad16)*%
X76363200Y-75671200D03*
%TO.P,U1,17,IO13*%
%TO.N,unconnected-(U1-IO13-Pad17)*%
X77213200Y-75671200D03*
%TO.P,U1,18,IO14*%
%TO.N,unconnected-(U1-IO14-Pad18)*%
X78063200Y-75671200D03*
%TO.P,U1,19,IO15*%
%TO.N,unconnected-(U1-IO15-Pad19)*%
X78913200Y-75671200D03*
%TO.P,U1,20,IO16*%
%TO.N,unconnected-(U1-IO16-Pad20)*%
X79763200Y-75671200D03*
%TO.P,U1,21,IO17*%
%TO.N,unconnected-(U1-IO17-Pad21)*%
X80613200Y-75671200D03*
%TO.P,U1,22,IO18*%
%TO.N,unconnected-(U1-IO18-Pad22)*%
X81463200Y-75671200D03*
%TO.P,U1,23,IO19*%
%TO.N,Net-(U1-IO19)*%
X82313200Y-75671200D03*
%TO.P,U1,24,IO20*%
%TO.N,Net-(U1-IO20)*%
X83163200Y-75671200D03*
%TO.P,U1,25,IO21*%
%TO.N,Net-(U1-IO21)*%
X84013200Y-75671200D03*
%TO.P,U1,26,IO26*%
%TO.N,Net-(U1-IO26)*%
X84863200Y-75671200D03*
%TO.P,U1,27,IO47*%
%TO.N,unconnected-(U1-IO47-Pad27)*%
X85713200Y-75671200D03*
%TO.P,U1,28,IO33*%
%TO.N,Net-(U1-IO33)*%
X86563200Y-75671200D03*
%TO.P,U1,29,IO34*%
%TO.N,Net-(U1-IO34)*%
X87413200Y-75671200D03*
%TO.P,U1,30,IO48*%
%TO.N,unconnected-(U1-IO48-Pad30)*%
X88263200Y-75671200D03*
D23*
%TO.P,U1,31,IO35*%
%TO.N,Net-(U1-IO35)*%
X89313200Y-74621200D03*
%TO.P,U1,32,IO36*%
%TO.N,Net-(U1-IO36)*%
X89313200Y-73771200D03*
%TO.P,U1,33,IO37*%
%TO.N,Net-(U1-IO37)*%
X89313200Y-72921200D03*
%TO.P,U1,34,IO38*%
%TO.N,Net-(U1-IO38)*%
X89313200Y-72071200D03*
%TO.P,U1,35,IO39*%
%TO.N,Net-(U1-IO39)*%
X89313200Y-71221200D03*
%TO.P,U1,36,IO40*%
%TO.N,Net-(U1-IO40)*%
X89313200Y-70371200D03*
%TO.P,U1,37,IO41*%
%TO.N,Net-(U1-IO41)*%
X89313200Y-69521200D03*
%TO.P,U1,38,IO42*%
%TO.N,unconnected-(U1-IO42-Pad38)*%
X89313200Y-68671200D03*
%TO.P,U1,39,TXD0*%
%TO.N,Net-(U1-TXD0)*%
X89313200Y-67821200D03*
%TO.P,U1,40,RXD0*%
%TO.N,Net-(U1-RXD0)*%
X89313200Y-66971200D03*
%TO.P,U1,41,IO45*%
%TO.N,unconnected-(U1-IO45-Pad41)*%
X89313200Y-66121200D03*
%TO.P,U1,42,GND*%
%TO.N,Net-(ACCEL1-K)*%
X89313200Y-65271200D03*
%TO.P,U1,43,GND*%
X89313200Y-64421200D03*
%TO.P,U1,44,IO46*%
%TO.N,unconnected-(U1-IO46-Pad44)*%
X89313200Y-63571200D03*
%TO.P,U1,45,EN*%
%TO.N,Net-(U1-EN)*%
X89313200Y-62721200D03*
D24*
%TO.P,U1,46,GND*%
%TO.N,Net-(ACCEL1-K)*%
X88263200Y-61671200D03*
%TO.P,U1,47,GND*%
X87413200Y-61671200D03*
%TO.P,U1,48,GND*%
X86563200Y-61671200D03*
%TO.P,U1,49,GND*%
X85713200Y-61671200D03*
%TO.P,U1,50,GND*%
X84863200Y-61671200D03*
%TO.P,U1,51,GND*%
X84013200Y-61671200D03*
%TO.P,U1,52,GND*%
X83163200Y-61671200D03*
%TO.P,U1,53,GND*%
X82313200Y-61671200D03*
%TO.P,U1,54,GND*%
X81463200Y-61671200D03*
%TO.P,U1,55,GND*%
X80613200Y-61671200D03*
%TO.P,U1,56,GND*%
X79763200Y-61671200D03*
%TO.P,U1,57,GND*%
X78913200Y-61671200D03*
%TO.P,U1,58,GND*%
X78063200Y-61671200D03*
%TO.P,U1,59,GND*%
X77213200Y-61671200D03*
%TO.P,U1,60,GND*%
X76363200Y-61671200D03*
D25*
%TO.P,U1,61,GND*%
X80663200Y-67021200D03*
D26*
X80663200Y-68671200D03*
X80663200Y-70321200D03*
X82313200Y-67021200D03*
X82313200Y-68671200D03*
X82313200Y-70321200D03*
X83963200Y-67021200D03*
X83963200Y-68671200D03*
X83963200Y-70321200D03*
D27*
%TO.P,U1,62,GND*%
X75313200Y-61671200D03*
%TO.P,U1,63,GND*%
X75313200Y-75671200D03*
%TO.P,U1,64,GND*%
X89313200Y-75671200D03*
%TO.P,U1,65,GND*%
X89313200Y-61671200D03*
%TD*%
D11*
%TO.P,GPRS1,2,A*%
%TO.N,Net-(GPRS1-A)*%
X63221000Y-38760400D03*
%TO.P,GPRS1,1,K*%
%TO.N,Net-(ACCEL1-K)*%
X62581000Y-38760400D03*
%TD*%
D28*
%TO.P,U5,21,NC*%
%TO.N,unconnected-(U5-NC-Pad21)*%
X63398400Y-58638400D03*
D29*
%TO.P,U5,20,VCCB*%
%TO.N,Net-(U2-VDD_EXT)*%
X63648400Y-56338400D03*
D30*
%TO.P,U5,19,B0*%
%TO.N,Net-(U2-UART1_DTR)*%
X64698400Y-56888400D03*
%TO.P,U5,18,B1*%
%TO.N,Net-(U2-UART1_CTS)*%
X64698400Y-57388400D03*
%TO.P,U5,17,B2*%
%TO.N,Net-(U2-UART1_RTS)*%
X64698400Y-57888400D03*
%TO.P,U5,16,B3*%
%TO.N,Net-(U2-UART1_TXD)*%
X64698400Y-58388400D03*
%TO.P,U5,15,B4*%
%TO.N,Net-(U2-SIM_DET)*%
X64698400Y-58888400D03*
%TO.P,U5,14,B5*%
%TO.N,Net-(U2-~{PWRKEY})*%
X64698400Y-59388400D03*
%TO.P,U5,13,B6*%
%TO.N,Net-(U2-UART1_RXD)*%
X64698400Y-59888400D03*
%TO.P,U5,12,B7*%
%TO.N,unconnected-(U5-B7-Pad12)*%
X64698400Y-60388400D03*
D29*
%TO.P,U5,11,~{OE}*%
%TO.N,Net-(U1-IO26)*%
X63648400Y-60938400D03*
%TO.P,U5,10,GND*%
%TO.N,Net-(ACCEL1-K)*%
X63148400Y-60938400D03*
D30*
%TO.P,U5,9,A7*%
%TO.N,unconnected-(U5-A7-Pad9)*%
X62098400Y-60388400D03*
%TO.P,U5,8,A6*%
%TO.N,Net-(U1-IO39)*%
X62098400Y-59888400D03*
%TO.P,U5,7,A5*%
%TO.N,Net-(U1-IO38)*%
X62098400Y-59388400D03*
%TO.P,U5,6,A4*%
%TO.N,Net-(U1-IO37)*%
X62098400Y-58888400D03*
%TO.P,U5,5,A3*%
%TO.N,Net-(U1-IO36)*%
X62098400Y-58388400D03*
%TO.P,U5,4,A2*%
%TO.N,Net-(U1-IO35)*%
X62098400Y-57888400D03*
%TO.P,U5,3,A1*%
%TO.N,Net-(U1-IO34)*%
X62098400Y-57388400D03*
%TO.P,U5,2,A0*%
%TO.N,Net-(U1-IO33)*%
X62098400Y-56888400D03*
D29*
%TO.P,U5,1,VCCA*%
%TO.N,Net-(U1-3V3)*%
X63148400Y-56338400D03*
%TD*%
D31*
%TO.P,U4,1,CLKIN*%
%TO.N,Net-(ACCEL1-K)*%
X55657200Y-81960400D03*
%TO.P,U4,2,NC*%
%TO.N,unconnected-(U4-NC-Pad2)*%
X55657200Y-82460400D03*
%TO.P,U4,3,NC*%
%TO.N,unconnected-(U4-NC-Pad3)*%
X55657200Y-82960400D03*
%TO.P,U4,4,NC*%
%TO.N,unconnected-(U4-NC-Pad4)*%
X55657200Y-83460400D03*
%TO.P,U4,5,NC*%
%TO.N,unconnected-(U4-NC-Pad5)*%
X55657200Y-83960400D03*
%TO.P,U4,6,AUX_DA*%
%TO.N,unconnected-(U4-AUX_DA-Pad6)*%
X55657200Y-84460400D03*
D32*
%TO.P,U4,7,AUX_CL*%
%TO.N,unconnected-(U4-AUX_CL-Pad7)*%
X56357200Y-85160400D03*
%TO.P,U4,8,VLOGIC*%
%TO.N,Net-(U1-3V3)*%
X56857200Y-85160400D03*
%TO.P,U4,9,AD0*%
%TO.N,Net-(ACCEL1-K)*%
X57357200Y-85160400D03*
%TO.P,U4,10,REGOUT*%
%TO.N,Net-(U4-REGOUT)*%
X57857200Y-85160400D03*
%TO.P,U4,11,FSYNC*%
%TO.N,Net-(ACCEL1-K)*%
X58357200Y-85160400D03*
%TO.P,U4,12,INT*%
%TO.N,Net-(U1-IO21)*%
X58857200Y-85160400D03*
D31*
%TO.P,U4,13,VDD*%
%TO.N,Net-(U1-3V3)*%
X59557200Y-84460400D03*
%TO.P,U4,14,NC*%
%TO.N,unconnected-(U4-NC-Pad14)*%
X59557200Y-83960400D03*
%TO.P,U4,15,NC*%
%TO.N,unconnected-(U4-NC-Pad15)*%
X59557200Y-83460400D03*
%TO.P,U4,16,NC*%
%TO.N,unconnected-(U4-NC-Pad16)*%
X59557200Y-82960400D03*
%TO.P,U4,17,NC*%
%TO.N,unconnected-(U4-NC-Pad17)*%
X59557200Y-82460400D03*
%TO.P,U4,18,GND*%
%TO.N,Net-(ACCEL1-K)*%
X59557200Y-81960400D03*
D32*
%TO.P,U4,19,RESV*%
%TO.N,unconnected-(U4-RESV-Pad19)*%
X58857200Y-81260400D03*
%TO.P,U4,20,CPOUT*%
%TO.N,Net-(ACCEL1-K)*%
X58357200Y-81260400D03*
%TO.P,U4,21,RESV*%
%TO.N,unconnected-(U4-RESV-Pad21)*%
X57857200Y-81260400D03*
%TO.P,U4,22,RESV*%
%TO.N,unconnected-(U4-RESV-Pad22)*%
X57357200Y-81260400D03*
%TO.P,U4,23,SCL*%
%TO.N,Net-(U1-IO20)*%
X56857200Y-81260400D03*
%TO.P,U4,24,SDA*%
%TO.N,Net-(U1-IO19)*%
X56357200Y-81260400D03*
%TD*%
D33*
%TO.P,U6,1,UD+*%
%TO.N,Net-(J2-D+)*%
X81550600Y-80289400D03*
%TO.P,U6,2,UD-*%
%TO.N,Net-(J2-D-)*%
X81550600Y-81559400D03*
%TO.P,U6,3,GND*%
%TO.N,Net-(ACCEL1-K)*%
X81550600Y-82829400D03*
%TO.P,U6,4,~{RTS}*%
%TO.N,Net-(U6-~{RTS})*%
X81550600Y-84099400D03*
%TO.P,U6,5,VCC*%
%TO.N,Net-(U1-3V3)*%
X86800600Y-84099400D03*
%TO.P,U6,6,TXD*%
%TO.N,Net-(U1-TXD0)*%
X86800600Y-82829400D03*
%TO.P,U6,7,RXD*%
%TO.N,Net-(U1-RXD0)*%
X86800600Y-81559400D03*
%TO.P,U6,8,V3*%
%TO.N,unconnected-(U6-V3-Pad8)*%
X86800600Y-80289400D03*
%TD*%
D12*
%TO.P,LORA1,1,K*%
%TO.N,Net-(ACCEL1-K)*%
X106248600Y-73914000D03*
%TO.P,LORA1,2,A*%
%TO.N,Net-(LORA1-A)*%
X105608600Y-73914000D03*
%TD*%
D34*
%TO.P,PWR,1*%
%TO.N,Net-(ACCEL1-K)*%
X38608000Y-69465200D03*
D35*
%TO.P,PWR,2*%
%TO.N,Net-(J3-Pin_1)*%
X38608000Y-64465200D03*
%TD*%
D36*
%TO.P,U2,42,STATUS*%
%TO.N,Net-(U2-STATUS)*%
X75457600Y-40018800D03*
%TO.P,U2,41,NETLIGHT*%
%TO.N,unconnected-(U2-NETLIGHT-Pad41)*%
X76557600Y-40018800D03*
%TO.P,U2,40,VDD_EXT*%
%TO.N,Net-(U2-VDD_EXT)*%
X77657600Y-40018800D03*
%TO.P,U2,39,~{PWRKEY}*%
%TO.N,Net-(U2-~{PWRKEY})*%
X78757600Y-40018800D03*
%TO.P,U2,38,ADC*%
%TO.N,unconnected-(U2-ADC-Pad38)*%
X79857600Y-40018800D03*
%TO.P,U2,37,GND*%
%TO.N,Net-(ACCEL1-K)*%
X80957600Y-40018800D03*
%TO.P,U2,36,GND*%
X82057600Y-40018800D03*
%TO.P,U2,35,VBAT*%
%TO.N,Net-(U7-VO)*%
X83157600Y-40018800D03*
%TO.P,U2,34,VBAT*%
X84257600Y-40018800D03*
D37*
%TO.P,U2,33,GND*%
%TO.N,Net-(ACCEL1-K)*%
X87707600Y-42768800D03*
%TO.P,U2,32,GSM_ANT*%
%TO.N,Net-(AE2-A)*%
X87707600Y-43868800D03*
%TO.P,U2,31,GND*%
%TO.N,Net-(ACCEL1-K)*%
X87707600Y-44968800D03*
%TO.P,U2,30,GND*%
X87707600Y-46068800D03*
%TO.P,U2,29,RF_SYNC*%
%TO.N,unconnected-(U2-RF_SYNC-Pad29)*%
X87707600Y-47168800D03*
%TO.P,U2,28,VRTC*%
%TO.N,unconnected-(U2-VRTC-Pad28)*%
X87707600Y-48268800D03*
%TO.P,U2,27,GND*%
%TO.N,Net-(ACCEL1-K)*%
X87707600Y-49368800D03*
%TO.P,U2,26,USB_DM*%
%TO.N,unconnected-(U2-USB_DM-Pad26)*%
X87707600Y-50468800D03*
%TO.P,U2,25,USB_DP*%
%TO.N,unconnected-(U2-USB_DP-Pad25)*%
X87707600Y-51568800D03*
%TO.P,U2,24,USB_VBUS*%
%TO.N,unconnected-(U2-USB_VBUS-Pad24)*%
X87707600Y-52668800D03*
%TO.P,U2,23,UART2_RXD*%
%TO.N,unconnected-(U2-UART2_RXD-Pad23)*%
X87707600Y-53768800D03*
%TO.P,U2,22,UART2_TXD*%
%TO.N,unconnected-(U2-UART2_TXD-Pad22)*%
X87707600Y-54868800D03*
D36*
%TO.P,U2,21,GND*%
%TO.N,Net-(ACCEL1-K)*%
X84257600Y-57618800D03*
%TO.P,U2,20,BT_ANT*%
%TO.N,unconnected-(U2-BT_ANT-Pad20)*%
X83157600Y-57618800D03*
%TO.P,U2,19,GND*%
%TO.N,Net-(ACCEL1-K)*%
X82057600Y-57618800D03*
%TO.P,U2,18,SIM_VDD*%
%TO.N,Net-(J1-VCC)*%
X80957600Y-57618800D03*
%TO.P,U2,17,SIM_RST*%
%TO.N,Net-(J1-RST)*%
X79857600Y-57618800D03*
%TO.P,U2,16,SIM_CLK*%
%TO.N,Net-(J1-CLK)*%
X78757600Y-57618800D03*
%TO.P,U2,15,SIM_DATA*%
%TO.N,Net-(J1-I{slash}O)*%
X77657600Y-57618800D03*
%TO.P,U2,14,SIM_DET*%
%TO.N,Net-(U2-SIM_DET)*%
X76557600Y-57618800D03*
%TO.P,U2,13,GND*%
%TO.N,Net-(ACCEL1-K)*%
X75457600Y-57618800D03*
D37*
%TO.P,U2,12,SPKN*%
%TO.N,unconnected-(U2-SPKN-Pad12)*%
X72007600Y-54868800D03*
%TO.P,U2,11,SPKP*%
%TO.N,unconnected-(U2-SPKP-Pad11)*%
X72007600Y-53768800D03*
%TO.P,U2,10,MICN*%
%TO.N,unconnected-(U2-MICN-Pad10)*%
X72007600Y-52668800D03*
%TO.P,U2,9,MICP*%
%TO.N,unconnected-(U2-MICP-Pad9)*%
X72007600Y-51568800D03*
%TO.P,U2,8,GND*%
%TO.N,Net-(ACCEL1-K)*%
X72007600Y-50468800D03*
%TO.P,U2,7,UART1_RI*%
%TO.N,unconnected-(U2-UART1_RI-Pad7)*%
X72007600Y-49368800D03*
%TO.P,U2,6,UART1_DTR*%
%TO.N,Net-(U2-UART1_DTR)*%
X72007600Y-48268800D03*
%TO.P,U2,5,UART1_DCD*%
%TO.N,unconnected-(U2-UART1_DCD-Pad5)*%
X72007600Y-47168800D03*
%TO.P,U2,4,UART1_CTS*%
%TO.N,Net-(U2-UART1_CTS)*%
X72007600Y-46068800D03*
%TO.P,U2,3,UART1_RTS*%
%TO.N,Net-(U2-UART1_RTS)*%
X72007600Y-44968800D03*
%TO.P,U2,2,UART1_RXD*%
%TO.N,Net-(U2-UART1_RXD)*%
X72007600Y-43868800D03*
%TO.P,U2,1,UART1_TXD*%
%TO.N,Net-(U2-UART1_TXD)*%
X72007600Y-42768800D03*
%TD*%
D13*
%TO.P,ACCEL1,2,A*%
%TO.N,Net-(ACCEL1-A)*%
X96570800Y-70607400D03*
%TO.P,ACCEL1,1,K*%
%TO.N,Net-(ACCEL1-K)*%
X96570800Y-71247400D03*
%TD*%
D38*
%TO.P,U3,29,GND*%
%TO.N,Net-(ACCEL1-K)*%
X63322400Y-68656000D03*
D39*
%TO.P,U3,28,RFO_LF*%
%TO.N,unconnected-(U3-RFO_LF-Pad28)*%
X61372400Y-65668500D03*
%TO.P,U3,27,PA_BOOST*%
%TO.N,Net-(AE1-A)*%
X62022400Y-65668500D03*
%TO.P,U3,26,GND*%
%TO.N,Net-(ACCEL1-K)*%
X62672400Y-65668500D03*
%TO.P,U3,25,VR_PA*%
%TO.N,unconnected-(U3-VR_PA-Pad25)*%
X63322400Y-65668500D03*
%TO.P,U3,24,VBAT_RF*%
%TO.N,Net-(U1-3V3)*%
X63972400Y-65668500D03*
%TO.P,U3,23,GND*%
%TO.N,Net-(ACCEL1-K)*%
X64622400Y-65668500D03*
%TO.P,U3,22,GND*%
X65272400Y-65668500D03*
D40*
%TO.P,U3,21,GND*%
X66309900Y-66706000D03*
%TO.P,U3,20,RXTX/RF_MOD*%
%TO.N,unconnected-(U3-RXTX{slash}RF_MOD-Pad20)*%
X66309900Y-67356000D03*
%TO.P,U3,19,NSS*%
%TO.N,Net-(U1-IO4)*%
X66309900Y-68006000D03*
%TO.P,U3,18,MOSI*%
%TO.N,Net-(U1-IO3)*%
X66309900Y-68656000D03*
%TO.P,U3,17,MISO*%
%TO.N,Net-(U1-IO2)*%
X66309900Y-69306000D03*
%TO.P,U3,16,SCK*%
%TO.N,Net-(U1-IO1)*%
X66309900Y-69956000D03*
%TO.P,U3,15,GND*%
%TO.N,Net-(ACCEL1-K)*%
X66309900Y-70606000D03*
D39*
%TO.P,U3,14,VBAT_DIG*%
%TO.N,Net-(U1-3V3)*%
X65272400Y-71643500D03*
%TO.P,U3,13,DIO5*%
%TO.N,unconnected-(U3-DIO5-Pad13)*%
X64622400Y-71643500D03*
%TO.P,U3,12,DIO4*%
%TO.N,unconnected-(U3-DIO4-Pad12)*%
X63972400Y-71643500D03*
%TO.P,U3,11,DIO3*%
%TO.N,unconnected-(U3-DIO3-Pad11)*%
X63322400Y-71643500D03*
%TO.P,U3,10,DIO2*%
%TO.N,unconnected-(U3-DIO2-Pad10)*%
X62672400Y-71643500D03*
%TO.P,U3,9,DIO1*%
%TO.N,unconnected-(U3-DIO1-Pad9)*%
X62022400Y-71643500D03*
%TO.P,U3,8,DIO0*%
%TO.N,Net-(U1-IO6)*%
X61372400Y-71643500D03*
D40*
%TO.P,U3,7,~{RESET}*%
%TO.N,Net-(U1-IO5)*%
X60334900Y-70606000D03*
%TO.P,U3,6,XTB*%
%TO.N,unconnected-(U3-XTB-Pad6)*%
X60334900Y-69956000D03*
%TO.P,U3,5,XTA*%
%TO.N,unconnected-(U3-XTA-Pad5)*%
X60334900Y-69306000D03*
%TO.P,U3,4,VR_DIG*%
%TO.N,unconnected-(U3-VR_DIG-Pad4)*%
X60334900Y-68656000D03*
%TO.P,U3,3,VBAT_ANA*%
%TO.N,Net-(U1-3V3)*%
X60334900Y-68006000D03*
%TO.P,U3,2,VR_ANA*%
%TO.N,unconnected-(U3-VR_ANA-Pad2)*%
X60334900Y-67356000D03*
%TO.P,U3,1,RFI_LF*%
%TO.N,unconnected-(U3-RFI_LF-Pad1)*%
X60334900Y-66706000D03*
%TD*%
D41*
%TO.P,J2,6,Shield*%
%TO.N,Net-(ACCEL1-K)*%
X100902200Y-76982400D03*
X95452200Y-76982400D03*
X100902200Y-85882400D03*
X95452200Y-85882400D03*
D42*
%TO.P,J2,5,GND*%
X95352200Y-79832400D03*
%TO.P,J2,4,ID*%
%TO.N,unconnected-(J2-ID-Pad4)*%
X95352200Y-80632400D03*
%TO.P,J2,3,D+*%
%TO.N,Net-(J2-D+)*%
X95352200Y-81432400D03*
%TO.P,J2,2,D-*%
%TO.N,Net-(J2-D-)*%
X95352200Y-82232400D03*
%TO.P,J2,1,VBUS*%
%TO.N,unconnected-(J2-VBUS-Pad1)*%
X95352200Y-83032400D03*
%TD*%
D17*
%TO.P,U8,3,VI*%
%TO.N,Net-(J3-Pin_1)*%
X42620400Y-55589200D03*
D18*
%TO.P,U8,2,VO*%
%TO.N,Net-(U1-3V3)*%
X48920400Y-53289200D03*
D17*
X42620400Y-53289200D03*
%TO.P,U8,1,GND*%
%TO.N,Net-(ACCEL1-K)*%
X42620400Y-50989200D03*
%TD*%
D43*
%TO.N,Net-(U7-VO)*%
X61671200Y-38100000D03*
X61874400Y-42570400D03*
%TO.N,Net-(ACCEL1-K)*%
X66040000Y-36381600D03*
%TO.N,Net-(U1-3V3)*%
X44704000Y-61010800D03*
X40487600Y-53238400D03*
%TO.N,Net-(U1-IO36)*%
X55046628Y-79289305D03*
X55504212Y-77683622D03*
%TO.N,Net-(U1-IO20)*%
X54781000Y-73253600D03*
X52981000Y-74066400D03*
%TO.N,Net-(U1-IO36)*%
X68224400Y-82550000D03*
X68224400Y-83870800D03*
%TO.N,Net-(ACCEL1-K)*%
X65836800Y-41402000D03*
X61967200Y-40995600D03*
%TO.N,Net-(U7-VO)*%
X49775200Y-44551600D03*
X48564800Y-44094400D03*
%TO.N,Net-(U7-ADJ)*%
X48827600Y-42011600D03*
X49927600Y-42062400D03*
%TO.N,Net-(ACCEL1-K)*%
X40081200Y-73406000D03*
X97078800Y-73609200D03*
X90830400Y-63321200D03*
X58457200Y-86290546D03*
X54397200Y-80924400D03*
X51409600Y-63601600D03*
X79857600Y-82194400D03*
X73609200Y-72745600D03*
X45974000Y-72339200D03*
X53746400Y-82143600D03*
X52120800Y-72847200D03*
X97776737Y-72403263D03*
X75051891Y-58846691D03*
X91490800Y-75285600D03*
X91744800Y-54203600D03*
X69900800Y-60189200D03*
X67411600Y-65157200D03*
X80822800Y-38303200D03*
X56591200Y-86919200D03*
X55104394Y-85860266D03*
X64922400Y-63957200D03*
X84988400Y-38354000D03*
X89916000Y-44754800D03*
X55727600Y-79603600D03*
X56743600Y-63296800D03*
X73244800Y-71424800D03*
X80987366Y-85099401D03*
X51104800Y-70926400D03*
X57972400Y-62726944D03*
X65379600Y-73905200D03*
X89112800Y-54051200D03*
X101600000Y-74472800D03*
X102006400Y-72593200D03*
X69291200Y-58978800D03*
X89105935Y-45615665D03*
X90391117Y-62121200D03*
X58441495Y-80067225D03*
X73244800Y-74574400D03*
X54930800Y-63042800D03*
X40182800Y-45466000D03*
X93116400Y-76555600D03*
X40436800Y-46990000D03*
X44653200Y-73507600D03*
X86258400Y-57998000D03*
X63355135Y-63507535D03*
X71678800Y-71475600D03*
%TO.N,Net-(AE1-A)*%
X56743600Y-64262000D03*
X45262800Y-70662800D03*
X45618400Y-86410800D03*
X59893200Y-61366400D03*
X54940400Y-64262000D03*
X53330800Y-64262000D03*
%TO.N,Net-(AE2-A)*%
X92913200Y-60248800D03*
X89712800Y-55422800D03*
%TO.N,Net-(U1-3V3)*%
X62788800Y-77165200D03*
X56490400Y-69189600D03*
X59944000Y-87319200D03*
X54940400Y-70408800D03*
X71976065Y-63746465D03*
X60096400Y-73101200D03*
X64516000Y-87630000D03*
X65164000Y-55168800D03*
X67070787Y-59488399D03*
X61264800Y-81127600D03*
X61976000Y-85598000D03*
X57954000Y-69951600D03*
X68986400Y-62696800D03*
X60807600Y-85700000D03*
X53035200Y-71526400D03*
X71645865Y-65854665D03*
X58134400Y-71983600D03*
X67462400Y-66106000D03*
X60502800Y-64363600D03*
X67157600Y-62036400D03*
X46474465Y-63390865D03*
X64414400Y-53035200D03*
X63240188Y-64248677D03*
X62353721Y-86900000D03*
X56692800Y-70510400D03*
X59179649Y-68797358D03*
X54930800Y-67614800D03*
X65125600Y-72745600D03*
X48971200Y-62138000D03*
X60096400Y-74726800D03*
X61569600Y-75793600D03*
X56956400Y-68275200D03*
X53330800Y-67564000D03*
X68224400Y-63636600D03*
X63754000Y-74828400D03*
X61772800Y-55321200D03*
X84988400Y-86826800D03*
%TO.N,Net-(U4-REGOUT)*%
X53533600Y-83012193D03*
X57510041Y-86848888D03*
%TO.N,Net-(U7-VO)*%
X60756800Y-39471600D03*
%TO.N,Net-(J2-D-)*%
X79806800Y-84699400D03*
X88087200Y-88176400D03*
X79806800Y-83499400D03*
X88087200Y-86757600D03*
%TO.N,Net-(U6-~{RTS})*%
X78841600Y-83210400D03*
X69697600Y-83362800D03*
%TO.N,Net-(U1-IO0)*%
X70612000Y-83362800D03*
X72827857Y-65521200D03*
%TO.N,Net-(U1-EN)*%
X62941200Y-73964800D03*
X92303600Y-62687200D03*
X56997600Y-75895200D03*
X61315600Y-83413600D03*
X55168800Y-77012800D03*
%TO.N,Net-(J1-RST)*%
X87801727Y-59953600D03*
X79806800Y-59598000D03*
%TO.N,Net-(J1-CLK)*%
X79006797Y-59598000D03*
X90244085Y-60051245D03*
%TO.N,Net-(J1-I{slash}O)*%
X77673200Y-59029600D03*
X91440000Y-58928000D03*
%TO.N,Net-(U1-IO20)*%
X60045600Y-77124000D03*
X60045600Y-79095600D03*
%TO.N,Net-(U2-STATUS)*%
X73253600Y-38579200D03*
X68792800Y-40894000D03*
%TO.N,Net-(U1-IO41)*%
X90881200Y-68884800D03*
X91033600Y-66344800D03*
%TO.N,Net-(U1-IO40)*%
X91897200Y-66371200D03*
X91607570Y-69220048D03*
%TO.N,Net-(U1-IO37)*%
X56540400Y-73406000D03*
X90748000Y-72671200D03*
%TO.N,Net-(U1-IO1)*%
X72288400Y-66371200D03*
X69088000Y-69189600D03*
%TO.N,Net-(U1-IO26)*%
X72593200Y-76524000D03*
X71678800Y-80975200D03*
X77114400Y-80289400D03*
X58572400Y-67716400D03*
X64770000Y-62484000D03*
X84836000Y-77266800D03*
%TO.N,Net-(U1-IO3)*%
X69349017Y-67707599D03*
X68326000Y-68732400D03*
%TO.N,Net-(U1-IO38)*%
X88948065Y-77873665D03*
X78783265Y-81541535D03*
X77263869Y-81849790D03*
X74371200Y-77124000D03*
%TO.N,Net-(U1-IO34)*%
X77470000Y-81076800D03*
X59296397Y-57788400D03*
X78385128Y-80289400D03*
X87426800Y-76616000D03*
%TO.N,Net-(U1-IO6)*%
X62179200Y-73355200D03*
X64871600Y-76149200D03*
%TO.N,Net-(U1-IO33)*%
X86664800Y-77816000D03*
X88900000Y-79146400D03*
X87528400Y-78790800D03*
X60442009Y-56596305D03*
%TO.N,Net-(U1-TXD0)*%
X89103200Y-80924400D03*
X90337473Y-77816000D03*
%TO.N,Net-(U1-IO2)*%
X71221600Y-67157600D03*
X67564000Y-69256000D03*
%TO.N,Net-(U1-IO5)*%
X69494400Y-69951600D03*
X59334400Y-70612000D03*
%TO.N,Net-(U1-IO39)*%
X73507600Y-60401200D03*
X60706000Y-59944000D03*
X91348000Y-71323200D03*
X91084400Y-61722000D03*
%TO.N,Net-(U1-IO35)*%
X90544800Y-74635612D03*
X92344800Y-72914834D03*
X91490800Y-70205600D03*
X60096400Y-57788400D03*
%TO.N,Net-(U1-IO36)*%
X91144800Y-73964800D03*
X89357200Y-76616000D03*
%TO.N,Net-(U2-~{PWRKEY})*%
X66040000Y-59488400D03*
X65532000Y-53035200D03*
%TO.N,Net-(U2-SIM_DET)*%
X68597865Y-59657065D03*
X67612065Y-58407665D03*
%TO.N,Net-(U2-UART1_CTS)*%
X66364000Y-53086000D03*
X68976800Y-49936400D03*
%TO.N,Net-(U2-UART1_RTS)*%
X66964000Y-51206400D03*
X68986400Y-48666400D03*
%TO.N,Net-(U2-UART1_DTR)*%
X65764000Y-54000400D03*
X68976800Y-51257200D03*
%TO.N,Net-(U2-VDD_EXT)*%
X71214065Y-37979200D03*
X69392800Y-43637200D03*
X65379600Y-47548800D03*
X69392800Y-38201600D03*
%TO.N,Net-(J2-D+)*%
X93624400Y-81432400D03*
X79806800Y-80314800D03*
%TD*%
D44*
%TO.N,Net-(ACCEL1-K)*%
X106248600Y-73127000D02*
X106248600Y-73914000D01*
X104952800Y-71831200D02*
X106248600Y-73127000D01*
X102768400Y-71831200D02*
X104952800Y-71831200D01*
X102006400Y-72593200D02*
X102768400Y-71831200D01*
%TO.N,Net-(U7-VO)*%
X56235600Y-49428400D02*
X60272900Y-49428400D01*
X55476200Y-50187800D02*
X56235600Y-49428400D01*
X60272900Y-49428400D02*
X61874400Y-47826900D01*
X55476200Y-52222400D02*
X55476200Y-50187800D01*
%TO.N,Net-(ACCEL1-K)*%
X61366400Y-52222400D02*
X63449200Y-50139600D01*
X60401200Y-52222400D02*
X61366400Y-52222400D01*
%TO.N,Net-(U1-3V3)*%
X61010800Y-55880000D02*
X61569600Y-55321200D01*
X61569600Y-55321200D02*
X61772800Y-55321200D01*
X61010800Y-55981600D02*
X61010800Y-55880000D01*
X61367600Y-56338400D02*
X61010800Y-55981600D01*
X59740800Y-56134000D02*
X59994800Y-55880000D01*
X56286400Y-56134000D02*
X59740800Y-56134000D01*
X54559200Y-57861200D02*
X56286400Y-56134000D01*
X54559200Y-58470800D02*
X54559200Y-57861200D01*
X50892000Y-62138000D02*
X54559200Y-58470800D01*
X59994800Y-55880000D02*
X61010800Y-55880000D01*
X50495200Y-62138000D02*
X50892000Y-62138000D01*
X63148400Y-56338400D02*
X61367600Y-56338400D01*
%TO.N,Net-(ACCEL1-K)*%
X63449200Y-42468800D02*
X65176400Y-40741600D01*
X65836800Y-41402000D02*
X65176400Y-40741600D01*
X65176400Y-40741600D02*
X63851000Y-39416200D01*
%TO.N,Net-(U7-VO)*%
X60863200Y-37292000D02*
X60710800Y-37292000D01*
X61671200Y-38100000D02*
X60863200Y-37292000D01*
X60710800Y-37292000D02*
X61071200Y-36931600D01*
X59648800Y-38354000D02*
X60710800Y-37292000D01*
X61874400Y-47826900D02*
X61874400Y-42570400D01*
%TO.N,Net-(ACCEL1-K)*%
X52603800Y-49351800D02*
X53136800Y-48818800D01*
X52603800Y-51409600D02*
X52603800Y-49351800D01*
X53136800Y-48818800D02*
X49987200Y-48818800D01*
X58521600Y-48818800D02*
X53136800Y-48818800D01*
%TO.N,Net-(U1-3V3)*%
X51963800Y-53797200D02*
X50749200Y-55011800D01*
X51963800Y-51409600D02*
X51963800Y-53797200D01*
%TO.N,Net-(ACCEL1-K)*%
X66099600Y-36322000D02*
X66040000Y-36381600D01*
X69591400Y-36322000D02*
X66099600Y-36322000D01*
X59944000Y-48818800D02*
X58521600Y-48818800D01*
X61967200Y-40995600D02*
X60553600Y-42409200D01*
X60553600Y-42409200D02*
X60553600Y-48209200D01*
X60553600Y-48209200D02*
X59944000Y-48818800D01*
X69591400Y-35920200D02*
X70154800Y-35356800D01*
X70154800Y-35356800D02*
X74523600Y-35356800D01*
X69591400Y-36322000D02*
X69591400Y-35920200D01*
%TO.N,Net-(U7-VO)*%
X71221600Y-36322000D02*
X71831200Y-36931600D01*
X71831200Y-36931600D02*
X76555600Y-36931600D01*
X70231400Y-36322000D02*
X71221600Y-36322000D01*
X61071200Y-36931600D02*
X71831200Y-36931600D01*
%TO.N,Net-(U1-IO37)*%
X54330800Y-61696400D02*
X54330800Y-71196400D01*
X54330800Y-71196400D02*
X56540400Y-73406000D01*
X62098400Y-58888400D02*
X57138800Y-58888400D01*
X57138800Y-58888400D02*
X54330800Y-61696400D01*
%TO.N,Net-(U1-IO36)*%
X54231000Y-71662286D02*
X53930800Y-71362086D01*
X54231000Y-76852818D02*
X54231000Y-71662286D01*
X55937000Y-58388400D02*
X62098400Y-58388400D01*
X55061804Y-77683622D02*
X54231000Y-76852818D01*
X55504212Y-77683622D02*
X55061804Y-77683622D01*
X53930800Y-71362086D02*
X53930800Y-60394600D01*
X53930800Y-60394600D02*
X55937000Y-58388400D01*
%TO.N,Net-(ACCEL1-K)*%
X74523600Y-35356800D02*
X81553401Y-35356800D01*
X74061800Y-35818600D02*
X74523600Y-35356800D01*
X74061800Y-36423600D02*
X74061800Y-35818600D01*
%TO.N,Net-(U7-VO)*%
X76047600Y-36423600D02*
X76555600Y-36931600D01*
X74701800Y-36423600D02*
X76047600Y-36423600D01*
X59648800Y-38750800D02*
X58826400Y-39573200D01*
X59648800Y-38354000D02*
X59648800Y-38750800D01*
X60756800Y-39471600D02*
X58928000Y-39471600D01*
%TO.N,Net-(U1-3V3)*%
X50749200Y-61147418D02*
X50495200Y-61401418D01*
X50749200Y-55011800D02*
X50749200Y-61147418D01*
X44704000Y-61010800D02*
X47736218Y-61010800D01*
X47736218Y-61010800D02*
X48920400Y-59826618D01*
X40538400Y-53289200D02*
X40487600Y-53238400D01*
X42620400Y-53289200D02*
X40538400Y-53289200D01*
%TO.N,Net-(ACCEL1-K)*%
X49987200Y-48818800D02*
X40436800Y-48818800D01*
%TO.N,Net-(J3-Pin_1)*%
X42620400Y-56090400D02*
X39728800Y-58982000D01*
X42620400Y-55589200D02*
X42620400Y-56090400D01*
%TO.N,Net-(U1-3V3)*%
X50495200Y-61401418D02*
X50495200Y-62138000D01*
X48920400Y-53289200D02*
X48920400Y-59826618D01*
X50444400Y-62138000D02*
X50495200Y-62138000D01*
X48920400Y-59826618D02*
X50495200Y-61401418D01*
%TO.N,Net-(ACCEL1-K)*%
X40436800Y-48818800D02*
X40436800Y-49072800D01*
X40436800Y-46990000D02*
X40436800Y-48818800D01*
X40436800Y-49072800D02*
X42353200Y-50989200D01*
X42353200Y-50989200D02*
X42620400Y-50989200D01*
X40843200Y-42976800D02*
X40690800Y-43129200D01*
X42413400Y-42976800D02*
X40843200Y-42976800D01*
X40690800Y-44958000D02*
X40690800Y-43129200D01*
X40690800Y-43129200D02*
X40690800Y-39979600D01*
%TO.N,Net-(U7-ADJ)*%
X44246800Y-42976800D02*
X45262800Y-43992800D01*
X43053400Y-42976800D02*
X44246800Y-42976800D01*
X45262800Y-43992800D02*
X45262800Y-45364400D01*
X45262800Y-43840400D02*
X45262800Y-43992800D01*
%TO.N,Net-(U1-3V3)*%
X71196600Y-74346200D02*
X69063000Y-74346200D01*
X69063000Y-74346200D02*
X69037200Y-74320400D01*
%TO.N,Net-(U1-IO3)*%
X75005200Y-67513200D02*
X75313200Y-67821200D01*
X71449418Y-67707600D02*
X71643818Y-67513200D01*
X70993782Y-67707600D02*
X71449418Y-67707600D01*
X70799382Y-67513200D02*
X70993782Y-67707600D01*
X69543416Y-67513200D02*
X70799382Y-67513200D01*
X71643818Y-67513200D02*
X75005200Y-67513200D01*
X69349017Y-67707599D02*
X69543416Y-67513200D01*
%TO.N,Net-(U1-3V3)*%
X71196600Y-73660000D02*
X71196600Y-74346200D01*
%TO.N,Net-(ACCEL1-K)*%
X70556600Y-70864600D02*
X70815200Y-70606000D01*
X70815200Y-70606000D02*
X71381800Y-70606000D01*
X70556600Y-73660000D02*
X70556600Y-70864600D01*
X66309900Y-70606000D02*
X70815200Y-70606000D01*
X71678800Y-70903000D02*
X72071400Y-70510400D01*
X72071400Y-70510400D02*
X72330400Y-70510400D01*
X72330400Y-70510400D02*
X73244800Y-71424800D01*
X71381800Y-70606000D02*
X71678800Y-70903000D01*
%TO.N,Net-(U1-3V3)*%
X68580000Y-76250800D02*
X65751018Y-76250800D01*
X69037200Y-75793600D02*
X68580000Y-76250800D01*
X68884800Y-74168000D02*
X69037200Y-74320400D01*
X69037200Y-74320400D02*
X69037200Y-75793600D01*
X68884800Y-72545400D02*
X68884800Y-74168000D01*
X64328618Y-74828400D02*
X63754000Y-74828400D01*
X69040200Y-72390000D02*
X68884800Y-72545400D01*
X65751018Y-76250800D02*
X64328618Y-74828400D01*
X68199400Y-75438000D02*
X69037200Y-75438000D01*
%TO.N,Net-(ACCEL1-K)*%
X87172800Y-36322000D02*
X87172800Y-37185600D01*
X86207600Y-35356800D02*
X87172800Y-36322000D01*
X87274400Y-37185600D02*
X87172800Y-37185600D01*
X87172800Y-37185600D02*
X86156800Y-37185600D01*
X81553401Y-35356800D02*
X86207600Y-35356800D01*
X80818200Y-36092001D02*
X81553401Y-35356800D01*
X80818200Y-36322000D02*
X80818200Y-36092001D01*
%TO.N,Net-(U7-VO)*%
X79243200Y-38354000D02*
X80618000Y-36979200D01*
X77978000Y-38354000D02*
X79243200Y-38354000D01*
X76555600Y-36931600D02*
X77978000Y-38354000D01*
X81991200Y-36322000D02*
X82702400Y-37033200D01*
X81458200Y-36322000D02*
X81991200Y-36322000D01*
X82702400Y-37033200D02*
X83972400Y-37033200D01*
X80672000Y-37033200D02*
X82702400Y-37033200D01*
%TO.N,Net-(U1-3V3)*%
X48165200Y-76098400D02*
X47708000Y-75641200D01*
X52268600Y-76098400D02*
X48165200Y-76098400D01*
%TO.N,Net-(U1-IO36)*%
X54732333Y-79603600D02*
X53797200Y-79603600D01*
X55046628Y-79289305D02*
X54732333Y-79603600D01*
X53797200Y-81543600D02*
X53797200Y-79603600D01*
%TO.N,Net-(U1-3V3)*%
X53543200Y-78333600D02*
X52268600Y-77059000D01*
X53691000Y-78333600D02*
X53543200Y-78333600D01*
%TO.N,Net-(U1-IO19)*%
X57251600Y-78333600D02*
X57658000Y-77927200D01*
X54331000Y-78333600D02*
X57251600Y-78333600D01*
%TO.N,Net-(U1-3V3)*%
X52268600Y-76098400D02*
X52268600Y-77059000D01*
%TO.N,Net-(U1-IO20)*%
X54781000Y-73253600D02*
X54781000Y-74034200D01*
X57089600Y-74168000D02*
X54914800Y-74168000D01*
X54781000Y-74034200D02*
X54914800Y-74168000D01*
X52908600Y-74138800D02*
X52981000Y-74066400D01*
X52908600Y-76098400D02*
X52908600Y-74138800D01*
X60045600Y-77124000D02*
X57089600Y-74168000D01*
%TO.N,Net-(U1-EN)*%
X68400200Y-72390000D02*
X67895200Y-72390000D01*
%TO.N,Net-(U1-IO41)*%
X96672400Y-65833800D02*
X96672400Y-65328800D01*
%TO.N,Net-(ACCEL1-A)*%
X96672400Y-70505800D02*
X96672400Y-66473800D01*
X96570800Y-70607400D02*
X96672400Y-70505800D01*
%TO.N,Net-(GPRS1-A)*%
X66368200Y-38811200D02*
X63271800Y-38811200D01*
X63271800Y-38811200D02*
X63221000Y-38760400D01*
%TO.N,Net-(U2-STATUS)*%
X68072000Y-38811200D02*
X67008200Y-38811200D01*
X68792800Y-39532000D02*
X68072000Y-38811200D01*
X68792800Y-40894000D02*
X68792800Y-39532000D01*
%TO.N,Net-(U1-IO40)*%
X94783200Y-69122314D02*
X92032086Y-66371200D01*
X94783200Y-70258256D02*
X94783200Y-69122314D01*
X97778544Y-73253600D02*
X94783200Y-70258256D01*
X92032086Y-66371200D02*
X91897200Y-66371200D01*
X99554400Y-73253600D02*
X97778544Y-73253600D01*
%TO.N,Net-(LORA1-A)*%
X103820000Y-73253600D02*
X100194400Y-73253600D01*
X104480400Y-73914000D02*
X103820000Y-73253600D01*
X105608600Y-73914000D02*
X104480400Y-73914000D01*
%TO.N,Net-(U7-ADJ)*%
X45262800Y-45364400D02*
X46911800Y-45364400D01*
X47040800Y-42062400D02*
X45262800Y-43840400D01*
X48006000Y-42062400D02*
X47040800Y-42062400D01*
%TO.N,Net-(U7-VO)*%
X48310800Y-45364400D02*
X47551800Y-45364400D01*
X48564800Y-45110400D02*
X48310800Y-45364400D01*
X48564800Y-44094400D02*
X48564800Y-45110400D01*
%TO.N,Net-(ACCEL1-K)*%
X66912400Y-75438000D02*
X67559400Y-75438000D01*
X65379600Y-73905200D02*
X66912400Y-75438000D01*
%TO.N,Net-(J3-Pin_1)*%
X38608000Y-60102800D02*
X39728800Y-58982000D01*
X38608000Y-64465200D02*
X38608000Y-60102800D01*
%TO.N,Net-(ACCEL1-K)*%
X38608000Y-71932800D02*
X38608000Y-69465200D01*
X40081200Y-73406000D02*
X38608000Y-71932800D01*
X45745400Y-85725000D02*
X45745400Y-78892400D01*
X47040800Y-87020400D02*
X45745400Y-85725000D01*
X49132400Y-87020400D02*
X47040800Y-87020400D01*
%TO.N,Net-(U4-REGOUT)*%
X49772400Y-87020400D02*
X50952400Y-87020400D01*
%TO.N,Net-(ACCEL1-K)*%
X48387000Y-81534000D02*
X45745400Y-78892400D01*
X49335600Y-81534000D02*
X48387000Y-81534000D01*
%TO.N,Net-(U4-REGOUT)*%
X49975600Y-81534000D02*
X51155600Y-81534000D01*
X51155600Y-81534000D02*
X52425600Y-82804000D01*
X52425600Y-82804000D02*
X52425600Y-83210400D01*
%TO.N,Net-(U1-EN)*%
X67767200Y-73355200D02*
X67895200Y-73227200D01*
X67895200Y-73227200D02*
X67895200Y-72390000D01*
X62941200Y-73964800D02*
X63550800Y-73355200D01*
X63550800Y-73355200D02*
X67767200Y-73355200D01*
%TO.N,Net-(U1-3V3)*%
X48781600Y-67564000D02*
X47301600Y-67564000D01*
%TO.N,Net-(ACCEL1-K)*%
X49421600Y-67564000D02*
X50901600Y-67564000D01*
%TO.N,Net-(U1-3V3)*%
X41002400Y-74669200D02*
X41002400Y-76454000D01*
X41002400Y-76454000D02*
X42482400Y-76454000D01*
X42722800Y-72948800D02*
X41002400Y-74669200D01*
X44602400Y-71685600D02*
X44602400Y-72948800D01*
X44602400Y-72948800D02*
X42722800Y-72948800D01*
X51866800Y-71526400D02*
X44761600Y-71526400D01*
X44761600Y-71526400D02*
X44602400Y-71685600D01*
%TO.N,Net-(ACCEL1-K)*%
X43122400Y-76454000D02*
X44602400Y-76454000D01*
X49828000Y-75641200D02*
X51308000Y-75641200D01*
%TO.N,Net-(U1-3V3)*%
X49188000Y-75641200D02*
X47708000Y-75641200D01*
%TO.N,Net-(U6-~{RTS})*%
X74894400Y-83168000D02*
X76374400Y-83168000D01*
%TO.N,Net-(U1-IO0)*%
X70806800Y-83168000D02*
X70612000Y-83362800D01*
X74254400Y-83168000D02*
X70806800Y-83168000D01*
%TO.N,Net-(U1-IO36)*%
X53994929Y-81543600D02*
X53797200Y-81543600D01*
X54346400Y-81895071D02*
X53994929Y-81543600D01*
X54346400Y-82392129D02*
X54346400Y-81895071D01*
X54054232Y-82684297D02*
X54346400Y-82392129D01*
X54133600Y-82763664D02*
X54054232Y-82684297D01*
X53126336Y-83612193D02*
X53782129Y-83612193D01*
X52171600Y-85566800D02*
X52171600Y-84566929D01*
X54981200Y-88376400D02*
X52171600Y-85566800D01*
X53782129Y-83612193D02*
X54133600Y-83260722D01*
X54133600Y-83260722D02*
X54133600Y-82763664D01*
X52171600Y-84566929D02*
X53126336Y-83612193D01*
X68224400Y-87731600D02*
X67579600Y-88376400D01*
X68224400Y-83870800D02*
X68224400Y-87731600D01*
X67579600Y-88376400D02*
X54981200Y-88376400D01*
X68224400Y-83870800D02*
X68173600Y-83921600D01*
X68271456Y-82502944D02*
X68224400Y-82550000D01*
X68271456Y-79689400D02*
X68271456Y-82502944D01*
%TO.N,Net-(U6-~{RTS})*%
X69646800Y-83312000D02*
X69697600Y-83362800D01*
X65953600Y-83312000D02*
X69646800Y-83312000D01*
%TO.N,Net-(U1-EN)*%
X61417200Y-83312000D02*
X61315600Y-83413600D01*
X65313600Y-83312000D02*
X61417200Y-83312000D01*
%TO.N,Net-(ACCEL1-K)*%
X41097200Y-39573200D02*
X44362000Y-39573200D01*
X40690800Y-39979600D02*
X41097200Y-39573200D01*
X40182800Y-45466000D02*
X40690800Y-44958000D01*
%TO.N,Net-(U7-VO)*%
X49326800Y-39573200D02*
X45002000Y-39573200D01*
%TO.N,Net-(AE2-A)*%
X97434400Y-57353200D02*
X101649000Y-57353200D01*
X97217000Y-57570600D02*
X97434400Y-57353200D01*
X97217000Y-62183000D02*
X97217000Y-57570600D01*
X97078800Y-62321200D02*
X97217000Y-62183000D01*
X94985600Y-62321200D02*
X97078800Y-62321200D01*
X92913200Y-60248800D02*
X94985600Y-62321200D01*
X103124000Y-58828200D02*
X104599000Y-57353200D01*
X103124000Y-58853200D02*
X103124000Y-58828200D01*
X101649000Y-57378200D02*
X103124000Y-58853200D01*
X101649000Y-57353200D02*
X101649000Y-57378200D01*
X103124000Y-55853200D02*
X103124000Y-55878200D01*
X103124000Y-55878200D02*
X101649000Y-57353200D01*
X104599000Y-57328200D02*
X103124000Y-55853200D01*
X104599000Y-57353200D02*
X104599000Y-57328200D01*
%TO.N,Net-(AE1-A)*%
X43335000Y-86260200D02*
X44196000Y-87121200D01*
X39244400Y-86260200D02*
X43335000Y-86260200D01*
X36269400Y-86260200D02*
X37744400Y-84785200D01*
X36244400Y-86260200D02*
X36269400Y-86260200D01*
X37719400Y-87735200D02*
X36244400Y-86260200D01*
X37744400Y-87735200D02*
X37719400Y-87735200D01*
X37769400Y-87735200D02*
X37744400Y-87735200D01*
X39244400Y-86260200D02*
X37769400Y-87735200D01*
X39219400Y-86260200D02*
X37744400Y-84785200D01*
X39244400Y-86260200D02*
X39219400Y-86260200D01*
%TO.N,Net-(ACCEL1-K)*%
X63851000Y-39416200D02*
X61925200Y-39416200D01*
%TO.N,Net-(U7-VO)*%
X49927600Y-44399200D02*
X50495200Y-44399200D01*
X49775200Y-44551600D02*
X49927600Y-44399200D01*
%TO.N,Net-(U7-ADJ)*%
X48776800Y-42062400D02*
X48006000Y-42062400D01*
X48827600Y-42011600D02*
X48776800Y-42062400D01*
X49964400Y-42099200D02*
X49927600Y-42062400D01*
X52120000Y-42099200D02*
X49964400Y-42099200D01*
%TO.N,Net-(U7-VO)*%
X49377600Y-39624000D02*
X49326800Y-39573200D01*
X49377600Y-43281600D02*
X49377600Y-39624000D01*
X49326800Y-39573200D02*
X58826400Y-39573200D01*
X50495200Y-44399200D02*
X49377600Y-43281600D01*
X52120000Y-44399200D02*
X50495200Y-44399200D01*
X58420000Y-39979600D02*
X58928000Y-39471600D01*
X58420000Y-44399200D02*
X58420000Y-39979600D01*
X58826400Y-39573200D02*
X58928000Y-39471600D01*
%TO.N,Net-(J3-Pin_1)*%
X51219600Y-47599600D02*
X52120000Y-46699200D01*
X44521200Y-47599600D02*
X51219600Y-47599600D01*
X43048000Y-46126400D02*
X44521200Y-47599600D01*
X39779600Y-46126400D02*
X43048000Y-46126400D01*
%TO.N,Net-(ACCEL1-K)*%
X89313200Y-64421200D02*
X89313200Y-65271200D01*
X52120800Y-74828400D02*
X51308000Y-75641200D01*
X57972400Y-62438671D02*
X59654271Y-60756800D01*
X77213200Y-61671200D02*
X77213200Y-60855600D01*
X84257600Y-57618800D02*
X84257600Y-58118800D01*
X88652800Y-46068800D02*
X89105935Y-45615665D01*
X96418400Y-75285600D02*
X96266000Y-75133200D01*
X101041200Y-75285600D02*
X96418400Y-75285600D01*
X74797891Y-58278509D02*
X74055491Y-58278509D01*
X89916000Y-44754800D02*
X89154000Y-43992800D01*
X84108800Y-67021200D02*
X85858800Y-65271200D01*
X88900000Y-57150000D02*
X88900000Y-56896000D01*
X93522800Y-76403200D02*
X93522800Y-80314800D01*
X94152200Y-79832400D02*
X93596300Y-80388300D01*
X86258400Y-57998000D02*
X85879200Y-57618800D01*
X69951600Y-52024800D02*
X71507600Y-50468800D01*
X54793400Y-85549272D02*
X55104394Y-85860266D01*
X96620874Y-71247400D02*
X97116337Y-71742863D01*
X50901600Y-70723200D02*
X51104800Y-70926400D01*
X79552800Y-60706000D02*
X79763200Y-60916400D01*
X58357200Y-80151520D02*
X58357200Y-80619600D01*
X94264600Y-85900000D02*
X93119198Y-85900000D01*
X70637400Y-64236600D02*
X72313800Y-62560200D01*
X80663200Y-67021200D02*
X80663200Y-70321200D01*
X62672400Y-63129600D02*
X63148400Y-62653600D01*
X96570800Y-71247400D02*
X96620874Y-71247400D01*
X73080800Y-63571200D02*
X74015600Y-62636400D01*
X82909072Y-58718800D02*
X82057600Y-57867328D01*
X65272400Y-64623200D02*
X65272400Y-65668500D01*
X59557200Y-81960400D02*
X59557200Y-81073702D01*
X89154000Y-39065200D02*
X87274400Y-37185600D01*
X64617600Y-64262000D02*
X64617600Y-64465200D01*
X74122800Y-60751200D02*
X74985860Y-60751200D01*
X88900000Y-56896000D02*
X89112800Y-56683200D01*
X95202200Y-75745800D02*
X95202200Y-76982400D01*
X58441495Y-80067225D02*
X58357200Y-80151520D01*
X87413200Y-61671200D02*
X88263200Y-61671200D01*
X69545200Y-58724800D02*
X69951600Y-58724800D01*
X88207600Y-49368800D02*
X87707600Y-49368800D01*
X45745400Y-75311000D02*
X45745400Y-75082400D01*
X101600000Y-74472800D02*
X101600000Y-75133200D01*
X75051891Y-58846691D02*
X75051891Y-59110909D01*
X89313200Y-61671200D02*
X89941117Y-61671200D01*
X58357200Y-86190546D02*
X58357200Y-85160400D01*
X81463200Y-61092400D02*
X81463200Y-61671200D01*
X83657600Y-58718800D02*
X82909072Y-58718800D01*
X89916000Y-44754800D02*
X89916000Y-44653200D01*
X82313200Y-67021200D02*
X82313200Y-68671200D01*
X80822800Y-39884000D02*
X80957600Y-40018800D01*
X101041200Y-76593400D02*
X100652200Y-76982400D01*
X78446582Y-60452000D02*
X78913200Y-60918618D01*
X75946000Y-60807600D02*
X75946000Y-60452000D01*
X78063200Y-60689600D02*
X78063200Y-61671200D01*
X74760800Y-62721200D02*
X75313200Y-62721200D01*
X80613200Y-60699600D02*
X81222800Y-60699600D01*
X74090600Y-74448600D02*
X73609200Y-73967200D01*
X76809600Y-60452000D02*
X77825600Y-60452000D01*
X77825600Y-60452000D02*
X78063200Y-60689600D01*
X73080800Y-63571200D02*
X73080800Y-63327200D01*
X93119198Y-85900000D02*
X91592398Y-87426800D01*
X54397200Y-80924400D02*
X54621200Y-80924400D01*
X83963200Y-67021200D02*
X80663200Y-67021200D01*
X88263200Y-61671200D02*
X89313200Y-61671200D01*
X86563200Y-61671200D02*
X87413200Y-61671200D01*
X73863200Y-59239200D02*
X70466000Y-59239200D01*
X98298000Y-70561200D02*
X97116337Y-71742863D01*
X95352200Y-79832400D02*
X94152200Y-79832400D01*
X74985860Y-60751200D02*
X75285060Y-60452000D01*
X73177400Y-61696600D02*
X71408200Y-61696600D01*
X58357200Y-80619600D02*
X58357200Y-81260400D01*
X52505600Y-80902800D02*
X52505600Y-79074000D01*
X80518000Y-60706000D02*
X80568800Y-60655200D01*
X64922400Y-63957200D02*
X64617600Y-64262000D01*
X89941117Y-61671200D02*
X90391117Y-62121200D01*
X85858800Y-65271200D02*
X89313200Y-65271200D01*
X54406800Y-80924400D02*
X55727600Y-79603600D01*
X88031600Y-42768800D02*
X87707600Y-42768800D01*
X74055491Y-58278509D02*
X73863200Y-58470800D01*
X45974000Y-73456800D02*
X45974000Y-73914000D01*
X80915600Y-82194400D02*
X81550600Y-82829400D01*
X82543245Y-61051245D02*
X83163200Y-61671200D01*
X54621200Y-80924400D02*
X54793400Y-81096600D01*
X72313800Y-62560200D02*
X73177400Y-61696600D01*
X74923600Y-59239200D02*
X73863200Y-59239200D01*
X78913200Y-60918618D02*
X78913200Y-61671200D01*
X69946000Y-66706000D02*
X73080800Y-63571200D01*
X59654271Y-60756800D02*
X60299600Y-60756800D01*
X94724600Y-86360000D02*
X94264600Y-85900000D01*
X80822800Y-38303200D02*
X80822800Y-39884000D01*
X80957600Y-40018800D02*
X82057600Y-40018800D01*
X81432400Y-60909200D02*
X81432400Y-61061600D01*
X57972400Y-62726944D02*
X57972400Y-62438671D01*
X54930800Y-63042800D02*
X56489600Y-63042800D01*
X71408200Y-61696600D02*
X69900800Y-60189200D01*
X90309200Y-63842400D02*
X89730400Y-64421200D01*
X59557200Y-81073702D02*
X59068898Y-80585400D01*
X93522800Y-80314800D02*
X93596300Y-80388300D01*
X74015600Y-62636400D02*
X74378400Y-62636400D01*
X79552800Y-60706000D02*
X80518000Y-60706000D01*
X97116337Y-71742863D02*
X97776737Y-72403263D01*
X87707600Y-46068800D02*
X87956128Y-46068800D01*
X73863200Y-58470800D02*
X73863200Y-59239200D01*
X87707600Y-46068800D02*
X88652800Y-46068800D01*
X50901600Y-64109600D02*
X50901600Y-67564000D01*
X73080800Y-63327200D02*
X72313800Y-62560200D01*
X59068898Y-80585400D02*
X58391400Y-80585400D01*
X67411600Y-65157200D02*
X66862400Y-65706400D01*
X64922400Y-63957200D02*
X65532000Y-63957200D01*
X54793400Y-81096600D02*
X54793400Y-85549272D01*
X82245200Y-61603200D02*
X82313200Y-61671200D01*
X62977200Y-63129600D02*
X63355135Y-63507535D01*
X45745400Y-78892400D02*
X45745400Y-75082400D01*
X74378400Y-62636400D02*
X75313200Y-63571200D01*
X84863200Y-61671200D02*
X85713200Y-61671200D01*
X75457600Y-57618800D02*
X74797891Y-58278509D01*
X80568800Y-60655200D02*
X80613200Y-60699600D01*
X45059600Y-73507600D02*
X45110400Y-73456800D01*
X66862400Y-66563200D02*
X67005200Y-66706000D01*
X91105200Y-75671200D02*
X91490800Y-75285600D01*
X75051891Y-59110909D02*
X74923600Y-59239200D01*
X79763200Y-60916400D02*
X79763200Y-61671200D01*
X56489600Y-63042800D02*
X56743600Y-63296800D01*
X73964800Y-74574400D02*
X74090600Y-74448600D01*
X76363200Y-60807600D02*
X75946000Y-60807600D01*
X66309900Y-66706000D02*
X67005200Y-66706000D01*
X70466000Y-59239200D02*
X69951600Y-58724800D01*
X87707600Y-46068800D02*
X87707600Y-44968800D01*
X64622400Y-64470000D02*
X64622400Y-65668500D01*
X78446582Y-60452000D02*
X78700582Y-60706000D01*
X88807600Y-48768800D02*
X89112800Y-49074000D01*
X82245200Y-61051245D02*
X82245200Y-61603200D01*
X83963200Y-67021200D02*
X83963200Y-70321200D01*
X95202200Y-76197000D02*
X95202200Y-76982400D01*
X83314765Y-87426800D02*
X80987366Y-85099401D01*
X94691200Y-75234800D02*
X95202200Y-75745800D01*
X81574445Y-61051245D02*
X82245200Y-61051245D01*
X69951600Y-58724800D02*
X69951600Y-52024800D01*
X93596300Y-80388300D02*
X86664800Y-87319800D01*
X56591200Y-86919200D02*
X57357200Y-86153200D01*
X57357200Y-86153200D02*
X57357200Y-85160400D01*
X81222800Y-60699600D02*
X81432400Y-60909200D01*
X84257600Y-58118800D02*
X83657600Y-58718800D01*
X71507600Y-50468800D02*
X72007600Y-50468800D01*
X52120800Y-72847200D02*
X52120800Y-74828400D01*
X97078800Y-73609200D02*
X97078800Y-74320400D01*
X73177400Y-61696600D02*
X73456800Y-61417200D01*
X62672400Y-63129600D02*
X62672400Y-65668500D01*
X73710800Y-61671200D02*
X74760800Y-62721200D01*
X52505600Y-79074000D02*
X52222400Y-78790800D01*
X73456800Y-61417200D02*
X73710800Y-61671200D01*
X79857600Y-82194400D02*
X80915600Y-82194400D01*
X65582800Y-64312800D02*
X65659000Y-64236600D01*
X88807600Y-48768800D02*
X88207600Y-49368800D01*
X100652200Y-85882400D02*
X95202200Y-85882400D01*
X44653200Y-73507600D02*
X45059600Y-73507600D01*
X71678800Y-71475600D02*
X71678800Y-70903000D01*
X62672400Y-63129600D02*
X62977200Y-63129600D01*
X73244800Y-74574400D02*
X73964800Y-74574400D01*
X51409600Y-63601600D02*
X50901600Y-64109600D01*
X62581000Y-38760400D02*
X61925200Y-39416200D01*
X63322400Y-68656000D02*
X64622400Y-67356000D01*
X89154000Y-43992800D02*
X89154000Y-39065200D01*
X86664800Y-87319800D02*
X86664800Y-87426800D01*
X81432400Y-60909200D02*
X81574445Y-61051245D01*
X101447600Y-75285600D02*
X101041200Y-75285600D01*
X73609200Y-73967200D02*
X73609200Y-72745600D01*
X65735200Y-64160400D02*
X65582800Y-64312800D01*
X78700582Y-60706000D02*
X79552800Y-60706000D01*
X96266000Y-75133200D02*
X95202200Y-76197000D01*
X77213200Y-60855600D02*
X76809600Y-60452000D01*
X45847000Y-78790800D02*
X45745400Y-78892400D01*
X65582800Y-64312800D02*
X65272400Y-64623200D01*
X58457200Y-86290546D02*
X58357200Y-86190546D01*
X45974000Y-73914000D02*
X45745400Y-74142600D01*
X89313200Y-75671200D02*
X91105200Y-75671200D01*
X91744800Y-54203600D02*
X91744800Y-53892000D01*
X97078800Y-74320400D02*
X96266000Y-75133200D01*
X67005200Y-66706000D02*
X69946000Y-66706000D01*
X81432400Y-61061600D02*
X81463200Y-61092400D01*
X50901600Y-67564000D02*
X50901600Y-70723200D01*
X91592398Y-87426800D02*
X86664800Y-87426800D01*
X45110400Y-73456800D02*
X45974000Y-73456800D01*
X45974000Y-72339200D02*
X45974000Y-73456800D01*
X85713200Y-61671200D02*
X86563200Y-61671200D01*
X82245200Y-61051245D02*
X82543245Y-61051245D01*
X53746400Y-82143600D02*
X52505600Y-80902800D01*
X77825600Y-60452000D02*
X78446582Y-60452000D01*
X86258400Y-57998000D02*
X88052000Y-57998000D01*
X87956128Y-46068800D02*
X88807600Y-46920272D01*
X88807600Y-46920272D02*
X88807600Y-48768800D01*
X90830400Y-63321200D02*
X90309200Y-63842400D01*
X96302938Y-63842400D02*
X98298000Y-65837462D01*
X98298000Y-65837462D02*
X98298000Y-70561200D01*
X89112800Y-56683200D02*
X89112800Y-54051200D01*
X88052000Y-57998000D02*
X88900000Y-57150000D01*
X84013200Y-61671200D02*
X84863200Y-61671200D01*
X75285060Y-60452000D02*
X75946000Y-60452000D01*
X86156800Y-37185600D02*
X84988400Y-38354000D01*
X66862400Y-65706400D02*
X66862400Y-66563200D01*
X65532000Y-63957200D02*
X65735200Y-64160400D01*
X52222400Y-78790800D02*
X45847000Y-78790800D01*
X93522800Y-76403200D02*
X94691200Y-75234800D01*
X89730400Y-64421200D02*
X89313200Y-64421200D01*
X80613200Y-60699600D02*
X80613200Y-61671200D01*
X65659000Y-64236600D02*
X70637400Y-64236600D01*
X69291200Y-58978800D02*
X69545200Y-58724800D01*
X91744800Y-53892000D02*
X92892400Y-52744400D01*
X58391400Y-80585400D02*
X58357200Y-80619600D01*
X93370400Y-76555600D02*
X93522800Y-76403200D01*
X64617600Y-64465200D02*
X64622400Y-64470000D01*
X80663200Y-70321200D02*
X83963200Y-70321200D01*
X101600000Y-75133200D02*
X101447600Y-75285600D01*
X86664800Y-87426800D02*
X83314765Y-87426800D01*
X93116400Y-76555600D02*
X93370400Y-76555600D01*
X44602400Y-76454000D02*
X45745400Y-75311000D01*
X83963200Y-67021200D02*
X84108800Y-67021200D01*
X64622400Y-67356000D02*
X64622400Y-65668500D01*
X76363200Y-61671200D02*
X76363200Y-60807600D01*
X82057600Y-57867328D02*
X82057600Y-57618800D01*
X83163200Y-61671200D02*
X84013200Y-61671200D01*
X101041200Y-75285600D02*
X101041200Y-76593400D01*
X95202200Y-85882400D02*
X94724600Y-86360000D01*
X60299600Y-60756800D02*
X62672400Y-63129600D01*
X89916000Y-44653200D02*
X88031600Y-42768800D01*
X54397200Y-80924400D02*
X54406800Y-80924400D01*
X45745400Y-75082400D02*
X45745400Y-74142600D01*
X89112800Y-49074000D02*
X89112800Y-54051200D01*
X63148400Y-62653600D02*
X63148400Y-60938400D01*
X90309200Y-63842400D02*
X96302938Y-63842400D01*
X73456800Y-61417200D02*
X74122800Y-60751200D01*
X100652200Y-85882400D02*
X101315600Y-85882400D01*
X73710800Y-61671200D02*
X75313200Y-61671200D01*
X75313200Y-75671200D02*
X74090600Y-74448600D01*
X75946000Y-60452000D02*
X76809600Y-60452000D01*
X54793400Y-81096600D02*
X55657200Y-81960400D01*
X85879200Y-57618800D02*
X84257600Y-57618800D01*
%TO.N,Net-(AE1-A)*%
X45262800Y-70662800D02*
X45023000Y-70423000D01*
X51806800Y-62738000D02*
X46278800Y-62738000D01*
X45023000Y-70423000D02*
X44488000Y-70423000D01*
X44908000Y-87121200D02*
X45618400Y-86410800D01*
X44196000Y-87121200D02*
X44908000Y-87121200D01*
X46278800Y-62738000D02*
X44488000Y-64528800D01*
X44488000Y-64528800D02*
X44488000Y-70423000D01*
X56743600Y-64262000D02*
X54940400Y-64262000D01*
X62022400Y-63495600D02*
X59893200Y-61366400D01*
X53330800Y-64262000D02*
X51806800Y-62738000D01*
X62022400Y-65668500D02*
X62022400Y-63495600D01*
%TO.N,Net-(AE2-A)*%
X88207600Y-43868800D02*
X89712800Y-45374000D01*
X87707600Y-43868800D02*
X88207600Y-43868800D01*
X89712800Y-45374000D02*
X89712800Y-55422800D01*
%TO.N,Net-(U1-3V3)*%
X67157600Y-59575212D02*
X67157600Y-62036400D01*
X63083721Y-87630000D02*
X62353721Y-86900000D01*
X60315600Y-84039200D02*
X60706000Y-84429600D01*
X54930800Y-67614800D02*
X56296000Y-67614800D01*
X61569600Y-75946000D02*
X62788800Y-77165200D01*
X59179649Y-68797358D02*
X59971007Y-68006000D01*
X73879843Y-63337843D02*
X73050400Y-64167286D01*
X71085930Y-64636600D02*
X71976065Y-63746465D01*
X61569600Y-75793600D02*
X61569600Y-75946000D01*
X63609111Y-64617600D02*
X63240188Y-64248677D01*
X55626000Y-86156800D02*
X55727600Y-86055200D01*
X56490400Y-69189600D02*
X56490400Y-67809200D01*
X69154600Y-63636600D02*
X69951600Y-62839600D01*
X65125600Y-72745600D02*
X65125600Y-72252800D01*
X67462400Y-66106000D02*
X69333685Y-66106000D01*
X86800600Y-84099400D02*
X84988400Y-85911600D01*
X69951600Y-62839600D02*
X69808800Y-62696800D01*
X64617600Y-53238400D02*
X64617600Y-54622400D01*
X56490400Y-67809200D02*
X56367400Y-67686200D01*
X73050400Y-64450130D02*
X71645865Y-65854665D01*
X63972400Y-63738800D02*
X63972400Y-64617600D01*
X57954000Y-66912400D02*
X57954000Y-69951600D01*
X55626000Y-87519200D02*
X55626000Y-86156800D01*
X59252000Y-73526800D02*
X59252000Y-73101200D01*
X56296000Y-67614800D02*
X56367400Y-67686200D01*
X65125600Y-72252800D02*
X65272400Y-72106000D01*
X60706000Y-84429600D02*
X60675200Y-84460400D01*
X47301600Y-67564000D02*
X46474465Y-66736865D01*
X64465200Y-63246000D02*
X63972400Y-63738800D01*
X61264800Y-81752270D02*
X60315600Y-82701470D01*
X48971200Y-62138000D02*
X50444400Y-62138000D01*
X47708000Y-75641200D02*
X53330800Y-70018400D01*
X60315600Y-82701470D02*
X60315600Y-84039200D01*
X58134400Y-71983600D02*
X59252000Y-73101200D01*
X69808800Y-62696800D02*
X68986400Y-62696800D01*
X55727600Y-86055200D02*
X56519810Y-86055200D01*
X56591200Y-70408800D02*
X56692800Y-70510400D01*
X64516000Y-87630000D02*
X63083721Y-87630000D01*
X60502800Y-64363600D02*
X57954000Y-66912400D01*
X56367400Y-67686200D02*
X56956400Y-68275200D01*
X60675200Y-84460400D02*
X59557200Y-84460400D01*
X73050400Y-64167286D02*
X73050400Y-64450130D01*
X60675200Y-84988400D02*
X60675200Y-85567600D01*
X75313200Y-64421200D02*
X74963200Y-64071200D01*
X60675200Y-85567600D02*
X60807600Y-85700000D01*
X64617600Y-54622400D02*
X65164000Y-55168800D01*
X59944000Y-87319200D02*
X59744000Y-87519200D01*
X60096400Y-74726800D02*
X60096400Y-74371200D01*
X70803085Y-64636600D02*
X71085930Y-64636600D01*
X56519810Y-86055200D02*
X56857200Y-85717810D01*
X68437200Y-63246000D02*
X64465200Y-63246000D01*
X68986400Y-62696800D02*
X68437200Y-63246000D01*
X56857200Y-85717810D02*
X56857200Y-85160400D01*
X59252000Y-73101200D02*
X60096400Y-73101200D01*
X59971007Y-68006000D02*
X60334900Y-68006000D01*
X54940400Y-70408800D02*
X56591200Y-70408800D01*
X64414400Y-53035200D02*
X64617600Y-53238400D01*
X59744000Y-87519200D02*
X55626000Y-87519200D01*
X69333685Y-66106000D02*
X70803085Y-64636600D01*
X46474465Y-66736865D02*
X46474465Y-63390865D01*
X84988400Y-85911600D02*
X84988400Y-86826800D01*
X61366400Y-84988400D02*
X60675200Y-84988400D01*
X61264800Y-81127600D02*
X61264800Y-81752270D01*
X60675200Y-84460400D02*
X60675200Y-84988400D01*
X53330800Y-70018400D02*
X53330800Y-67564000D01*
X51866800Y-71526400D02*
X53035200Y-71526400D01*
X74963200Y-64071200D02*
X74613200Y-64071200D01*
X61976000Y-85598000D02*
X61366400Y-84988400D01*
X63972400Y-64617600D02*
X63609111Y-64617600D01*
X60096400Y-74371200D02*
X59252000Y-73526800D01*
X63972400Y-64617600D02*
X63972400Y-65668500D01*
X68224400Y-63636600D02*
X69154600Y-63636600D01*
X65272400Y-72106000D02*
X65272400Y-71643500D01*
X74613200Y-64071200D02*
X73879843Y-63337843D01*
X67070787Y-59488399D02*
X67157600Y-59575212D01*
%TO.N,Net-(U4-REGOUT)*%
X52425600Y-83210400D02*
X53335393Y-83210400D01*
X50952400Y-84683600D02*
X52425600Y-83210400D01*
X53335393Y-83210400D02*
X53533600Y-83012193D01*
X57857200Y-86501729D02*
X57857200Y-85160400D01*
X57510041Y-86848888D02*
X57857200Y-86501729D01*
X50952400Y-87020400D02*
X50952400Y-84683600D01*
%TO.N,Net-(U7-VO)*%
X80618000Y-36979200D02*
X80672000Y-37033200D01*
X83157600Y-39518800D02*
X83157600Y-40018800D01*
X83972400Y-37033200D02*
X84257600Y-37318400D01*
X84257600Y-37318400D02*
X84257600Y-40018800D01*
X80618000Y-36979200D02*
X83157600Y-39518800D01*
%TO.N,Net-(J2-D-)*%
X79383265Y-81790064D02*
X79031794Y-82141535D01*
X78917800Y-82610400D02*
X79090129Y-82610400D01*
X78557190Y-82249790D02*
X78917800Y-82610400D01*
X78640696Y-82249790D02*
X78557190Y-82249790D01*
X77876400Y-86629800D02*
X77876400Y-87884000D01*
X95352200Y-82232400D02*
X92612400Y-82232400D01*
X81220400Y-81229200D02*
X79383265Y-81229200D01*
X79031794Y-82141535D02*
X78748951Y-82141535D01*
X78748951Y-82141535D02*
X78640696Y-82249790D01*
X79806800Y-84699400D02*
X77876400Y-86629800D01*
X92612400Y-82232400D02*
X88087200Y-86757600D01*
X87109600Y-88176400D02*
X86817200Y-87884000D01*
X79806800Y-83327071D02*
X79806800Y-83499400D01*
X88087200Y-88176400D02*
X87109600Y-88176400D01*
X79090129Y-82610400D02*
X79806800Y-83327071D01*
X79383265Y-81229200D02*
X79383265Y-81790064D01*
X81550600Y-81559400D02*
X81220400Y-81229200D01*
X77876400Y-87884000D02*
X86817200Y-87884000D01*
%TO.N,Net-(U6-~{RTS})*%
X77305800Y-84099400D02*
X76374400Y-83168000D01*
X81550600Y-84099400D02*
X77305800Y-84099400D01*
X78799200Y-83168000D02*
X76374400Y-83168000D01*
X78841600Y-83210400D02*
X78799200Y-83168000D01*
%TO.N,Net-(U1-IO0)*%
X72827857Y-65521200D02*
X75063200Y-65521200D01*
X75063200Y-65521200D02*
X75313200Y-65271200D01*
%TO.N,Net-(U1-EN)*%
X56997600Y-75895200D02*
X56286400Y-75895200D01*
X56286400Y-75895200D02*
X55168800Y-77012800D01*
X92269600Y-62721200D02*
X89313200Y-62721200D01*
X92303600Y-62687200D02*
X92269600Y-62721200D01*
%TO.N,Net-(J1-RST)*%
X89493200Y-59953600D02*
X87801727Y-59953600D01*
X79857600Y-59547200D02*
X79857600Y-57618800D01*
X96702400Y-52744400D02*
X89493200Y-59953600D01*
X79806800Y-59598000D02*
X79857600Y-59547200D01*
%TO.N,Net-(J1-CLK)*%
X79006797Y-59598000D02*
X78757600Y-59348803D01*
X91935555Y-60051245D02*
X90244085Y-60051245D01*
X78757600Y-59348803D02*
X78757600Y-57618800D01*
X99242400Y-52744400D02*
X91935555Y-60051245D01*
%TO.N,Net-(J1-I{slash}O)*%
X97972400Y-52744400D02*
X91788800Y-58928000D01*
X91788800Y-58928000D02*
X91440000Y-58928000D01*
X77673200Y-59029600D02*
X77673200Y-57634400D01*
X77673200Y-57634400D02*
X77657600Y-57618800D01*
%TO.N,Net-(J1-VCC)*%
X94162400Y-52744400D02*
X86753200Y-60153600D01*
X86753200Y-60153600D02*
X81838800Y-60153600D01*
X81838800Y-60153600D02*
X80957600Y-59272400D01*
X80957600Y-59272400D02*
X80957600Y-57618800D01*
%TO.N,Net-(U1-IO19)*%
X57658000Y-77927200D02*
X58013600Y-78282800D01*
X56357200Y-79228000D02*
X57658000Y-77927200D01*
X56357200Y-81260400D02*
X56357200Y-79228000D01*
X61989286Y-77984400D02*
X62287686Y-78282800D01*
X58811704Y-78282800D02*
X59110104Y-77984400D01*
X80162400Y-78282800D02*
X82313200Y-76132000D01*
X82313200Y-76132000D02*
X82313200Y-75671200D01*
X58013600Y-78282800D02*
X58811704Y-78282800D01*
X59110104Y-77984400D02*
X61989286Y-77984400D01*
X62287686Y-78282800D02*
X80162400Y-78282800D01*
%TO.N,Net-(U1-IO20)*%
X59275790Y-78384400D02*
X61823600Y-78384400D01*
X56857200Y-80802990D02*
X59275790Y-78384400D01*
X60045600Y-79095600D02*
X61112400Y-79095600D01*
X62230000Y-78790800D02*
X81534000Y-78790800D01*
X83163200Y-77161600D02*
X83163200Y-75671200D01*
X61112400Y-79095600D02*
X61823600Y-78384400D01*
X81534000Y-78790800D02*
X83163200Y-77161600D01*
X56857200Y-81260400D02*
X56857200Y-80802990D01*
X61823600Y-78384400D02*
X62230000Y-78790800D01*
%TO.N,Net-(U2-STATUS)*%
X74693200Y-40018800D02*
X73253600Y-38579200D01*
X75457600Y-40018800D02*
X74693200Y-40018800D01*
%TO.N,Net-(U1-IO41)*%
X92049600Y-65328800D02*
X91033600Y-66344800D01*
X90244800Y-69521200D02*
X89313200Y-69521200D01*
X90881200Y-68884800D02*
X90244800Y-69521200D01*
X96672400Y-65328800D02*
X92049600Y-65328800D01*
%TO.N,Net-(U1-IO40)*%
X91607570Y-69220048D02*
X90456418Y-70371200D01*
X90456418Y-70371200D02*
X89313200Y-70371200D01*
%TO.N,Net-(U1-IO37)*%
X90498000Y-72921200D02*
X89313200Y-72921200D01*
X90748000Y-72671200D02*
X90498000Y-72921200D01*
%TO.N,Net-(U1-IO1)*%
X72538400Y-66121200D02*
X75313200Y-66121200D01*
X68321600Y-69956000D02*
X69088000Y-69189600D01*
X66309900Y-69956000D02*
X68321600Y-69956000D01*
X72288400Y-66371200D02*
X72538400Y-66121200D01*
%TO.N,Net-(U1-IO26)*%
X71678800Y-80975200D02*
X72380400Y-81676800D01*
X75295200Y-81676800D02*
X76504800Y-80467200D01*
X58572400Y-70698529D02*
X65242271Y-77368400D01*
X72380400Y-81676800D02*
X75295200Y-81676800D01*
X65242271Y-77368400D02*
X71748800Y-77368400D01*
X84836000Y-77266800D02*
X84836000Y-75698400D01*
X76936600Y-80467200D02*
X77114400Y-80289400D01*
X58572400Y-67716400D02*
X58572400Y-70698529D01*
X76504800Y-80467200D02*
X76936600Y-80467200D01*
X84836000Y-75698400D02*
X84863200Y-75671200D01*
X71748800Y-77368400D02*
X72593200Y-76524000D01*
X63648400Y-61362400D02*
X64770000Y-62484000D01*
X63648400Y-60938400D02*
X63648400Y-61362400D01*
%TO.N,Net-(U1-IO3)*%
X66309900Y-68656000D02*
X68249600Y-68656000D01*
X68249600Y-68656000D02*
X68326000Y-68732400D01*
%TO.N,Net-(U1-IO38)*%
X57099200Y-62702271D02*
X57556400Y-63159471D01*
X89787473Y-77801727D02*
X89787473Y-77588182D01*
X61684000Y-77584400D02*
X62154971Y-77584400D01*
X78475010Y-81849790D02*
X78783265Y-81541535D01*
X91794800Y-73142652D02*
X91794800Y-72643200D01*
X62054000Y-59344000D02*
X60457471Y-59344000D01*
X90109655Y-77266000D02*
X90323200Y-77266000D01*
X57556400Y-63159471D02*
X57556400Y-68523729D01*
X91794800Y-72643200D02*
X91222800Y-72071200D01*
X57404000Y-73304400D02*
X61684000Y-77584400D01*
X91222800Y-72071200D02*
X89313200Y-72071200D01*
X62154971Y-77584400D02*
X62345371Y-77774800D01*
X89715535Y-77873665D02*
X89787473Y-77801727D01*
X90323200Y-77266000D02*
X92233200Y-75356000D01*
X92233200Y-73581052D02*
X91794800Y-73142652D01*
X77263869Y-81849790D02*
X78475010Y-81849790D01*
X62098400Y-59388400D02*
X62054000Y-59344000D01*
X89787473Y-77588182D02*
X90109655Y-77266000D01*
X57556400Y-68523729D02*
X57404000Y-68676129D01*
X92233200Y-75356000D02*
X92233200Y-73581052D01*
X62345371Y-77774800D02*
X73720400Y-77774800D01*
X88948065Y-77873665D02*
X89715535Y-77873665D01*
X60457471Y-59344000D02*
X57099200Y-62702271D01*
X57404000Y-68676129D02*
X57404000Y-73304400D01*
X73720400Y-77774800D02*
X74371200Y-77124000D01*
%TO.N,Net-(U1-IO34)*%
X77597728Y-81076800D02*
X78385128Y-80289400D01*
X60344929Y-57188400D02*
X59847871Y-57188400D01*
X59847871Y-57188400D02*
X59296397Y-57739874D01*
X77470000Y-81076800D02*
X77597728Y-81076800D01*
X59296397Y-57739874D02*
X59296397Y-57788400D01*
X62098400Y-57388400D02*
X60544929Y-57388400D01*
X87426800Y-76616000D02*
X87426800Y-75684800D01*
X87426800Y-75684800D02*
X87413200Y-75671200D01*
X60544929Y-57388400D02*
X60344929Y-57188400D01*
%TO.N,Net-(U1-IO6)*%
X75113200Y-70371200D02*
X72062800Y-73421600D01*
X75313200Y-70371200D02*
X75113200Y-70371200D01*
X65390578Y-76951022D02*
X64871600Y-76432044D01*
X61372400Y-72548400D02*
X61372400Y-71643500D01*
X72062800Y-73421600D02*
X72062800Y-75365200D01*
X72062800Y-75365200D02*
X70476978Y-76951022D01*
X64871600Y-76432044D02*
X64871600Y-76149200D01*
X70476978Y-76951022D02*
X65390578Y-76951022D01*
X62179200Y-73355200D02*
X61372400Y-72548400D01*
%TO.N,Net-(U1-IO4)*%
X68869600Y-68006000D02*
X69534800Y-68671200D01*
X66309900Y-68006000D02*
X68869600Y-68006000D01*
X69534800Y-68671200D02*
X75313200Y-68671200D01*
%TO.N,Net-(U1-IO33)*%
X60734104Y-56888400D02*
X60442009Y-56596305D01*
X88900000Y-79146400D02*
X87884000Y-79146400D01*
X86563200Y-77317600D02*
X86563200Y-75671200D01*
X62098400Y-56888400D02*
X60734104Y-56888400D01*
X86664800Y-77816000D02*
X86664800Y-77419200D01*
X86664800Y-77419200D02*
X86563200Y-77317600D01*
X87884000Y-79146400D02*
X87528400Y-78790800D01*
%TO.N,Net-(U1-TXD0)*%
X87198200Y-82829400D02*
X89103200Y-80924400D01*
X91189200Y-67821200D02*
X89313200Y-67821200D01*
X92797829Y-75355644D02*
X92583200Y-75141015D01*
X93065600Y-73830185D02*
X93065600Y-69697600D01*
X86800600Y-82829400D02*
X87198200Y-82829400D01*
X93065600Y-69697600D02*
X91189200Y-67821200D01*
X92583200Y-75141015D02*
X92583200Y-74312585D01*
X90337473Y-77816000D02*
X92797829Y-75355644D01*
X92583200Y-74312585D02*
X93065600Y-73830185D01*
%TO.N,Net-(U1-IO2)*%
X71221600Y-67157600D02*
X71408000Y-66971200D01*
X71408000Y-66971200D02*
X75313200Y-66971200D01*
X67514000Y-69306000D02*
X67564000Y-69256000D01*
X66309900Y-69306000D02*
X67514000Y-69306000D01*
%TO.N,Net-(U1-IO5)*%
X59340400Y-70606000D02*
X59334400Y-70612000D01*
X69494400Y-69951600D02*
X69900800Y-69951600D01*
X69900800Y-69951600D02*
X70331200Y-69521200D01*
X70331200Y-69521200D02*
X75313200Y-69521200D01*
X60334900Y-70606000D02*
X59340400Y-70606000D01*
%TO.N,Net-(U1-IO39)*%
X73507600Y-60401200D02*
X74840885Y-60401200D01*
X81215914Y-60096400D02*
X81770759Y-60651245D01*
X75399685Y-59842400D02*
X78402668Y-59842400D01*
X74840885Y-60401200D02*
X75399685Y-59842400D01*
X91348000Y-71323200D02*
X91246000Y-71221200D01*
X81770759Y-60651245D02*
X90013645Y-60651245D01*
X78402668Y-59842400D02*
X78758268Y-60198000D01*
X91246000Y-71221200D02*
X89313200Y-71221200D01*
X80055329Y-60198000D02*
X80156929Y-60096400D01*
X80156929Y-60096400D02*
X81215914Y-60096400D01*
X60761600Y-59888400D02*
X60706000Y-59944000D01*
X62098400Y-59888400D02*
X60761600Y-59888400D01*
X78758268Y-60198000D02*
X80055329Y-60198000D01*
X90013645Y-60651245D02*
X91084400Y-61722000D01*
%TO.N,Net-(U1-IO35)*%
X60196400Y-57888400D02*
X60096400Y-57788400D01*
X92144800Y-70859600D02*
X91490800Y-70205600D01*
X62098400Y-57888400D02*
X60196400Y-57888400D01*
X89327612Y-74635612D02*
X89313200Y-74621200D01*
X92144800Y-72714834D02*
X92144800Y-70859600D01*
X90544800Y-74635612D02*
X89327612Y-74635612D01*
X92344800Y-72914834D02*
X92144800Y-72714834D01*
%TO.N,Net-(U1-IO21)*%
X84013200Y-78242000D02*
X84013200Y-75671200D01*
X61564129Y-84013600D02*
X61067071Y-84013600D01*
X61067071Y-84013600D02*
X60715600Y-83662129D01*
X62687200Y-85136671D02*
X61564129Y-84013600D01*
X60715600Y-83662129D02*
X60715600Y-83150000D01*
X58857200Y-85160400D02*
X59996800Y-86300000D01*
X59996800Y-86300000D02*
X62664658Y-86300000D01*
X83058000Y-79197200D02*
X84013200Y-78242000D01*
X60715600Y-83150000D02*
X64668400Y-79197200D01*
X64668400Y-79197200D02*
X83058000Y-79197200D01*
X62687200Y-86277458D02*
X62687200Y-85136671D01*
X62664658Y-86300000D02*
X62687200Y-86277458D01*
%TO.N,Net-(U1-RXD0)*%
X92983200Y-74975329D02*
X92983200Y-74478271D01*
X90887473Y-78043818D02*
X90887473Y-77920927D01*
X93334671Y-75473729D02*
X93334671Y-75326800D01*
X93334671Y-75326800D02*
X92983200Y-74975329D01*
X93675200Y-73786271D02*
X93675200Y-68580000D01*
X90887473Y-77920927D02*
X93334671Y-75473729D01*
X86800600Y-81559400D02*
X87371891Y-81559400D01*
X92983200Y-74478271D02*
X93675200Y-73786271D01*
X87371891Y-81559400D02*
X90887473Y-78043818D01*
X92066400Y-66971200D02*
X89313200Y-66971200D01*
X93675200Y-68580000D02*
X92066400Y-66971200D01*
%TO.N,Net-(U1-IO36)*%
X68271456Y-79689400D02*
X85715400Y-79689400D01*
X88788800Y-76616000D02*
X89357200Y-76616000D01*
X89513200Y-73771200D02*
X89313200Y-73771200D01*
X90951200Y-73771200D02*
X89313200Y-73771200D01*
X85715400Y-79689400D02*
X88788800Y-76616000D01*
X91144800Y-73964800D02*
X90951200Y-73771200D01*
%TO.N,Net-(U2-~{PWRKEY})*%
X66852800Y-50469071D02*
X66852800Y-47498000D01*
X65532000Y-53035200D02*
X66564000Y-52003200D01*
X70256400Y-44094400D02*
X70256400Y-37998400D01*
X66564000Y-51654929D02*
X66364000Y-51454929D01*
X78757600Y-39840983D02*
X76254617Y-37338000D01*
X70256400Y-37642800D02*
X70256400Y-37998400D01*
X76254617Y-37338000D02*
X70561200Y-37338000D01*
X70561200Y-37338000D02*
X70256400Y-37642800D01*
X66364000Y-51454929D02*
X66364000Y-50957871D01*
X66040000Y-59488400D02*
X65940000Y-59388400D01*
X66564000Y-52003200D02*
X66564000Y-51654929D01*
X65940000Y-59388400D02*
X64698400Y-59388400D01*
X78757600Y-40018800D02*
X78757600Y-39840983D01*
X66364000Y-50957871D02*
X66852800Y-50469071D01*
X66852800Y-47498000D02*
X70256400Y-44094400D01*
%TO.N,Net-(U2-UART1_RXD)*%
X65735200Y-60255200D02*
X65735200Y-62636400D01*
X67997865Y-59408536D02*
X68376800Y-59029601D01*
X70907600Y-44916400D02*
X70907600Y-44720272D01*
X65368400Y-59888400D02*
X65735200Y-60255200D01*
X68376800Y-62636400D02*
X68376800Y-60284529D01*
X71759072Y-43868800D02*
X72007600Y-43868800D01*
X70907600Y-44720272D02*
X71759072Y-43868800D01*
X65735200Y-62636400D02*
X68376800Y-62636400D01*
X64698400Y-59888400D02*
X65368400Y-59888400D01*
X67997865Y-59905594D02*
X67997865Y-59408536D01*
X68376800Y-47447200D02*
X70907600Y-44916400D01*
X68376800Y-59029601D02*
X68376800Y-47447200D01*
X68376800Y-60284529D02*
X67997865Y-59905594D01*
%TO.N,Net-(U2-SIM_DET)*%
X67131330Y-58888400D02*
X67612065Y-58407665D01*
X68597865Y-59657065D02*
X68615730Y-59639200D01*
X68615730Y-59639200D02*
X75037200Y-59639200D01*
X75037200Y-59639200D02*
X76557600Y-58118800D01*
X64698400Y-58888400D02*
X67131330Y-58888400D01*
X76557600Y-58118800D02*
X76557600Y-57618800D01*
%TO.N,Net-(U2-UART1_CTS)*%
X71759072Y-46068800D02*
X69586400Y-48241472D01*
X69586400Y-49326800D02*
X68976800Y-49936400D01*
X65368400Y-57388400D02*
X64698400Y-57388400D01*
X66364000Y-56392800D02*
X65368400Y-57388400D01*
X69586400Y-48241472D02*
X69586400Y-49326800D01*
X72007600Y-46068800D02*
X71759072Y-46068800D01*
X66364000Y-53086000D02*
X66364000Y-56392800D01*
%TO.N,Net-(U2-UART1_RTS)*%
X71507600Y-44968800D02*
X68986400Y-47490000D01*
X65504800Y-57888400D02*
X64698400Y-57888400D01*
X66964000Y-56429200D02*
X65504800Y-57888400D01*
X72007600Y-44968800D02*
X71507600Y-44968800D01*
X68986400Y-47490000D02*
X68986400Y-48666400D01*
X66964000Y-51206400D02*
X66964000Y-56429200D01*
%TO.N,Net-(U2-UART1_TXD)*%
X66782800Y-58388400D02*
X64698400Y-58388400D01*
X70507600Y-44554586D02*
X70507600Y-44750714D01*
X71759072Y-42768800D02*
X70907600Y-43620272D01*
X67564000Y-47694314D02*
X67564000Y-57607200D01*
X70907600Y-44154586D02*
X70507600Y-44554586D01*
X70907600Y-43620272D02*
X70907600Y-44154586D01*
X70507600Y-44750714D02*
X67564000Y-47694314D01*
X72007600Y-42768800D02*
X71759072Y-42768800D01*
X67564000Y-57607200D02*
X66782800Y-58388400D01*
%TO.N,Net-(U2-UART1_DTR)*%
X68976800Y-50799600D02*
X68976800Y-51257200D01*
X72007600Y-48268800D02*
X71507600Y-48268800D01*
X65764000Y-54000400D02*
X65764000Y-56054400D01*
X64850000Y-56968400D02*
X64668400Y-56968400D01*
X65764000Y-56054400D02*
X64850000Y-56968400D01*
X71507600Y-48268800D02*
X68976800Y-50799600D01*
%TO.N,Net-(U2-VDD_EXT)*%
X76384000Y-37979200D02*
X77657600Y-39252800D01*
X71214065Y-37979200D02*
X76384000Y-37979200D01*
X65379600Y-47548800D02*
X65379600Y-50882358D01*
X63648400Y-56338400D02*
X64566736Y-55420064D01*
X65626714Y-52374800D02*
X65626714Y-51129472D01*
X64566736Y-55420064D02*
X63814400Y-54667728D01*
X65379600Y-50882358D02*
X65626714Y-51129472D01*
X63814400Y-52786671D02*
X64226271Y-52374800D01*
X69392800Y-43230800D02*
X69392800Y-43637200D01*
X77657600Y-39252800D02*
X77657600Y-40018800D01*
X64226271Y-52374800D02*
X65626714Y-52374800D01*
X69392800Y-43230800D02*
X69392800Y-38201600D01*
X63814400Y-54667728D02*
X63814400Y-52786671D01*
%TO.N,Net-(J2-D+)*%
X79806800Y-80314800D02*
X81525200Y-80314800D01*
X81525200Y-80314800D02*
X81550600Y-80289400D01*
X95352200Y-81432400D02*
X93624400Y-81432400D01*
%TO.N,Net-(J3-Pin_1)*%
X39779600Y-46126400D02*
X39776400Y-46126400D01*
X39728800Y-46177200D02*
X39779600Y-46126400D01*
X39728800Y-46174000D02*
X39728800Y-58982000D01*
X39776400Y-46126400D02*
X39728800Y-46174000D01*
%TO.N,Net-(ACCEL1-K)*%
X63449200Y-50139600D02*
X63449200Y-42468800D01*
%TD*%
M02*
