%TF.GenerationSoftware,KiCad,Pcbnew,8.0.5*%
%TF.CreationDate,2024-10-19T16:38:56-04:00*%
%TF.ProjectId,emerald_pcb,656d6572-616c-4645-9f70-63622e6b6963,rev?*%
%TF.SameCoordinates,Original*%
%TF.FileFunction,Other,Comment*%
%FSLAX46Y46*%
G04 Gerber Fmt 4.6, Leading zero omitted, Abs format (unit mm)*
G04 Created by KiCad (PCBNEW 8.0.5) date 2024-10-19 16:38:56*
%MOMM*%
%LPD*%
G01*
G04 APERTURE LIST*
%ADD10C,0.040000*%
%ADD11C,0.050000*%
%ADD12C,0.150000*%
G04 APERTURE END LIST*
D10*
X56940533Y-83831796D02*
X56931009Y-83841320D01*
X56931009Y-83841320D02*
X56902438Y-83850843D01*
X56902438Y-83850843D02*
X56883390Y-83850843D01*
X56883390Y-83850843D02*
X56854819Y-83841320D01*
X56854819Y-83841320D02*
X56835771Y-83822272D01*
X56835771Y-83822272D02*
X56826248Y-83803224D01*
X56826248Y-83803224D02*
X56816724Y-83765129D01*
X56816724Y-83765129D02*
X56816724Y-83736558D01*
X56816724Y-83736558D02*
X56826248Y-83698462D01*
X56826248Y-83698462D02*
X56835771Y-83679415D01*
X56835771Y-83679415D02*
X56854819Y-83660367D01*
X56854819Y-83660367D02*
X56883390Y-83650843D01*
X56883390Y-83650843D02*
X56902438Y-83650843D01*
X56902438Y-83650843D02*
X56931009Y-83660367D01*
X56931009Y-83660367D02*
X56940533Y-83669891D01*
X57054819Y-83850843D02*
X57035771Y-83841320D01*
X57035771Y-83841320D02*
X57026248Y-83831796D01*
X57026248Y-83831796D02*
X57016724Y-83812748D01*
X57016724Y-83812748D02*
X57016724Y-83755605D01*
X57016724Y-83755605D02*
X57026248Y-83736558D01*
X57026248Y-83736558D02*
X57035771Y-83727034D01*
X57035771Y-83727034D02*
X57054819Y-83717510D01*
X57054819Y-83717510D02*
X57083390Y-83717510D01*
X57083390Y-83717510D02*
X57102438Y-83727034D01*
X57102438Y-83727034D02*
X57111962Y-83736558D01*
X57111962Y-83736558D02*
X57121486Y-83755605D01*
X57121486Y-83755605D02*
X57121486Y-83812748D01*
X57121486Y-83812748D02*
X57111962Y-83831796D01*
X57111962Y-83831796D02*
X57102438Y-83841320D01*
X57102438Y-83841320D02*
X57083390Y-83850843D01*
X57083390Y-83850843D02*
X57054819Y-83850843D01*
X57207200Y-83850843D02*
X57207200Y-83717510D01*
X57207200Y-83736558D02*
X57216723Y-83727034D01*
X57216723Y-83727034D02*
X57235771Y-83717510D01*
X57235771Y-83717510D02*
X57264342Y-83717510D01*
X57264342Y-83717510D02*
X57283390Y-83727034D01*
X57283390Y-83727034D02*
X57292914Y-83746081D01*
X57292914Y-83746081D02*
X57292914Y-83850843D01*
X57292914Y-83746081D02*
X57302438Y-83727034D01*
X57302438Y-83727034D02*
X57321485Y-83717510D01*
X57321485Y-83717510D02*
X57350057Y-83717510D01*
X57350057Y-83717510D02*
X57369104Y-83727034D01*
X57369104Y-83727034D02*
X57378628Y-83746081D01*
X57378628Y-83746081D02*
X57378628Y-83850843D01*
X57473867Y-83717510D02*
X57473867Y-83917510D01*
X57473867Y-83727034D02*
X57492914Y-83717510D01*
X57492914Y-83717510D02*
X57531009Y-83717510D01*
X57531009Y-83717510D02*
X57550057Y-83727034D01*
X57550057Y-83727034D02*
X57559581Y-83736558D01*
X57559581Y-83736558D02*
X57569105Y-83755605D01*
X57569105Y-83755605D02*
X57569105Y-83812748D01*
X57569105Y-83812748D02*
X57559581Y-83831796D01*
X57559581Y-83831796D02*
X57550057Y-83841320D01*
X57550057Y-83841320D02*
X57531009Y-83850843D01*
X57531009Y-83850843D02*
X57492914Y-83850843D01*
X57492914Y-83850843D02*
X57473867Y-83841320D01*
X57683390Y-83850843D02*
X57664342Y-83841320D01*
X57664342Y-83841320D02*
X57654819Y-83831796D01*
X57654819Y-83831796D02*
X57645295Y-83812748D01*
X57645295Y-83812748D02*
X57645295Y-83755605D01*
X57645295Y-83755605D02*
X57654819Y-83736558D01*
X57654819Y-83736558D02*
X57664342Y-83727034D01*
X57664342Y-83727034D02*
X57683390Y-83717510D01*
X57683390Y-83717510D02*
X57711961Y-83717510D01*
X57711961Y-83717510D02*
X57731009Y-83727034D01*
X57731009Y-83727034D02*
X57740533Y-83736558D01*
X57740533Y-83736558D02*
X57750057Y-83755605D01*
X57750057Y-83755605D02*
X57750057Y-83812748D01*
X57750057Y-83812748D02*
X57740533Y-83831796D01*
X57740533Y-83831796D02*
X57731009Y-83841320D01*
X57731009Y-83841320D02*
X57711961Y-83850843D01*
X57711961Y-83850843D02*
X57683390Y-83850843D01*
X57835771Y-83717510D02*
X57835771Y-83850843D01*
X57835771Y-83736558D02*
X57845294Y-83727034D01*
X57845294Y-83727034D02*
X57864342Y-83717510D01*
X57864342Y-83717510D02*
X57892913Y-83717510D01*
X57892913Y-83717510D02*
X57911961Y-83727034D01*
X57911961Y-83727034D02*
X57921485Y-83746081D01*
X57921485Y-83746081D02*
X57921485Y-83850843D01*
X58092913Y-83841320D02*
X58073865Y-83850843D01*
X58073865Y-83850843D02*
X58035770Y-83850843D01*
X58035770Y-83850843D02*
X58016723Y-83841320D01*
X58016723Y-83841320D02*
X58007199Y-83822272D01*
X58007199Y-83822272D02*
X58007199Y-83746081D01*
X58007199Y-83746081D02*
X58016723Y-83727034D01*
X58016723Y-83727034D02*
X58035770Y-83717510D01*
X58035770Y-83717510D02*
X58073865Y-83717510D01*
X58073865Y-83717510D02*
X58092913Y-83727034D01*
X58092913Y-83727034D02*
X58102437Y-83746081D01*
X58102437Y-83746081D02*
X58102437Y-83765129D01*
X58102437Y-83765129D02*
X58007199Y-83784177D01*
X58188152Y-83717510D02*
X58188152Y-83850843D01*
X58188152Y-83736558D02*
X58197675Y-83727034D01*
X58197675Y-83727034D02*
X58216723Y-83717510D01*
X58216723Y-83717510D02*
X58245294Y-83717510D01*
X58245294Y-83717510D02*
X58264342Y-83727034D01*
X58264342Y-83727034D02*
X58273866Y-83746081D01*
X58273866Y-83746081D02*
X58273866Y-83850843D01*
X58340532Y-83717510D02*
X58416723Y-83717510D01*
X58369104Y-83650843D02*
X58369104Y-83822272D01*
X58369104Y-83822272D02*
X58378627Y-83841320D01*
X58378627Y-83841320D02*
X58397675Y-83850843D01*
X58397675Y-83850843D02*
X58416723Y-83850843D01*
X56864343Y-83200843D02*
X56864343Y-83000843D01*
X56864343Y-83000843D02*
X56978628Y-83200843D01*
X56978628Y-83200843D02*
X56978628Y-83000843D01*
X57102438Y-83200843D02*
X57083390Y-83191320D01*
X57083390Y-83191320D02*
X57073867Y-83181796D01*
X57073867Y-83181796D02*
X57064343Y-83162748D01*
X57064343Y-83162748D02*
X57064343Y-83105605D01*
X57064343Y-83105605D02*
X57073867Y-83086558D01*
X57073867Y-83086558D02*
X57083390Y-83077034D01*
X57083390Y-83077034D02*
X57102438Y-83067510D01*
X57102438Y-83067510D02*
X57131009Y-83067510D01*
X57131009Y-83067510D02*
X57150057Y-83077034D01*
X57150057Y-83077034D02*
X57159581Y-83086558D01*
X57159581Y-83086558D02*
X57169105Y-83105605D01*
X57169105Y-83105605D02*
X57169105Y-83162748D01*
X57169105Y-83162748D02*
X57159581Y-83181796D01*
X57159581Y-83181796D02*
X57150057Y-83191320D01*
X57150057Y-83191320D02*
X57131009Y-83200843D01*
X57131009Y-83200843D02*
X57102438Y-83200843D01*
X57521485Y-83181796D02*
X57511961Y-83191320D01*
X57511961Y-83191320D02*
X57483390Y-83200843D01*
X57483390Y-83200843D02*
X57464342Y-83200843D01*
X57464342Y-83200843D02*
X57435771Y-83191320D01*
X57435771Y-83191320D02*
X57416723Y-83172272D01*
X57416723Y-83172272D02*
X57407200Y-83153224D01*
X57407200Y-83153224D02*
X57397676Y-83115129D01*
X57397676Y-83115129D02*
X57397676Y-83086558D01*
X57397676Y-83086558D02*
X57407200Y-83048462D01*
X57407200Y-83048462D02*
X57416723Y-83029415D01*
X57416723Y-83029415D02*
X57435771Y-83010367D01*
X57435771Y-83010367D02*
X57464342Y-83000843D01*
X57464342Y-83000843D02*
X57483390Y-83000843D01*
X57483390Y-83000843D02*
X57511961Y-83010367D01*
X57511961Y-83010367D02*
X57521485Y-83019891D01*
X57635771Y-83200843D02*
X57616723Y-83191320D01*
X57616723Y-83191320D02*
X57607200Y-83181796D01*
X57607200Y-83181796D02*
X57597676Y-83162748D01*
X57597676Y-83162748D02*
X57597676Y-83105605D01*
X57597676Y-83105605D02*
X57607200Y-83086558D01*
X57607200Y-83086558D02*
X57616723Y-83077034D01*
X57616723Y-83077034D02*
X57635771Y-83067510D01*
X57635771Y-83067510D02*
X57664342Y-83067510D01*
X57664342Y-83067510D02*
X57683390Y-83077034D01*
X57683390Y-83077034D02*
X57692914Y-83086558D01*
X57692914Y-83086558D02*
X57702438Y-83105605D01*
X57702438Y-83105605D02*
X57702438Y-83162748D01*
X57702438Y-83162748D02*
X57692914Y-83181796D01*
X57692914Y-83181796D02*
X57683390Y-83191320D01*
X57683390Y-83191320D02*
X57664342Y-83200843D01*
X57664342Y-83200843D02*
X57635771Y-83200843D01*
X57788152Y-83067510D02*
X57788152Y-83267510D01*
X57788152Y-83077034D02*
X57807199Y-83067510D01*
X57807199Y-83067510D02*
X57845294Y-83067510D01*
X57845294Y-83067510D02*
X57864342Y-83077034D01*
X57864342Y-83077034D02*
X57873866Y-83086558D01*
X57873866Y-83086558D02*
X57883390Y-83105605D01*
X57883390Y-83105605D02*
X57883390Y-83162748D01*
X57883390Y-83162748D02*
X57873866Y-83181796D01*
X57873866Y-83181796D02*
X57864342Y-83191320D01*
X57864342Y-83191320D02*
X57845294Y-83200843D01*
X57845294Y-83200843D02*
X57807199Y-83200843D01*
X57807199Y-83200843D02*
X57788152Y-83191320D01*
X57969104Y-83067510D02*
X57969104Y-83267510D01*
X57969104Y-83077034D02*
X57988151Y-83067510D01*
X57988151Y-83067510D02*
X58026246Y-83067510D01*
X58026246Y-83067510D02*
X58045294Y-83077034D01*
X58045294Y-83077034D02*
X58054818Y-83086558D01*
X58054818Y-83086558D02*
X58064342Y-83105605D01*
X58064342Y-83105605D02*
X58064342Y-83162748D01*
X58064342Y-83162748D02*
X58054818Y-83181796D01*
X58054818Y-83181796D02*
X58045294Y-83191320D01*
X58045294Y-83191320D02*
X58026246Y-83200843D01*
X58026246Y-83200843D02*
X57988151Y-83200843D01*
X57988151Y-83200843D02*
X57969104Y-83191320D01*
X58226246Y-83191320D02*
X58207198Y-83200843D01*
X58207198Y-83200843D02*
X58169103Y-83200843D01*
X58169103Y-83200843D02*
X58150056Y-83191320D01*
X58150056Y-83191320D02*
X58140532Y-83172272D01*
X58140532Y-83172272D02*
X58140532Y-83096081D01*
X58140532Y-83096081D02*
X58150056Y-83077034D01*
X58150056Y-83077034D02*
X58169103Y-83067510D01*
X58169103Y-83067510D02*
X58207198Y-83067510D01*
X58207198Y-83067510D02*
X58226246Y-83077034D01*
X58226246Y-83077034D02*
X58235770Y-83096081D01*
X58235770Y-83096081D02*
X58235770Y-83115129D01*
X58235770Y-83115129D02*
X58140532Y-83134177D01*
X58321485Y-83200843D02*
X58321485Y-83067510D01*
X58321485Y-83105605D02*
X58331008Y-83086558D01*
X58331008Y-83086558D02*
X58340532Y-83077034D01*
X58340532Y-83077034D02*
X58359580Y-83067510D01*
X58359580Y-83067510D02*
X58378627Y-83067510D01*
X56988153Y-82800843D02*
X56988153Y-82600843D01*
X57102438Y-82800843D02*
X57016724Y-82686558D01*
X57102438Y-82600843D02*
X56988153Y-82715129D01*
X57188153Y-82696081D02*
X57254819Y-82696081D01*
X57283391Y-82800843D02*
X57188153Y-82800843D01*
X57188153Y-82800843D02*
X57188153Y-82600843D01*
X57188153Y-82600843D02*
X57283391Y-82600843D01*
X57369105Y-82696081D02*
X57435771Y-82696081D01*
X57464343Y-82800843D02*
X57369105Y-82800843D01*
X57369105Y-82800843D02*
X57369105Y-82600843D01*
X57369105Y-82600843D02*
X57464343Y-82600843D01*
X57550057Y-82800843D02*
X57550057Y-82600843D01*
X57550057Y-82600843D02*
X57626247Y-82600843D01*
X57626247Y-82600843D02*
X57645295Y-82610367D01*
X57645295Y-82610367D02*
X57654818Y-82619891D01*
X57654818Y-82619891D02*
X57664342Y-82638939D01*
X57664342Y-82638939D02*
X57664342Y-82667510D01*
X57664342Y-82667510D02*
X57654818Y-82686558D01*
X57654818Y-82686558D02*
X57645295Y-82696081D01*
X57645295Y-82696081D02*
X57626247Y-82705605D01*
X57626247Y-82705605D02*
X57550057Y-82705605D01*
X57788152Y-82600843D02*
X57826247Y-82600843D01*
X57826247Y-82600843D02*
X57845295Y-82610367D01*
X57845295Y-82610367D02*
X57864342Y-82629415D01*
X57864342Y-82629415D02*
X57873866Y-82667510D01*
X57873866Y-82667510D02*
X57873866Y-82734177D01*
X57873866Y-82734177D02*
X57864342Y-82772272D01*
X57864342Y-82772272D02*
X57845295Y-82791320D01*
X57845295Y-82791320D02*
X57826247Y-82800843D01*
X57826247Y-82800843D02*
X57788152Y-82800843D01*
X57788152Y-82800843D02*
X57769104Y-82791320D01*
X57769104Y-82791320D02*
X57750057Y-82772272D01*
X57750057Y-82772272D02*
X57740533Y-82734177D01*
X57740533Y-82734177D02*
X57740533Y-82667510D01*
X57740533Y-82667510D02*
X57750057Y-82629415D01*
X57750057Y-82629415D02*
X57769104Y-82610367D01*
X57769104Y-82610367D02*
X57788152Y-82600843D01*
X57959581Y-82600843D02*
X57959581Y-82762748D01*
X57959581Y-82762748D02*
X57969104Y-82781796D01*
X57969104Y-82781796D02*
X57978628Y-82791320D01*
X57978628Y-82791320D02*
X57997676Y-82800843D01*
X57997676Y-82800843D02*
X58035771Y-82800843D01*
X58035771Y-82800843D02*
X58054819Y-82791320D01*
X58054819Y-82791320D02*
X58064342Y-82781796D01*
X58064342Y-82781796D02*
X58073866Y-82762748D01*
X58073866Y-82762748D02*
X58073866Y-82600843D01*
X58140533Y-82600843D02*
X58254819Y-82600843D01*
X58197676Y-82800843D02*
X58197676Y-82600843D01*
X56578628Y-83550843D02*
X56578628Y-83350843D01*
X56578628Y-83350843D02*
X56626247Y-83350843D01*
X56626247Y-83350843D02*
X56654818Y-83360367D01*
X56654818Y-83360367D02*
X56673866Y-83379415D01*
X56673866Y-83379415D02*
X56683389Y-83398462D01*
X56683389Y-83398462D02*
X56692913Y-83436558D01*
X56692913Y-83436558D02*
X56692913Y-83465129D01*
X56692913Y-83465129D02*
X56683389Y-83503224D01*
X56683389Y-83503224D02*
X56673866Y-83522272D01*
X56673866Y-83522272D02*
X56654818Y-83541320D01*
X56654818Y-83541320D02*
X56626247Y-83550843D01*
X56626247Y-83550843D02*
X56578628Y-83550843D01*
X56778628Y-83550843D02*
X56778628Y-83417510D01*
X56778628Y-83350843D02*
X56769104Y-83360367D01*
X56769104Y-83360367D02*
X56778628Y-83369891D01*
X56778628Y-83369891D02*
X56788151Y-83360367D01*
X56788151Y-83360367D02*
X56778628Y-83350843D01*
X56778628Y-83350843D02*
X56778628Y-83369891D01*
X56873866Y-83550843D02*
X56873866Y-83417510D01*
X56873866Y-83455605D02*
X56883389Y-83436558D01*
X56883389Y-83436558D02*
X56892913Y-83427034D01*
X56892913Y-83427034D02*
X56911961Y-83417510D01*
X56911961Y-83417510D02*
X56931008Y-83417510D01*
X57073866Y-83541320D02*
X57054818Y-83550843D01*
X57054818Y-83550843D02*
X57016723Y-83550843D01*
X57016723Y-83550843D02*
X56997676Y-83541320D01*
X56997676Y-83541320D02*
X56988152Y-83522272D01*
X56988152Y-83522272D02*
X56988152Y-83446081D01*
X56988152Y-83446081D02*
X56997676Y-83427034D01*
X56997676Y-83427034D02*
X57016723Y-83417510D01*
X57016723Y-83417510D02*
X57054818Y-83417510D01*
X57054818Y-83417510D02*
X57073866Y-83427034D01*
X57073866Y-83427034D02*
X57083390Y-83446081D01*
X57083390Y-83446081D02*
X57083390Y-83465129D01*
X57083390Y-83465129D02*
X56988152Y-83484177D01*
X57254819Y-83541320D02*
X57235771Y-83550843D01*
X57235771Y-83550843D02*
X57197676Y-83550843D01*
X57197676Y-83550843D02*
X57178628Y-83541320D01*
X57178628Y-83541320D02*
X57169105Y-83531796D01*
X57169105Y-83531796D02*
X57159581Y-83512748D01*
X57159581Y-83512748D02*
X57159581Y-83455605D01*
X57159581Y-83455605D02*
X57169105Y-83436558D01*
X57169105Y-83436558D02*
X57178628Y-83427034D01*
X57178628Y-83427034D02*
X57197676Y-83417510D01*
X57197676Y-83417510D02*
X57235771Y-83417510D01*
X57235771Y-83417510D02*
X57254819Y-83427034D01*
X57311962Y-83417510D02*
X57388153Y-83417510D01*
X57340534Y-83350843D02*
X57340534Y-83522272D01*
X57340534Y-83522272D02*
X57350057Y-83541320D01*
X57350057Y-83541320D02*
X57369105Y-83550843D01*
X57369105Y-83550843D02*
X57388153Y-83550843D01*
X57483391Y-83550843D02*
X57464343Y-83541320D01*
X57464343Y-83541320D02*
X57454820Y-83522272D01*
X57454820Y-83522272D02*
X57454820Y-83350843D01*
X57540534Y-83417510D02*
X57588153Y-83550843D01*
X57635772Y-83417510D02*
X57588153Y-83550843D01*
X57588153Y-83550843D02*
X57569105Y-83598462D01*
X57569105Y-83598462D02*
X57559582Y-83607986D01*
X57559582Y-83607986D02*
X57540534Y-83617510D01*
X57931010Y-83446081D02*
X57959582Y-83455605D01*
X57959582Y-83455605D02*
X57969105Y-83465129D01*
X57969105Y-83465129D02*
X57978629Y-83484177D01*
X57978629Y-83484177D02*
X57978629Y-83512748D01*
X57978629Y-83512748D02*
X57969105Y-83531796D01*
X57969105Y-83531796D02*
X57959582Y-83541320D01*
X57959582Y-83541320D02*
X57940534Y-83550843D01*
X57940534Y-83550843D02*
X57864344Y-83550843D01*
X57864344Y-83550843D02*
X57864344Y-83350843D01*
X57864344Y-83350843D02*
X57931010Y-83350843D01*
X57931010Y-83350843D02*
X57950058Y-83360367D01*
X57950058Y-83360367D02*
X57959582Y-83369891D01*
X57959582Y-83369891D02*
X57969105Y-83388939D01*
X57969105Y-83388939D02*
X57969105Y-83407986D01*
X57969105Y-83407986D02*
X57959582Y-83427034D01*
X57959582Y-83427034D02*
X57950058Y-83436558D01*
X57950058Y-83436558D02*
X57931010Y-83446081D01*
X57931010Y-83446081D02*
X57864344Y-83446081D01*
X58140534Y-83541320D02*
X58121486Y-83550843D01*
X58121486Y-83550843D02*
X58083391Y-83550843D01*
X58083391Y-83550843D02*
X58064344Y-83541320D01*
X58064344Y-83541320D02*
X58054820Y-83522272D01*
X58054820Y-83522272D02*
X58054820Y-83446081D01*
X58054820Y-83446081D02*
X58064344Y-83427034D01*
X58064344Y-83427034D02*
X58083391Y-83417510D01*
X58083391Y-83417510D02*
X58121486Y-83417510D01*
X58121486Y-83417510D02*
X58140534Y-83427034D01*
X58140534Y-83427034D02*
X58150058Y-83446081D01*
X58150058Y-83446081D02*
X58150058Y-83465129D01*
X58150058Y-83465129D02*
X58054820Y-83484177D01*
X58264344Y-83550843D02*
X58245296Y-83541320D01*
X58245296Y-83541320D02*
X58235773Y-83522272D01*
X58235773Y-83522272D02*
X58235773Y-83350843D01*
X58369106Y-83550843D02*
X58350058Y-83541320D01*
X58350058Y-83541320D02*
X58340535Y-83531796D01*
X58340535Y-83531796D02*
X58331011Y-83512748D01*
X58331011Y-83512748D02*
X58331011Y-83455605D01*
X58331011Y-83455605D02*
X58340535Y-83436558D01*
X58340535Y-83436558D02*
X58350058Y-83427034D01*
X58350058Y-83427034D02*
X58369106Y-83417510D01*
X58369106Y-83417510D02*
X58397677Y-83417510D01*
X58397677Y-83417510D02*
X58416725Y-83427034D01*
X58416725Y-83427034D02*
X58426249Y-83436558D01*
X58426249Y-83436558D02*
X58435773Y-83455605D01*
X58435773Y-83455605D02*
X58435773Y-83512748D01*
X58435773Y-83512748D02*
X58426249Y-83531796D01*
X58426249Y-83531796D02*
X58416725Y-83541320D01*
X58416725Y-83541320D02*
X58397677Y-83550843D01*
X58397677Y-83550843D02*
X58369106Y-83550843D01*
X58502439Y-83417510D02*
X58540534Y-83550843D01*
X58540534Y-83550843D02*
X58578629Y-83455605D01*
X58578629Y-83455605D02*
X58616725Y-83550843D01*
X58616725Y-83550843D02*
X58654820Y-83417510D01*
D11*
X85266309Y-45630703D02*
X84766309Y-45630703D01*
X85266309Y-45344989D02*
X84980595Y-45559274D01*
X84766309Y-45344989D02*
X85052023Y-45630703D01*
X85242500Y-44940227D02*
X85266309Y-44987846D01*
X85266309Y-44987846D02*
X85266309Y-45083084D01*
X85266309Y-45083084D02*
X85242500Y-45130703D01*
X85242500Y-45130703D02*
X85194880Y-45154512D01*
X85194880Y-45154512D02*
X85004404Y-45154512D01*
X85004404Y-45154512D02*
X84956785Y-45130703D01*
X84956785Y-45130703D02*
X84932976Y-45083084D01*
X84932976Y-45083084D02*
X84932976Y-44987846D01*
X84932976Y-44987846D02*
X84956785Y-44940227D01*
X84956785Y-44940227D02*
X85004404Y-44916417D01*
X85004404Y-44916417D02*
X85052023Y-44916417D01*
X85052023Y-44916417D02*
X85099642Y-45154512D01*
X85242500Y-44511656D02*
X85266309Y-44559275D01*
X85266309Y-44559275D02*
X85266309Y-44654513D01*
X85266309Y-44654513D02*
X85242500Y-44702132D01*
X85242500Y-44702132D02*
X85194880Y-44725941D01*
X85194880Y-44725941D02*
X85004404Y-44725941D01*
X85004404Y-44725941D02*
X84956785Y-44702132D01*
X84956785Y-44702132D02*
X84932976Y-44654513D01*
X84932976Y-44654513D02*
X84932976Y-44559275D01*
X84932976Y-44559275D02*
X84956785Y-44511656D01*
X84956785Y-44511656D02*
X85004404Y-44487846D01*
X85004404Y-44487846D02*
X85052023Y-44487846D01*
X85052023Y-44487846D02*
X85099642Y-44725941D01*
X84932976Y-44273561D02*
X85432976Y-44273561D01*
X84956785Y-44273561D02*
X84932976Y-44225942D01*
X84932976Y-44225942D02*
X84932976Y-44130704D01*
X84932976Y-44130704D02*
X84956785Y-44083085D01*
X84956785Y-44083085D02*
X84980595Y-44059275D01*
X84980595Y-44059275D02*
X85028214Y-44035466D01*
X85028214Y-44035466D02*
X85171071Y-44035466D01*
X85171071Y-44035466D02*
X85218690Y-44059275D01*
X85218690Y-44059275D02*
X85242500Y-44083085D01*
X85242500Y-44083085D02*
X85266309Y-44130704D01*
X85266309Y-44130704D02*
X85266309Y-44225942D01*
X85266309Y-44225942D02*
X85242500Y-44273561D01*
X85266309Y-43368799D02*
X85242500Y-43416418D01*
X85242500Y-43416418D02*
X85218690Y-43440228D01*
X85218690Y-43440228D02*
X85171071Y-43464037D01*
X85171071Y-43464037D02*
X85028214Y-43464037D01*
X85028214Y-43464037D02*
X84980595Y-43440228D01*
X84980595Y-43440228D02*
X84956785Y-43416418D01*
X84956785Y-43416418D02*
X84932976Y-43368799D01*
X84932976Y-43368799D02*
X84932976Y-43297371D01*
X84932976Y-43297371D02*
X84956785Y-43249752D01*
X84956785Y-43249752D02*
X84980595Y-43225942D01*
X84980595Y-43225942D02*
X85028214Y-43202133D01*
X85028214Y-43202133D02*
X85171071Y-43202133D01*
X85171071Y-43202133D02*
X85218690Y-43225942D01*
X85218690Y-43225942D02*
X85242500Y-43249752D01*
X85242500Y-43249752D02*
X85266309Y-43297371D01*
X85266309Y-43297371D02*
X85266309Y-43368799D01*
X84932976Y-42773561D02*
X85266309Y-42773561D01*
X84932976Y-42987847D02*
X85194880Y-42987847D01*
X85194880Y-42987847D02*
X85242500Y-42964037D01*
X85242500Y-42964037D02*
X85266309Y-42916418D01*
X85266309Y-42916418D02*
X85266309Y-42844990D01*
X85266309Y-42844990D02*
X85242500Y-42797371D01*
X85242500Y-42797371D02*
X85218690Y-42773561D01*
X84932976Y-42606894D02*
X84932976Y-42416418D01*
X84766309Y-42535466D02*
X85194880Y-42535466D01*
X85194880Y-42535466D02*
X85242500Y-42511656D01*
X85242500Y-42511656D02*
X85266309Y-42464037D01*
X85266309Y-42464037D02*
X85266309Y-42416418D01*
X86086309Y-45027370D02*
X86062500Y-45074989D01*
X86062500Y-45074989D02*
X86038690Y-45098799D01*
X86038690Y-45098799D02*
X85991071Y-45122608D01*
X85991071Y-45122608D02*
X85848214Y-45122608D01*
X85848214Y-45122608D02*
X85800595Y-45098799D01*
X85800595Y-45098799D02*
X85776785Y-45074989D01*
X85776785Y-45074989D02*
X85752976Y-45027370D01*
X85752976Y-45027370D02*
X85752976Y-44955942D01*
X85752976Y-44955942D02*
X85776785Y-44908323D01*
X85776785Y-44908323D02*
X85800595Y-44884513D01*
X85800595Y-44884513D02*
X85848214Y-44860704D01*
X85848214Y-44860704D02*
X85991071Y-44860704D01*
X85991071Y-44860704D02*
X86038690Y-44884513D01*
X86038690Y-44884513D02*
X86062500Y-44908323D01*
X86062500Y-44908323D02*
X86086309Y-44955942D01*
X86086309Y-44955942D02*
X86086309Y-45027370D01*
X85752976Y-44717846D02*
X85752976Y-44527370D01*
X86086309Y-44646418D02*
X85657738Y-44646418D01*
X85657738Y-44646418D02*
X85610119Y-44622608D01*
X85610119Y-44622608D02*
X85586309Y-44574989D01*
X85586309Y-44574989D02*
X85586309Y-44527370D01*
X85943452Y-44003561D02*
X85943452Y-43765466D01*
X86086309Y-44051180D02*
X85586309Y-43884514D01*
X85586309Y-43884514D02*
X86086309Y-43717847D01*
X86086309Y-43551181D02*
X85752976Y-43551181D01*
X85848214Y-43551181D02*
X85800595Y-43527371D01*
X85800595Y-43527371D02*
X85776785Y-43503562D01*
X85776785Y-43503562D02*
X85752976Y-43455943D01*
X85752976Y-43455943D02*
X85752976Y-43408324D01*
X86062500Y-43051181D02*
X86086309Y-43098800D01*
X86086309Y-43098800D02*
X86086309Y-43194038D01*
X86086309Y-43194038D02*
X86062500Y-43241657D01*
X86062500Y-43241657D02*
X86014880Y-43265466D01*
X86014880Y-43265466D02*
X85824404Y-43265466D01*
X85824404Y-43265466D02*
X85776785Y-43241657D01*
X85776785Y-43241657D02*
X85752976Y-43194038D01*
X85752976Y-43194038D02*
X85752976Y-43098800D01*
X85752976Y-43098800D02*
X85776785Y-43051181D01*
X85776785Y-43051181D02*
X85824404Y-43027371D01*
X85824404Y-43027371D02*
X85872023Y-43027371D01*
X85872023Y-43027371D02*
X85919642Y-43265466D01*
X86086309Y-42598800D02*
X85824404Y-42598800D01*
X85824404Y-42598800D02*
X85776785Y-42622610D01*
X85776785Y-42622610D02*
X85752976Y-42670229D01*
X85752976Y-42670229D02*
X85752976Y-42765467D01*
X85752976Y-42765467D02*
X85776785Y-42813086D01*
X86062500Y-42598800D02*
X86086309Y-42646419D01*
X86086309Y-42646419D02*
X86086309Y-42765467D01*
X86086309Y-42765467D02*
X86062500Y-42813086D01*
X86062500Y-42813086D02*
X86014880Y-42836895D01*
X86014880Y-42836895D02*
X85967261Y-42836895D01*
X85967261Y-42836895D02*
X85919642Y-42813086D01*
X85919642Y-42813086D02*
X85895833Y-42765467D01*
X85895833Y-42765467D02*
X85895833Y-42646419D01*
X85895833Y-42646419D02*
X85872023Y-42598800D01*
D12*
%TO.C,REF\u002A\u002A*%
X109034000Y-38000000D02*
G75*
G02*
X104834000Y-38000000I-2100000J0D01*
G01*
X104834000Y-38000000D02*
G75*
G02*
X109034000Y-38000000I2100000J0D01*
G01*
X39488800Y-86868000D02*
G75*
G02*
X35288800Y-86868000I-2100000J0D01*
G01*
X35288800Y-86868000D02*
G75*
G02*
X39488800Y-86868000I2100000J0D01*
G01*
X39539600Y-38100000D02*
G75*
G02*
X35339600Y-38100000I-2100000J0D01*
G01*
X35339600Y-38100000D02*
G75*
G02*
X39539600Y-38100000I2100000J0D01*
G01*
%TD*%
M02*
