M48
; DRILL file {KiCad 8.0.5} date 2024-10-19T16:39:03-0400
; FORMAT={-:-/ absolute / inch / decimal}
; #@! TF.CreationDate,2024-10-19T16:39:03-04:00
; #@! TF.GenerationSoftware,Kicad,Pcbnew,8.0.5
; #@! TF.FileFunction,Plated,1,2,PTH
FMAT,2
INCH
; #@! TA.AperFunction,Plated,PTH,ViaDrill
T1C0.0118
; #@! TA.AperFunction,Plated,PTH,ComponentDrill
T2C0.0551
; #@! TA.AperFunction,Plated,PTH,ComponentDrill
T3C0.1063
%
G90
G05
T1
X1.578Y-2.89
X1.582Y-1.79
X1.5877Y-2.206
X1.592Y-1.85
X1.758Y-2.894
X1.782Y-2.782
X1.796Y-3.402
X1.81Y-2.848
X1.8297Y-2.4957
X1.898Y-2.416
X1.928Y-2.4464
X2.012Y-2.7924
X2.024Y-2.4228
X2.024Y-2.504
X2.052Y-2.868
X2.088Y-2.816
X2.0996Y-2.53
X2.0996Y-2.66
X2.1076Y-3.2682
X2.116Y-3.234
X2.1416Y-3.186
X2.1626Y-2.482
X2.1626Y-2.662
X2.163Y-2.53
X2.163Y-2.772
X2.1695Y-3.3803
X2.172Y-3.032
X2.194Y-3.134
X2.224Y-2.724
X2.226Y-2.89
X2.228Y-3.422
X2.232Y-2.776
X2.234Y-2.492
X2.234Y-2.53
X2.2424Y-2.688
X2.244Y-2.988
X2.2642Y-3.4192
X2.2817Y-2.754
X2.2824Y-2.4696
X2.288Y-1.4515
X2.2888Y-2.834
X2.294Y-2.038
X2.3008Y-3.1523
X2.3015Y-3.3973
X2.306Y-2.666
X2.3299Y-2.7086
X2.3345Y-2.2751
X2.336Y-2.78
X2.346Y-2.038
X2.358Y-2.416
X2.36Y-3.4378
X2.364Y-3.0364
X2.364Y-3.114
X2.366Y-2.2751
X2.366Y-2.878
X2.366Y-2.942
X2.3796Y-2.2282
X2.382Y-2.534
X2.39Y-2.36
X2.394Y-3.374
X2.3944Y-2.032
X2.412Y-3.194
X2.414Y-3.284
X2.424Y-2.984
X2.436Y-2.166
X2.44Y-3.37
X2.4416Y-2.036
X2.448Y-2.888
X2.4549Y-3.4213
X2.472Y-3.038
X2.476Y-1.61
X2.478Y-2.912
X2.4898Y-2.5295
X2.4943Y-2.5003
X2.51Y-2.946
X2.536Y-2.088
X2.54Y-3.45
X2.55Y-2.46
X2.554Y-2.998
X2.556Y-2.518
X2.564Y-2.864
X2.5655Y-2.172
X2.574Y-1.872
X2.574Y-2.9097
X2.58Y-2.088
X2.5891Y-2.126
X2.6Y-2.3421
X2.6128Y-2.09
X2.6364Y-2.016
X2.6406Y-2.3421
X2.644Y-2.4424
X2.654Y-2.5652
X2.656Y-2.6026
X2.66Y-2.7266
X2.6619Y-2.2995
X2.686Y-2.5054
X2.69Y-2.706
X2.7007Y-2.3487
X2.7084Y-1.61
X2.7156Y-1.966
X2.7156Y-2.018
X2.716Y-1.916
X2.716Y-2.4684
X2.72Y-2.724
X2.728Y-2.322
X2.732Y-1.504
X2.732Y-1.718
X2.736Y-2.754
X2.744Y-3.282
X2.752Y-2.3697
X2.764Y-2.68
X2.78Y-3.282
X2.8037Y-1.4952
X2.804Y-2.644
X2.8207Y-2.5927
X2.822Y-2.814
X2.822Y-3.188
X2.8337Y-2.5097
X2.846Y-2.613
X2.858Y-3.0128
X2.8672Y-2.5796
X2.8837Y-2.812
X2.8837Y-2.936
X2.884Y-1.5189
X2.894Y-2.378
X2.898Y-2.864
X2.928Y-3.0364
X2.9548Y-2.3168
X3.036Y-3.161
X3.0419Y-3.2224
X3.05Y-3.192
X3.058Y-2.324
X3.086Y-3.161
X3.1017Y-3.2103
X3.104Y-3.276
X3.1105Y-2.3464
X3.142Y-2.3464
X3.142Y-3.162
X3.142Y-3.2874
X3.142Y-3.3346
X3.144Y-3.236
X3.182Y-1.508
X3.1885Y-3.3504
X3.34Y-3.042
X3.346Y-1.51
X3.346Y-3.4184
X3.396Y-2.2834
X3.412Y-3.0636
X3.442Y-3.0164
X3.446Y-3.102
X3.4568Y-2.3604
X3.468Y-3.4157
X3.468Y-3.4715
X3.5Y-3.116
X3.5019Y-3.0659
X3.508Y-3.186
X3.5081Y-1.7959
X3.5084Y-2.128
X3.518Y-3.0164
X3.532Y-2.182
X3.54Y-1.762
X3.5529Y-2.3642
X3.5566Y-3.0636
X3.5587Y-2.4457
X3.5648Y-2.9384
X3.5728Y-2.8611
X3.576Y-2.493
X3.578Y-2.712
X3.584Y-2.612
X3.586Y-2.43
X3.5884Y-2.912
X3.5964Y-2.808
X3.6Y-2.32
X3.602Y-2.764
X3.602Y-2.964
X3.6066Y-2.7252
X3.612Y-2.134
X3.618Y-2.613
X3.634Y-2.468
X3.6356Y-2.8707
X3.658Y-2.372
X3.666Y-3.014
X3.686Y-3.206
X3.822Y-2.898
X3.8495Y-2.8505
X4.0Y-2.932
X4.016Y-2.858
T2
X1.6948Y-1.566
X1.6948Y-1.816
X1.6948Y-1.9408
X2.32Y-1.566
X2.3204Y-1.9408
T3
X1.652Y-2.532
X1.652Y-2.7289
M30
