%TF.GenerationSoftware,KiCad,Pcbnew,8.0.5*%
%TF.CreationDate,2024-10-19T16:38:56-04:00*%
%TF.ProjectId,emerald_pcb,656d6572-616c-4645-9f70-63622e6b6963,rev?*%
%TF.SameCoordinates,Original*%
%TF.FileFunction,Legend,Top*%
%TF.FilePolarity,Positive*%
%FSLAX46Y46*%
G04 Gerber Fmt 4.6, Leading zero omitted, Abs format (unit mm)*
G04 Created by KiCad (PCBNEW 8.0.5) date 2024-10-19 16:38:56*
%MOMM*%
%LPD*%
G01*
G04 APERTURE LIST*
%ADD10C,0.150000*%
%ADD11C,0.120000*%
%ADD12C,0.100000*%
G04 APERTURE END LIST*
D10*
X64990742Y-80471580D02*
X64943123Y-80519200D01*
X64943123Y-80519200D02*
X64800266Y-80566819D01*
X64800266Y-80566819D02*
X64705028Y-80566819D01*
X64705028Y-80566819D02*
X64562171Y-80519200D01*
X64562171Y-80519200D02*
X64466933Y-80423961D01*
X64466933Y-80423961D02*
X64419314Y-80328723D01*
X64419314Y-80328723D02*
X64371695Y-80138247D01*
X64371695Y-80138247D02*
X64371695Y-79995390D01*
X64371695Y-79995390D02*
X64419314Y-79804914D01*
X64419314Y-79804914D02*
X64466933Y-79709676D01*
X64466933Y-79709676D02*
X64562171Y-79614438D01*
X64562171Y-79614438D02*
X64705028Y-79566819D01*
X64705028Y-79566819D02*
X64800266Y-79566819D01*
X64800266Y-79566819D02*
X64943123Y-79614438D01*
X64943123Y-79614438D02*
X64990742Y-79662057D01*
X65943123Y-80566819D02*
X65371695Y-80566819D01*
X65657409Y-80566819D02*
X65657409Y-79566819D01*
X65657409Y-79566819D02*
X65562171Y-79709676D01*
X65562171Y-79709676D02*
X65466933Y-79804914D01*
X65466933Y-79804914D02*
X65371695Y-79852533D01*
X66562171Y-79566819D02*
X66657409Y-79566819D01*
X66657409Y-79566819D02*
X66752647Y-79614438D01*
X66752647Y-79614438D02*
X66800266Y-79662057D01*
X66800266Y-79662057D02*
X66847885Y-79757295D01*
X66847885Y-79757295D02*
X66895504Y-79947771D01*
X66895504Y-79947771D02*
X66895504Y-80185866D01*
X66895504Y-80185866D02*
X66847885Y-80376342D01*
X66847885Y-80376342D02*
X66800266Y-80471580D01*
X66800266Y-80471580D02*
X66752647Y-80519200D01*
X66752647Y-80519200D02*
X66657409Y-80566819D01*
X66657409Y-80566819D02*
X66562171Y-80566819D01*
X66562171Y-80566819D02*
X66466933Y-80519200D01*
X66466933Y-80519200D02*
X66419314Y-80471580D01*
X66419314Y-80471580D02*
X66371695Y-80376342D01*
X66371695Y-80376342D02*
X66324076Y-80185866D01*
X66324076Y-80185866D02*
X66324076Y-79947771D01*
X66324076Y-79947771D02*
X66371695Y-79757295D01*
X66371695Y-79757295D02*
X66419314Y-79662057D01*
X66419314Y-79662057D02*
X66466933Y-79614438D01*
X66466933Y-79614438D02*
X66562171Y-79566819D01*
X59307933Y-52110819D02*
X58974600Y-51634628D01*
X58736505Y-52110819D02*
X58736505Y-51110819D01*
X58736505Y-51110819D02*
X59117457Y-51110819D01*
X59117457Y-51110819D02*
X59212695Y-51158438D01*
X59212695Y-51158438D02*
X59260314Y-51206057D01*
X59260314Y-51206057D02*
X59307933Y-51301295D01*
X59307933Y-51301295D02*
X59307933Y-51444152D01*
X59307933Y-51444152D02*
X59260314Y-51539390D01*
X59260314Y-51539390D02*
X59212695Y-51587009D01*
X59212695Y-51587009D02*
X59117457Y-51634628D01*
X59117457Y-51634628D02*
X58736505Y-51634628D01*
X59641267Y-51110819D02*
X60307933Y-51110819D01*
X60307933Y-51110819D02*
X59879362Y-52110819D01*
X68553533Y-70652819D02*
X68220200Y-70176628D01*
X67982105Y-70652819D02*
X67982105Y-69652819D01*
X67982105Y-69652819D02*
X68363057Y-69652819D01*
X68363057Y-69652819D02*
X68458295Y-69700438D01*
X68458295Y-69700438D02*
X68505914Y-69748057D01*
X68505914Y-69748057D02*
X68553533Y-69843295D01*
X68553533Y-69843295D02*
X68553533Y-69986152D01*
X68553533Y-69986152D02*
X68505914Y-70081390D01*
X68505914Y-70081390D02*
X68458295Y-70129009D01*
X68458295Y-70129009D02*
X68363057Y-70176628D01*
X68363057Y-70176628D02*
X67982105Y-70176628D01*
X69410676Y-69652819D02*
X69220200Y-69652819D01*
X69220200Y-69652819D02*
X69124962Y-69700438D01*
X69124962Y-69700438D02*
X69077343Y-69748057D01*
X69077343Y-69748057D02*
X68982105Y-69890914D01*
X68982105Y-69890914D02*
X68934486Y-70081390D01*
X68934486Y-70081390D02*
X68934486Y-70462342D01*
X68934486Y-70462342D02*
X68982105Y-70557580D01*
X68982105Y-70557580D02*
X69029724Y-70605200D01*
X69029724Y-70605200D02*
X69124962Y-70652819D01*
X69124962Y-70652819D02*
X69315438Y-70652819D01*
X69315438Y-70652819D02*
X69410676Y-70605200D01*
X69410676Y-70605200D02*
X69458295Y-70557580D01*
X69458295Y-70557580D02*
X69505914Y-70462342D01*
X69505914Y-70462342D02*
X69505914Y-70224247D01*
X69505914Y-70224247D02*
X69458295Y-70129009D01*
X69458295Y-70129009D02*
X69410676Y-70081390D01*
X69410676Y-70081390D02*
X69315438Y-70033771D01*
X69315438Y-70033771D02*
X69124962Y-70033771D01*
X69124962Y-70033771D02*
X69029724Y-70081390D01*
X69029724Y-70081390D02*
X68982105Y-70129009D01*
X68982105Y-70129009D02*
X68934486Y-70224247D01*
X96584066Y-54079219D02*
X96584066Y-54793504D01*
X96584066Y-54793504D02*
X96536447Y-54936361D01*
X96536447Y-54936361D02*
X96441209Y-55031600D01*
X96441209Y-55031600D02*
X96298352Y-55079219D01*
X96298352Y-55079219D02*
X96203114Y-55079219D01*
X97584066Y-55079219D02*
X97012638Y-55079219D01*
X97298352Y-55079219D02*
X97298352Y-54079219D01*
X97298352Y-54079219D02*
X97203114Y-54222076D01*
X97203114Y-54222076D02*
X97107876Y-54317314D01*
X97107876Y-54317314D02*
X97012638Y-54364933D01*
X54177133Y-77366019D02*
X53843800Y-76889828D01*
X53605705Y-77366019D02*
X53605705Y-76366019D01*
X53605705Y-76366019D02*
X53986657Y-76366019D01*
X53986657Y-76366019D02*
X54081895Y-76413638D01*
X54081895Y-76413638D02*
X54129514Y-76461257D01*
X54129514Y-76461257D02*
X54177133Y-76556495D01*
X54177133Y-76556495D02*
X54177133Y-76699352D01*
X54177133Y-76699352D02*
X54129514Y-76794590D01*
X54129514Y-76794590D02*
X54081895Y-76842209D01*
X54081895Y-76842209D02*
X53986657Y-76889828D01*
X53986657Y-76889828D02*
X53605705Y-76889828D01*
X55129514Y-77366019D02*
X54558086Y-77366019D01*
X54843800Y-77366019D02*
X54843800Y-76366019D01*
X54843800Y-76366019D02*
X54748562Y-76508876D01*
X54748562Y-76508876D02*
X54653324Y-76604114D01*
X54653324Y-76604114D02*
X54558086Y-76651733D01*
X75601295Y-77426019D02*
X75601295Y-78235542D01*
X75601295Y-78235542D02*
X75648914Y-78330780D01*
X75648914Y-78330780D02*
X75696533Y-78378400D01*
X75696533Y-78378400D02*
X75791771Y-78426019D01*
X75791771Y-78426019D02*
X75982247Y-78426019D01*
X75982247Y-78426019D02*
X76077485Y-78378400D01*
X76077485Y-78378400D02*
X76125104Y-78330780D01*
X76125104Y-78330780D02*
X76172723Y-78235542D01*
X76172723Y-78235542D02*
X76172723Y-77426019D01*
X77172723Y-78426019D02*
X76601295Y-78426019D01*
X76887009Y-78426019D02*
X76887009Y-77426019D01*
X76887009Y-77426019D02*
X76791771Y-77568876D01*
X76791771Y-77568876D02*
X76696533Y-77664114D01*
X76696533Y-77664114D02*
X76601295Y-77711733D01*
X74407733Y-80327580D02*
X74360114Y-80375200D01*
X74360114Y-80375200D02*
X74217257Y-80422819D01*
X74217257Y-80422819D02*
X74122019Y-80422819D01*
X74122019Y-80422819D02*
X73979162Y-80375200D01*
X73979162Y-80375200D02*
X73883924Y-80279961D01*
X73883924Y-80279961D02*
X73836305Y-80184723D01*
X73836305Y-80184723D02*
X73788686Y-79994247D01*
X73788686Y-79994247D02*
X73788686Y-79851390D01*
X73788686Y-79851390D02*
X73836305Y-79660914D01*
X73836305Y-79660914D02*
X73883924Y-79565676D01*
X73883924Y-79565676D02*
X73979162Y-79470438D01*
X73979162Y-79470438D02*
X74122019Y-79422819D01*
X74122019Y-79422819D02*
X74217257Y-79422819D01*
X74217257Y-79422819D02*
X74360114Y-79470438D01*
X74360114Y-79470438D02*
X74407733Y-79518057D01*
X74883924Y-80422819D02*
X75074400Y-80422819D01*
X75074400Y-80422819D02*
X75169638Y-80375200D01*
X75169638Y-80375200D02*
X75217257Y-80327580D01*
X75217257Y-80327580D02*
X75312495Y-80184723D01*
X75312495Y-80184723D02*
X75360114Y-79994247D01*
X75360114Y-79994247D02*
X75360114Y-79613295D01*
X75360114Y-79613295D02*
X75312495Y-79518057D01*
X75312495Y-79518057D02*
X75264876Y-79470438D01*
X75264876Y-79470438D02*
X75169638Y-79422819D01*
X75169638Y-79422819D02*
X74979162Y-79422819D01*
X74979162Y-79422819D02*
X74883924Y-79470438D01*
X74883924Y-79470438D02*
X74836305Y-79518057D01*
X74836305Y-79518057D02*
X74788686Y-79613295D01*
X74788686Y-79613295D02*
X74788686Y-79851390D01*
X74788686Y-79851390D02*
X74836305Y-79946628D01*
X74836305Y-79946628D02*
X74883924Y-79994247D01*
X74883924Y-79994247D02*
X74979162Y-80041866D01*
X74979162Y-80041866D02*
X75169638Y-80041866D01*
X75169638Y-80041866D02*
X75264876Y-79994247D01*
X75264876Y-79994247D02*
X75312495Y-79946628D01*
X75312495Y-79946628D02*
X75360114Y-79851390D01*
X61301523Y-36434038D02*
X61206285Y-36386419D01*
X61206285Y-36386419D02*
X61063428Y-36386419D01*
X61063428Y-36386419D02*
X60920571Y-36434038D01*
X60920571Y-36434038D02*
X60825333Y-36529276D01*
X60825333Y-36529276D02*
X60777714Y-36624514D01*
X60777714Y-36624514D02*
X60730095Y-36814990D01*
X60730095Y-36814990D02*
X60730095Y-36957847D01*
X60730095Y-36957847D02*
X60777714Y-37148323D01*
X60777714Y-37148323D02*
X60825333Y-37243561D01*
X60825333Y-37243561D02*
X60920571Y-37338800D01*
X60920571Y-37338800D02*
X61063428Y-37386419D01*
X61063428Y-37386419D02*
X61158666Y-37386419D01*
X61158666Y-37386419D02*
X61301523Y-37338800D01*
X61301523Y-37338800D02*
X61349142Y-37291180D01*
X61349142Y-37291180D02*
X61349142Y-36957847D01*
X61349142Y-36957847D02*
X61158666Y-36957847D01*
X61777714Y-37386419D02*
X61777714Y-36386419D01*
X61777714Y-36386419D02*
X62158666Y-36386419D01*
X62158666Y-36386419D02*
X62253904Y-36434038D01*
X62253904Y-36434038D02*
X62301523Y-36481657D01*
X62301523Y-36481657D02*
X62349142Y-36576895D01*
X62349142Y-36576895D02*
X62349142Y-36719752D01*
X62349142Y-36719752D02*
X62301523Y-36814990D01*
X62301523Y-36814990D02*
X62253904Y-36862609D01*
X62253904Y-36862609D02*
X62158666Y-36910228D01*
X62158666Y-36910228D02*
X61777714Y-36910228D01*
X63349142Y-37386419D02*
X63015809Y-36910228D01*
X62777714Y-37386419D02*
X62777714Y-36386419D01*
X62777714Y-36386419D02*
X63158666Y-36386419D01*
X63158666Y-36386419D02*
X63253904Y-36434038D01*
X63253904Y-36434038D02*
X63301523Y-36481657D01*
X63301523Y-36481657D02*
X63349142Y-36576895D01*
X63349142Y-36576895D02*
X63349142Y-36719752D01*
X63349142Y-36719752D02*
X63301523Y-36814990D01*
X63301523Y-36814990D02*
X63253904Y-36862609D01*
X63253904Y-36862609D02*
X63158666Y-36910228D01*
X63158666Y-36910228D02*
X62777714Y-36910228D01*
X63730095Y-37338800D02*
X63872952Y-37386419D01*
X63872952Y-37386419D02*
X64111047Y-37386419D01*
X64111047Y-37386419D02*
X64206285Y-37338800D01*
X64206285Y-37338800D02*
X64253904Y-37291180D01*
X64253904Y-37291180D02*
X64301523Y-37195942D01*
X64301523Y-37195942D02*
X64301523Y-37100704D01*
X64301523Y-37100704D02*
X64253904Y-37005466D01*
X64253904Y-37005466D02*
X64206285Y-36957847D01*
X64206285Y-36957847D02*
X64111047Y-36910228D01*
X64111047Y-36910228D02*
X63920571Y-36862609D01*
X63920571Y-36862609D02*
X63825333Y-36814990D01*
X63825333Y-36814990D02*
X63777714Y-36767371D01*
X63777714Y-36767371D02*
X63730095Y-36672133D01*
X63730095Y-36672133D02*
X63730095Y-36576895D01*
X63730095Y-36576895D02*
X63777714Y-36481657D01*
X63777714Y-36481657D02*
X63825333Y-36434038D01*
X63825333Y-36434038D02*
X63920571Y-36386419D01*
X63920571Y-36386419D02*
X64158666Y-36386419D01*
X64158666Y-36386419D02*
X64301523Y-36434038D01*
X65253904Y-37386419D02*
X64682476Y-37386419D01*
X64968190Y-37386419D02*
X64968190Y-36386419D01*
X64968190Y-36386419D02*
X64872952Y-36529276D01*
X64872952Y-36529276D02*
X64777714Y-36624514D01*
X64777714Y-36624514D02*
X64682476Y-36672133D01*
X62581695Y-54015219D02*
X62581695Y-54824742D01*
X62581695Y-54824742D02*
X62629314Y-54919980D01*
X62629314Y-54919980D02*
X62676933Y-54967600D01*
X62676933Y-54967600D02*
X62772171Y-55015219D01*
X62772171Y-55015219D02*
X62962647Y-55015219D01*
X62962647Y-55015219D02*
X63057885Y-54967600D01*
X63057885Y-54967600D02*
X63105504Y-54919980D01*
X63105504Y-54919980D02*
X63153123Y-54824742D01*
X63153123Y-54824742D02*
X63153123Y-54015219D01*
X64105504Y-54015219D02*
X63629314Y-54015219D01*
X63629314Y-54015219D02*
X63581695Y-54491409D01*
X63581695Y-54491409D02*
X63629314Y-54443790D01*
X63629314Y-54443790D02*
X63724552Y-54396171D01*
X63724552Y-54396171D02*
X63962647Y-54396171D01*
X63962647Y-54396171D02*
X64057885Y-54443790D01*
X64057885Y-54443790D02*
X64105504Y-54491409D01*
X64105504Y-54491409D02*
X64153123Y-54586647D01*
X64153123Y-54586647D02*
X64153123Y-54824742D01*
X64153123Y-54824742D02*
X64105504Y-54919980D01*
X64105504Y-54919980D02*
X64057885Y-54967600D01*
X64057885Y-54967600D02*
X63962647Y-55015219D01*
X63962647Y-55015219D02*
X63724552Y-55015219D01*
X63724552Y-55015219D02*
X63629314Y-54967600D01*
X63629314Y-54967600D02*
X63581695Y-54919980D01*
X56845295Y-79290219D02*
X56845295Y-80099742D01*
X56845295Y-80099742D02*
X56892914Y-80194980D01*
X56892914Y-80194980D02*
X56940533Y-80242600D01*
X56940533Y-80242600D02*
X57035771Y-80290219D01*
X57035771Y-80290219D02*
X57226247Y-80290219D01*
X57226247Y-80290219D02*
X57321485Y-80242600D01*
X57321485Y-80242600D02*
X57369104Y-80194980D01*
X57369104Y-80194980D02*
X57416723Y-80099742D01*
X57416723Y-80099742D02*
X57416723Y-79290219D01*
X58321485Y-79623552D02*
X58321485Y-80290219D01*
X58083390Y-79242600D02*
X57845295Y-79956885D01*
X57845295Y-79956885D02*
X58464342Y-79956885D01*
X83413695Y-78249219D02*
X83413695Y-79058742D01*
X83413695Y-79058742D02*
X83461314Y-79153980D01*
X83461314Y-79153980D02*
X83508933Y-79201600D01*
X83508933Y-79201600D02*
X83604171Y-79249219D01*
X83604171Y-79249219D02*
X83794647Y-79249219D01*
X83794647Y-79249219D02*
X83889885Y-79201600D01*
X83889885Y-79201600D02*
X83937504Y-79153980D01*
X83937504Y-79153980D02*
X83985123Y-79058742D01*
X83985123Y-79058742D02*
X83985123Y-78249219D01*
X84889885Y-78249219D02*
X84699409Y-78249219D01*
X84699409Y-78249219D02*
X84604171Y-78296838D01*
X84604171Y-78296838D02*
X84556552Y-78344457D01*
X84556552Y-78344457D02*
X84461314Y-78487314D01*
X84461314Y-78487314D02*
X84413695Y-78677790D01*
X84413695Y-78677790D02*
X84413695Y-79058742D01*
X84413695Y-79058742D02*
X84461314Y-79153980D01*
X84461314Y-79153980D02*
X84508933Y-79201600D01*
X84508933Y-79201600D02*
X84604171Y-79249219D01*
X84604171Y-79249219D02*
X84794647Y-79249219D01*
X84794647Y-79249219D02*
X84889885Y-79201600D01*
X84889885Y-79201600D02*
X84937504Y-79153980D01*
X84937504Y-79153980D02*
X84985123Y-79058742D01*
X84985123Y-79058742D02*
X84985123Y-78820647D01*
X84985123Y-78820647D02*
X84937504Y-78725409D01*
X84937504Y-78725409D02*
X84889885Y-78677790D01*
X84889885Y-78677790D02*
X84794647Y-78630171D01*
X84794647Y-78630171D02*
X84604171Y-78630171D01*
X84604171Y-78630171D02*
X84508933Y-78677790D01*
X84508933Y-78677790D02*
X84461314Y-78725409D01*
X84461314Y-78725409D02*
X84413695Y-78820647D01*
X49341333Y-72800780D02*
X49293714Y-72848400D01*
X49293714Y-72848400D02*
X49150857Y-72896019D01*
X49150857Y-72896019D02*
X49055619Y-72896019D01*
X49055619Y-72896019D02*
X48912762Y-72848400D01*
X48912762Y-72848400D02*
X48817524Y-72753161D01*
X48817524Y-72753161D02*
X48769905Y-72657923D01*
X48769905Y-72657923D02*
X48722286Y-72467447D01*
X48722286Y-72467447D02*
X48722286Y-72324590D01*
X48722286Y-72324590D02*
X48769905Y-72134114D01*
X48769905Y-72134114D02*
X48817524Y-72038876D01*
X48817524Y-72038876D02*
X48912762Y-71943638D01*
X48912762Y-71943638D02*
X49055619Y-71896019D01*
X49055619Y-71896019D02*
X49150857Y-71896019D01*
X49150857Y-71896019D02*
X49293714Y-71943638D01*
X49293714Y-71943638D02*
X49341333Y-71991257D01*
X50198476Y-71896019D02*
X50008000Y-71896019D01*
X50008000Y-71896019D02*
X49912762Y-71943638D01*
X49912762Y-71943638D02*
X49865143Y-71991257D01*
X49865143Y-71991257D02*
X49769905Y-72134114D01*
X49769905Y-72134114D02*
X49722286Y-72324590D01*
X49722286Y-72324590D02*
X49722286Y-72705542D01*
X49722286Y-72705542D02*
X49769905Y-72800780D01*
X49769905Y-72800780D02*
X49817524Y-72848400D01*
X49817524Y-72848400D02*
X49912762Y-72896019D01*
X49912762Y-72896019D02*
X50103238Y-72896019D01*
X50103238Y-72896019D02*
X50198476Y-72848400D01*
X50198476Y-72848400D02*
X50246095Y-72800780D01*
X50246095Y-72800780D02*
X50293714Y-72705542D01*
X50293714Y-72705542D02*
X50293714Y-72467447D01*
X50293714Y-72467447D02*
X50246095Y-72372209D01*
X50246095Y-72372209D02*
X50198476Y-72324590D01*
X50198476Y-72324590D02*
X50103238Y-72276971D01*
X50103238Y-72276971D02*
X49912762Y-72276971D01*
X49912762Y-72276971D02*
X49817524Y-72324590D01*
X49817524Y-72324590D02*
X49769905Y-72372209D01*
X49769905Y-72372209D02*
X49722286Y-72467447D01*
X95051104Y-60270666D02*
X95051104Y-59794476D01*
X95336819Y-60365904D02*
X94336819Y-60032571D01*
X94336819Y-60032571D02*
X95336819Y-59699238D01*
X94813009Y-59365904D02*
X94813009Y-59032571D01*
X95336819Y-58889714D02*
X95336819Y-59365904D01*
X95336819Y-59365904D02*
X94336819Y-59365904D01*
X94336819Y-59365904D02*
X94336819Y-58889714D01*
X94432057Y-58508761D02*
X94384438Y-58461142D01*
X94384438Y-58461142D02*
X94336819Y-58365904D01*
X94336819Y-58365904D02*
X94336819Y-58127809D01*
X94336819Y-58127809D02*
X94384438Y-58032571D01*
X94384438Y-58032571D02*
X94432057Y-57984952D01*
X94432057Y-57984952D02*
X94527295Y-57937333D01*
X94527295Y-57937333D02*
X94622533Y-57937333D01*
X94622533Y-57937333D02*
X94765390Y-57984952D01*
X94765390Y-57984952D02*
X95336819Y-58556380D01*
X95336819Y-58556380D02*
X95336819Y-57937333D01*
X99707733Y-75138419D02*
X99374400Y-74662228D01*
X99136305Y-75138419D02*
X99136305Y-74138419D01*
X99136305Y-74138419D02*
X99517257Y-74138419D01*
X99517257Y-74138419D02*
X99612495Y-74186038D01*
X99612495Y-74186038D02*
X99660114Y-74233657D01*
X99660114Y-74233657D02*
X99707733Y-74328895D01*
X99707733Y-74328895D02*
X99707733Y-74471752D01*
X99707733Y-74471752D02*
X99660114Y-74566990D01*
X99660114Y-74566990D02*
X99612495Y-74614609D01*
X99612495Y-74614609D02*
X99517257Y-74662228D01*
X99517257Y-74662228D02*
X99136305Y-74662228D01*
X100612495Y-74138419D02*
X100136305Y-74138419D01*
X100136305Y-74138419D02*
X100088686Y-74614609D01*
X100088686Y-74614609D02*
X100136305Y-74566990D01*
X100136305Y-74566990D02*
X100231543Y-74519371D01*
X100231543Y-74519371D02*
X100469638Y-74519371D01*
X100469638Y-74519371D02*
X100564876Y-74566990D01*
X100564876Y-74566990D02*
X100612495Y-74614609D01*
X100612495Y-74614609D02*
X100660114Y-74709847D01*
X100660114Y-74709847D02*
X100660114Y-74947942D01*
X100660114Y-74947942D02*
X100612495Y-75043180D01*
X100612495Y-75043180D02*
X100564876Y-75090800D01*
X100564876Y-75090800D02*
X100469638Y-75138419D01*
X100469638Y-75138419D02*
X100231543Y-75138419D01*
X100231543Y-75138419D02*
X100136305Y-75090800D01*
X100136305Y-75090800D02*
X100088686Y-75043180D01*
X46416933Y-85551180D02*
X46369314Y-85598800D01*
X46369314Y-85598800D02*
X46226457Y-85646419D01*
X46226457Y-85646419D02*
X46131219Y-85646419D01*
X46131219Y-85646419D02*
X45988362Y-85598800D01*
X45988362Y-85598800D02*
X45893124Y-85503561D01*
X45893124Y-85503561D02*
X45845505Y-85408323D01*
X45845505Y-85408323D02*
X45797886Y-85217847D01*
X45797886Y-85217847D02*
X45797886Y-85074990D01*
X45797886Y-85074990D02*
X45845505Y-84884514D01*
X45845505Y-84884514D02*
X45893124Y-84789276D01*
X45893124Y-84789276D02*
X45988362Y-84694038D01*
X45988362Y-84694038D02*
X46131219Y-84646419D01*
X46131219Y-84646419D02*
X46226457Y-84646419D01*
X46226457Y-84646419D02*
X46369314Y-84694038D01*
X46369314Y-84694038D02*
X46416933Y-84741657D01*
X46750267Y-84646419D02*
X47369314Y-84646419D01*
X47369314Y-84646419D02*
X47035981Y-85027371D01*
X47035981Y-85027371D02*
X47178838Y-85027371D01*
X47178838Y-85027371D02*
X47274076Y-85074990D01*
X47274076Y-85074990D02*
X47321695Y-85122609D01*
X47321695Y-85122609D02*
X47369314Y-85217847D01*
X47369314Y-85217847D02*
X47369314Y-85455942D01*
X47369314Y-85455942D02*
X47321695Y-85551180D01*
X47321695Y-85551180D02*
X47274076Y-85598800D01*
X47274076Y-85598800D02*
X47178838Y-85646419D01*
X47178838Y-85646419D02*
X46893124Y-85646419D01*
X46893124Y-85646419D02*
X46797886Y-85598800D01*
X46797886Y-85598800D02*
X46750267Y-85551180D01*
X54189333Y-73192819D02*
X53856000Y-72716628D01*
X53617905Y-73192819D02*
X53617905Y-72192819D01*
X53617905Y-72192819D02*
X53998857Y-72192819D01*
X53998857Y-72192819D02*
X54094095Y-72240438D01*
X54094095Y-72240438D02*
X54141714Y-72288057D01*
X54141714Y-72288057D02*
X54189333Y-72383295D01*
X54189333Y-72383295D02*
X54189333Y-72526152D01*
X54189333Y-72526152D02*
X54141714Y-72621390D01*
X54141714Y-72621390D02*
X54094095Y-72669009D01*
X54094095Y-72669009D02*
X53998857Y-72716628D01*
X53998857Y-72716628D02*
X53617905Y-72716628D01*
X54570286Y-72288057D02*
X54617905Y-72240438D01*
X54617905Y-72240438D02*
X54713143Y-72192819D01*
X54713143Y-72192819D02*
X54951238Y-72192819D01*
X54951238Y-72192819D02*
X55046476Y-72240438D01*
X55046476Y-72240438D02*
X55094095Y-72288057D01*
X55094095Y-72288057D02*
X55141714Y-72383295D01*
X55141714Y-72383295D02*
X55141714Y-72478533D01*
X55141714Y-72478533D02*
X55094095Y-72621390D01*
X55094095Y-72621390D02*
X54522667Y-73192819D01*
X54522667Y-73192819D02*
X55141714Y-73192819D01*
X102489142Y-74826019D02*
X102012952Y-74826019D01*
X102012952Y-74826019D02*
X102012952Y-73826019D01*
X103012952Y-73826019D02*
X103203428Y-73826019D01*
X103203428Y-73826019D02*
X103298666Y-73873638D01*
X103298666Y-73873638D02*
X103393904Y-73968876D01*
X103393904Y-73968876D02*
X103441523Y-74159352D01*
X103441523Y-74159352D02*
X103441523Y-74492685D01*
X103441523Y-74492685D02*
X103393904Y-74683161D01*
X103393904Y-74683161D02*
X103298666Y-74778400D01*
X103298666Y-74778400D02*
X103203428Y-74826019D01*
X103203428Y-74826019D02*
X103012952Y-74826019D01*
X103012952Y-74826019D02*
X102917714Y-74778400D01*
X102917714Y-74778400D02*
X102822476Y-74683161D01*
X102822476Y-74683161D02*
X102774857Y-74492685D01*
X102774857Y-74492685D02*
X102774857Y-74159352D01*
X102774857Y-74159352D02*
X102822476Y-73968876D01*
X102822476Y-73968876D02*
X102917714Y-73873638D01*
X102917714Y-73873638D02*
X103012952Y-73826019D01*
X104441523Y-74826019D02*
X104108190Y-74349828D01*
X103870095Y-74826019D02*
X103870095Y-73826019D01*
X103870095Y-73826019D02*
X104251047Y-73826019D01*
X104251047Y-73826019D02*
X104346285Y-73873638D01*
X104346285Y-73873638D02*
X104393904Y-73921257D01*
X104393904Y-73921257D02*
X104441523Y-74016495D01*
X104441523Y-74016495D02*
X104441523Y-74159352D01*
X104441523Y-74159352D02*
X104393904Y-74254590D01*
X104393904Y-74254590D02*
X104346285Y-74302209D01*
X104346285Y-74302209D02*
X104251047Y-74349828D01*
X104251047Y-74349828D02*
X103870095Y-74349828D01*
X104822476Y-74540304D02*
X105298666Y-74540304D01*
X104727238Y-74826019D02*
X105060571Y-73826019D01*
X105060571Y-73826019D02*
X105393904Y-74826019D01*
X39469219Y-60667732D02*
X38469219Y-60667732D01*
X38469219Y-60667732D02*
X38469219Y-60286780D01*
X38469219Y-60286780D02*
X38516838Y-60191542D01*
X38516838Y-60191542D02*
X38564457Y-60143923D01*
X38564457Y-60143923D02*
X38659695Y-60096304D01*
X38659695Y-60096304D02*
X38802552Y-60096304D01*
X38802552Y-60096304D02*
X38897790Y-60143923D01*
X38897790Y-60143923D02*
X38945409Y-60191542D01*
X38945409Y-60191542D02*
X38993028Y-60286780D01*
X38993028Y-60286780D02*
X38993028Y-60667732D01*
X38469219Y-59762970D02*
X39469219Y-59524875D01*
X39469219Y-59524875D02*
X38754933Y-59334399D01*
X38754933Y-59334399D02*
X39469219Y-59143923D01*
X39469219Y-59143923D02*
X38469219Y-58905828D01*
X39469219Y-57953447D02*
X38993028Y-58286780D01*
X39469219Y-58524875D02*
X38469219Y-58524875D01*
X38469219Y-58524875D02*
X38469219Y-58143923D01*
X38469219Y-58143923D02*
X38516838Y-58048685D01*
X38516838Y-58048685D02*
X38564457Y-58001066D01*
X38564457Y-58001066D02*
X38659695Y-57953447D01*
X38659695Y-57953447D02*
X38802552Y-57953447D01*
X38802552Y-57953447D02*
X38897790Y-58001066D01*
X38897790Y-58001066D02*
X38945409Y-58048685D01*
X38945409Y-58048685D02*
X38993028Y-58143923D01*
X38993028Y-58143923D02*
X38993028Y-58524875D01*
X45783900Y-62903028D02*
X45783900Y-61760171D01*
X46355328Y-62331599D02*
X45212471Y-62331599D01*
X66521533Y-40696019D02*
X66188200Y-40219828D01*
X65950105Y-40696019D02*
X65950105Y-39696019D01*
X65950105Y-39696019D02*
X66331057Y-39696019D01*
X66331057Y-39696019D02*
X66426295Y-39743638D01*
X66426295Y-39743638D02*
X66473914Y-39791257D01*
X66473914Y-39791257D02*
X66521533Y-39886495D01*
X66521533Y-39886495D02*
X66521533Y-40029352D01*
X66521533Y-40029352D02*
X66473914Y-40124590D01*
X66473914Y-40124590D02*
X66426295Y-40172209D01*
X66426295Y-40172209D02*
X66331057Y-40219828D01*
X66331057Y-40219828D02*
X65950105Y-40219828D01*
X66854867Y-39696019D02*
X67473914Y-39696019D01*
X67473914Y-39696019D02*
X67140581Y-40076971D01*
X67140581Y-40076971D02*
X67283438Y-40076971D01*
X67283438Y-40076971D02*
X67378676Y-40124590D01*
X67378676Y-40124590D02*
X67426295Y-40172209D01*
X67426295Y-40172209D02*
X67473914Y-40267447D01*
X67473914Y-40267447D02*
X67473914Y-40505542D01*
X67473914Y-40505542D02*
X67426295Y-40600780D01*
X67426295Y-40600780D02*
X67378676Y-40648400D01*
X67378676Y-40648400D02*
X67283438Y-40696019D01*
X67283438Y-40696019D02*
X66997724Y-40696019D01*
X66997724Y-40696019D02*
X66902486Y-40648400D01*
X66902486Y-40648400D02*
X66854867Y-40600780D01*
X95697219Y-66320466D02*
X95221028Y-66653799D01*
X95697219Y-66891894D02*
X94697219Y-66891894D01*
X94697219Y-66891894D02*
X94697219Y-66510942D01*
X94697219Y-66510942D02*
X94744838Y-66415704D01*
X94744838Y-66415704D02*
X94792457Y-66368085D01*
X94792457Y-66368085D02*
X94887695Y-66320466D01*
X94887695Y-66320466D02*
X95030552Y-66320466D01*
X95030552Y-66320466D02*
X95125790Y-66368085D01*
X95125790Y-66368085D02*
X95173409Y-66415704D01*
X95173409Y-66415704D02*
X95221028Y-66510942D01*
X95221028Y-66510942D02*
X95221028Y-66891894D01*
X95030552Y-65463323D02*
X95697219Y-65463323D01*
X94649600Y-65701418D02*
X95363885Y-65939513D01*
X95363885Y-65939513D02*
X95363885Y-65320466D01*
X50226095Y-36831219D02*
X50226095Y-37640742D01*
X50226095Y-37640742D02*
X50273714Y-37735980D01*
X50273714Y-37735980D02*
X50321333Y-37783600D01*
X50321333Y-37783600D02*
X50416571Y-37831219D01*
X50416571Y-37831219D02*
X50607047Y-37831219D01*
X50607047Y-37831219D02*
X50702285Y-37783600D01*
X50702285Y-37783600D02*
X50749904Y-37735980D01*
X50749904Y-37735980D02*
X50797523Y-37640742D01*
X50797523Y-37640742D02*
X50797523Y-36831219D01*
X51178476Y-36831219D02*
X51845142Y-36831219D01*
X51845142Y-36831219D02*
X51416571Y-37831219D01*
X79044895Y-36538819D02*
X79044895Y-37348342D01*
X79044895Y-37348342D02*
X79092514Y-37443580D01*
X79092514Y-37443580D02*
X79140133Y-37491200D01*
X79140133Y-37491200D02*
X79235371Y-37538819D01*
X79235371Y-37538819D02*
X79425847Y-37538819D01*
X79425847Y-37538819D02*
X79521085Y-37491200D01*
X79521085Y-37491200D02*
X79568704Y-37443580D01*
X79568704Y-37443580D02*
X79616323Y-37348342D01*
X79616323Y-37348342D02*
X79616323Y-36538819D01*
X80044895Y-36634057D02*
X80092514Y-36586438D01*
X80092514Y-36586438D02*
X80187752Y-36538819D01*
X80187752Y-36538819D02*
X80425847Y-36538819D01*
X80425847Y-36538819D02*
X80521085Y-36586438D01*
X80521085Y-36586438D02*
X80568704Y-36634057D01*
X80568704Y-36634057D02*
X80616323Y-36729295D01*
X80616323Y-36729295D02*
X80616323Y-36824533D01*
X80616323Y-36824533D02*
X80568704Y-36967390D01*
X80568704Y-36967390D02*
X79997276Y-37538819D01*
X79997276Y-37538819D02*
X80616323Y-37538819D01*
X49488933Y-84593580D02*
X49441314Y-84641200D01*
X49441314Y-84641200D02*
X49298457Y-84688819D01*
X49298457Y-84688819D02*
X49203219Y-84688819D01*
X49203219Y-84688819D02*
X49060362Y-84641200D01*
X49060362Y-84641200D02*
X48965124Y-84545961D01*
X48965124Y-84545961D02*
X48917505Y-84450723D01*
X48917505Y-84450723D02*
X48869886Y-84260247D01*
X48869886Y-84260247D02*
X48869886Y-84117390D01*
X48869886Y-84117390D02*
X48917505Y-83926914D01*
X48917505Y-83926914D02*
X48965124Y-83831676D01*
X48965124Y-83831676D02*
X49060362Y-83736438D01*
X49060362Y-83736438D02*
X49203219Y-83688819D01*
X49203219Y-83688819D02*
X49298457Y-83688819D01*
X49298457Y-83688819D02*
X49441314Y-83736438D01*
X49441314Y-83736438D02*
X49488933Y-83784057D01*
X49869886Y-83784057D02*
X49917505Y-83736438D01*
X49917505Y-83736438D02*
X50012743Y-83688819D01*
X50012743Y-83688819D02*
X50250838Y-83688819D01*
X50250838Y-83688819D02*
X50346076Y-83736438D01*
X50346076Y-83736438D02*
X50393695Y-83784057D01*
X50393695Y-83784057D02*
X50441314Y-83879295D01*
X50441314Y-83879295D02*
X50441314Y-83974533D01*
X50441314Y-83974533D02*
X50393695Y-84117390D01*
X50393695Y-84117390D02*
X49822267Y-84688819D01*
X49822267Y-84688819D02*
X50441314Y-84688819D01*
X95689904Y-73498828D02*
X95689904Y-73022638D01*
X95975619Y-73594066D02*
X94975619Y-73260733D01*
X94975619Y-73260733D02*
X95975619Y-72927400D01*
X95880380Y-72022638D02*
X95928000Y-72070257D01*
X95928000Y-72070257D02*
X95975619Y-72213114D01*
X95975619Y-72213114D02*
X95975619Y-72308352D01*
X95975619Y-72308352D02*
X95928000Y-72451209D01*
X95928000Y-72451209D02*
X95832761Y-72546447D01*
X95832761Y-72546447D02*
X95737523Y-72594066D01*
X95737523Y-72594066D02*
X95547047Y-72641685D01*
X95547047Y-72641685D02*
X95404190Y-72641685D01*
X95404190Y-72641685D02*
X95213714Y-72594066D01*
X95213714Y-72594066D02*
X95118476Y-72546447D01*
X95118476Y-72546447D02*
X95023238Y-72451209D01*
X95023238Y-72451209D02*
X94975619Y-72308352D01*
X94975619Y-72308352D02*
X94975619Y-72213114D01*
X94975619Y-72213114D02*
X95023238Y-72070257D01*
X95023238Y-72070257D02*
X95070857Y-72022638D01*
X95880380Y-71022638D02*
X95928000Y-71070257D01*
X95928000Y-71070257D02*
X95975619Y-71213114D01*
X95975619Y-71213114D02*
X95975619Y-71308352D01*
X95975619Y-71308352D02*
X95928000Y-71451209D01*
X95928000Y-71451209D02*
X95832761Y-71546447D01*
X95832761Y-71546447D02*
X95737523Y-71594066D01*
X95737523Y-71594066D02*
X95547047Y-71641685D01*
X95547047Y-71641685D02*
X95404190Y-71641685D01*
X95404190Y-71641685D02*
X95213714Y-71594066D01*
X95213714Y-71594066D02*
X95118476Y-71546447D01*
X95118476Y-71546447D02*
X95023238Y-71451209D01*
X95023238Y-71451209D02*
X94975619Y-71308352D01*
X94975619Y-71308352D02*
X94975619Y-71213114D01*
X94975619Y-71213114D02*
X95023238Y-71070257D01*
X95023238Y-71070257D02*
X95070857Y-71022638D01*
X95451809Y-70594066D02*
X95451809Y-70260733D01*
X95975619Y-70117876D02*
X95975619Y-70594066D01*
X95975619Y-70594066D02*
X94975619Y-70594066D01*
X94975619Y-70594066D02*
X94975619Y-70117876D01*
X95975619Y-69213114D02*
X95975619Y-69689304D01*
X95975619Y-69689304D02*
X94975619Y-69689304D01*
X95975619Y-68355971D02*
X95975619Y-68927399D01*
X95975619Y-68641685D02*
X94975619Y-68641685D01*
X94975619Y-68641685D02*
X95118476Y-68736923D01*
X95118476Y-68736923D02*
X95213714Y-68832161D01*
X95213714Y-68832161D02*
X95261333Y-68927399D01*
X48934933Y-64723580D02*
X48887314Y-64771200D01*
X48887314Y-64771200D02*
X48744457Y-64818819D01*
X48744457Y-64818819D02*
X48649219Y-64818819D01*
X48649219Y-64818819D02*
X48506362Y-64771200D01*
X48506362Y-64771200D02*
X48411124Y-64675961D01*
X48411124Y-64675961D02*
X48363505Y-64580723D01*
X48363505Y-64580723D02*
X48315886Y-64390247D01*
X48315886Y-64390247D02*
X48315886Y-64247390D01*
X48315886Y-64247390D02*
X48363505Y-64056914D01*
X48363505Y-64056914D02*
X48411124Y-63961676D01*
X48411124Y-63961676D02*
X48506362Y-63866438D01*
X48506362Y-63866438D02*
X48649219Y-63818819D01*
X48649219Y-63818819D02*
X48744457Y-63818819D01*
X48744457Y-63818819D02*
X48887314Y-63866438D01*
X48887314Y-63866438D02*
X48934933Y-63914057D01*
X49839695Y-63818819D02*
X49363505Y-63818819D01*
X49363505Y-63818819D02*
X49315886Y-64295009D01*
X49315886Y-64295009D02*
X49363505Y-64247390D01*
X49363505Y-64247390D02*
X49458743Y-64199771D01*
X49458743Y-64199771D02*
X49696838Y-64199771D01*
X49696838Y-64199771D02*
X49792076Y-64247390D01*
X49792076Y-64247390D02*
X49839695Y-64295009D01*
X49839695Y-64295009D02*
X49887314Y-64390247D01*
X49887314Y-64390247D02*
X49887314Y-64628342D01*
X49887314Y-64628342D02*
X49839695Y-64723580D01*
X49839695Y-64723580D02*
X49792076Y-64771200D01*
X49792076Y-64771200D02*
X49696838Y-64818819D01*
X49696838Y-64818819D02*
X49458743Y-64818819D01*
X49458743Y-64818819D02*
X49363505Y-64771200D01*
X49363505Y-64771200D02*
X49315886Y-64723580D01*
X43687695Y-52054019D02*
X43687695Y-52863542D01*
X43687695Y-52863542D02*
X43735314Y-52958780D01*
X43735314Y-52958780D02*
X43782933Y-53006400D01*
X43782933Y-53006400D02*
X43878171Y-53054019D01*
X43878171Y-53054019D02*
X44068647Y-53054019D01*
X44068647Y-53054019D02*
X44163885Y-53006400D01*
X44163885Y-53006400D02*
X44211504Y-52958780D01*
X44211504Y-52958780D02*
X44259123Y-52863542D01*
X44259123Y-52863542D02*
X44259123Y-52054019D01*
X44878171Y-52482590D02*
X44782933Y-52434971D01*
X44782933Y-52434971D02*
X44735314Y-52387352D01*
X44735314Y-52387352D02*
X44687695Y-52292114D01*
X44687695Y-52292114D02*
X44687695Y-52244495D01*
X44687695Y-52244495D02*
X44735314Y-52149257D01*
X44735314Y-52149257D02*
X44782933Y-52101638D01*
X44782933Y-52101638D02*
X44878171Y-52054019D01*
X44878171Y-52054019D02*
X45068647Y-52054019D01*
X45068647Y-52054019D02*
X45163885Y-52101638D01*
X45163885Y-52101638D02*
X45211504Y-52149257D01*
X45211504Y-52149257D02*
X45259123Y-52244495D01*
X45259123Y-52244495D02*
X45259123Y-52292114D01*
X45259123Y-52292114D02*
X45211504Y-52387352D01*
X45211504Y-52387352D02*
X45163885Y-52434971D01*
X45163885Y-52434971D02*
X45068647Y-52482590D01*
X45068647Y-52482590D02*
X44878171Y-52482590D01*
X44878171Y-52482590D02*
X44782933Y-52530209D01*
X44782933Y-52530209D02*
X44735314Y-52577828D01*
X44735314Y-52577828D02*
X44687695Y-52673066D01*
X44687695Y-52673066D02*
X44687695Y-52863542D01*
X44687695Y-52863542D02*
X44735314Y-52958780D01*
X44735314Y-52958780D02*
X44782933Y-53006400D01*
X44782933Y-53006400D02*
X44878171Y-53054019D01*
X44878171Y-53054019D02*
X45068647Y-53054019D01*
X45068647Y-53054019D02*
X45163885Y-53006400D01*
X45163885Y-53006400D02*
X45211504Y-52958780D01*
X45211504Y-52958780D02*
X45259123Y-52863542D01*
X45259123Y-52863542D02*
X45259123Y-52673066D01*
X45259123Y-52673066D02*
X45211504Y-52577828D01*
X45211504Y-52577828D02*
X45163885Y-52530209D01*
X45163885Y-52530209D02*
X45068647Y-52482590D01*
X107163400Y-68147532D02*
X107211019Y-68004675D01*
X107211019Y-68004675D02*
X107211019Y-67766580D01*
X107211019Y-67766580D02*
X107163400Y-67671342D01*
X107163400Y-67671342D02*
X107115780Y-67623723D01*
X107115780Y-67623723D02*
X107020542Y-67576104D01*
X107020542Y-67576104D02*
X106925304Y-67576104D01*
X106925304Y-67576104D02*
X106830066Y-67623723D01*
X106830066Y-67623723D02*
X106782447Y-67671342D01*
X106782447Y-67671342D02*
X106734828Y-67766580D01*
X106734828Y-67766580D02*
X106687209Y-67957056D01*
X106687209Y-67957056D02*
X106639590Y-68052294D01*
X106639590Y-68052294D02*
X106591971Y-68099913D01*
X106591971Y-68099913D02*
X106496733Y-68147532D01*
X106496733Y-68147532D02*
X106401495Y-68147532D01*
X106401495Y-68147532D02*
X106306257Y-68099913D01*
X106306257Y-68099913D02*
X106258638Y-68052294D01*
X106258638Y-68052294D02*
X106211019Y-67957056D01*
X106211019Y-67957056D02*
X106211019Y-67718961D01*
X106211019Y-67718961D02*
X106258638Y-67576104D01*
X106211019Y-67242770D02*
X107211019Y-67004675D01*
X107211019Y-67004675D02*
X106496733Y-66814199D01*
X106496733Y-66814199D02*
X107211019Y-66623723D01*
X107211019Y-66623723D02*
X106211019Y-66385628D01*
X107211019Y-65480866D02*
X107211019Y-66052294D01*
X107211019Y-65766580D02*
X106211019Y-65766580D01*
X106211019Y-65766580D02*
X106353876Y-65861818D01*
X106353876Y-65861818D02*
X106449114Y-65957056D01*
X106449114Y-65957056D02*
X106496733Y-66052294D01*
X62560495Y-63780819D02*
X62560495Y-64590342D01*
X62560495Y-64590342D02*
X62608114Y-64685580D01*
X62608114Y-64685580D02*
X62655733Y-64733200D01*
X62655733Y-64733200D02*
X62750971Y-64780819D01*
X62750971Y-64780819D02*
X62941447Y-64780819D01*
X62941447Y-64780819D02*
X63036685Y-64733200D01*
X63036685Y-64733200D02*
X63084304Y-64685580D01*
X63084304Y-64685580D02*
X63131923Y-64590342D01*
X63131923Y-64590342D02*
X63131923Y-63780819D01*
X63512876Y-63780819D02*
X64131923Y-63780819D01*
X64131923Y-63780819D02*
X63798590Y-64161771D01*
X63798590Y-64161771D02*
X63941447Y-64161771D01*
X63941447Y-64161771D02*
X64036685Y-64209390D01*
X64036685Y-64209390D02*
X64084304Y-64257009D01*
X64084304Y-64257009D02*
X64131923Y-64352247D01*
X64131923Y-64352247D02*
X64131923Y-64590342D01*
X64131923Y-64590342D02*
X64084304Y-64685580D01*
X64084304Y-64685580D02*
X64036685Y-64733200D01*
X64036685Y-64733200D02*
X63941447Y-64780819D01*
X63941447Y-64780819D02*
X63655733Y-64780819D01*
X63655733Y-64780819D02*
X63560495Y-64733200D01*
X63560495Y-64733200D02*
X63512876Y-64685580D01*
X96879819Y-83333333D02*
X97594104Y-83333333D01*
X97594104Y-83333333D02*
X97736961Y-83380952D01*
X97736961Y-83380952D02*
X97832200Y-83476190D01*
X97832200Y-83476190D02*
X97879819Y-83619047D01*
X97879819Y-83619047D02*
X97879819Y-83714285D01*
X96975057Y-82904761D02*
X96927438Y-82857142D01*
X96927438Y-82857142D02*
X96879819Y-82761904D01*
X96879819Y-82761904D02*
X96879819Y-82523809D01*
X96879819Y-82523809D02*
X96927438Y-82428571D01*
X96927438Y-82428571D02*
X96975057Y-82380952D01*
X96975057Y-82380952D02*
X97070295Y-82333333D01*
X97070295Y-82333333D02*
X97165533Y-82333333D01*
X97165533Y-82333333D02*
X97308390Y-82380952D01*
X97308390Y-82380952D02*
X97879819Y-82952380D01*
X97879819Y-82952380D02*
X97879819Y-82333333D01*
X53100533Y-53496780D02*
X53052914Y-53544400D01*
X53052914Y-53544400D02*
X52910057Y-53592019D01*
X52910057Y-53592019D02*
X52814819Y-53592019D01*
X52814819Y-53592019D02*
X52671962Y-53544400D01*
X52671962Y-53544400D02*
X52576724Y-53449161D01*
X52576724Y-53449161D02*
X52529105Y-53353923D01*
X52529105Y-53353923D02*
X52481486Y-53163447D01*
X52481486Y-53163447D02*
X52481486Y-53020590D01*
X52481486Y-53020590D02*
X52529105Y-52830114D01*
X52529105Y-52830114D02*
X52576724Y-52734876D01*
X52576724Y-52734876D02*
X52671962Y-52639638D01*
X52671962Y-52639638D02*
X52814819Y-52592019D01*
X52814819Y-52592019D02*
X52910057Y-52592019D01*
X52910057Y-52592019D02*
X53052914Y-52639638D01*
X53052914Y-52639638D02*
X53100533Y-52687257D01*
X53433867Y-52592019D02*
X54100533Y-52592019D01*
X54100533Y-52592019D02*
X53671962Y-53592019D01*
X64146133Y-41609180D02*
X64098514Y-41656800D01*
X64098514Y-41656800D02*
X63955657Y-41704419D01*
X63955657Y-41704419D02*
X63860419Y-41704419D01*
X63860419Y-41704419D02*
X63717562Y-41656800D01*
X63717562Y-41656800D02*
X63622324Y-41561561D01*
X63622324Y-41561561D02*
X63574705Y-41466323D01*
X63574705Y-41466323D02*
X63527086Y-41275847D01*
X63527086Y-41275847D02*
X63527086Y-41132990D01*
X63527086Y-41132990D02*
X63574705Y-40942514D01*
X63574705Y-40942514D02*
X63622324Y-40847276D01*
X63622324Y-40847276D02*
X63717562Y-40752038D01*
X63717562Y-40752038D02*
X63860419Y-40704419D01*
X63860419Y-40704419D02*
X63955657Y-40704419D01*
X63955657Y-40704419D02*
X64098514Y-40752038D01*
X64098514Y-40752038D02*
X64146133Y-40799657D01*
X64717562Y-41132990D02*
X64622324Y-41085371D01*
X64622324Y-41085371D02*
X64574705Y-41037752D01*
X64574705Y-41037752D02*
X64527086Y-40942514D01*
X64527086Y-40942514D02*
X64527086Y-40894895D01*
X64527086Y-40894895D02*
X64574705Y-40799657D01*
X64574705Y-40799657D02*
X64622324Y-40752038D01*
X64622324Y-40752038D02*
X64717562Y-40704419D01*
X64717562Y-40704419D02*
X64908038Y-40704419D01*
X64908038Y-40704419D02*
X65003276Y-40752038D01*
X65003276Y-40752038D02*
X65050895Y-40799657D01*
X65050895Y-40799657D02*
X65098514Y-40894895D01*
X65098514Y-40894895D02*
X65098514Y-40942514D01*
X65098514Y-40942514D02*
X65050895Y-41037752D01*
X65050895Y-41037752D02*
X65003276Y-41085371D01*
X65003276Y-41085371D02*
X64908038Y-41132990D01*
X64908038Y-41132990D02*
X64717562Y-41132990D01*
X64717562Y-41132990D02*
X64622324Y-41180609D01*
X64622324Y-41180609D02*
X64574705Y-41228228D01*
X64574705Y-41228228D02*
X64527086Y-41323466D01*
X64527086Y-41323466D02*
X64527086Y-41513942D01*
X64527086Y-41513942D02*
X64574705Y-41609180D01*
X64574705Y-41609180D02*
X64622324Y-41656800D01*
X64622324Y-41656800D02*
X64717562Y-41704419D01*
X64717562Y-41704419D02*
X64908038Y-41704419D01*
X64908038Y-41704419D02*
X65003276Y-41656800D01*
X65003276Y-41656800D02*
X65050895Y-41609180D01*
X65050895Y-41609180D02*
X65098514Y-41513942D01*
X65098514Y-41513942D02*
X65098514Y-41323466D01*
X65098514Y-41323466D02*
X65050895Y-41228228D01*
X65050895Y-41228228D02*
X65003276Y-41180609D01*
X65003276Y-41180609D02*
X64908038Y-41132990D01*
D11*
%TO.C,C10*%
X62633600Y-81752000D02*
X63133600Y-81752000D01*
X62883600Y-81502000D02*
X62883600Y-82002000D01*
X63373600Y-82116437D02*
X63373600Y-82252000D01*
X63373600Y-82116437D02*
X64438037Y-81052000D01*
X63373600Y-84507563D02*
X63373600Y-84372000D01*
X63373600Y-84507563D02*
X64438037Y-85572000D01*
X64438037Y-81052000D02*
X67893600Y-81052000D01*
X64438037Y-85572000D02*
X67893600Y-85572000D01*
X67893600Y-81052000D02*
X67893600Y-82252000D01*
X67893600Y-85572000D02*
X67893600Y-84372000D01*
%TO.C,R7*%
X59237342Y-52563500D02*
X59711858Y-52563500D01*
X59237342Y-53608500D02*
X59711858Y-53608500D01*
%TO.C,R6*%
X68482942Y-71105500D02*
X68957458Y-71105500D01*
X68482942Y-72150500D02*
X68957458Y-72150500D01*
%TO.C,J1*%
X90357400Y-40164400D02*
X90357400Y-47624400D01*
X90357400Y-51524400D02*
X90357400Y-53284400D01*
X92267400Y-53284400D02*
X90357400Y-53284400D01*
X93562400Y-53619400D02*
X94762400Y-53619400D01*
X103477400Y-40164400D02*
X103477400Y-47624400D01*
X103477400Y-51524400D02*
X103477400Y-53284400D01*
X103477400Y-53284400D02*
X99867400Y-53284400D01*
%TO.C,R1*%
X54106542Y-77811100D02*
X54581058Y-77811100D01*
X54106542Y-78856100D02*
X54581058Y-78856100D01*
%TO.C,U1*%
X74513200Y-60871200D02*
X90113200Y-60871200D01*
X74513200Y-76471200D02*
X74513200Y-60871200D01*
X90113200Y-60871200D02*
X90113200Y-76471200D01*
X90113200Y-76471200D02*
X74513200Y-76471200D01*
X74338200Y-62721200D02*
X74002200Y-62961200D01*
X74002200Y-62481200D01*
X74338200Y-62721200D01*
G36*
X74338200Y-62721200D02*
G01*
X74002200Y-62961200D01*
X74002200Y-62481200D01*
X74338200Y-62721200D01*
G37*
%TO.C,C9*%
X71574400Y-81608000D02*
X72074400Y-81608000D01*
X71824400Y-81358000D02*
X71824400Y-81858000D01*
X72314400Y-81972437D02*
X72314400Y-82108000D01*
X72314400Y-81972437D02*
X73378837Y-80908000D01*
X72314400Y-84363563D02*
X72314400Y-84228000D01*
X72314400Y-84363563D02*
X73378837Y-85428000D01*
X73378837Y-80908000D02*
X76834400Y-80908000D01*
X73378837Y-85428000D02*
X76834400Y-85428000D01*
X76834400Y-80908000D02*
X76834400Y-82108000D01*
X76834400Y-85428000D02*
X76834400Y-84228000D01*
%TO.C,C1*%
X66787800Y-72987000D02*
X67162800Y-72987000D01*
X66975300Y-72799500D02*
X66975300Y-73174500D01*
X67592237Y-73362000D02*
X68292237Y-72662000D01*
X67592237Y-75482000D02*
X68292237Y-76182000D01*
X68292237Y-72662000D02*
X70922800Y-72662000D01*
X68292237Y-76182000D02*
X70922800Y-76182000D01*
X70922800Y-72662000D02*
X70922800Y-73362000D01*
X70922800Y-76182000D02*
X70922800Y-75482000D01*
D12*
%TO.C,GPRS1*%
X62091000Y-38760400D02*
G75*
G02*
X61991000Y-38760400I-50000J0D01*
G01*
X61991000Y-38760400D02*
G75*
G02*
X62091000Y-38760400I50000J0D01*
G01*
D11*
%TO.C,U5*%
X62038400Y-60998400D02*
X62038400Y-60768400D01*
X62768400Y-56278400D02*
X62338400Y-56278400D01*
X62768400Y-60998400D02*
X62038400Y-60998400D01*
X64028400Y-56278400D02*
X64758400Y-56278400D01*
X64028400Y-60998400D02*
X64758400Y-60998400D01*
X64758400Y-56278400D02*
X64758400Y-56508400D01*
X64758400Y-60998400D02*
X64758400Y-60768400D01*
X62038400Y-56278400D02*
X61798400Y-55948400D01*
X62278400Y-55948400D01*
X62038400Y-56278400D01*
G36*
X62038400Y-56278400D02*
G01*
X61798400Y-55948400D01*
X62278400Y-55948400D01*
X62038400Y-56278400D01*
G37*
%TO.C,U4*%
X55457200Y-81525400D02*
X55457200Y-81300400D01*
X55457200Y-85360400D02*
X55457200Y-84835400D01*
X55457200Y-85360400D02*
X55982200Y-85360400D01*
X55982200Y-81060400D02*
X55757200Y-81060400D01*
X59757200Y-81060400D02*
X59232200Y-81060400D01*
X59757200Y-81060400D02*
X59757200Y-81585400D01*
X59757200Y-85360400D02*
X59232200Y-85360400D01*
X59757200Y-85360400D02*
X59757200Y-84835400D01*
X55457200Y-81060400D02*
X55217200Y-80730400D01*
X55697200Y-80730400D01*
X55457200Y-81060400D01*
G36*
X55457200Y-81060400D02*
G01*
X55217200Y-80730400D01*
X55697200Y-80730400D01*
X55457200Y-81060400D01*
G37*
%TO.C,U6*%
X84175600Y-79634400D02*
X82225600Y-79634400D01*
X84175600Y-79634400D02*
X86125600Y-79634400D01*
X84175600Y-84754400D02*
X82225600Y-84754400D01*
X84175600Y-84754400D02*
X86125600Y-84754400D01*
X81475600Y-79729400D02*
X81235600Y-79399400D01*
X81715600Y-79399400D01*
X81475600Y-79729400D01*
G36*
X81475600Y-79729400D02*
G01*
X81235600Y-79399400D01*
X81715600Y-79399400D01*
X81475600Y-79729400D01*
G37*
%TO.C,C6*%
X46508000Y-74081200D02*
X47008000Y-74081200D01*
X46758000Y-73831200D02*
X46758000Y-74331200D01*
X47248000Y-74445637D02*
X47248000Y-74581200D01*
X47248000Y-74445637D02*
X48312437Y-73381200D01*
X47248000Y-76836763D02*
X47248000Y-76701200D01*
X47248000Y-76836763D02*
X48312437Y-77901200D01*
X48312437Y-73381200D02*
X51768000Y-73381200D01*
X48312437Y-77901200D02*
X51768000Y-77901200D01*
X51768000Y-73381200D02*
X51768000Y-74581200D01*
X51768000Y-77901200D02*
X51768000Y-76701200D01*
D10*
%TO.C,AE2*%
X95632000Y-57004000D02*
X96632000Y-57004000D01*
X95632000Y-61004000D02*
X95632000Y-57004000D01*
X105232000Y-57004000D02*
X104232000Y-57004000D01*
X105232000Y-57004000D02*
X105232000Y-61204000D01*
X105232000Y-61204000D02*
X104232000Y-61204000D01*
D11*
%TO.C,R5*%
X100111658Y-72731100D02*
X99637142Y-72731100D01*
X100111658Y-73776100D02*
X99637142Y-73776100D01*
%TO.C,C3*%
X47692400Y-85260400D02*
X47692400Y-85960400D01*
X47692400Y-88780400D02*
X47692400Y-88080400D01*
X50322963Y-85260400D02*
X47692400Y-85260400D01*
X50322963Y-88780400D02*
X47692400Y-88780400D01*
X51022963Y-85960400D02*
X50322963Y-85260400D01*
X51022963Y-88080400D02*
X50322963Y-88780400D01*
X51639900Y-88642900D02*
X51639900Y-88267900D01*
X51827400Y-88455400D02*
X51452400Y-88455400D01*
%TO.C,C4*%
X39802400Y-74894000D02*
X40302400Y-74894000D01*
X40052400Y-74644000D02*
X40052400Y-75144000D01*
X40542400Y-75258437D02*
X40542400Y-75394000D01*
X40542400Y-75258437D02*
X41606837Y-74194000D01*
X40542400Y-77649563D02*
X40542400Y-77514000D01*
X40542400Y-77649563D02*
X41606837Y-78714000D01*
X41606837Y-74194000D02*
X45062400Y-74194000D01*
X41606837Y-78714000D02*
X45062400Y-78714000D01*
X45062400Y-74194000D02*
X45062400Y-75394000D01*
X45062400Y-78714000D02*
X45062400Y-77514000D01*
%TO.C,R2*%
X54118742Y-73645500D02*
X54593258Y-73645500D01*
X54118742Y-74690500D02*
X54593258Y-74690500D01*
D12*
%TO.C,LORA*%
X105100800Y-73304400D02*
G75*
G02*
X105000800Y-73304400I-50000J0D01*
G01*
X105000800Y-73304400D02*
G75*
G02*
X105100800Y-73304400I50000J0D01*
G01*
D11*
%TO.C,PWR*%
X39250800Y-61602800D02*
X44670800Y-61602800D01*
X39250800Y-70322800D02*
X39250800Y-61602800D01*
X40550800Y-72022800D02*
X39250800Y-70322800D01*
X40550800Y-72022800D02*
X43370800Y-72022800D01*
X43370800Y-72022800D02*
X44670800Y-70322800D01*
X44670800Y-70322800D02*
X44670800Y-61602800D01*
%TO.C,R3*%
X66925458Y-38288700D02*
X66450942Y-38288700D01*
X66925458Y-39333700D02*
X66450942Y-39333700D01*
%TO.C,R4*%
X96149900Y-66391058D02*
X96149900Y-65916542D01*
X97194900Y-66391058D02*
X97194900Y-65916542D01*
%TO.C,U7*%
X41398000Y-38116400D02*
X41398000Y-50956400D01*
X41398000Y-38116400D02*
X60578000Y-38116400D01*
X41398000Y-50956400D02*
X60578000Y-50956400D01*
X60578000Y-38116400D02*
X60578000Y-50956400D01*
%TO.C,U2*%
X71897600Y-57728800D02*
X71897600Y-55418800D01*
X71897600Y-57728800D02*
X74857600Y-57728800D01*
X72007600Y-39908800D02*
X74857600Y-39908800D01*
X87817600Y-39908800D02*
X84857600Y-39908800D01*
X87817600Y-39908800D02*
X87817600Y-42218800D01*
X87817600Y-57728800D02*
X84857600Y-57728800D01*
X87817600Y-57728800D02*
X87817600Y-55418800D01*
X71447600Y-42178800D02*
X71207600Y-41848800D01*
X71687600Y-41848800D01*
X71447600Y-42178800D01*
G36*
X71447600Y-42178800D02*
G01*
X71207600Y-41848800D01*
X71687600Y-41848800D01*
X71447600Y-42178800D01*
G37*
%TO.C,C2*%
X47895600Y-79774000D02*
X47895600Y-80474000D01*
X47895600Y-83294000D02*
X47895600Y-82594000D01*
X50526163Y-79774000D02*
X47895600Y-79774000D01*
X50526163Y-83294000D02*
X47895600Y-83294000D01*
X51226163Y-80474000D02*
X50526163Y-79774000D01*
X51226163Y-82594000D02*
X50526163Y-83294000D01*
X51843100Y-83156500D02*
X51843100Y-82781500D01*
X52030600Y-82969000D02*
X51655600Y-82969000D01*
D12*
%TO.C,ACCEL1*%
X96620800Y-71787400D02*
G75*
G02*
X96520800Y-71787400I-50000J0D01*
G01*
X96520800Y-71787400D02*
G75*
G02*
X96620800Y-71787400I50000J0D01*
G01*
D11*
%TO.C,C5*%
X46101600Y-66004000D02*
X46601600Y-66004000D01*
X46351600Y-65754000D02*
X46351600Y-66254000D01*
X46841600Y-66368437D02*
X46841600Y-66504000D01*
X46841600Y-66368437D02*
X47906037Y-65304000D01*
X46841600Y-68759563D02*
X46841600Y-68624000D01*
X46841600Y-68759563D02*
X47906037Y-69824000D01*
X47906037Y-65304000D02*
X51361600Y-65304000D01*
X47906037Y-69824000D02*
X51361600Y-69824000D01*
X51361600Y-65304000D02*
X51361600Y-66504000D01*
X51361600Y-69824000D02*
X51361600Y-68624000D01*
%TO.C,U8*%
X42599600Y-53689200D02*
X46359600Y-53689200D01*
X42599600Y-60509200D02*
X46359600Y-60509200D01*
X46359600Y-53689200D02*
X46359600Y-54949200D01*
X46359600Y-60509200D02*
X46359600Y-59249200D01*
X41319600Y-53789200D02*
X41079600Y-53459200D01*
X41559600Y-53459200D01*
X41319600Y-53789200D01*
G36*
X41319600Y-53789200D02*
G01*
X41079600Y-53459200D01*
X41559600Y-53459200D01*
X41319600Y-53789200D01*
G37*
%TO.C,SW1*%
X100963200Y-63404200D02*
X100963200Y-70224200D01*
X102273200Y-63404200D02*
X100963200Y-63404200D01*
X102273200Y-70224200D02*
X100963200Y-70224200D01*
X102438200Y-65004200D02*
X102438200Y-68624200D01*
X102438200Y-68624200D02*
X103708200Y-68624200D01*
X102508200Y-65004200D02*
X102508200Y-66210867D01*
X102628200Y-65004200D02*
X102628200Y-66210867D01*
X102748200Y-65004200D02*
X102748200Y-66210867D01*
X102868200Y-65004200D02*
X102868200Y-66210867D01*
X102988200Y-65004200D02*
X102988200Y-66210867D01*
X103108200Y-65004200D02*
X103108200Y-66210867D01*
X103228200Y-65004200D02*
X103228200Y-66210867D01*
X103348200Y-65004200D02*
X103348200Y-66210867D01*
X103468200Y-65004200D02*
X103468200Y-66210867D01*
X103588200Y-65004200D02*
X103588200Y-66210867D01*
X103708200Y-65004200D02*
X102438200Y-65004200D01*
X103708200Y-66210867D02*
X102438200Y-66210867D01*
X103708200Y-68624200D02*
X103708200Y-65004200D01*
X105183200Y-63404200D02*
X103873200Y-63404200D01*
X105183200Y-63404200D02*
X105183200Y-70224200D01*
X105183200Y-70224200D02*
X103873200Y-70224200D01*
X105423200Y-63164200D02*
X104040200Y-63164200D01*
X105423200Y-63164200D02*
X105423200Y-64547200D01*
%TO.C,U3*%
X60212400Y-66296000D02*
X60212400Y-65786000D01*
X60212400Y-71766000D02*
X60212400Y-71016000D01*
X60962400Y-65546000D02*
X60512400Y-65546000D01*
X60962400Y-71766000D02*
X60212400Y-71766000D01*
X65682400Y-65546000D02*
X66432400Y-65546000D01*
X65682400Y-71766000D02*
X66432400Y-71766000D01*
X66432400Y-65546000D02*
X66432400Y-66296000D01*
X66432400Y-71766000D02*
X66432400Y-71016000D01*
X60212400Y-65546000D02*
X59972400Y-65216000D01*
X60452400Y-65216000D01*
X60212400Y-65546000D01*
G36*
X60212400Y-65546000D02*
G01*
X59972400Y-65216000D01*
X60452400Y-65216000D01*
X60212400Y-65546000D01*
G37*
%TO.C,J2*%
X99015000Y-80890000D02*
X99015000Y-79810000D01*
X99015000Y-85110000D02*
X98585000Y-85110000D01*
X99015000Y-86190000D02*
X99015000Y-85110000D01*
X104165000Y-79090000D02*
X100935000Y-79090000D01*
X104165000Y-86910000D02*
X100935000Y-86910000D01*
X108335000Y-79090000D02*
X106385000Y-79090000D01*
X108335000Y-79090000D02*
X108335000Y-86910000D01*
X108335000Y-86910000D02*
X106385000Y-86910000D01*
D10*
%TO.C,AE1*%
X40396000Y-79121200D02*
X40396000Y-80121200D01*
X40396000Y-79121200D02*
X44596000Y-79121200D01*
X40396000Y-88721200D02*
X40396000Y-87721200D01*
X44396000Y-88721200D02*
X40396000Y-88721200D01*
X44596000Y-79121200D02*
X44596000Y-80121200D01*
D11*
%TO.C,C7*%
X50267200Y-54777200D02*
X50767200Y-54777200D01*
X50517200Y-54527200D02*
X50517200Y-55027200D01*
X51007200Y-55141637D02*
X51007200Y-55277200D01*
X51007200Y-55141637D02*
X52071637Y-54077200D01*
X51007200Y-57532763D02*
X51007200Y-57397200D01*
X51007200Y-57532763D02*
X52071637Y-58597200D01*
X52071637Y-54077200D02*
X55527200Y-54077200D01*
X52071637Y-58597200D02*
X55527200Y-58597200D01*
X55527200Y-54077200D02*
X55527200Y-55277200D01*
X55527200Y-58597200D02*
X55527200Y-57397200D01*
%TO.C,C8*%
X62278000Y-42694800D02*
X62778000Y-42694800D01*
X62528000Y-42444800D02*
X62528000Y-42944800D01*
X63018000Y-43059237D02*
X63018000Y-43194800D01*
X63018000Y-43059237D02*
X64082437Y-41994800D01*
X63018000Y-45450363D02*
X63018000Y-45314800D01*
X63018000Y-45450363D02*
X64082437Y-46514800D01*
X64082437Y-41994800D02*
X67538000Y-41994800D01*
X64082437Y-46514800D02*
X67538000Y-46514800D01*
X67538000Y-41994800D02*
X67538000Y-43194800D01*
X67538000Y-46514800D02*
X67538000Y-45314800D01*
%TD*%
M02*
