%TF.GenerationSoftware,KiCad,Pcbnew,8.0.5*%
%TF.CreationDate,2024-10-19T16:38:56-04:00*%
%TF.ProjectId,emerald_pcb,656d6572-616c-4645-9f70-63622e6b6963,rev?*%
%TF.SameCoordinates,Original*%
%TF.FileFunction,Other,User*%
%FSLAX46Y46*%
G04 Gerber Fmt 4.6, Leading zero omitted, Abs format (unit mm)*
G04 Created by KiCad (PCBNEW 8.0.5) date 2024-10-19 16:38:56*
%MOMM*%
%LPD*%
G01*
G04 APERTURE LIST*
%ADD10C,0.050000*%
G04 APERTURE END LIST*
D10*
%TO.C,C10*%
X62283600Y-82262000D02*
X62283600Y-84362000D01*
X62283600Y-84362000D02*
X63233600Y-84362000D01*
X63233600Y-82062000D02*
X63233600Y-82262000D01*
X63233600Y-82062000D02*
X64383600Y-80912000D01*
X63233600Y-82262000D02*
X62283600Y-82262000D01*
X63233600Y-84362000D02*
X63233600Y-84562000D01*
X63233600Y-84562000D02*
X64383600Y-85712000D01*
X64383600Y-80912000D02*
X68033600Y-80912000D01*
X64383600Y-85712000D02*
X68033600Y-85712000D01*
X68033600Y-80912000D02*
X68033600Y-82262000D01*
X68033600Y-82262000D02*
X68983600Y-82262000D01*
X68033600Y-84362000D02*
X68033600Y-85712000D01*
X68983600Y-82262000D02*
X68983600Y-84362000D01*
X68983600Y-84362000D02*
X68033600Y-84362000D01*
%TO.C,R7*%
X57994600Y-52356000D02*
X60954600Y-52356000D01*
X57994600Y-53816000D02*
X57994600Y-52356000D01*
X60954600Y-52356000D02*
X60954600Y-53816000D01*
X60954600Y-53816000D02*
X57994600Y-53816000D01*
%TO.C,R6*%
X67240200Y-70898000D02*
X70200200Y-70898000D01*
X67240200Y-72358000D02*
X67240200Y-70898000D01*
X70200200Y-70898000D02*
X70200200Y-72358000D01*
X70200200Y-72358000D02*
X67240200Y-72358000D01*
%TO.C,J1*%
X89607400Y-53824400D02*
X89607400Y-37224400D01*
X104227400Y-37224400D02*
X89607400Y-37224400D01*
X104227400Y-53824400D02*
X89607400Y-53824400D01*
X104227400Y-53824400D02*
X104227400Y-37224400D01*
%TO.C,R1*%
X52863800Y-77603600D02*
X55823800Y-77603600D01*
X52863800Y-79063600D02*
X52863800Y-77603600D01*
X55823800Y-77603600D02*
X55823800Y-79063600D01*
X55823800Y-79063600D02*
X52863800Y-79063600D01*
%TO.C,REF\u002A\u002A*%
X109284000Y-38000000D02*
G75*
G02*
X104584000Y-38000000I-2350000J0D01*
G01*
X104584000Y-38000000D02*
G75*
G02*
X109284000Y-38000000I2350000J0D01*
G01*
%TO.C,U1*%
X74363200Y-60721200D02*
X90263200Y-60721200D01*
X74363200Y-76621200D02*
X74363200Y-60721200D01*
X90263200Y-60721200D02*
X90263200Y-76621200D01*
X90263200Y-76621200D02*
X74363200Y-76621200D01*
%TO.C,REF\u002A\u002A*%
X39738800Y-86868000D02*
G75*
G02*
X35038800Y-86868000I-2350000J0D01*
G01*
X35038800Y-86868000D02*
G75*
G02*
X39738800Y-86868000I2350000J0D01*
G01*
%TO.C,C9*%
X71224400Y-82118000D02*
X71224400Y-84218000D01*
X71224400Y-84218000D02*
X72174400Y-84218000D01*
X72174400Y-81918000D02*
X72174400Y-82118000D01*
X72174400Y-81918000D02*
X73324400Y-80768000D01*
X72174400Y-82118000D02*
X71224400Y-82118000D01*
X72174400Y-84218000D02*
X72174400Y-84418000D01*
X72174400Y-84418000D02*
X73324400Y-85568000D01*
X73324400Y-80768000D02*
X76974400Y-80768000D01*
X73324400Y-85568000D02*
X76974400Y-85568000D01*
X76974400Y-80768000D02*
X76974400Y-82118000D01*
X76974400Y-82118000D02*
X77924400Y-82118000D01*
X76974400Y-84218000D02*
X76974400Y-85568000D01*
X77924400Y-82118000D02*
X77924400Y-84218000D01*
X77924400Y-84218000D02*
X76974400Y-84218000D01*
%TO.C,C1*%
X66312800Y-73372000D02*
X66312800Y-75472000D01*
X66312800Y-75472000D02*
X67382800Y-75472000D01*
X67382800Y-73372000D02*
X66312800Y-73372000D01*
X67382800Y-73372000D02*
X68232800Y-72522000D01*
X67382800Y-75472000D02*
X68232800Y-76322000D01*
X68232800Y-72522000D02*
X71062800Y-72522000D01*
X68232800Y-76322000D02*
X71062800Y-76322000D01*
X71062800Y-72522000D02*
X71062800Y-73372000D01*
X71062800Y-73372000D02*
X72012800Y-73372000D01*
X71062800Y-75472000D02*
X71062800Y-76322000D01*
X72012800Y-73372000D02*
X72012800Y-75472000D01*
X72012800Y-75472000D02*
X71062800Y-75472000D01*
%TO.C,GPRS1*%
X62201000Y-38410400D02*
X63601000Y-38410400D01*
X62201000Y-39110400D02*
X62201000Y-38410400D01*
X63601000Y-38410400D02*
X63601000Y-39110400D01*
X63601000Y-39110400D02*
X62201000Y-39110400D01*
%TO.C,U5*%
X61398400Y-55638400D02*
X61398400Y-61638400D01*
X61398400Y-55638400D02*
X65398400Y-55638400D01*
X61398400Y-61638400D02*
X65398400Y-61638400D01*
X65398400Y-55638400D02*
X65398400Y-61638400D01*
%TO.C,U4*%
X54957200Y-80560400D02*
X54957200Y-85860400D01*
X54957200Y-80560400D02*
X60257200Y-80560400D01*
X54957200Y-85860400D02*
X60257200Y-85860400D01*
X60257200Y-80560400D02*
X60257200Y-85860400D01*
%TO.C,U6*%
X80475600Y-79494400D02*
X80475600Y-84894400D01*
X80475600Y-84894400D02*
X87875600Y-84894400D01*
X87875600Y-79494400D02*
X80475600Y-79494400D01*
X87875600Y-84894400D02*
X87875600Y-79494400D01*
%TO.C,C6*%
X46158000Y-74591200D02*
X46158000Y-76691200D01*
X46158000Y-76691200D02*
X47108000Y-76691200D01*
X47108000Y-74391200D02*
X47108000Y-74591200D01*
X47108000Y-74391200D02*
X48258000Y-73241200D01*
X47108000Y-74591200D02*
X46158000Y-74591200D01*
X47108000Y-76691200D02*
X47108000Y-76891200D01*
X47108000Y-76891200D02*
X48258000Y-78041200D01*
X48258000Y-73241200D02*
X51908000Y-73241200D01*
X48258000Y-78041200D02*
X51908000Y-78041200D01*
X51908000Y-73241200D02*
X51908000Y-74591200D01*
X51908000Y-74591200D02*
X52858000Y-74591200D01*
X51908000Y-76691200D02*
X51908000Y-78041200D01*
X52858000Y-74591200D02*
X52858000Y-76691200D01*
X52858000Y-76691200D02*
X51908000Y-76691200D01*
%TO.C,AE2*%
X95532000Y-56654000D02*
X105332000Y-56654000D01*
X95532000Y-61554000D02*
X95532000Y-56654000D01*
X105332000Y-56654000D02*
X105332000Y-61554000D01*
X105332000Y-61554000D02*
X95532000Y-61554000D01*
%TO.C,R5*%
X98394400Y-72523600D02*
X101354400Y-72523600D01*
X98394400Y-73983600D02*
X98394400Y-72523600D01*
X101354400Y-72523600D02*
X101354400Y-73983600D01*
X101354400Y-73983600D02*
X98394400Y-73983600D01*
%TO.C,C3*%
X46602400Y-85970400D02*
X47552400Y-85970400D01*
X46602400Y-88070400D02*
X46602400Y-85970400D01*
X47552400Y-85970400D02*
X47552400Y-85120400D01*
X47552400Y-88070400D02*
X46602400Y-88070400D01*
X47552400Y-88920400D02*
X47552400Y-88070400D01*
X50382400Y-85120400D02*
X47552400Y-85120400D01*
X50382400Y-88920400D02*
X47552400Y-88920400D01*
X51232400Y-85970400D02*
X50382400Y-85120400D01*
X51232400Y-88070400D02*
X50382400Y-88920400D01*
X51232400Y-88070400D02*
X52302400Y-88070400D01*
X52302400Y-85970400D02*
X51232400Y-85970400D01*
X52302400Y-88070400D02*
X52302400Y-85970400D01*
%TO.C,C4*%
X39452400Y-75404000D02*
X39452400Y-77504000D01*
X39452400Y-77504000D02*
X40402400Y-77504000D01*
X40402400Y-75204000D02*
X40402400Y-75404000D01*
X40402400Y-75204000D02*
X41552400Y-74054000D01*
X40402400Y-75404000D02*
X39452400Y-75404000D01*
X40402400Y-77504000D02*
X40402400Y-77704000D01*
X40402400Y-77704000D02*
X41552400Y-78854000D01*
X41552400Y-74054000D02*
X45202400Y-74054000D01*
X41552400Y-78854000D02*
X45202400Y-78854000D01*
X45202400Y-74054000D02*
X45202400Y-75404000D01*
X45202400Y-75404000D02*
X46152400Y-75404000D01*
X45202400Y-77504000D02*
X45202400Y-78854000D01*
X46152400Y-75404000D02*
X46152400Y-77504000D01*
X46152400Y-77504000D02*
X45202400Y-77504000D01*
%TO.C,R2*%
X52876000Y-73438000D02*
X55836000Y-73438000D01*
X52876000Y-74898000D02*
X52876000Y-73438000D01*
X55836000Y-73438000D02*
X55836000Y-74898000D01*
X55836000Y-74898000D02*
X52876000Y-74898000D01*
%TO.C,LORA*%
X103490800Y-72954400D02*
X104890800Y-72954400D01*
X103490800Y-73654400D02*
X103490800Y-72954400D01*
X104890800Y-72954400D02*
X104890800Y-73654400D01*
X104890800Y-73654400D02*
X103490800Y-73654400D01*
%TO.C,PWR*%
X38860800Y-61212800D02*
X45060800Y-61212800D01*
X38860800Y-70712800D02*
X38860800Y-61212800D01*
X40160800Y-72412800D02*
X38860800Y-70712800D01*
X40160800Y-72412800D02*
X43760800Y-72412800D01*
X43760800Y-72412800D02*
X45060800Y-70712800D01*
X45060800Y-70712800D02*
X45060800Y-61212800D01*
%TO.C,R3*%
X65208200Y-38081200D02*
X68168200Y-38081200D01*
X65208200Y-39541200D02*
X65208200Y-38081200D01*
X68168200Y-38081200D02*
X68168200Y-39541200D01*
X68168200Y-39541200D02*
X65208200Y-39541200D01*
%TO.C,R4*%
X95942400Y-64673800D02*
X97402400Y-64673800D01*
X95942400Y-67633800D02*
X95942400Y-64673800D01*
X97402400Y-64673800D02*
X97402400Y-67633800D01*
X97402400Y-67633800D02*
X95942400Y-67633800D01*
%TO.C,U7*%
X41018000Y-51336400D02*
X41018000Y-37736400D01*
X41018000Y-51336400D02*
X60958000Y-51336400D01*
X60958000Y-37736400D02*
X41018000Y-37736400D01*
X60958000Y-37736400D02*
X60958000Y-51336400D01*
%TO.C,U2*%
X70757600Y-38768800D02*
X70757600Y-58868800D01*
X70757600Y-38768800D02*
X88957600Y-38768800D01*
X70757600Y-58868800D02*
X88957600Y-58868800D01*
X88957600Y-38768800D02*
X88957600Y-58868800D01*
%TO.C,C2*%
X46805600Y-80484000D02*
X47755600Y-80484000D01*
X46805600Y-82584000D02*
X46805600Y-80484000D01*
X47755600Y-80484000D02*
X47755600Y-79634000D01*
X47755600Y-82584000D02*
X46805600Y-82584000D01*
X47755600Y-83434000D02*
X47755600Y-82584000D01*
X50585600Y-79634000D02*
X47755600Y-79634000D01*
X50585600Y-83434000D02*
X47755600Y-83434000D01*
X51435600Y-80484000D02*
X50585600Y-79634000D01*
X51435600Y-82584000D02*
X50585600Y-83434000D01*
X51435600Y-82584000D02*
X52505600Y-82584000D01*
X52505600Y-80484000D02*
X51435600Y-80484000D01*
X52505600Y-82584000D02*
X52505600Y-80484000D01*
%TO.C,ACCEL1*%
X96220800Y-70227400D02*
X96920800Y-70227400D01*
X96220800Y-71627400D02*
X96220800Y-70227400D01*
X96920800Y-70227400D02*
X96920800Y-71627400D01*
X96920800Y-71627400D02*
X96220800Y-71627400D01*
%TO.C,C5*%
X45751600Y-66514000D02*
X45751600Y-68614000D01*
X45751600Y-68614000D02*
X46701600Y-68614000D01*
X46701600Y-66314000D02*
X46701600Y-66514000D01*
X46701600Y-66314000D02*
X47851600Y-65164000D01*
X46701600Y-66514000D02*
X45751600Y-66514000D01*
X46701600Y-68614000D02*
X46701600Y-68814000D01*
X46701600Y-68814000D02*
X47851600Y-69964000D01*
X47851600Y-65164000D02*
X51501600Y-65164000D01*
X47851600Y-69964000D02*
X51501600Y-69964000D01*
X51501600Y-65164000D02*
X51501600Y-66514000D01*
X51501600Y-66514000D02*
X52451600Y-66514000D01*
X51501600Y-68614000D02*
X51501600Y-69964000D01*
X52451600Y-66514000D02*
X52451600Y-68614000D01*
X52451600Y-68614000D02*
X51501600Y-68614000D01*
%TO.C,U8*%
X40049600Y-53499200D02*
X40049600Y-60699200D01*
X40049600Y-60699200D02*
X48849600Y-60699200D01*
X48849600Y-53499200D02*
X40049600Y-53499200D01*
X48849600Y-60699200D02*
X48849600Y-53499200D01*
%TO.C,SW1*%
X100673200Y-62114200D02*
X100673200Y-71514200D01*
X100673200Y-71514200D02*
X105473200Y-71514200D01*
X105473200Y-62114200D02*
X100673200Y-62114200D01*
X105473200Y-71514200D02*
X105473200Y-62114200D01*
%TO.C,REF\u002A\u002A*%
X39789600Y-38100000D02*
G75*
G02*
X35089600Y-38100000I-2350000J0D01*
G01*
X35089600Y-38100000D02*
G75*
G02*
X39789600Y-38100000I2350000J0D01*
G01*
%TO.C,U3*%
X59692400Y-65026000D02*
X59692400Y-72286000D01*
X59692400Y-72286000D02*
X66952400Y-72286000D01*
X66952400Y-65026000D02*
X59692400Y-65026000D01*
X66952400Y-72286000D02*
X66952400Y-65026000D01*
%TO.C,J2*%
X98225000Y-80650000D02*
X98225000Y-85350000D01*
X98475000Y-77050000D02*
X98475000Y-80650000D01*
X98475000Y-77050000D02*
X101175000Y-77050000D01*
X98475000Y-80650000D02*
X98225000Y-80650000D01*
X98475000Y-85350000D02*
X98225000Y-85350000D01*
X98475000Y-88950000D02*
X98475000Y-85350000D01*
X98475000Y-88950000D02*
X101175000Y-88950000D01*
X101175000Y-78650000D02*
X101175000Y-77050000D01*
X101175000Y-78650000D02*
X103925000Y-78650000D01*
X101175000Y-87350000D02*
X101175000Y-88950000D01*
X101175000Y-87350000D02*
X103925000Y-87350000D01*
X103925000Y-77050000D02*
X106625000Y-77050000D01*
X103925000Y-78650000D02*
X103925000Y-77050000D01*
X103925000Y-87350000D02*
X103925000Y-88950000D01*
X103925000Y-88950000D02*
X106625000Y-88950000D01*
X106625000Y-78650000D02*
X106625000Y-77050000D01*
X106625000Y-87350000D02*
X106625000Y-88950000D01*
X108775000Y-78650000D02*
X106625000Y-78650000D01*
X108775000Y-87350000D02*
X106625000Y-87350000D01*
X108775000Y-87350000D02*
X108775000Y-78650000D01*
%TO.C,AE1*%
X40046000Y-79021200D02*
X44946000Y-79021200D01*
X40046000Y-88821200D02*
X40046000Y-79021200D01*
X44946000Y-79021200D02*
X44946000Y-88821200D01*
X44946000Y-88821200D02*
X40046000Y-88821200D01*
%TO.C,C7*%
X49917200Y-55287200D02*
X49917200Y-57387200D01*
X49917200Y-57387200D02*
X50867200Y-57387200D01*
X50867200Y-55087200D02*
X50867200Y-55287200D01*
X50867200Y-55087200D02*
X52017200Y-53937200D01*
X50867200Y-55287200D02*
X49917200Y-55287200D01*
X50867200Y-57387200D02*
X50867200Y-57587200D01*
X50867200Y-57587200D02*
X52017200Y-58737200D01*
X52017200Y-53937200D02*
X55667200Y-53937200D01*
X52017200Y-58737200D02*
X55667200Y-58737200D01*
X55667200Y-53937200D02*
X55667200Y-55287200D01*
X55667200Y-55287200D02*
X56617200Y-55287200D01*
X55667200Y-57387200D02*
X55667200Y-58737200D01*
X56617200Y-55287200D02*
X56617200Y-57387200D01*
X56617200Y-57387200D02*
X55667200Y-57387200D01*
%TO.C,C8*%
X61928000Y-43204800D02*
X61928000Y-45304800D01*
X61928000Y-45304800D02*
X62878000Y-45304800D01*
X62878000Y-43004800D02*
X62878000Y-43204800D01*
X62878000Y-43004800D02*
X64028000Y-41854800D01*
X62878000Y-43204800D02*
X61928000Y-43204800D01*
X62878000Y-45304800D02*
X62878000Y-45504800D01*
X62878000Y-45504800D02*
X64028000Y-46654800D01*
X64028000Y-41854800D02*
X67678000Y-41854800D01*
X64028000Y-46654800D02*
X67678000Y-46654800D01*
X67678000Y-41854800D02*
X67678000Y-43204800D01*
X67678000Y-43204800D02*
X68628000Y-43204800D01*
X67678000Y-45304800D02*
X67678000Y-46654800D01*
X68628000Y-43204800D02*
X68628000Y-45304800D01*
X68628000Y-45304800D02*
X67678000Y-45304800D01*
%TD*%
M02*
