%TF.GenerationSoftware,KiCad,Pcbnew,8.0.5*%
%TF.CreationDate,2024-11-03T18:03:45-05:00*%
%TF.ProjectId,emerald_pcb,656d6572-616c-4645-9f70-63622e6b6963,rev?*%
%TF.SameCoordinates,Original*%
%TF.FileFunction,Copper,L2,Bot*%
%TF.FilePolarity,Positive*%
%FSLAX46Y46*%
G04 Gerber Fmt 4.6, Leading zero omitted, Abs format (unit mm)*
G04 Created by KiCad (PCBNEW 8.0.5) date 2024-11-03 18:03:45*
%MOMM*%
%LPD*%
G01*
G04 APERTURE LIST*
%ADD10C,0.400000*%
%TA.AperFunction,NonConductor*%
%ADD11C,0.400000*%
%TD*%
%TA.AperFunction,ComponentPad*%
%ADD12R,3.800000X3.800000*%
%TD*%
%TA.AperFunction,ComponentPad*%
%ADD13C,4.000000*%
%TD*%
%TA.AperFunction,ViaPad*%
%ADD14C,0.600000*%
%TD*%
%TA.AperFunction,Conductor*%
%ADD15C,0.200000*%
%TD*%
G04 APERTURE END LIST*
D10*
D11*
G36*
X72484902Y-50014301D02*
G01*
X72574764Y-50019227D01*
X72676166Y-50032365D01*
X72770550Y-50053385D01*
X72857918Y-50082288D01*
X72950978Y-50125970D01*
X73000045Y-50155392D01*
X73078740Y-50213590D01*
X73148305Y-50280329D01*
X73208739Y-50355610D01*
X73260043Y-50439431D01*
X73285185Y-50491645D01*
X73316612Y-50576586D01*
X73340496Y-50669472D01*
X73356838Y-50770301D01*
X73364695Y-50860395D01*
X73367314Y-50956005D01*
X73367075Y-50982909D01*
X73361336Y-51086756D01*
X73347944Y-51184572D01*
X73326900Y-51276357D01*
X73298203Y-51362110D01*
X73251571Y-51460820D01*
X73192982Y-51550106D01*
X73122436Y-51629969D01*
X73091016Y-51659143D01*
X73005373Y-51723843D01*
X72909597Y-51776780D01*
X72825681Y-51810660D01*
X72735281Y-51837010D01*
X72638396Y-51855832D01*
X72535026Y-51867126D01*
X72425172Y-51870890D01*
X72370755Y-51869932D01*
X72266465Y-51862265D01*
X72168233Y-51846933D01*
X72076060Y-51823935D01*
X71989947Y-51793270D01*
X71909891Y-51754939D01*
X71818343Y-51696245D01*
X71736260Y-51625572D01*
X71706341Y-51594202D01*
X71639988Y-51509119D01*
X71585699Y-51414526D01*
X71550953Y-51332005D01*
X71523929Y-51243397D01*
X71504627Y-51148704D01*
X71493045Y-51047924D01*
X71489184Y-50941057D01*
X72049282Y-50941057D01*
X72049682Y-50974472D01*
X72055684Y-51067481D01*
X72071790Y-51162278D01*
X72102200Y-51252534D01*
X72151718Y-51331016D01*
X72171590Y-51352072D01*
X72246260Y-51407301D01*
X72333895Y-51439518D01*
X72423853Y-51448838D01*
X72456345Y-51447818D01*
X72546079Y-51432517D01*
X72632160Y-51393980D01*
X72703902Y-51332774D01*
X72716413Y-51317737D01*
X72762723Y-51236980D01*
X72790166Y-51147211D01*
X72803584Y-51054779D01*
X72807217Y-50965237D01*
X72806830Y-50928638D01*
X72801034Y-50827411D01*
X72785482Y-50725567D01*
X72756115Y-50630605D01*
X72708298Y-50551099D01*
X72689032Y-50530514D01*
X72614431Y-50476522D01*
X72523859Y-50445026D01*
X72428689Y-50435914D01*
X72396444Y-50436950D01*
X72307452Y-50452483D01*
X72222195Y-50491604D01*
X72151278Y-50553737D01*
X72138927Y-50569057D01*
X72093208Y-50652663D01*
X72066115Y-50747123D01*
X72052868Y-50845328D01*
X72049282Y-50941057D01*
X71489184Y-50941057D01*
X71490282Y-50882960D01*
X71496988Y-50790234D01*
X71513083Y-50685736D01*
X71537957Y-50588626D01*
X71571610Y-50498904D01*
X71614041Y-50416570D01*
X71646444Y-50366012D01*
X71708868Y-50285998D01*
X71778570Y-50216755D01*
X71855552Y-50158284D01*
X71939812Y-50110583D01*
X71991697Y-50087914D01*
X72075731Y-50059578D01*
X72167215Y-50038043D01*
X72266149Y-50023308D01*
X72354284Y-50016224D01*
X72447593Y-50013863D01*
X72484902Y-50014301D01*
G37*
G36*
X74217572Y-50717282D02*
G01*
X74524000Y-50717282D01*
X74586024Y-50718623D01*
X74682599Y-50726817D01*
X74770672Y-50742460D01*
X74865139Y-50771063D01*
X74947365Y-50810394D01*
X75027824Y-50869836D01*
X75084001Y-50931217D01*
X75134851Y-51013377D01*
X75169881Y-51106897D01*
X75187316Y-51196098D01*
X75193127Y-51293646D01*
X75189424Y-51373000D01*
X75175205Y-51460460D01*
X75145136Y-51551792D01*
X75100552Y-51631596D01*
X75041452Y-51699871D01*
X75031851Y-51708662D01*
X74956273Y-51762382D01*
X74866053Y-51802428D01*
X74777067Y-51825870D01*
X74677325Y-51839265D01*
X74585988Y-51842753D01*
X73654837Y-51842753D01*
X73654837Y-51476975D01*
X74217572Y-51476975D01*
X74377161Y-51476975D01*
X74414832Y-51476068D01*
X74509052Y-51462467D01*
X74590824Y-51418943D01*
X74627829Y-51367941D01*
X74647977Y-51278259D01*
X74635439Y-51209136D01*
X74582471Y-51137575D01*
X74537973Y-51111223D01*
X74446685Y-51088384D01*
X74354739Y-51083060D01*
X74217572Y-51083060D01*
X74217572Y-51476975D01*
X73654837Y-51476975D01*
X73654837Y-50042000D01*
X74217572Y-50042000D01*
X74217572Y-50717282D01*
G37*
G36*
X75474495Y-51842753D02*
G01*
X76975416Y-51842753D01*
X76975416Y-51420702D01*
X76035912Y-51420702D01*
X76035912Y-51167471D01*
X76907712Y-51167471D01*
X76907712Y-50801692D01*
X76035912Y-50801692D01*
X76035912Y-50464051D01*
X77002674Y-50464051D01*
X77002674Y-50042000D01*
X75474495Y-50042000D01*
X75474495Y-51842753D01*
G37*
G36*
X77297670Y-51842753D02*
G01*
X77820838Y-51842753D01*
X78503595Y-50828071D01*
X78503595Y-51842753D01*
X79031159Y-51842753D01*
X79031159Y-50042000D01*
X78503595Y-50042000D01*
X77824355Y-51051406D01*
X77824355Y-50042000D01*
X77297670Y-50042000D01*
X77297670Y-51842753D01*
G37*
G36*
X79844928Y-50351504D02*
G01*
X80482841Y-50351504D01*
X80571648Y-50042000D01*
X81157684Y-50042000D01*
X80476686Y-51842753D01*
X79865591Y-51842753D01*
X79450608Y-50745419D01*
X79965828Y-50745419D01*
X80164983Y-51382893D01*
X80365458Y-50745419D01*
X79965828Y-50745419D01*
X79450608Y-50745419D01*
X79184593Y-50042000D01*
X79757000Y-50042000D01*
X79844928Y-50351504D01*
G37*
G36*
X81008207Y-51842753D02*
G01*
X81594244Y-51842753D01*
X82002227Y-50546703D01*
X82404055Y-51842753D01*
X82972946Y-51842753D01*
X82300301Y-50042000D01*
X81693162Y-50042000D01*
X81008207Y-51842753D01*
G37*
G36*
X83807817Y-51842753D02*
G01*
X84393853Y-51842753D01*
X84801836Y-50546703D01*
X85203665Y-51842753D01*
X85772555Y-51842753D01*
X85099910Y-50042000D01*
X84492771Y-50042000D01*
X83807817Y-51842753D01*
G37*
G36*
X87005737Y-51870890D02*
G01*
X87005737Y-50042000D01*
X86496198Y-50042000D01*
X86496198Y-51239571D01*
X86419759Y-51183234D01*
X86344866Y-51134024D01*
X86264269Y-51088124D01*
X86257035Y-51084379D01*
X86170634Y-51044147D01*
X86080096Y-51008564D01*
X85988848Y-50977346D01*
X85967314Y-50970513D01*
X85967314Y-51392565D01*
X86059710Y-51424224D01*
X86144007Y-51458201D01*
X86232117Y-51500772D01*
X86309204Y-51546498D01*
X86366505Y-51588203D01*
X86433659Y-51648901D01*
X86493120Y-51716248D01*
X86544887Y-51790244D01*
X86588961Y-51870890D01*
X87005737Y-51870890D01*
G37*
G36*
X87593532Y-50548461D02*
G01*
X88131208Y-50548461D01*
X88131208Y-50042000D01*
X87593532Y-50042000D01*
X87593532Y-50548461D01*
G37*
G36*
X89523979Y-51870890D02*
G01*
X89523979Y-50042000D01*
X89014439Y-50042000D01*
X89014439Y-51239571D01*
X88938001Y-51183234D01*
X88863108Y-51134024D01*
X88782511Y-51088124D01*
X88775277Y-51084379D01*
X88688875Y-51044147D01*
X88598338Y-51008564D01*
X88507089Y-50977346D01*
X88485556Y-50970513D01*
X88485556Y-51392565D01*
X88577952Y-51424224D01*
X88662249Y-51458201D01*
X88750359Y-51500772D01*
X88827446Y-51546498D01*
X88884746Y-51588203D01*
X88951901Y-51648901D01*
X89011362Y-51716248D01*
X89063129Y-51790244D01*
X89107203Y-51870890D01*
X89523979Y-51870890D01*
G37*
G36*
X72223419Y-46483675D02*
G01*
X72315695Y-46487790D01*
X72410964Y-46498154D01*
X72498591Y-46514615D01*
X72555004Y-46529951D01*
X72641238Y-46564954D01*
X72719729Y-46615292D01*
X72756322Y-46647743D01*
X72815350Y-46718950D01*
X72859533Y-46797302D01*
X72882614Y-46854317D01*
X72904871Y-46942622D01*
X72912290Y-47034266D01*
X72910971Y-47092738D01*
X72910971Y-48340428D01*
X72439680Y-48340428D01*
X72439680Y-48161056D01*
X72401158Y-48206689D01*
X72332183Y-48270821D01*
X72253274Y-48320205D01*
X72178627Y-48347738D01*
X72091305Y-48363842D01*
X72000922Y-48368565D01*
X71942340Y-48366044D01*
X71846699Y-48349499D01*
X71759809Y-48317514D01*
X71681670Y-48270086D01*
X71612283Y-48207218D01*
X71594342Y-48186478D01*
X71540664Y-48104880D01*
X71505939Y-48023787D01*
X71481632Y-47932401D01*
X71467742Y-47830722D01*
X71464125Y-47738125D01*
X71465111Y-47709549D01*
X71966191Y-47709549D01*
X71968947Y-47780255D01*
X71984413Y-47872408D01*
X72023783Y-47956185D01*
X72091048Y-48012239D01*
X72177656Y-48030923D01*
X72183645Y-48030844D01*
X72271641Y-48008093D01*
X72340762Y-47950030D01*
X72376001Y-47892431D01*
X72401061Y-47804723D01*
X72407586Y-47716143D01*
X72405345Y-47661625D01*
X72387416Y-47568724D01*
X72343839Y-47487532D01*
X72272618Y-47430819D01*
X72186449Y-47411914D01*
X72097093Y-47430159D01*
X72026861Y-47484894D01*
X72000318Y-47526467D01*
X71973360Y-47614770D01*
X71966191Y-47709549D01*
X71465111Y-47709549D01*
X71466937Y-47656610D01*
X71477736Y-47565564D01*
X71500570Y-47468681D01*
X71534428Y-47381854D01*
X71579310Y-47305083D01*
X71599930Y-47277133D01*
X71666551Y-47204103D01*
X71740312Y-47147303D01*
X71821213Y-47106731D01*
X71909256Y-47082387D01*
X72004439Y-47074273D01*
X72086948Y-47080198D01*
X72173444Y-47100401D01*
X72255472Y-47134943D01*
X72264759Y-47140018D01*
X72339058Y-47193846D01*
X72404069Y-47260240D01*
X72404069Y-47070316D01*
X72403858Y-47053330D01*
X72392187Y-46958743D01*
X72349994Y-46876436D01*
X72277372Y-46833214D01*
X72187328Y-46821042D01*
X72132923Y-46824886D01*
X72047524Y-46853575D01*
X72040526Y-46858014D01*
X71990810Y-46933589D01*
X71502813Y-46989863D01*
X71500175Y-46922598D01*
X71507244Y-46838783D01*
X71532633Y-46752524D01*
X71583267Y-46667636D01*
X71647893Y-46602982D01*
X71700109Y-46568532D01*
X71793551Y-46530112D01*
X71892531Y-46506289D01*
X71988332Y-46492860D01*
X72096241Y-46485269D01*
X72191285Y-46483401D01*
X72223419Y-46483675D01*
G37*
G36*
X73223993Y-48818753D02*
G01*
X73727377Y-48818753D01*
X73727377Y-48481112D01*
X73223993Y-48481112D01*
X73223993Y-48818753D01*
G37*
G36*
X73223993Y-48340428D02*
G01*
X73727377Y-48340428D01*
X73727377Y-47018000D01*
X73223993Y-47018000D01*
X73223993Y-48340428D01*
G37*
G36*
X74651494Y-48818753D02*
G01*
X74651494Y-48340428D01*
X74928466Y-48340428D01*
X74928466Y-47974650D01*
X74651494Y-47974650D01*
X74651494Y-47487532D01*
X74658500Y-47398075D01*
X74667761Y-47371468D01*
X74746767Y-47327676D01*
X74754369Y-47327504D01*
X74846387Y-47341894D01*
X74910001Y-47360916D01*
X74946930Y-47028551D01*
X74855074Y-47011625D01*
X74766349Y-46999535D01*
X74670279Y-46991714D01*
X74598298Y-46989863D01*
X74510398Y-46992885D01*
X74417911Y-47005164D01*
X74332429Y-47032367D01*
X74320887Y-47038223D01*
X74247774Y-47095082D01*
X74197837Y-47168195D01*
X74189436Y-47186381D01*
X74163449Y-47278148D01*
X74151830Y-47369613D01*
X74147166Y-47467205D01*
X74146791Y-47507755D01*
X74146791Y-47974650D01*
X73961704Y-47974650D01*
X73961704Y-48340428D01*
X74146791Y-48340428D01*
X74146791Y-48571237D01*
X74651494Y-48818753D01*
G37*
G36*
X75162792Y-48818753D02*
G01*
X75666177Y-48818753D01*
X75666177Y-48166771D01*
X75730070Y-48228587D01*
X75800055Y-48282600D01*
X75869729Y-48321963D01*
X75958338Y-48352136D01*
X76050950Y-48366335D01*
X76109771Y-48368565D01*
X76206958Y-48360706D01*
X76293209Y-48337131D01*
X76377170Y-48291821D01*
X76432904Y-48242829D01*
X76490072Y-48161673D01*
X76525181Y-48071609D01*
X76543775Y-47978964D01*
X76550704Y-47889273D01*
X76551166Y-47857267D01*
X76551166Y-47018000D01*
X76045584Y-47018000D01*
X76045584Y-47746478D01*
X76038038Y-47835807D01*
X76002674Y-47919486D01*
X75999861Y-47922773D01*
X75923947Y-47968520D01*
X75871487Y-47974650D01*
X75784006Y-47954922D01*
X75722890Y-47904748D01*
X75684121Y-47822377D01*
X75668891Y-47727905D01*
X75666177Y-47654154D01*
X75666177Y-47018000D01*
X75162792Y-47018000D01*
X75162792Y-48818753D01*
G37*
G36*
X78225744Y-47018000D02*
G01*
X77755772Y-47018000D01*
X77755772Y-47232103D01*
X77696529Y-47164355D01*
X77630378Y-47103029D01*
X77557214Y-47052530D01*
X77543867Y-47045257D01*
X77456819Y-47011501D01*
X77364859Y-46994244D01*
X77280964Y-46989863D01*
X77182787Y-46997666D01*
X77095767Y-47021077D01*
X77011203Y-47066069D01*
X76955193Y-47114720D01*
X76898237Y-47195840D01*
X76863259Y-47285815D01*
X76844734Y-47378337D01*
X76837830Y-47467889D01*
X76837370Y-47499842D01*
X76837370Y-48340428D01*
X77342953Y-48340428D01*
X77342953Y-47612829D01*
X77350499Y-47523639D01*
X77385862Y-47439435D01*
X77388675Y-47436094D01*
X77464590Y-47389960D01*
X77517049Y-47383778D01*
X77603845Y-47403382D01*
X77664767Y-47453240D01*
X77704137Y-47535610D01*
X77719604Y-47630083D01*
X77722360Y-47703833D01*
X77722360Y-48340428D01*
X78225744Y-48340428D01*
X78225744Y-47018000D01*
G37*
G36*
X79437221Y-46990180D02*
G01*
X79529880Y-47001300D01*
X79617129Y-47028305D01*
X79698968Y-47071196D01*
X79729866Y-47092827D01*
X79799539Y-47158266D01*
X79852993Y-47231037D01*
X79897684Y-47316953D01*
X79902093Y-47327307D01*
X79932325Y-47413723D01*
X79953599Y-47506514D01*
X79965916Y-47605679D01*
X79969345Y-47697678D01*
X79967965Y-47757184D01*
X79959536Y-47850452D01*
X79939304Y-47952627D01*
X79908036Y-48044168D01*
X79865733Y-48125074D01*
X79812394Y-48195348D01*
X79771865Y-48235945D01*
X79694725Y-48293966D01*
X79609674Y-48335410D01*
X79516713Y-48360276D01*
X79415842Y-48368565D01*
X79379939Y-48367695D01*
X79291313Y-48357297D01*
X79203497Y-48332954D01*
X79179860Y-48323598D01*
X79102214Y-48281980D01*
X79032478Y-48226562D01*
X79032478Y-48818753D01*
X78524258Y-48818753D01*
X78524258Y-47687567D01*
X79028521Y-47687567D01*
X79032561Y-47768652D01*
X79051305Y-47862109D01*
X79093148Y-47945634D01*
X79101429Y-47955962D01*
X79172952Y-48012183D01*
X79261090Y-48030923D01*
X79340004Y-48010480D01*
X79406170Y-47949151D01*
X79442873Y-47874777D01*
X79461636Y-47783681D01*
X79466400Y-47692842D01*
X79466340Y-47680589D01*
X79461531Y-47590566D01*
X79444702Y-47498054D01*
X79404851Y-47411035D01*
X79341185Y-47351079D01*
X79253616Y-47327504D01*
X79247549Y-47327587D01*
X79159470Y-47351451D01*
X79092269Y-47412354D01*
X79084549Y-47423424D01*
X79048692Y-47507010D01*
X79032506Y-47599145D01*
X79028521Y-47687567D01*
X78524258Y-47687567D01*
X78524258Y-47018000D01*
X78995109Y-47018000D01*
X78995109Y-47195173D01*
X79031199Y-47155637D01*
X79100318Y-47091587D01*
X79175800Y-47042180D01*
X79239397Y-47016890D01*
X79329712Y-46996045D01*
X79418040Y-46989863D01*
X79437221Y-46990180D01*
G37*
G36*
X80202353Y-47524461D02*
G01*
X80740029Y-47524461D01*
X80740029Y-47018000D01*
X80202353Y-47018000D01*
X80202353Y-47524461D01*
G37*
G36*
X82018933Y-47524461D02*
G01*
X82497698Y-47468188D01*
X82467988Y-47380741D01*
X82428318Y-47300851D01*
X82373176Y-47221699D01*
X82367565Y-47214957D01*
X82299682Y-47147121D01*
X82227691Y-47095188D01*
X82145912Y-47052530D01*
X82137196Y-47048774D01*
X82052292Y-47020296D01*
X81955356Y-47001139D01*
X81859089Y-46991934D01*
X81780650Y-46989863D01*
X81692440Y-46991735D01*
X81599821Y-46998460D01*
X81506069Y-47011872D01*
X81432018Y-47028990D01*
X81348967Y-47058168D01*
X81266340Y-47101172D01*
X81192855Y-47155606D01*
X81129283Y-47219338D01*
X81075790Y-47290240D01*
X81035905Y-47360916D01*
X81003616Y-47451011D01*
X80987167Y-47538248D01*
X80980078Y-47626011D01*
X80979191Y-47673498D01*
X80983533Y-47771015D01*
X80996557Y-47860015D01*
X81021588Y-47949957D01*
X81048654Y-48012459D01*
X81095827Y-48089777D01*
X81155191Y-48160275D01*
X81186700Y-48190512D01*
X81258939Y-48247849D01*
X81338520Y-48294828D01*
X81367391Y-48307895D01*
X81456773Y-48337223D01*
X81547201Y-48355234D01*
X81634800Y-48364773D01*
X81730310Y-48368505D01*
X81744600Y-48368565D01*
X81841305Y-48365763D01*
X81930561Y-48357359D01*
X82027836Y-48339878D01*
X82114384Y-48314330D01*
X82201800Y-48274326D01*
X82234795Y-48253819D01*
X82303837Y-48198548D01*
X82363243Y-48133137D01*
X82413014Y-48057586D01*
X82453150Y-47971895D01*
X82471759Y-47918376D01*
X81998270Y-47862103D01*
X81961500Y-47943355D01*
X81916937Y-47988279D01*
X81833243Y-48023885D01*
X81759547Y-48030923D01*
X81665937Y-48015832D01*
X81588000Y-47970556D01*
X81557314Y-47939479D01*
X81510163Y-47857995D01*
X81487494Y-47769879D01*
X81480014Y-47674863D01*
X81479938Y-47663387D01*
X81487408Y-47568075D01*
X81512883Y-47481083D01*
X81556435Y-47412794D01*
X81625839Y-47357572D01*
X81715999Y-47329586D01*
X81752073Y-47327504D01*
X81843078Y-47339594D01*
X81918256Y-47375864D01*
X81980171Y-47441888D01*
X82018933Y-47524461D01*
G37*
G36*
X83516307Y-46994607D02*
G01*
X83616013Y-47008839D01*
X83708184Y-47032560D01*
X83792821Y-47065769D01*
X83884439Y-47118144D01*
X83965207Y-47184182D01*
X84012296Y-47234480D01*
X84071158Y-47316365D01*
X84115892Y-47405979D01*
X84146500Y-47503321D01*
X84161216Y-47590343D01*
X84166121Y-47682731D01*
X84165487Y-47716248D01*
X84155982Y-47812781D01*
X84135070Y-47903286D01*
X84102751Y-47987763D01*
X84059026Y-48066213D01*
X84003895Y-48138635D01*
X83950541Y-48192524D01*
X83875367Y-48249782D01*
X83790769Y-48295813D01*
X83696747Y-48330617D01*
X83593301Y-48354194D01*
X83503760Y-48364972D01*
X83408187Y-48368565D01*
X83303805Y-48363788D01*
X83206357Y-48349459D01*
X83115843Y-48325578D01*
X83032262Y-48292143D01*
X82941118Y-48239413D01*
X82859959Y-48172926D01*
X82823739Y-48135313D01*
X82761987Y-48054499D01*
X82714486Y-47966235D01*
X82681235Y-47870521D01*
X82662234Y-47767357D01*
X82657500Y-47679653D01*
X83161990Y-47679653D01*
X83167658Y-47772362D01*
X83189982Y-47866121D01*
X83233651Y-47943875D01*
X83252163Y-47964277D01*
X83326371Y-48014262D01*
X83415221Y-48030923D01*
X83434381Y-48030170D01*
X83521372Y-48003798D01*
X83589317Y-47945194D01*
X83632450Y-47868615D01*
X83654500Y-47776258D01*
X83660099Y-47684929D01*
X83660030Y-47673297D01*
X83653272Y-47577647D01*
X83632793Y-47490458D01*
X83590196Y-47412354D01*
X83576750Y-47397190D01*
X83499315Y-47343745D01*
X83411704Y-47327504D01*
X83391828Y-47328261D01*
X83302074Y-47354768D01*
X83232771Y-47413673D01*
X83228417Y-47419150D01*
X83186943Y-47499140D01*
X83167589Y-47585917D01*
X83161990Y-47679653D01*
X82657500Y-47679653D01*
X82657286Y-47675697D01*
X82658224Y-47635626D01*
X82668773Y-47539702D01*
X82691042Y-47449854D01*
X82725033Y-47366080D01*
X82770744Y-47288381D01*
X82828175Y-47216758D01*
X82897328Y-47151210D01*
X82948024Y-47113394D01*
X83031177Y-47066124D01*
X83122862Y-47030199D01*
X83223079Y-47005619D01*
X83313110Y-46993802D01*
X83409066Y-46989863D01*
X83516307Y-46994607D01*
G37*
G36*
X84402206Y-48340428D02*
G01*
X84872178Y-48340428D01*
X84872178Y-48146108D01*
X84935780Y-48214613D01*
X85006039Y-48274298D01*
X85076609Y-48317567D01*
X85160092Y-48348644D01*
X85247155Y-48364531D01*
X85325884Y-48368565D01*
X85417812Y-48363112D01*
X85504058Y-48344519D01*
X85574718Y-48312731D01*
X85648337Y-48253357D01*
X85705244Y-48179388D01*
X85724195Y-48146108D01*
X85789296Y-48212275D01*
X85857714Y-48270459D01*
X85934376Y-48318970D01*
X85940496Y-48321963D01*
X86027627Y-48352136D01*
X86121321Y-48366335D01*
X86181857Y-48368565D01*
X86269934Y-48362527D01*
X86359723Y-48340841D01*
X86446876Y-48297591D01*
X86512025Y-48242389D01*
X86563957Y-48170398D01*
X86601051Y-48080602D01*
X86621337Y-47987425D01*
X86629683Y-47896709D01*
X86630727Y-47847595D01*
X86630727Y-47018000D01*
X86126023Y-47018000D01*
X86126023Y-47772417D01*
X86113779Y-47863012D01*
X86091292Y-47906066D01*
X86022420Y-47963331D01*
X85965116Y-47974650D01*
X85876059Y-47954063D01*
X85821794Y-47909584D01*
X85780908Y-47825283D01*
X85768131Y-47736236D01*
X85767279Y-47701635D01*
X85767279Y-47018000D01*
X85263016Y-47018000D01*
X85263016Y-47745599D01*
X85258850Y-47835804D01*
X85253344Y-47863861D01*
X85204724Y-47938017D01*
X85197510Y-47943875D01*
X85114601Y-47974379D01*
X85104746Y-47974650D01*
X85017049Y-47953784D01*
X84962304Y-47908704D01*
X84922543Y-47828333D01*
X84908262Y-47737328D01*
X84906909Y-47692403D01*
X84906909Y-47018000D01*
X84402206Y-47018000D01*
X84402206Y-48340428D01*
G37*
G36*
X87220280Y-48846890D02*
G01*
X87477468Y-48846890D01*
X87022443Y-46989863D01*
X86767893Y-46989863D01*
X87220280Y-48846890D01*
G37*
G36*
X88406421Y-48818753D02*
G01*
X88967398Y-48818753D01*
X88967398Y-47841879D01*
X88966056Y-47749294D01*
X88960904Y-47647655D01*
X88951888Y-47556341D01*
X88936486Y-47462857D01*
X88912443Y-47373226D01*
X88872698Y-47286823D01*
X88815287Y-47208141D01*
X88749424Y-47144682D01*
X88690866Y-47101091D01*
X88613680Y-47057751D01*
X88527532Y-47025056D01*
X88432423Y-47003006D01*
X88343767Y-46992578D01*
X88264858Y-46989863D01*
X88166326Y-46992428D01*
X88076480Y-47000126D01*
X87982639Y-47015591D01*
X87889868Y-47041818D01*
X87839729Y-47062842D01*
X87760331Y-47109214D01*
X87691784Y-47166228D01*
X87634087Y-47233882D01*
X87606721Y-47276066D01*
X87565797Y-47360452D01*
X87538354Y-47444279D01*
X87519320Y-47536403D01*
X87509561Y-47623819D01*
X88045039Y-47693282D01*
X88049728Y-47604541D01*
X88066142Y-47523582D01*
X88116285Y-47447922D01*
X88132967Y-47434336D01*
X88220728Y-47411936D01*
X88224411Y-47411914D01*
X88310229Y-47431394D01*
X88362457Y-47480937D01*
X88394013Y-47566512D01*
X88404875Y-47655789D01*
X88406421Y-47713945D01*
X88406421Y-48818753D01*
G37*
G36*
X89353839Y-48818753D02*
G01*
X89914816Y-48818753D01*
X89914816Y-47018000D01*
X89353839Y-47018000D01*
X89353839Y-48818753D01*
G37*
G36*
X91343369Y-47021585D02*
G01*
X91433756Y-47031172D01*
X91530043Y-47043498D01*
X91572796Y-47049975D01*
X91661039Y-47070160D01*
X91742827Y-47104608D01*
X91809271Y-47151371D01*
X91871449Y-47213720D01*
X91922199Y-47287497D01*
X91956743Y-47362596D01*
X91979965Y-47451750D01*
X91987705Y-47547762D01*
X91986894Y-47580614D01*
X91974722Y-47672770D01*
X91944068Y-47763909D01*
X91895381Y-47843198D01*
X91857277Y-47884790D01*
X91786442Y-47938079D01*
X91699193Y-47980448D01*
X91607859Y-48008942D01*
X91653835Y-48026000D01*
X91732805Y-48066515D01*
X91803057Y-48124566D01*
X91815196Y-48138475D01*
X91864140Y-48213119D01*
X91893506Y-48296263D01*
X91903295Y-48387909D01*
X91898364Y-48454421D01*
X91872479Y-48546423D01*
X91824407Y-48629105D01*
X91763050Y-48694775D01*
X91726087Y-48723833D01*
X91640742Y-48770324D01*
X91553578Y-48798292D01*
X91454760Y-48814395D01*
X91360782Y-48818753D01*
X90312248Y-48818753D01*
X90312248Y-48452975D01*
X90877182Y-48452975D01*
X91124697Y-48452975D01*
X91132564Y-48452936D01*
X91221397Y-48445317D01*
X91303190Y-48412968D01*
X91328055Y-48387995D01*
X91354628Y-48301740D01*
X91350559Y-48261315D01*
X91303190Y-48183917D01*
X91299897Y-48181429D01*
X91214055Y-48150146D01*
X91120741Y-48143471D01*
X90877182Y-48143471D01*
X90877182Y-48452975D01*
X90312248Y-48452975D01*
X90312248Y-47805829D01*
X90877182Y-47805829D01*
X91161627Y-47805829D01*
X91197059Y-47805067D01*
X91286704Y-47793629D01*
X91367377Y-47757030D01*
X91403276Y-47716308D01*
X91426288Y-47628655D01*
X91416493Y-47564375D01*
X91366937Y-47491049D01*
X91336890Y-47471178D01*
X91252308Y-47446077D01*
X91162946Y-47440051D01*
X90877182Y-47440051D01*
X90877182Y-47805829D01*
X90312248Y-47805829D01*
X90312248Y-47018000D01*
X91279010Y-47018000D01*
X91343369Y-47021585D01*
G37*
G36*
X92172353Y-47630414D02*
G01*
X92705193Y-47665145D01*
X92723122Y-47573213D01*
X92756854Y-47488619D01*
X92775535Y-47459835D01*
X92843858Y-47395007D01*
X92929739Y-47357089D01*
X93023050Y-47345969D01*
X93111425Y-47355111D01*
X93195094Y-47391464D01*
X93207698Y-47401363D01*
X93262026Y-47473498D01*
X93272764Y-47530177D01*
X93246068Y-47614909D01*
X93210775Y-47654154D01*
X93133775Y-47697789D01*
X93048845Y-47726808D01*
X92951630Y-47751785D01*
X92924132Y-47757909D01*
X92835325Y-47779094D01*
X92733591Y-47807971D01*
X92642160Y-47839510D01*
X92561033Y-47873710D01*
X92477282Y-47918265D01*
X92398326Y-47975090D01*
X92336657Y-48038099D01*
X92284725Y-48118869D01*
X92252576Y-48208981D01*
X92240211Y-48308435D01*
X92240057Y-48321524D01*
X92249615Y-48414914D01*
X92278291Y-48504669D01*
X92320950Y-48583108D01*
X92379494Y-48654892D01*
X92454009Y-48716373D01*
X92534728Y-48762895D01*
X92564509Y-48776548D01*
X92653371Y-48807323D01*
X92743476Y-48827038D01*
X92845111Y-48840021D01*
X92941402Y-48845791D01*
X93010301Y-48846890D01*
X93114927Y-48843777D01*
X93211461Y-48834439D01*
X93299901Y-48818876D01*
X93395347Y-48791983D01*
X93479139Y-48756125D01*
X93540064Y-48719395D01*
X93612817Y-48656421D01*
X93671433Y-48579058D01*
X93715912Y-48487305D01*
X93742785Y-48397207D01*
X93757244Y-48314050D01*
X93229240Y-48284154D01*
X93204476Y-48369292D01*
X93153080Y-48444992D01*
X93140873Y-48455613D01*
X93060749Y-48495840D01*
X92969544Y-48509039D01*
X92954907Y-48509249D01*
X92864732Y-48497709D01*
X92807628Y-48468362D01*
X92760745Y-48393744D01*
X92758389Y-48369004D01*
X92799275Y-48292068D01*
X92884544Y-48252007D01*
X92977846Y-48228463D01*
X92987000Y-48226562D01*
X93075518Y-48207067D01*
X93177008Y-48182582D01*
X93268323Y-48157968D01*
X93364470Y-48128262D01*
X93458122Y-48093370D01*
X93512806Y-48068293D01*
X93595442Y-48020224D01*
X93671107Y-47959637D01*
X93729771Y-47891493D01*
X93744055Y-47869577D01*
X93785355Y-47784644D01*
X93809511Y-47693062D01*
X93816595Y-47604036D01*
X93808945Y-47509182D01*
X93785993Y-47418502D01*
X93747739Y-47331995D01*
X93719875Y-47285739D01*
X93659632Y-47209448D01*
X93587216Y-47144285D01*
X93512629Y-47095705D01*
X93450378Y-47065041D01*
X93358329Y-47032150D01*
X93268499Y-47011080D01*
X93170003Y-46997204D01*
X93078678Y-46991037D01*
X93014258Y-46989863D01*
X92903078Y-46992686D01*
X92800786Y-47001156D01*
X92707384Y-47015272D01*
X92603131Y-47040858D01*
X92512767Y-47075267D01*
X92422664Y-47128204D01*
X92373706Y-47170554D01*
X92312377Y-47241909D01*
X92261929Y-47320126D01*
X92222361Y-47405206D01*
X92193675Y-47497149D01*
X92175870Y-47595954D01*
X92172353Y-47630414D01*
G37*
G36*
X94110713Y-48818753D02*
G01*
X94671690Y-48818753D01*
X94671690Y-47018000D01*
X94110713Y-47018000D01*
X94110713Y-48818753D01*
G37*
G36*
X95067803Y-48818753D02*
G01*
X95627900Y-48818753D01*
X95627900Y-47468188D01*
X96501899Y-47468188D01*
X96501899Y-47018000D01*
X95067803Y-47018000D01*
X95067803Y-48818753D01*
G37*
G36*
X97015395Y-48846890D02*
G01*
X97272583Y-48846890D01*
X96817558Y-46989863D01*
X96563009Y-46989863D01*
X97015395Y-48846890D01*
G37*
G36*
X98372495Y-46990301D02*
G01*
X98462356Y-46995227D01*
X98563758Y-47008365D01*
X98658143Y-47029385D01*
X98745510Y-47058288D01*
X98838570Y-47101970D01*
X98887638Y-47131392D01*
X98966333Y-47189590D01*
X99035897Y-47256329D01*
X99096331Y-47331610D01*
X99147635Y-47415431D01*
X99172777Y-47467645D01*
X99204204Y-47552586D01*
X99228089Y-47645472D01*
X99244431Y-47746301D01*
X99252288Y-47836395D01*
X99254907Y-47932005D01*
X99254668Y-47958909D01*
X99248928Y-48062756D01*
X99235536Y-48160572D01*
X99214492Y-48252357D01*
X99185796Y-48338110D01*
X99139164Y-48436820D01*
X99080575Y-48526106D01*
X99010029Y-48605969D01*
X98978608Y-48635143D01*
X98892965Y-48699843D01*
X98797189Y-48752780D01*
X98713274Y-48786660D01*
X98622873Y-48813010D01*
X98525988Y-48831832D01*
X98422619Y-48843126D01*
X98312764Y-48846890D01*
X98258347Y-48845932D01*
X98154057Y-48838265D01*
X98055826Y-48822933D01*
X97963653Y-48799935D01*
X97877539Y-48769270D01*
X97797484Y-48730939D01*
X97705935Y-48672245D01*
X97623853Y-48601572D01*
X97593934Y-48570202D01*
X97527580Y-48485119D01*
X97473291Y-48390526D01*
X97438546Y-48308005D01*
X97411522Y-48219397D01*
X97392219Y-48124704D01*
X97380637Y-48023924D01*
X97376777Y-47917057D01*
X97936875Y-47917057D01*
X97937275Y-47950472D01*
X97943277Y-48043481D01*
X97959382Y-48138278D01*
X97989793Y-48228534D01*
X98039310Y-48307016D01*
X98059183Y-48328072D01*
X98133852Y-48383301D01*
X98221488Y-48415518D01*
X98311445Y-48424838D01*
X98343938Y-48423818D01*
X98433671Y-48408517D01*
X98519753Y-48369980D01*
X98591494Y-48308774D01*
X98604005Y-48293737D01*
X98650315Y-48212980D01*
X98677758Y-48123211D01*
X98691177Y-48030779D01*
X98694809Y-47941237D01*
X98694423Y-47904638D01*
X98688627Y-47803411D01*
X98673074Y-47701567D01*
X98643708Y-47606605D01*
X98595891Y-47527099D01*
X98576625Y-47506514D01*
X98502024Y-47452522D01*
X98411452Y-47421026D01*
X98316281Y-47411914D01*
X98284036Y-47412950D01*
X98195045Y-47428483D01*
X98109788Y-47467604D01*
X98038870Y-47529737D01*
X98026519Y-47545057D01*
X97980801Y-47628663D01*
X97953708Y-47723123D01*
X97940460Y-47821328D01*
X97936875Y-47917057D01*
X97376777Y-47917057D01*
X97377874Y-47858960D01*
X97384580Y-47766234D01*
X97400675Y-47661736D01*
X97425549Y-47564626D01*
X97459202Y-47474904D01*
X97501634Y-47392570D01*
X97534036Y-47342012D01*
X97596460Y-47261998D01*
X97666163Y-47192755D01*
X97743144Y-47134284D01*
X97827405Y-47086583D01*
X97879289Y-47063914D01*
X97963323Y-47035578D01*
X98054807Y-47014043D01*
X98153741Y-46999308D01*
X98241877Y-46992224D01*
X98335186Y-46989863D01*
X98372495Y-46990301D01*
G37*
G36*
X100022513Y-47130986D02*
G01*
X100041630Y-47114046D01*
X100113626Y-47063196D01*
X100193532Y-47025473D01*
X100223987Y-47015214D01*
X100314628Y-46995740D01*
X100405877Y-46989863D01*
X100464486Y-46992569D01*
X100560837Y-47010331D01*
X100649278Y-47044670D01*
X100729809Y-47095586D01*
X100802429Y-47163080D01*
X100839215Y-47208823D01*
X100885196Y-47286582D01*
X100920142Y-47375315D01*
X100944053Y-47475021D01*
X100955548Y-47566493D01*
X100959380Y-47665585D01*
X100958112Y-47720632D01*
X100950367Y-47808632D01*
X100931779Y-47908055D01*
X100903051Y-48000740D01*
X100864185Y-48086685D01*
X100815179Y-48165892D01*
X100757064Y-48234769D01*
X100678637Y-48297115D01*
X100588766Y-48340064D01*
X100502624Y-48361440D01*
X100408075Y-48368565D01*
X100342734Y-48365240D01*
X100250286Y-48347785D01*
X100164516Y-48315369D01*
X100122640Y-48291051D01*
X100050373Y-48232196D01*
X99985144Y-48163694D01*
X99985144Y-48340428D01*
X99514293Y-48340428D01*
X99514293Y-47671740D01*
X100018556Y-47671740D01*
X100023634Y-47770225D01*
X100041185Y-47860076D01*
X100082743Y-47946073D01*
X100086813Y-47951294D01*
X100155284Y-48009711D01*
X100243651Y-48030923D01*
X100325973Y-48009931D01*
X100394446Y-47946953D01*
X100432221Y-47870621D01*
X100451532Y-47777188D01*
X100456435Y-47684050D01*
X100456377Y-47672015D01*
X100451740Y-47583682D01*
X100435511Y-47493127D01*
X100397084Y-47408397D01*
X100335163Y-47350334D01*
X100249806Y-47327504D01*
X100243575Y-47327586D01*
X100153106Y-47351327D01*
X100084062Y-47411914D01*
X100044145Y-47488226D01*
X100023738Y-47580445D01*
X100018556Y-47671740D01*
X99514293Y-47671740D01*
X99514293Y-46511538D01*
X100022513Y-46511538D01*
X100022513Y-47130986D01*
G37*
G36*
X101975238Y-46992095D02*
G01*
X102074733Y-47000668D01*
X102164399Y-47015671D01*
X102256584Y-47041300D01*
X102345556Y-47081307D01*
X102375312Y-47099579D01*
X102450621Y-47158504D01*
X102511692Y-47222235D01*
X102568262Y-47297326D01*
X102620329Y-47383778D01*
X102124418Y-47440051D01*
X102106994Y-47420304D01*
X102036491Y-47362235D01*
X101985589Y-47341071D01*
X101895807Y-47327504D01*
X101867155Y-47328775D01*
X101777800Y-47353238D01*
X101705444Y-47408837D01*
X101702239Y-47412412D01*
X101659184Y-47490924D01*
X101639938Y-47580735D01*
X102648905Y-47580735D01*
X102648905Y-47636129D01*
X102648156Y-47682532D01*
X102642159Y-47770353D01*
X102627583Y-47864411D01*
X102600930Y-47960829D01*
X102563616Y-48045431D01*
X102528881Y-48101825D01*
X102466462Y-48176563D01*
X102391663Y-48239476D01*
X102314781Y-48285473D01*
X102249443Y-48313711D01*
X102162667Y-48339272D01*
X102064531Y-48356880D01*
X101971373Y-48365644D01*
X101869868Y-48368565D01*
X101764993Y-48363896D01*
X101667438Y-48349889D01*
X101577203Y-48326544D01*
X101494288Y-48293861D01*
X101404452Y-48242315D01*
X101325158Y-48177323D01*
X101278996Y-48127664D01*
X101221294Y-48046247D01*
X101177440Y-47956515D01*
X101147435Y-47858467D01*
X101143421Y-47833966D01*
X101641257Y-47833966D01*
X101652214Y-47882919D01*
X101699289Y-47961900D01*
X101717960Y-47978078D01*
X101801435Y-48019532D01*
X101890971Y-48030923D01*
X101974315Y-48022172D01*
X102058473Y-47985201D01*
X102112432Y-47919747D01*
X102137168Y-47833966D01*
X101641257Y-47833966D01*
X101143421Y-47833966D01*
X101133009Y-47770409D01*
X101128200Y-47676576D01*
X101128296Y-47663057D01*
X101134328Y-47571503D01*
X101152710Y-47473464D01*
X101183347Y-47382459D01*
X101226240Y-47298488D01*
X101264962Y-47241208D01*
X101322170Y-47174356D01*
X101394148Y-47112153D01*
X101474195Y-47063722D01*
X101513405Y-47046411D01*
X101602212Y-47018714D01*
X101691278Y-47002052D01*
X101790947Y-46992459D01*
X101884816Y-46989863D01*
X101975238Y-46992095D01*
G37*
G36*
X102870482Y-48340428D02*
G01*
X103339136Y-48340428D01*
X103339136Y-48125885D01*
X103398413Y-48193420D01*
X103464685Y-48254591D01*
X103538080Y-48305020D01*
X103551480Y-48312291D01*
X103638879Y-48346583D01*
X103730617Y-48364113D01*
X103813944Y-48368565D01*
X103912670Y-48360734D01*
X104000020Y-48337241D01*
X104084692Y-48292090D01*
X104140594Y-48243268D01*
X104197762Y-48162256D01*
X104232871Y-48072144D01*
X104251465Y-47979321D01*
X104258394Y-47889377D01*
X104258856Y-47857267D01*
X104258856Y-47018000D01*
X103753274Y-47018000D01*
X103753274Y-47746478D01*
X103745728Y-47835807D01*
X103710364Y-47919486D01*
X103707551Y-47922773D01*
X103631637Y-47968520D01*
X103579177Y-47974650D01*
X103491696Y-47954922D01*
X103430580Y-47904748D01*
X103391811Y-47822377D01*
X103376581Y-47727905D01*
X103373867Y-47654154D01*
X103373867Y-47018000D01*
X102870482Y-47018000D01*
X102870482Y-48340428D01*
G37*
G36*
X105060755Y-47327504D02*
G01*
X105698668Y-47327504D01*
X105787475Y-47018000D01*
X106373511Y-47018000D01*
X105692513Y-48818753D01*
X105081418Y-48818753D01*
X104666435Y-47721419D01*
X105181655Y-47721419D01*
X105380810Y-48358893D01*
X105581285Y-47721419D01*
X105181655Y-47721419D01*
X104666435Y-47721419D01*
X104400420Y-47018000D01*
X104972827Y-47018000D01*
X105060755Y-47327504D01*
G37*
G36*
X106224034Y-48818753D02*
G01*
X106810071Y-48818753D01*
X107218054Y-47522703D01*
X107619882Y-48818753D01*
X108188773Y-48818753D01*
X107516128Y-47018000D01*
X106908989Y-47018000D01*
X106224034Y-48818753D01*
G37*
G36*
X72313944Y-45794753D02*
G01*
X72874921Y-45794753D01*
X72874921Y-44817879D01*
X72873579Y-44725294D01*
X72868427Y-44623655D01*
X72859411Y-44532341D01*
X72844009Y-44438857D01*
X72819966Y-44349226D01*
X72780221Y-44262823D01*
X72722810Y-44184141D01*
X72656946Y-44120682D01*
X72598389Y-44077091D01*
X72521203Y-44033751D01*
X72435055Y-44001056D01*
X72339945Y-43979006D01*
X72251290Y-43968578D01*
X72172381Y-43965863D01*
X72073849Y-43968428D01*
X71984003Y-43976126D01*
X71890161Y-43991591D01*
X71797391Y-44017818D01*
X71747251Y-44038842D01*
X71667854Y-44085214D01*
X71599307Y-44142228D01*
X71541609Y-44209882D01*
X71514244Y-44252066D01*
X71473320Y-44336452D01*
X71445877Y-44420279D01*
X71426842Y-44512403D01*
X71417084Y-44599819D01*
X71952562Y-44669282D01*
X71957250Y-44580541D01*
X71973665Y-44499582D01*
X72023807Y-44423922D01*
X72040489Y-44410336D01*
X72128251Y-44387936D01*
X72131934Y-44387914D01*
X72217752Y-44407394D01*
X72269980Y-44456937D01*
X72301536Y-44542512D01*
X72312398Y-44631789D01*
X72313944Y-44689945D01*
X72313944Y-45794753D01*
G37*
G36*
X73261362Y-45794753D02*
G01*
X73822339Y-45794753D01*
X73822339Y-43994000D01*
X73261362Y-43994000D01*
X73261362Y-45794753D01*
G37*
G36*
X75250891Y-43997585D02*
G01*
X75341278Y-44007172D01*
X75437565Y-44019498D01*
X75480318Y-44025975D01*
X75568562Y-44046160D01*
X75650350Y-44080608D01*
X75716793Y-44127371D01*
X75778972Y-44189720D01*
X75829722Y-44263497D01*
X75864266Y-44338596D01*
X75887487Y-44427750D01*
X75895228Y-44523762D01*
X75894416Y-44556614D01*
X75882245Y-44648770D01*
X75851590Y-44739909D01*
X75802904Y-44819198D01*
X75764800Y-44860790D01*
X75693965Y-44914079D01*
X75606716Y-44956448D01*
X75515381Y-44984942D01*
X75561358Y-45002000D01*
X75640327Y-45042515D01*
X75710580Y-45100566D01*
X75722718Y-45114475D01*
X75771662Y-45189119D01*
X75801029Y-45272263D01*
X75810817Y-45363909D01*
X75805887Y-45430421D01*
X75780002Y-45522423D01*
X75731930Y-45605105D01*
X75670573Y-45670775D01*
X75633609Y-45699833D01*
X75548265Y-45746324D01*
X75461101Y-45774292D01*
X75362283Y-45790395D01*
X75268305Y-45794753D01*
X74219771Y-45794753D01*
X74219771Y-45428975D01*
X74784704Y-45428975D01*
X75032220Y-45428975D01*
X75040087Y-45428936D01*
X75128920Y-45421317D01*
X75210713Y-45388968D01*
X75235578Y-45363995D01*
X75262150Y-45277740D01*
X75258081Y-45237315D01*
X75210713Y-45159917D01*
X75207420Y-45157429D01*
X75121578Y-45126146D01*
X75028263Y-45119471D01*
X74784704Y-45119471D01*
X74784704Y-45428975D01*
X74219771Y-45428975D01*
X74219771Y-44781829D01*
X74784704Y-44781829D01*
X75069150Y-44781829D01*
X75104582Y-44781067D01*
X75194226Y-44769629D01*
X75274900Y-44733030D01*
X75310799Y-44692308D01*
X75333811Y-44604655D01*
X75324016Y-44540375D01*
X75274460Y-44467049D01*
X75244413Y-44447178D01*
X75159831Y-44422077D01*
X75070468Y-44416051D01*
X74784704Y-44416051D01*
X74784704Y-44781829D01*
X74219771Y-44781829D01*
X74219771Y-43994000D01*
X75186533Y-43994000D01*
X75250891Y-43997585D01*
G37*
G36*
X78077586Y-45822890D02*
G01*
X78077586Y-43994000D01*
X77568047Y-43994000D01*
X77568047Y-45191571D01*
X77491608Y-45135234D01*
X77416716Y-45086024D01*
X77336119Y-45040124D01*
X77328884Y-45036379D01*
X77242483Y-44996147D01*
X77151945Y-44960564D01*
X77060697Y-44929346D01*
X77039163Y-44922513D01*
X77039163Y-45344565D01*
X77131559Y-45376224D01*
X77215856Y-45410201D01*
X77303967Y-45452772D01*
X77381053Y-45498498D01*
X77438354Y-45540203D01*
X77505509Y-45600901D01*
X77564969Y-45668248D01*
X77616737Y-45742244D01*
X77660810Y-45822890D01*
X78077586Y-45822890D01*
G37*
G36*
X79757000Y-45822890D02*
G01*
X79757000Y-43994000D01*
X79247461Y-43994000D01*
X79247461Y-45191571D01*
X79171022Y-45135234D01*
X79096129Y-45086024D01*
X79015532Y-45040124D01*
X79008298Y-45036379D01*
X78921897Y-44996147D01*
X78831359Y-44960564D01*
X78740111Y-44929346D01*
X78718577Y-44922513D01*
X78718577Y-45344565D01*
X78810973Y-45376224D01*
X78895270Y-45410201D01*
X78983381Y-45452772D01*
X79060467Y-45498498D01*
X79117768Y-45540203D01*
X79184922Y-45600901D01*
X79244383Y-45668248D01*
X79296151Y-45742244D01*
X79340224Y-45822890D01*
X79757000Y-45822890D01*
G37*
G36*
X80645067Y-45822890D02*
G01*
X80902255Y-45822890D01*
X80447230Y-43965863D01*
X80192681Y-43965863D01*
X80645067Y-45822890D01*
G37*
G36*
X81483455Y-45260154D02*
G01*
X81007328Y-45339289D01*
X81033433Y-45423298D01*
X81073618Y-45511540D01*
X81124279Y-45589264D01*
X81185416Y-45656469D01*
X81235500Y-45698033D01*
X81316070Y-45746683D01*
X81410062Y-45783384D01*
X81501309Y-45805332D01*
X81602417Y-45818500D01*
X81694206Y-45822768D01*
X81713385Y-45822890D01*
X81819585Y-45819756D01*
X81916168Y-45810353D01*
X82003134Y-45794683D01*
X82094798Y-45767604D01*
X82184237Y-45724604D01*
X82226882Y-45694516D01*
X82296124Y-45626400D01*
X82345584Y-45549985D01*
X82375259Y-45465273D01*
X82385151Y-45372262D01*
X82374485Y-45283586D01*
X82339142Y-45195878D01*
X82320524Y-45166512D01*
X82257561Y-45095272D01*
X82187397Y-45040885D01*
X82126644Y-45004725D01*
X82214235Y-44978160D01*
X82287112Y-44943616D01*
X82358314Y-44887560D01*
X82414201Y-44817873D01*
X82427356Y-44795458D01*
X82461617Y-44708628D01*
X82476251Y-44615794D01*
X82477475Y-44576958D01*
X82470902Y-44488198D01*
X82451184Y-44401456D01*
X82418321Y-44316730D01*
X82394383Y-44270531D01*
X82342119Y-44193502D01*
X82278309Y-44127115D01*
X82202953Y-44071369D01*
X82156100Y-44044997D01*
X82072157Y-44010376D01*
X81975959Y-43985646D01*
X81881733Y-43972122D01*
X81793499Y-43966558D01*
X81746798Y-43965863D01*
X81657807Y-43967887D01*
X81563245Y-43975368D01*
X81467383Y-43990666D01*
X81375107Y-44016481D01*
X81356840Y-44023455D01*
X81272476Y-44064920D01*
X81197986Y-44116775D01*
X81133372Y-44179020D01*
X81121634Y-44192715D01*
X81068371Y-44268046D01*
X81023437Y-44354454D01*
X80990118Y-44441691D01*
X80980510Y-44472764D01*
X81483455Y-44528598D01*
X81510184Y-44444250D01*
X81556635Y-44369591D01*
X81575339Y-44352304D01*
X81656638Y-44312845D01*
X81734488Y-44303504D01*
X81821847Y-44318863D01*
X81898632Y-44369106D01*
X81902869Y-44373406D01*
X81951465Y-44449495D01*
X81969978Y-44538813D01*
X81970573Y-44560252D01*
X81959835Y-44648130D01*
X81920757Y-44727349D01*
X81905507Y-44744460D01*
X81829230Y-44793590D01*
X81736558Y-44809902D01*
X81729652Y-44809966D01*
X81638118Y-44798975D01*
X81566547Y-44781829D01*
X81592485Y-45152883D01*
X81657991Y-45147607D01*
X81748666Y-45161126D01*
X81822855Y-45201683D01*
X81878284Y-45272872D01*
X81889240Y-45329617D01*
X81863576Y-45416603D01*
X81839561Y-45442604D01*
X81758841Y-45480210D01*
X81703713Y-45485249D01*
X81613883Y-45469391D01*
X81558633Y-45435130D01*
X81509827Y-45361005D01*
X81486067Y-45275521D01*
X81483455Y-45260154D01*
G37*
G36*
X83024383Y-45822890D02*
G01*
X83281571Y-45822890D01*
X82826547Y-43965863D01*
X82571997Y-43965863D01*
X83024383Y-45822890D01*
G37*
G36*
X84848438Y-43994000D02*
G01*
X83337405Y-43994000D01*
X83353802Y-44091772D01*
X83380297Y-44186978D01*
X83416890Y-44279617D01*
X83463581Y-44369690D01*
X83494795Y-44420008D01*
X83552353Y-44497262D01*
X83612692Y-44565065D01*
X83684279Y-44635980D01*
X83749647Y-44694953D01*
X83822215Y-44755918D01*
X83901981Y-44818876D01*
X83988947Y-44883825D01*
X84066413Y-44941744D01*
X84142568Y-45002361D01*
X84210849Y-45062468D01*
X84272073Y-45129143D01*
X84316567Y-45205933D01*
X84334062Y-45288291D01*
X84312519Y-45376872D01*
X84272953Y-45427656D01*
X84194189Y-45474225D01*
X84119080Y-45485249D01*
X84031262Y-45469642D01*
X83961250Y-45422820D01*
X83912750Y-45343840D01*
X83886609Y-45250609D01*
X83879038Y-45203881D01*
X83374334Y-45245646D01*
X83389770Y-45334066D01*
X83413181Y-45424144D01*
X83446875Y-45511489D01*
X83483364Y-45576693D01*
X83539135Y-45645704D01*
X83607528Y-45703810D01*
X83688543Y-45751011D01*
X83706260Y-45759143D01*
X83796137Y-45789958D01*
X83890742Y-45808883D01*
X83984881Y-45818906D01*
X84074010Y-45822641D01*
X84105451Y-45822890D01*
X84200887Y-45820788D01*
X84301758Y-45813022D01*
X84391353Y-45799534D01*
X84479939Y-45777113D01*
X84518710Y-45763099D01*
X84605083Y-45719780D01*
X84679006Y-45664009D01*
X84740478Y-45595788D01*
X84751278Y-45580650D01*
X84796023Y-45500794D01*
X84824196Y-45415099D01*
X84835796Y-45323565D01*
X84836128Y-45304558D01*
X84828442Y-45214418D01*
X84805386Y-45126505D01*
X84766958Y-45040817D01*
X84738968Y-44994174D01*
X84680469Y-44918282D01*
X84613008Y-44848901D01*
X84543096Y-44787221D01*
X84462024Y-44723501D01*
X84385939Y-44668842D01*
X84308339Y-44615631D01*
X84235123Y-44563913D01*
X84182387Y-44524202D01*
X84115318Y-44466138D01*
X84061927Y-44416051D01*
X84848438Y-44416051D01*
X84848438Y-43994000D01*
G37*
G36*
X86358152Y-44303504D02*
G01*
X86585884Y-44303504D01*
X86585884Y-44725556D01*
X86358152Y-44725556D01*
X86358152Y-45822890D01*
X85919394Y-45822890D01*
X85005168Y-44725556D01*
X85434914Y-44725556D01*
X85919394Y-45293127D01*
X85919394Y-44725556D01*
X85434914Y-44725556D01*
X85005168Y-44725556D01*
X85001871Y-44721599D01*
X85001871Y-44303504D01*
X85919394Y-44303504D01*
X85919394Y-43994000D01*
X86358152Y-43994000D01*
X86358152Y-44303504D01*
G37*
D12*
%TO.P,PWR,1*%
%TO.N,Net-(ACCEL1-K)*%
X38608000Y-69465200D03*
D13*
%TO.P,PWR,2*%
%TO.N,Net-(J3-Pin_1)*%
X38608000Y-64465200D03*
%TD*%
D14*
%TO.N,Net-(U7-VO)*%
X61671200Y-38100000D03*
X61874400Y-42570400D03*
%TO.N,Net-(ACCEL1-K)*%
X66040000Y-36381600D03*
%TO.N,Net-(U1-3V3)*%
X44704000Y-61010800D03*
X40487600Y-53238400D03*
%TO.N,Net-(U1-IO36)*%
X55046628Y-79289305D03*
X55504212Y-77683622D03*
%TO.N,Net-(U1-IO20)*%
X54781000Y-73253600D03*
X52981000Y-74066400D03*
%TO.N,Net-(U1-IO36)*%
X68224400Y-82550000D03*
X68224400Y-83870800D03*
%TO.N,Net-(ACCEL1-K)*%
X65836800Y-41402000D03*
X61967200Y-40995600D03*
%TO.N,Net-(U7-VO)*%
X49775200Y-44551600D03*
X48564800Y-44094400D03*
%TO.N,Net-(U7-ADJ)*%
X48827600Y-42011600D03*
X49927600Y-42062400D03*
%TO.N,Net-(ACCEL1-K)*%
X40081200Y-73406000D03*
X97078800Y-73609200D03*
X90830400Y-63321200D03*
X58457200Y-86290546D03*
X54397200Y-80924400D03*
X51409600Y-63601600D03*
X79857600Y-82194400D03*
X73609200Y-72745600D03*
X45974000Y-72339200D03*
X53746400Y-82143600D03*
X52120800Y-72847200D03*
X97776737Y-72403263D03*
X75051891Y-58846691D03*
X91490800Y-75285600D03*
X91744800Y-54203600D03*
X69900800Y-60189200D03*
X67411600Y-65157200D03*
X80822800Y-38303200D03*
X56591200Y-86919200D03*
X55104394Y-85860266D03*
X64922400Y-63957200D03*
X84988400Y-38354000D03*
X89916000Y-44754800D03*
X55727600Y-79603600D03*
X56743600Y-63296800D03*
X73244800Y-71424800D03*
X80987366Y-85099401D03*
X51104800Y-70926400D03*
X57972400Y-62726944D03*
X65379600Y-73905200D03*
X89112800Y-54051200D03*
X101600000Y-74472800D03*
X102006400Y-72593200D03*
X69291200Y-58978800D03*
X89105935Y-45615665D03*
X90391117Y-62121200D03*
X58441495Y-80067225D03*
X73244800Y-74574400D03*
X54930800Y-63042800D03*
X40182800Y-45466000D03*
X93116400Y-76555600D03*
X40436800Y-46990000D03*
X44653200Y-73507600D03*
X86258400Y-57998000D03*
X63355135Y-63507535D03*
X71678800Y-71475600D03*
%TO.N,Net-(AE1-A)*%
X56743600Y-64262000D03*
X45262800Y-70662800D03*
X45618400Y-86410800D03*
X59893200Y-61366400D03*
X54940400Y-64262000D03*
X53330800Y-64262000D03*
%TO.N,Net-(AE2-A)*%
X92913200Y-60248800D03*
X89712800Y-55422800D03*
%TO.N,Net-(U1-3V3)*%
X62788800Y-77165200D03*
X56490400Y-69189600D03*
X59944000Y-87319200D03*
X54940400Y-70408800D03*
X71976065Y-63746465D03*
X60096400Y-73101200D03*
X64516000Y-87630000D03*
X65164000Y-55168800D03*
X67070787Y-59488399D03*
X61264800Y-81127600D03*
X61976000Y-85598000D03*
X57954000Y-69951600D03*
X68986400Y-62696800D03*
X60807600Y-85700000D03*
X53035200Y-71526400D03*
X71645865Y-65854665D03*
X58134400Y-71983600D03*
X67462400Y-66106000D03*
X60502800Y-64363600D03*
X67157600Y-62036400D03*
X46474465Y-63390865D03*
X64414400Y-53035200D03*
X63240188Y-64248677D03*
X62353721Y-86900000D03*
X56692800Y-70510400D03*
X59179649Y-68797358D03*
X54930800Y-67614800D03*
X65125600Y-72745600D03*
X48971200Y-62138000D03*
X60096400Y-74726800D03*
X61569600Y-75793600D03*
X56956400Y-68275200D03*
X53330800Y-67564000D03*
X68224400Y-63636600D03*
X63754000Y-74828400D03*
X61772800Y-55321200D03*
X84988400Y-86826800D03*
%TO.N,Net-(U4-REGOUT)*%
X53533600Y-83012193D03*
X57510041Y-86848888D03*
%TO.N,Net-(U7-VO)*%
X60756800Y-39471600D03*
%TO.N,Net-(J2-D-)*%
X79806800Y-84699400D03*
X88087200Y-88176400D03*
X79806800Y-83499400D03*
X88087200Y-86757600D03*
%TO.N,Net-(U6-~{RTS})*%
X78841600Y-83210400D03*
X69697600Y-83362800D03*
%TO.N,Net-(U1-IO0)*%
X70612000Y-83362800D03*
X72827857Y-65521200D03*
%TO.N,Net-(U1-EN)*%
X62941200Y-73964800D03*
X92303600Y-62687200D03*
X56997600Y-75895200D03*
X61315600Y-83413600D03*
X55168800Y-77012800D03*
%TO.N,Net-(J1-RST)*%
X87801727Y-59953600D03*
X79806800Y-59598000D03*
%TO.N,Net-(J1-CLK)*%
X79006797Y-59598000D03*
X90244085Y-60051245D03*
%TO.N,Net-(J1-I{slash}O)*%
X77673200Y-59029600D03*
X91440000Y-58928000D03*
%TO.N,Net-(U1-IO20)*%
X60045600Y-77124000D03*
X60045600Y-79095600D03*
%TO.N,Net-(U2-STATUS)*%
X73253600Y-38579200D03*
X68792800Y-40894000D03*
%TO.N,Net-(U1-IO41)*%
X90881200Y-68884800D03*
X91033600Y-66344800D03*
%TO.N,Net-(U1-IO40)*%
X91897200Y-66371200D03*
X91607570Y-69220048D03*
%TO.N,Net-(U1-IO37)*%
X56540400Y-73406000D03*
X90748000Y-72671200D03*
%TO.N,Net-(U1-IO1)*%
X72288400Y-66371200D03*
X69088000Y-69189600D03*
%TO.N,Net-(U1-IO26)*%
X72593200Y-76524000D03*
X71678800Y-80975200D03*
X77114400Y-80289400D03*
X58572400Y-67716400D03*
X64770000Y-62484000D03*
X84836000Y-77266800D03*
%TO.N,Net-(U1-IO3)*%
X69349017Y-67707599D03*
X68326000Y-68732400D03*
%TO.N,Net-(U1-IO38)*%
X88948065Y-77873665D03*
X78783265Y-81541535D03*
X77263869Y-81849790D03*
X74371200Y-77124000D03*
%TO.N,Net-(U1-IO34)*%
X77470000Y-81076800D03*
X59296397Y-57788400D03*
X78385128Y-80289400D03*
X87426800Y-76616000D03*
%TO.N,Net-(U1-IO6)*%
X62179200Y-73355200D03*
X64871600Y-76149200D03*
%TO.N,Net-(U1-IO33)*%
X86664800Y-77816000D03*
X88900000Y-79146400D03*
X87528400Y-78790800D03*
X60442009Y-56596305D03*
%TO.N,Net-(U1-TXD0)*%
X89103200Y-80924400D03*
X90337473Y-77816000D03*
%TO.N,Net-(U1-IO2)*%
X71221600Y-67157600D03*
X67564000Y-69256000D03*
%TO.N,Net-(U1-IO5)*%
X69494400Y-69951600D03*
X59334400Y-70612000D03*
%TO.N,Net-(U1-IO39)*%
X73507600Y-60401200D03*
X60706000Y-59944000D03*
X91348000Y-71323200D03*
X91084400Y-61722000D03*
%TO.N,Net-(U1-IO35)*%
X90544800Y-74635612D03*
X92344800Y-72914834D03*
X91490800Y-70205600D03*
X60096400Y-57788400D03*
%TO.N,Net-(U1-IO36)*%
X91144800Y-73964800D03*
X89357200Y-76616000D03*
%TO.N,Net-(U2-~{PWRKEY})*%
X66040000Y-59488400D03*
X65532000Y-53035200D03*
%TO.N,Net-(U2-SIM_DET)*%
X68597865Y-59657065D03*
X67612065Y-58407665D03*
%TO.N,Net-(U2-UART1_CTS)*%
X66364000Y-53086000D03*
X68976800Y-49936400D03*
%TO.N,Net-(U2-UART1_RTS)*%
X66964000Y-51206400D03*
X68986400Y-48666400D03*
%TO.N,Net-(U2-UART1_DTR)*%
X65764000Y-54000400D03*
X68976800Y-51257200D03*
%TO.N,Net-(U2-VDD_EXT)*%
X71214065Y-37979200D03*
X69392800Y-43637200D03*
X65379600Y-47548800D03*
X69392800Y-38201600D03*
%TO.N,Net-(J2-D+)*%
X93624400Y-81432400D03*
X79806800Y-80314800D03*
%TD*%
D15*
%TO.N,Net-(U7-VO)*%
X61417200Y-39471600D02*
X61417200Y-38354000D01*
X61417200Y-42113200D02*
X61417200Y-39471600D01*
X61417200Y-39471600D02*
X60756800Y-39471600D01*
%TO.N,Net-(U1-3V3)*%
X61772800Y-55321200D02*
X62128400Y-55321200D01*
X62128400Y-55321200D02*
X64414400Y-53035200D01*
%TO.N,Net-(U7-VO)*%
X61874400Y-42570400D02*
X61417200Y-42113200D01*
X61417200Y-38354000D02*
X61671200Y-38100000D01*
%TO.N,Net-(ACCEL1-K)*%
X66040000Y-36381600D02*
X64414400Y-38007200D01*
X64414400Y-41444000D02*
X65794800Y-41444000D01*
X64414400Y-38007200D02*
X64414400Y-41444000D01*
X62415600Y-41444000D02*
X64414400Y-41444000D01*
%TO.N,Net-(U1-IO33)*%
X56687695Y-56596305D02*
X60442009Y-56596305D01*
X55540400Y-57743600D02*
X56687695Y-56596305D01*
X64922200Y-85699400D02*
X55540400Y-76317600D01*
X82347000Y-85699400D02*
X64922200Y-85699400D01*
X88900000Y-79146400D02*
X82347000Y-85699400D01*
X55540400Y-76317600D02*
X55540400Y-57743600D01*
%TO.N,Net-(U1-3V3)*%
X40487600Y-53238400D02*
X40487600Y-56794400D01*
X40487600Y-56794400D02*
X44704000Y-61010800D01*
%TO.N,Net-(U1-IO1)*%
X70519200Y-67707600D02*
X69088000Y-69138800D01*
X71449418Y-67707600D02*
X70519200Y-67707600D01*
X69088000Y-69138800D02*
X69088000Y-69189600D01*
X72288400Y-66868618D02*
X71449418Y-67707600D01*
X72288400Y-66371200D02*
X72288400Y-66868618D01*
%TO.N,Net-(U1-IO3)*%
X69349017Y-67707599D02*
X68834000Y-68222616D01*
X68834000Y-68224400D02*
X68326000Y-68732400D01*
X68834000Y-68222616D02*
X68834000Y-68224400D01*
%TO.N,Net-(U1-IO36)*%
X55504212Y-78831721D02*
X55046628Y-79289305D01*
X55504212Y-77683622D02*
X55504212Y-78831721D01*
%TO.N,Net-(U1-IO20)*%
X53793800Y-73253600D02*
X54781000Y-73253600D01*
X52981000Y-74066400D02*
X53793800Y-73253600D01*
%TO.N,Net-(U1-IO36)*%
X68224400Y-82550000D02*
X68224400Y-83870800D01*
%TO.N,Net-(ACCEL1-K)*%
X61967200Y-40995600D02*
X62415600Y-41444000D01*
X65794800Y-41444000D02*
X65836800Y-41402000D01*
%TO.N,Net-(U7-VO)*%
X49318000Y-44094400D02*
X49775200Y-44551600D01*
X48564800Y-44094400D02*
X49318000Y-44094400D01*
%TO.N,Net-(U7-ADJ)*%
X49927600Y-42062400D02*
X48878400Y-42062400D01*
X48878400Y-42062400D02*
X48827600Y-42011600D01*
%TO.N,Net-(ACCEL1-K)*%
X55727600Y-79603600D02*
X57977870Y-79603600D01*
X73660000Y-64912800D02*
X72223945Y-64912800D01*
X40182800Y-45466000D02*
X40182800Y-46736000D01*
X72223945Y-64912800D02*
X72179545Y-64957200D01*
X76143600Y-58832000D02*
X75066582Y-58832000D01*
X79916015Y-82194400D02*
X79857600Y-82194400D01*
X89105935Y-45564865D02*
X89105935Y-45615665D01*
X73152000Y-71517600D02*
X73152000Y-74481600D01*
X64472735Y-63507535D02*
X64922400Y-63957200D01*
X102006400Y-72593200D02*
X102006400Y-74066400D01*
X55104394Y-85860266D02*
X55532266Y-85860266D01*
X56743600Y-63296800D02*
X57402544Y-63296800D01*
X51104800Y-70926400D02*
X52120800Y-71942400D01*
X40182800Y-46736000D02*
X40436800Y-46990000D01*
X46370800Y-71942400D02*
X45974000Y-72339200D01*
X73244800Y-71424800D02*
X73152000Y-71517600D01*
X53746400Y-82143600D02*
X53746400Y-81575200D01*
X80873600Y-38354000D02*
X80822800Y-38303200D01*
X40081200Y-73406000D02*
X44551600Y-73406000D01*
X57402544Y-63296800D02*
X57972400Y-62726944D01*
X91846400Y-75285600D02*
X93116400Y-76555600D01*
X75066582Y-58832000D02*
X75051891Y-58846691D01*
X72179545Y-64957200D02*
X67611600Y-64957200D01*
X56159200Y-86487200D02*
X56397512Y-86248888D01*
X73609200Y-72745600D02*
X73796400Y-72558400D01*
X69900800Y-60189200D02*
X69900800Y-59588400D01*
X80060800Y-54914800D02*
X84378800Y-54914800D01*
X52120800Y-71942400D02*
X52120800Y-72847200D01*
X73796400Y-72558400D02*
X73796400Y-65049200D01*
X67611600Y-64957200D02*
X67411600Y-65157200D01*
X73796400Y-65049200D02*
X73660000Y-64912800D01*
X102006400Y-74066400D02*
X101600000Y-74472800D01*
X97776737Y-72911263D02*
X97078800Y-73609200D01*
X84378800Y-54914800D02*
X86258400Y-56794400D01*
X89916000Y-44754800D02*
X89105935Y-45564865D01*
X90391117Y-62881917D02*
X90830400Y-63321200D01*
X69900800Y-59588400D02*
X69291200Y-58978800D01*
X56159200Y-86487200D02*
X56591200Y-86919200D01*
X53746400Y-81575200D02*
X54397200Y-80924400D01*
X91592400Y-54051200D02*
X91744800Y-54203600D01*
X58415542Y-86248888D02*
X58457200Y-86290546D01*
X90391117Y-62121200D02*
X90391117Y-62881917D01*
X89112800Y-54051200D02*
X91592400Y-54051200D01*
X67809200Y-71475600D02*
X71678800Y-71475600D01*
X44551600Y-73406000D02*
X44653200Y-73507600D01*
X80987366Y-85099401D02*
X80987366Y-83265751D01*
X91490800Y-75285600D02*
X91846400Y-75285600D01*
X97776737Y-72403263D02*
X97776737Y-72911263D01*
X76143600Y-58832000D02*
X80060800Y-54914800D01*
X80987366Y-83265751D02*
X79916015Y-82194400D01*
X57977870Y-79603600D02*
X58441495Y-80067225D01*
X55532266Y-85860266D02*
X56159200Y-86487200D01*
X63355135Y-63507535D02*
X64472735Y-63507535D01*
X52120800Y-71942400D02*
X46370800Y-71942400D01*
X56397512Y-86248888D02*
X58415542Y-86248888D01*
X86258400Y-56794400D02*
X86258400Y-57998000D01*
X73152000Y-74481600D02*
X73244800Y-74574400D01*
X65379600Y-73905200D02*
X67809200Y-71475600D01*
X84988400Y-38354000D02*
X80873600Y-38354000D01*
%TO.N,Net-(AE1-A)*%
X45618400Y-86410800D02*
X45262800Y-86055200D01*
X56743600Y-66748000D02*
X56743600Y-64262000D01*
X54940400Y-64262000D02*
X53330800Y-64262000D01*
X45262800Y-86055200D02*
X45262800Y-70662800D01*
X58820929Y-68316400D02*
X58312000Y-68316400D01*
X59893200Y-61366400D02*
X59893200Y-67244129D01*
X58312000Y-68316400D02*
X56743600Y-66748000D01*
X59893200Y-67244129D02*
X58820929Y-68316400D01*
%TO.N,Net-(AE2-A)*%
X92913200Y-58623200D02*
X92913200Y-60248800D01*
X89712800Y-55422800D02*
X92913200Y-58623200D01*
%TO.N,Net-(U1-3V3)*%
X57478558Y-68797358D02*
X59179649Y-68797358D01*
X68326000Y-62036400D02*
X68986400Y-62696800D01*
X62534800Y-74828400D02*
X61569600Y-75793600D01*
X53330800Y-67564000D02*
X54880000Y-67564000D01*
X59944000Y-87306800D02*
X60493600Y-86757200D01*
X63754000Y-74828400D02*
X63042800Y-74828400D01*
X60493600Y-86757200D02*
X61315600Y-86757200D01*
X83896000Y-87919200D02*
X64973200Y-87919200D01*
X68087200Y-65481200D02*
X71272400Y-65481200D01*
X60604400Y-64262000D02*
X60502800Y-64363600D01*
X59944000Y-87319200D02*
X59944000Y-87306800D01*
X64805200Y-87919200D02*
X64516000Y-87630000D01*
X53822800Y-71526400D02*
X54940400Y-70408800D01*
X63226865Y-64262000D02*
X60604400Y-64262000D01*
X57252400Y-69951600D02*
X56490400Y-69189600D01*
X64262000Y-72755200D02*
X65116000Y-72755200D01*
X71976065Y-63746465D02*
X68334265Y-63746465D01*
X63042800Y-74828400D02*
X62534800Y-74828400D01*
X67157600Y-62036400D02*
X68326000Y-62036400D01*
X62788800Y-77165200D02*
X62788800Y-79603600D01*
X65116000Y-72755200D02*
X65125600Y-72745600D01*
X57954000Y-69951600D02*
X57252400Y-69951600D01*
X67462400Y-66106000D02*
X68087200Y-65481200D01*
X62353721Y-86900000D02*
X62353721Y-85975721D01*
X84988400Y-86826800D02*
X83896000Y-87919200D01*
X68334265Y-63746465D02*
X68224400Y-63636600D01*
X63240188Y-64248677D02*
X63226865Y-64262000D01*
X65164000Y-55168800D02*
X65164000Y-57581612D01*
X47727330Y-62138000D02*
X48971200Y-62138000D01*
X65164000Y-57581612D02*
X67070787Y-59488399D01*
X64973200Y-87919200D02*
X64805200Y-87919200D01*
X61315600Y-86757200D02*
X61315600Y-86208000D01*
X71272400Y-65481200D02*
X71645865Y-65854665D01*
X53035200Y-71526400D02*
X53822800Y-71526400D01*
X46474465Y-63390865D02*
X47727330Y-62138000D01*
X62353721Y-85975721D02*
X61976000Y-85598000D01*
X62941200Y-74726800D02*
X60096400Y-74726800D01*
X60096400Y-73101200D02*
X60442400Y-72755200D01*
X58216800Y-72034400D02*
X58185200Y-72034400D01*
X60442400Y-72755200D02*
X64262000Y-72755200D01*
X61315600Y-86208000D02*
X60807600Y-85700000D01*
X56692800Y-70510400D02*
X58216800Y-72034400D01*
X56956400Y-68275200D02*
X57478558Y-68797358D01*
X58185200Y-72034400D02*
X58134400Y-71983600D01*
X54880000Y-67564000D02*
X54930800Y-67614800D01*
X62788800Y-79603600D02*
X61264800Y-81127600D01*
X63042800Y-74828400D02*
X62941200Y-74726800D01*
%TO.N,Net-(U4-REGOUT)*%
X54711600Y-86557200D02*
X54115286Y-86557200D01*
X53333600Y-83212193D02*
X53533600Y-83012193D01*
X56839729Y-87519200D02*
X55673600Y-87519200D01*
X55673600Y-87519200D02*
X54711600Y-86557200D01*
X57510041Y-86848888D02*
X56839729Y-87519200D01*
X54115286Y-86557200D02*
X53333600Y-85775514D01*
X53333600Y-85775514D02*
X53333600Y-83212193D01*
%TO.N,Net-(J2-D-)*%
X88087200Y-86757600D02*
X88087200Y-88176400D01*
X79806800Y-83499400D02*
X79806800Y-84699400D01*
%TO.N,Net-(U6-~{RTS})*%
X69697600Y-83362800D02*
X70297600Y-83962800D01*
X70297600Y-83962800D02*
X78089200Y-83962800D01*
X78089200Y-83962800D02*
X78841600Y-83210400D01*
%TO.N,Net-(U1-IO0)*%
X72694800Y-67321329D02*
X72694800Y-75777071D01*
X73396400Y-66122671D02*
X73396400Y-66619729D01*
X72827857Y-65554128D02*
X73396400Y-66122671D01*
X72827857Y-65521200D02*
X72827857Y-65554128D01*
X73193200Y-76275471D02*
X73193200Y-80781600D01*
X73396400Y-66619729D02*
X72694800Y-67321329D01*
X72694800Y-75777071D02*
X73193200Y-76275471D01*
X73193200Y-80781600D02*
X70612000Y-83362800D01*
%TO.N,Net-(U1-EN)*%
X92811600Y-86207600D02*
X94183200Y-84836000D01*
X66192400Y-86207600D02*
X65059200Y-86207600D01*
X53187600Y-77012800D02*
X55168800Y-77012800D01*
X54911600Y-87919200D02*
X52933600Y-85941200D01*
X58724800Y-74168000D02*
X56997600Y-75895200D01*
X52933600Y-85941200D02*
X52933600Y-77266800D01*
X52933600Y-77266800D02*
X53187600Y-77012800D01*
X61315600Y-83413600D02*
X64109600Y-86207600D01*
X94183200Y-84836000D02*
X94183200Y-64566800D01*
X62738000Y-74168000D02*
X58724800Y-74168000D01*
X63347600Y-87919200D02*
X54911600Y-87919200D01*
X66192400Y-86207600D02*
X66395600Y-86207600D01*
X62941200Y-73964800D02*
X62738000Y-74168000D01*
X66395600Y-86207600D02*
X92811600Y-86207600D01*
X64109600Y-86207600D02*
X66192400Y-86207600D01*
X65059200Y-86207600D02*
X63347600Y-87919200D01*
X94183200Y-64566800D02*
X92303600Y-62687200D01*
%TO.N,Net-(J1-RST)*%
X87801727Y-59953600D02*
X87446127Y-59598000D01*
X87446127Y-59598000D02*
X79806800Y-59598000D01*
%TO.N,Net-(J1-CLK)*%
X79558271Y-58998000D02*
X79006797Y-59549474D01*
X89190840Y-58998000D02*
X79558271Y-58998000D01*
X79006797Y-59549474D02*
X79006797Y-59598000D01*
X90244085Y-60051245D02*
X89190840Y-58998000D01*
%TO.N,Net-(J1-I{slash}O)*%
X78104800Y-58598000D02*
X91110000Y-58598000D01*
X91110000Y-58598000D02*
X91440000Y-58928000D01*
X77673200Y-59029600D02*
X78104800Y-58598000D01*
%TO.N,Net-(U1-IO20)*%
X60045600Y-77124000D02*
X60045600Y-79095600D01*
%TO.N,Net-(U2-STATUS)*%
X73253600Y-38579200D02*
X71107600Y-38579200D01*
X71107600Y-38579200D02*
X68792800Y-40894000D01*
%TO.N,Net-(U1-IO41)*%
X91033600Y-66344800D02*
X91033600Y-68732400D01*
X91033600Y-68732400D02*
X90881200Y-68884800D01*
%TO.N,Net-(U1-IO40)*%
X91897200Y-66371200D02*
X91897200Y-68930418D01*
X91897200Y-68930418D02*
X91607570Y-69220048D01*
%TO.N,Net-(U1-IO37)*%
X58576529Y-73406000D02*
X56540400Y-73406000D01*
X73259071Y-64160400D02*
X72410659Y-64160400D01*
X90748000Y-72671200D02*
X90748000Y-71545600D01*
X58734400Y-73248129D02*
X58576529Y-73406000D01*
X73908529Y-64312800D02*
X73411471Y-64312800D01*
X58734400Y-70091136D02*
X58734400Y-73248129D01*
X74152929Y-64557200D02*
X73908529Y-64312800D01*
X64268336Y-64557200D02*
X58734400Y-70091136D01*
X72410659Y-64160400D02*
X72013859Y-64557200D01*
X72013859Y-64557200D02*
X64268336Y-64557200D01*
X83759600Y-64557200D02*
X74152929Y-64557200D01*
X73411471Y-64312800D02*
X73259071Y-64160400D01*
X90748000Y-71545600D02*
X83759600Y-64557200D01*
%TO.N,Net-(U1-IO26)*%
X78384400Y-79019400D02*
X78384400Y-77165200D01*
X60457471Y-59344000D02*
X58572400Y-61229071D01*
X72593200Y-76524000D02*
X72593200Y-80060800D01*
X60954529Y-59344000D02*
X60457471Y-59344000D01*
X84734400Y-77165200D02*
X84836000Y-77266800D01*
X64770000Y-62484000D02*
X64094529Y-62484000D01*
X77114400Y-80289400D02*
X78384400Y-79019400D01*
X72593200Y-80060800D02*
X71678800Y-80975200D01*
X78384400Y-77165200D02*
X84734400Y-77165200D01*
X58572400Y-61229071D02*
X58572400Y-67716400D01*
X64094529Y-62484000D02*
X60954529Y-59344000D01*
%TO.N,Net-(U1-IO38)*%
X88300000Y-78521730D02*
X88300000Y-79180714D01*
X74371200Y-79146400D02*
X74371200Y-77124000D01*
X88948065Y-77873665D02*
X88300000Y-78521730D01*
X86556314Y-80924400D02*
X78638400Y-80924400D01*
X75550859Y-83562800D02*
X77263869Y-81849790D01*
X74371200Y-83562800D02*
X75550859Y-83562800D01*
X78783265Y-81541535D02*
X78783265Y-81069265D01*
X78783265Y-81069265D02*
X78638400Y-80924400D01*
X88300000Y-79180714D02*
X86556314Y-80924400D01*
X74371200Y-79146400D02*
X74371200Y-83562800D01*
%TO.N,Net-(U1-IO34)*%
X79441600Y-82961871D02*
X78775729Y-82296000D01*
X59296397Y-57788400D02*
X55940400Y-61144397D01*
X57232357Y-77443871D02*
X58877200Y-77443871D01*
X80406800Y-83250871D02*
X80055329Y-82899400D01*
X79558271Y-82899400D02*
X79441600Y-83016071D01*
X79441600Y-83016071D02*
X79441600Y-82961871D01*
X63671600Y-76524000D02*
X69097600Y-81950000D01*
X70785671Y-85299400D02*
X80055329Y-85299400D01*
X80406800Y-84947929D02*
X80406800Y-83250871D01*
X69097600Y-81950000D02*
X69097600Y-83611329D01*
X69097600Y-83611329D02*
X70785671Y-85299400D01*
X55940400Y-61144397D02*
X55940400Y-76151914D01*
X80055329Y-85299400D02*
X80406800Y-84947929D01*
X78385128Y-80289400D02*
X79654400Y-79020128D01*
X78775729Y-82296000D02*
X78689200Y-82296000D01*
X85037785Y-78028800D02*
X86450585Y-76616000D01*
X80055329Y-82899400D02*
X79558271Y-82899400D01*
X59797071Y-76524000D02*
X63671600Y-76524000D01*
X79654400Y-78079600D02*
X79603600Y-78028800D01*
X79654400Y-79020128D02*
X79654400Y-78079600D01*
X55940400Y-76151914D02*
X57232357Y-77443871D01*
X78689200Y-82296000D02*
X77470000Y-81076800D01*
X79603600Y-78028800D02*
X85037785Y-78028800D01*
X58877200Y-77443871D02*
X59797071Y-76524000D01*
X86450585Y-76616000D02*
X87426800Y-76616000D01*
%TO.N,Net-(U1-IO6)*%
X63957200Y-74015600D02*
X63855600Y-74015600D01*
X64871600Y-76149200D02*
X64871600Y-74930000D01*
X63855600Y-74015600D02*
X63195200Y-73355200D01*
X63195200Y-73355200D02*
X62179200Y-73355200D01*
X64871600Y-74930000D02*
X63957200Y-74015600D01*
%TO.N,Net-(U1-IO33)*%
X87528400Y-78790800D02*
X86563200Y-77825600D01*
X86572800Y-77816000D02*
X86664800Y-77816000D01*
X86563200Y-77825600D02*
X86572800Y-77816000D01*
%TO.N,Net-(U1-TXD0)*%
X90337473Y-79690127D02*
X90337473Y-77816000D01*
X89103200Y-80924400D02*
X90337473Y-79690127D01*
%TO.N,Net-(U1-IO2)*%
X67564000Y-69256000D02*
X67564000Y-68645871D01*
X69052271Y-67157600D02*
X71221600Y-67157600D01*
X67564000Y-68645871D02*
X69052271Y-67157600D01*
%TO.N,Net-(U1-IO5)*%
X68834000Y-70612000D02*
X69494400Y-69951600D01*
X59334400Y-70612000D02*
X68834000Y-70612000D01*
%TO.N,Net-(U1-IO39)*%
X65018529Y-63084000D02*
X65110529Y-62992000D01*
X92659200Y-64109600D02*
X92659200Y-70012000D01*
X92659200Y-70012000D02*
X91348000Y-71323200D01*
X60706000Y-59944000D02*
X63846000Y-63084000D01*
X68433071Y-62992000D02*
X68737871Y-63296800D01*
X68737871Y-63296800D02*
X70612000Y-63296800D01*
X65110529Y-62992000D02*
X68433071Y-62992000D01*
X91084400Y-62534800D02*
X92659200Y-64109600D01*
X91084400Y-61722000D02*
X91084400Y-62534800D01*
X63846000Y-63084000D02*
X65018529Y-63084000D01*
X70612000Y-63296800D02*
X73507600Y-60401200D01*
%TO.N,Net-(U1-IO35)*%
X63572800Y-61264800D02*
X71795471Y-61264800D01*
X75133200Y-60147200D02*
X76098400Y-59182000D01*
X60096400Y-57788400D02*
X63572800Y-61264800D01*
X71795471Y-61264800D02*
X73259071Y-59801200D01*
X90830400Y-70205600D02*
X91490800Y-70205600D01*
X76546000Y-59629600D02*
X78189868Y-59629600D01*
X91988434Y-73271200D02*
X90965200Y-73271200D01*
X80822800Y-60198000D02*
X90830400Y-70205600D01*
X73259071Y-59801200D02*
X73756129Y-59801200D01*
X78189868Y-59629600D02*
X78758268Y-60198000D01*
X73756129Y-59801200D02*
X74102129Y-60147200D01*
X92344800Y-72914834D02*
X91988434Y-73271200D01*
X78758268Y-60198000D02*
X80822800Y-60198000D01*
X76098400Y-59182000D02*
X76546000Y-59629600D01*
X90965200Y-73271200D02*
X90544800Y-73691600D01*
X74102129Y-60147200D02*
X75133200Y-60147200D01*
X90544800Y-73691600D02*
X90544800Y-74635612D01*
%TO.N,Net-(U1-IO36)*%
X91144800Y-73964800D02*
X90898303Y-74211297D01*
X90728800Y-76216486D02*
X90329286Y-76616000D01*
X91094800Y-74863430D02*
X90728800Y-75229430D01*
X90898303Y-74211297D02*
X91094800Y-74407794D01*
X90728800Y-75229430D02*
X90728800Y-76216486D01*
X91094800Y-74407794D02*
X91094800Y-74863430D01*
X90329286Y-76616000D02*
X89357200Y-76616000D01*
%TO.N,Net-(U2-~{PWRKEY})*%
X65940000Y-59488400D02*
X64211200Y-57759600D01*
X64211200Y-54356000D02*
X65532000Y-53035200D01*
X66040000Y-59488400D02*
X65940000Y-59488400D01*
X64211200Y-57759600D02*
X64211200Y-54356000D01*
%TO.N,Net-(U2-SIM_DET)*%
X67612065Y-58407665D02*
X67612065Y-58671265D01*
X67612065Y-58671265D02*
X68597865Y-59657065D01*
%TO.N,Net-(U2-UART1_CTS)*%
X66364000Y-52654929D02*
X66364000Y-53086000D01*
X68976800Y-50042129D02*
X66364000Y-52654929D01*
X68976800Y-49936400D02*
X68976800Y-50042129D01*
%TO.N,Net-(U2-UART1_RTS)*%
X68986400Y-48666400D02*
X66964000Y-50688800D01*
X66964000Y-50688800D02*
X66964000Y-51206400D01*
%TO.N,Net-(U2-UART1_DTR)*%
X66344800Y-54000400D02*
X65764000Y-54000400D01*
X68976800Y-51257200D02*
X68976800Y-51368400D01*
X68976800Y-51368400D02*
X66344800Y-54000400D01*
%TO.N,Net-(U2-VDD_EXT)*%
X69392800Y-38201600D02*
X70815200Y-38201600D01*
X70815200Y-38201600D02*
X71170800Y-37846000D01*
X69392800Y-43637200D02*
X65481200Y-47548800D01*
X71170800Y-37846000D02*
X71214065Y-37889265D01*
X65481200Y-47548800D02*
X65379600Y-47548800D01*
X71214065Y-37889265D02*
X71214065Y-37979200D01*
%TO.N,Net-(J2-D+)*%
X86893418Y-77266800D02*
X86892618Y-77266000D01*
X90565291Y-77266000D02*
X90109655Y-77266000D01*
X86892618Y-77266000D02*
X86366271Y-77266000D01*
X86366271Y-77266000D02*
X86064800Y-77567471D01*
X91440000Y-79095600D02*
X91363800Y-79171800D01*
X90109655Y-77266000D02*
X90108855Y-77266800D01*
X81178400Y-78943200D02*
X79806800Y-80314800D01*
X90687473Y-78243818D02*
X90887473Y-78043818D01*
X93624400Y-81432400D02*
X91440000Y-79248000D01*
X90887473Y-77588182D02*
X90565291Y-77266000D01*
X90108855Y-77266800D02*
X86893418Y-77266800D01*
X91440000Y-79248000D02*
X91440000Y-79095600D01*
X86064800Y-77567471D02*
X86064800Y-78079600D01*
X90687473Y-78495473D02*
X90687473Y-78243818D01*
X91363800Y-79171800D02*
X90687473Y-78495473D01*
X86064800Y-78079600D02*
X85201200Y-78943200D01*
X85201200Y-78943200D02*
X81178400Y-78943200D01*
X90887473Y-78043818D02*
X90887473Y-77588182D01*
%TO.N,Net-(ACCEL1-K)*%
X54067200Y-62179200D02*
X54930800Y-63042800D01*
X51409600Y-63601600D02*
X51409600Y-62179200D01*
X51409600Y-62179200D02*
X54067200Y-62179200D01*
%TD*%
M02*
