%TF.GenerationSoftware,KiCad,Pcbnew,8.0.5*%
%TF.CreationDate,2024-11-03T18:03:42-05:00*%
%TF.ProjectId,emerald_pcb,656d6572-616c-4645-9f70-63622e6b6963,rev?*%
%TF.SameCoordinates,Original*%
%TF.FileFunction,Drillmap*%
%TF.FilePolarity,Positive*%
%FSLAX45Y45*%
G04 Gerber Fmt 4.5, Leading zero omitted, Abs format (unit mm)*
G04 Created by KiCad (PCBNEW 8.0.5) date 2024-11-03 18:03:42*
%MOMM*%
%LPD*%
G01*
G04 APERTURE LIST*
%ADD10C,0.050000*%
%ADD11C,0.200000*%
%ADD12C,0.100000*%
%ADD13C,0.270000*%
G04 APERTURE END LIST*
D10*
X3474720Y-3454400D02*
X10957560Y-3454400D01*
X10957560Y-8945880D01*
X3474720Y-8945880D01*
X3474720Y-3454400D01*
D11*
D12*
X3993120Y-7325600D02*
X4023120Y-7355600D01*
X4023120Y-7325600D02*
X3993120Y-7355600D01*
X4003280Y-4531600D02*
X4033280Y-4561600D01*
X4033280Y-4531600D02*
X4003280Y-4561600D01*
X4028680Y-4684000D02*
X4058680Y-4714000D01*
X4058680Y-4684000D02*
X4028680Y-4714000D01*
X4033760Y-5308840D02*
X4063760Y-5338840D01*
X4063760Y-5308840D02*
X4033760Y-5338840D01*
X4450320Y-7335760D02*
X4480320Y-7365760D01*
X4480320Y-7335760D02*
X4450320Y-7365760D01*
X4455400Y-6086080D02*
X4485400Y-6116080D01*
X4485400Y-6086080D02*
X4455400Y-6116080D01*
X4511280Y-7051280D02*
X4541280Y-7081280D01*
X4541280Y-7051280D02*
X4511280Y-7081280D01*
X4546840Y-8626080D02*
X4576840Y-8656080D01*
X4576840Y-8626080D02*
X4546840Y-8656080D01*
X4582400Y-7218920D02*
X4612400Y-7248920D01*
X4612400Y-7218920D02*
X4582400Y-7248920D01*
X4632447Y-6324086D02*
X4662447Y-6354086D01*
X4662447Y-6324086D02*
X4632447Y-6354086D01*
X4841480Y-4394440D02*
X4871480Y-4424440D01*
X4871480Y-4394440D02*
X4841480Y-4424440D01*
X4867760Y-4186160D02*
X4897760Y-4216160D01*
X4897760Y-4186160D02*
X4867760Y-4216160D01*
X4882120Y-6198800D02*
X4912120Y-6228800D01*
X4912120Y-6198800D02*
X4882120Y-6228800D01*
X4962520Y-4440160D02*
X4992520Y-4470160D01*
X4992520Y-4440160D02*
X4962520Y-4470160D01*
X4977760Y-4191240D02*
X5007760Y-4221240D01*
X5007760Y-4191240D02*
X4977760Y-4221240D01*
X5095480Y-7077640D02*
X5125480Y-7107640D01*
X5125480Y-7077640D02*
X5095480Y-7107640D01*
X5125960Y-6345160D02*
X5155960Y-6375160D01*
X5155960Y-6345160D02*
X5125960Y-6375160D01*
X5197080Y-7269720D02*
X5227080Y-7299720D01*
X5227080Y-7269720D02*
X5197080Y-7299720D01*
X5283100Y-7391640D02*
X5313100Y-7421640D01*
X5313100Y-7391640D02*
X5283100Y-7421640D01*
X5288520Y-7137640D02*
X5318520Y-7167640D01*
X5318520Y-7137640D02*
X5288520Y-7167640D01*
X5318080Y-6411200D02*
X5348080Y-6441200D01*
X5348080Y-6411200D02*
X5318080Y-6441200D01*
X5318080Y-6741400D02*
X5348080Y-6771400D01*
X5348080Y-6741400D02*
X5318080Y-6771400D01*
X5338360Y-8286219D02*
X5368360Y-8316219D01*
X5368360Y-8286219D02*
X5338360Y-8316219D01*
X5359640Y-8199360D02*
X5389640Y-8229360D01*
X5389640Y-8199360D02*
X5359640Y-8229360D01*
X5424720Y-8077440D02*
X5454720Y-8107440D01*
X5454720Y-8077440D02*
X5424720Y-8107440D01*
X5463100Y-7310360D02*
X5493100Y-7340360D01*
X5493100Y-7310360D02*
X5463100Y-7340360D01*
X5478080Y-6289280D02*
X5508080Y-6319280D01*
X5508080Y-6289280D02*
X5478080Y-6319280D01*
X5478080Y-6746480D02*
X5508080Y-6776480D01*
X5508080Y-6746480D02*
X5478080Y-6776480D01*
X5479040Y-6411200D02*
X5509040Y-6441200D01*
X5509040Y-6411200D02*
X5479040Y-6441200D01*
X5479040Y-7025880D02*
X5509040Y-7055880D01*
X5509040Y-7025880D02*
X5479040Y-7055880D01*
X5489663Y-7913930D02*
X5519663Y-7943930D01*
X5519663Y-7913930D02*
X5489663Y-7943930D01*
X5495439Y-8571027D02*
X5525439Y-8601027D01*
X5525439Y-8571027D02*
X5495439Y-8601027D01*
X5501880Y-7686280D02*
X5531880Y-7716280D01*
X5531880Y-7686280D02*
X5501880Y-7716280D01*
X5535421Y-7753362D02*
X5565421Y-7783362D01*
X5565421Y-7753362D02*
X5535421Y-7783362D01*
X5557760Y-7945360D02*
X5587760Y-7975360D01*
X5587760Y-7945360D02*
X5557760Y-7975360D01*
X5634040Y-6903960D02*
X5664040Y-6933960D01*
X5664040Y-6903960D02*
X5634040Y-6933960D01*
X5639040Y-7325600D02*
X5669040Y-7355600D01*
X5669040Y-7325600D02*
X5639040Y-7355600D01*
X5644120Y-8676920D02*
X5674120Y-8706920D01*
X5674120Y-8676920D02*
X5644120Y-8706920D01*
X5654280Y-7036040D02*
X5684280Y-7066040D01*
X5684280Y-7036040D02*
X5654280Y-7066040D01*
X5659360Y-6314680D02*
X5689360Y-6344680D01*
X5689360Y-6314680D02*
X5659360Y-6344680D01*
X5659360Y-6411200D02*
X5689360Y-6441200D01*
X5689360Y-6411200D02*
X5659360Y-6441200D01*
X5680640Y-6812520D02*
X5710640Y-6842520D01*
X5710640Y-6812520D02*
X5680640Y-6842520D01*
X5684760Y-7574520D02*
X5714760Y-7604520D01*
X5714760Y-7574520D02*
X5684760Y-7604520D01*
X5736004Y-8669889D02*
X5766004Y-8699889D01*
X5766004Y-8669889D02*
X5736004Y-8699889D01*
X5780400Y-6980160D02*
X5810400Y-7010160D01*
X5810400Y-6980160D02*
X5780400Y-7010160D01*
X5782240Y-6257694D02*
X5812240Y-6287694D01*
X5812240Y-6257694D02*
X5782240Y-6287694D01*
X5798440Y-7183360D02*
X5828440Y-7213360D01*
X5828440Y-7183360D02*
X5798440Y-7213360D01*
X5829149Y-7991722D02*
X5859149Y-8021722D01*
X5859149Y-7991722D02*
X5829149Y-8021722D01*
X5830720Y-8614055D02*
X5860720Y-8644055D01*
X5860720Y-8614055D02*
X5830720Y-8644055D01*
X5842240Y-6756640D02*
X5872240Y-6786640D01*
X5872240Y-6756640D02*
X5842240Y-6786640D01*
X5902965Y-6864736D02*
X5932965Y-6894736D01*
X5932965Y-6864736D02*
X5902965Y-6894736D01*
X5914640Y-5763840D02*
X5944640Y-5793840D01*
X5944640Y-5763840D02*
X5914640Y-5793840D01*
X5918440Y-7046200D02*
X5948440Y-7076200D01*
X5948440Y-7046200D02*
X5918440Y-7076200D01*
X5974320Y-6121640D02*
X6004320Y-6151640D01*
X6004320Y-6121640D02*
X5974320Y-6151640D01*
X5979400Y-8716920D02*
X6009400Y-8746920D01*
X6009400Y-8716920D02*
X5979400Y-8746920D01*
X5989560Y-7697400D02*
X6019560Y-7727400D01*
X6019560Y-7697400D02*
X5989560Y-7727400D01*
X5989560Y-7894560D02*
X6019560Y-7924560D01*
X6019560Y-7894560D02*
X5989560Y-7924560D01*
X5994640Y-5763840D02*
X6024640Y-5793840D01*
X6024640Y-5763840D02*
X5994640Y-5793840D01*
X5994640Y-7295120D02*
X6024640Y-7325120D01*
X6024640Y-7295120D02*
X5994640Y-7325120D01*
X5994640Y-7457680D02*
X6024640Y-7487680D01*
X6024640Y-7457680D02*
X5994640Y-7487680D01*
X6029201Y-5644630D02*
X6059201Y-5674630D01*
X6059201Y-5644630D02*
X6029201Y-5674630D01*
X6035280Y-6421360D02*
X6065280Y-6451360D01*
X6065280Y-6421360D02*
X6035280Y-6451360D01*
X6055600Y-5979400D02*
X6085600Y-6009400D01*
X6085600Y-5979400D02*
X6055600Y-6009400D01*
X6060680Y-3932160D02*
X6090680Y-3962160D01*
X6090680Y-3932160D02*
X6060680Y-3962160D01*
X6065760Y-8555000D02*
X6095760Y-8585000D01*
X6095760Y-8555000D02*
X6065760Y-8585000D01*
X6111480Y-8097760D02*
X6141480Y-8127760D01*
X6141480Y-8097760D02*
X6111480Y-8127760D01*
X6116560Y-8326360D02*
X6146560Y-8356360D01*
X6146560Y-8326360D02*
X6116560Y-8356360D01*
X6141960Y-7564360D02*
X6171960Y-7594360D01*
X6171960Y-7564360D02*
X6141960Y-7594360D01*
X6152120Y-3795000D02*
X6182120Y-3825000D01*
X6182120Y-3795000D02*
X6152120Y-3825000D01*
X6162280Y-5517120D02*
X6192280Y-5547120D01*
X6192280Y-5517120D02*
X6162280Y-5547120D01*
X6172440Y-4242040D02*
X6202440Y-4272040D01*
X6202440Y-4242040D02*
X6172440Y-4272040D01*
X6181720Y-4084560D02*
X6211720Y-4114560D01*
X6211720Y-4084560D02*
X6181720Y-4114560D01*
X6182600Y-8544800D02*
X6212600Y-8574800D01*
X6212600Y-8544800D02*
X6182600Y-8574800D01*
X6202920Y-7320520D02*
X6232920Y-7350520D01*
X6232920Y-7320520D02*
X6202920Y-7350520D01*
X6220372Y-8675000D02*
X6250372Y-8705000D01*
X6250372Y-8675000D02*
X6220372Y-8705000D01*
X6263880Y-7701520D02*
X6293880Y-7731520D01*
X6293880Y-7701520D02*
X6263880Y-7731520D01*
X6279120Y-7381480D02*
X6309120Y-7411480D01*
X6309120Y-7381480D02*
X6279120Y-7411480D01*
X6309019Y-6409868D02*
X6339019Y-6439868D01*
X6339019Y-6409868D02*
X6309019Y-6439868D01*
X6320513Y-6335753D02*
X6350513Y-6365753D01*
X6350513Y-6335753D02*
X6320513Y-6365753D01*
X6360400Y-7467840D02*
X6390400Y-7497840D01*
X6390400Y-7467840D02*
X6360400Y-7497840D01*
X6426440Y-5288520D02*
X6456440Y-5318520D01*
X6456440Y-5288520D02*
X6426440Y-5318520D01*
X6436600Y-8748000D02*
X6466600Y-8778000D01*
X6466600Y-8748000D02*
X6436600Y-8778000D01*
X6462000Y-6233400D02*
X6492000Y-6263400D01*
X6492000Y-6233400D02*
X6462000Y-6263400D01*
X6472160Y-7599920D02*
X6502160Y-7629920D01*
X6502160Y-7599920D02*
X6472160Y-7629920D01*
X6477240Y-6380720D02*
X6507240Y-6410720D01*
X6507240Y-6380720D02*
X6477240Y-6410720D01*
X6497560Y-7259560D02*
X6527560Y-7289560D01*
X6527560Y-7259560D02*
X6497560Y-7289560D01*
X6501400Y-5501880D02*
X6531400Y-5531880D01*
X6531400Y-5501880D02*
X6501400Y-5531880D01*
X6522960Y-4739880D02*
X6552960Y-4769880D01*
X6552960Y-4739880D02*
X6522960Y-4769880D01*
X6522960Y-7375520D02*
X6552960Y-7405520D01*
X6552960Y-7375520D02*
X6522960Y-7405520D01*
X6538200Y-5288520D02*
X6568200Y-5318520D01*
X6568200Y-5288520D02*
X6538200Y-5318520D01*
X6561400Y-5385040D02*
X6591400Y-5415040D01*
X6591400Y-5385040D02*
X6561400Y-5415040D01*
X6568680Y-4125200D02*
X6598680Y-4155200D01*
X6598680Y-4125200D02*
X6568680Y-4155200D01*
X6589000Y-3623160D02*
X6619000Y-3653160D01*
X6619000Y-3623160D02*
X6589000Y-3653160D01*
X6589000Y-5933840D02*
X6619000Y-5963840D01*
X6619000Y-5933840D02*
X6589000Y-5963840D01*
X6621400Y-5293600D02*
X6651400Y-5323600D01*
X6651400Y-5293600D02*
X6621400Y-5323600D01*
X6681400Y-5105640D02*
X6711400Y-5135640D01*
X6711400Y-5105640D02*
X6681400Y-5135640D01*
X6692079Y-5933840D02*
X6722079Y-5963840D01*
X6722079Y-5933840D02*
X6692079Y-5963840D01*
X6700760Y-6188640D02*
X6730760Y-6218640D01*
X6730760Y-6188640D02*
X6700760Y-6218640D01*
X6726160Y-6500720D02*
X6756160Y-6530720D01*
X6756160Y-6500720D02*
X6726160Y-6530720D01*
X6731240Y-6595600D02*
X6761240Y-6625600D01*
X6761240Y-6595600D02*
X6731240Y-6625600D01*
X6741400Y-6910600D02*
X6771400Y-6940600D01*
X6771400Y-6910600D02*
X6741400Y-6940600D01*
X6746206Y-5825766D02*
X6776206Y-5855766D01*
X6776206Y-5825766D02*
X6746206Y-5855766D01*
X6807440Y-6348660D02*
X6837440Y-6378660D01*
X6837440Y-6348660D02*
X6807440Y-6378660D01*
X6807440Y-8240000D02*
X6837440Y-8270000D01*
X6837440Y-8240000D02*
X6807440Y-8270000D01*
X6807440Y-8372080D02*
X6837440Y-8402080D01*
X6837440Y-8372080D02*
X6807440Y-8402080D01*
X6817600Y-6858240D02*
X6847600Y-6888240D01*
X6847600Y-6858240D02*
X6817600Y-6888240D01*
X6844786Y-5950706D02*
X6874786Y-5980706D01*
X6874786Y-5950706D02*
X6844786Y-5980706D01*
X6864280Y-4074400D02*
X6894280Y-4104400D01*
X6894280Y-4074400D02*
X6864280Y-4104400D01*
X6882680Y-4978640D02*
X6912680Y-5008640D01*
X6912680Y-4978640D02*
X6882680Y-5008640D01*
X6882680Y-5110720D02*
X6912680Y-5140720D01*
X6912680Y-5110720D02*
X6882680Y-5140720D01*
X6883640Y-4851640D02*
X6913640Y-4881640D01*
X6913640Y-4851640D02*
X6883640Y-4881640D01*
X6883640Y-6254680D02*
X6913640Y-6284680D01*
X6913640Y-6254680D02*
X6883640Y-6284680D01*
X6893800Y-6903960D02*
X6923800Y-6933960D01*
X6923800Y-6903960D02*
X6893800Y-6933960D01*
X6914120Y-5882880D02*
X6944120Y-5912880D01*
X6944120Y-5882880D02*
X6914120Y-5912880D01*
X6919902Y-6755760D02*
X6949902Y-6785760D01*
X6949902Y-6755760D02*
X6919902Y-6785760D01*
X6924280Y-3805160D02*
X6954280Y-3835160D01*
X6954280Y-3805160D02*
X6924280Y-3835160D01*
X6924280Y-4348720D02*
X6954280Y-4378720D01*
X6954280Y-4348720D02*
X6924280Y-4378720D01*
X6934440Y-6980160D02*
X6964440Y-7010160D01*
X6964440Y-6980160D02*
X6934440Y-7010160D01*
X6954760Y-8321280D02*
X6984760Y-8351280D01*
X6984760Y-8321280D02*
X6954760Y-8351280D01*
X6975080Y-6003920D02*
X7005080Y-6033920D01*
X7005080Y-6003920D02*
X6975080Y-6033920D01*
X7046200Y-8321280D02*
X7076200Y-8351280D01*
X7076200Y-8321280D02*
X7046200Y-8351280D01*
X7106406Y-3782920D02*
X7136406Y-3812920D01*
X7136406Y-3782920D02*
X7106406Y-3812920D01*
X7107160Y-6700760D02*
X7137160Y-6730760D01*
X7137160Y-6700760D02*
X7107160Y-6730760D01*
X7149586Y-6570466D02*
X7179586Y-6600466D01*
X7179586Y-6570466D02*
X7149586Y-6600466D01*
X7152880Y-7132560D02*
X7182880Y-7162560D01*
X7182880Y-7132560D02*
X7152880Y-7162560D01*
X7152880Y-8082520D02*
X7182880Y-8112520D01*
X7182880Y-8082520D02*
X7152880Y-8112520D01*
X7182606Y-6359646D02*
X7212606Y-6389646D01*
X7212606Y-6359646D02*
X7182606Y-6389646D01*
X7213840Y-6622120D02*
X7243840Y-6652120D01*
X7243840Y-6622120D02*
X7213840Y-6652120D01*
X7244320Y-7637400D02*
X7274320Y-7667400D01*
X7274320Y-7637400D02*
X7244320Y-7667400D01*
X7267786Y-6537120D02*
X7297786Y-6567120D01*
X7297786Y-6537120D02*
X7267786Y-6567120D01*
X7309480Y-7127480D02*
X7339480Y-7157480D01*
X7339480Y-7127480D02*
X7309480Y-7157480D01*
X7309480Y-7442440D02*
X7339480Y-7472440D01*
X7339480Y-7442440D02*
X7309480Y-7472440D01*
X7310360Y-3842920D02*
X7340360Y-3872920D01*
X7340360Y-3842920D02*
X7310360Y-3872920D01*
X7335760Y-6025120D02*
X7365760Y-6055120D01*
X7365760Y-6025120D02*
X7335760Y-6055120D01*
X7345920Y-7259560D02*
X7375920Y-7289560D01*
X7375920Y-7259560D02*
X7345920Y-7289560D01*
X7422120Y-7697400D02*
X7452120Y-7727400D01*
X7452120Y-7697400D02*
X7422120Y-7727400D01*
X7490189Y-5869669D02*
X7520189Y-5899669D01*
X7520189Y-5869669D02*
X7490189Y-5899669D01*
X7696440Y-8013940D02*
X7726440Y-8043940D01*
X7726440Y-8013940D02*
X7696440Y-8043940D01*
X7711387Y-8169979D02*
X7741387Y-8199979D01*
X7741387Y-8169979D02*
X7711387Y-8199979D01*
X7732000Y-8092680D02*
X7762000Y-8122680D01*
X7762000Y-8092680D02*
X7732000Y-8122680D01*
X7752320Y-5887960D02*
X7782320Y-5917960D01*
X7782320Y-5887960D02*
X7752320Y-5917960D01*
X7823513Y-8013940D02*
X7853513Y-8043940D01*
X7853513Y-8013940D02*
X7823513Y-8043940D01*
X7863326Y-8139153D02*
X7893326Y-8169153D01*
X7893326Y-8139153D02*
X7863326Y-8169153D01*
X7869160Y-8306040D02*
X7899160Y-8336040D01*
X7899160Y-8306040D02*
X7869160Y-8336040D01*
X7885680Y-5944800D02*
X7915680Y-5974800D01*
X7915680Y-5944800D02*
X7885680Y-5974800D01*
X7965680Y-5944800D02*
X7995680Y-5974800D01*
X7995680Y-5944800D02*
X7965680Y-5974800D01*
X7965680Y-8016480D02*
X7995680Y-8046480D01*
X7995680Y-8016480D02*
X7965680Y-8046480D01*
X7965680Y-8334940D02*
X7995680Y-8364940D01*
X7995680Y-8334940D02*
X7965680Y-8364940D01*
X7965680Y-8454940D02*
X7995680Y-8484940D01*
X7995680Y-8454940D02*
X7965680Y-8484940D01*
X7970760Y-8204440D02*
X8000760Y-8234440D01*
X8000760Y-8204440D02*
X7970760Y-8234440D01*
X8067280Y-3815320D02*
X8097280Y-3845320D01*
X8097280Y-3815320D02*
X8067280Y-3845320D01*
X8083737Y-8494940D02*
X8113737Y-8524940D01*
X8113737Y-8494940D02*
X8083737Y-8524940D01*
X8468600Y-7711680D02*
X8498600Y-7741680D01*
X8498600Y-7711680D02*
X8468600Y-7741680D01*
X8483840Y-3820400D02*
X8513840Y-3850400D01*
X8513840Y-3820400D02*
X8483840Y-3850400D01*
X8483840Y-8667680D02*
X8513840Y-8697680D01*
X8513840Y-8667680D02*
X8483840Y-8697680D01*
X8610840Y-5784800D02*
X8640840Y-5814800D01*
X8640840Y-5784800D02*
X8610840Y-5814800D01*
X8651480Y-7766600D02*
X8681480Y-7796600D01*
X8681480Y-7766600D02*
X8651480Y-7796600D01*
X8727680Y-7646600D02*
X8757680Y-7676600D01*
X8757680Y-7646600D02*
X8727680Y-7676600D01*
X8737840Y-7864080D02*
X8767840Y-7894080D01*
X8767840Y-7864080D02*
X8737840Y-7894080D01*
X8765173Y-5980360D02*
X8795173Y-6010360D01*
X8795173Y-5980360D02*
X8765173Y-6010360D01*
X8793720Y-8660760D02*
X8823720Y-8690760D01*
X8823720Y-8660760D02*
X8793720Y-8690760D01*
X8793720Y-8802640D02*
X8823720Y-8832640D01*
X8823720Y-8802640D02*
X8793720Y-8832640D01*
X8875000Y-7899640D02*
X8905000Y-7929640D01*
X8905000Y-7899640D02*
X8875000Y-7929640D01*
X8879807Y-7772366D02*
X8909807Y-7802366D01*
X8909807Y-7772366D02*
X8879807Y-7802366D01*
X8895320Y-8077440D02*
X8925320Y-8107440D01*
X8925320Y-8077440D02*
X8895320Y-8107440D01*
X8895594Y-4546567D02*
X8925594Y-4576567D01*
X8925594Y-4546567D02*
X8895594Y-4576567D01*
X8896280Y-5390120D02*
X8926280Y-5420120D01*
X8926280Y-5390120D02*
X8896280Y-5420120D01*
X8920720Y-7646600D02*
X8950720Y-7676600D01*
X8950720Y-7646600D02*
X8920720Y-7676600D01*
X8956280Y-5527280D02*
X8986280Y-5557280D01*
X8986280Y-5527280D02*
X8956280Y-5557280D01*
X8976600Y-4460480D02*
X9006600Y-4490480D01*
X9006600Y-4460480D02*
X8976600Y-4490480D01*
X9009409Y-5990124D02*
X9039409Y-6020124D01*
X9039409Y-5990124D02*
X9009409Y-6020124D01*
X9018747Y-7766600D02*
X9048747Y-7796600D01*
X9048747Y-7766600D02*
X9018747Y-7796600D01*
X9024112Y-6197120D02*
X9054112Y-6227120D01*
X9054112Y-6197120D02*
X9024112Y-6227120D01*
X9039480Y-7448561D02*
X9069480Y-7478561D01*
X9069480Y-7448561D02*
X9039480Y-7478561D01*
X9059800Y-7252120D02*
X9089800Y-7282120D01*
X9089800Y-7252120D02*
X9059800Y-7282120D01*
X9068040Y-6317120D02*
X9098040Y-6347120D01*
X9098040Y-6317120D02*
X9068040Y-6347120D01*
X9073120Y-6873480D02*
X9103120Y-6903480D01*
X9103120Y-6873480D02*
X9073120Y-6903480D01*
X9088360Y-6619480D02*
X9118360Y-6649480D01*
X9118360Y-6619480D02*
X9088360Y-6649480D01*
X9093440Y-6157200D02*
X9123440Y-6187200D01*
X9123440Y-6157200D02*
X9093440Y-6187200D01*
X9099480Y-7381480D02*
X9129480Y-7411480D01*
X9129480Y-7381480D02*
X9099480Y-7411480D01*
X9119800Y-7117320D02*
X9149800Y-7147320D01*
X9149800Y-7117320D02*
X9119800Y-7147320D01*
X9129000Y-5877800D02*
X9159000Y-5907800D01*
X9159000Y-5877800D02*
X9129000Y-5907800D01*
X9134080Y-7005560D02*
X9164080Y-7035560D01*
X9164080Y-7005560D02*
X9134080Y-7035560D01*
X9134080Y-7513560D02*
X9164080Y-7543560D01*
X9164080Y-7513560D02*
X9134080Y-7543560D01*
X9145757Y-6907005D02*
X9175757Y-6937005D01*
X9175757Y-6907005D02*
X9145757Y-6937005D01*
X9159480Y-5405360D02*
X9189480Y-5435360D01*
X9189480Y-5405360D02*
X9159480Y-5435360D01*
X9174720Y-6622120D02*
X9204720Y-6652120D01*
X9204720Y-6622120D02*
X9174720Y-6652120D01*
X9215360Y-6253720D02*
X9245360Y-6283720D01*
X9245360Y-6253720D02*
X9215360Y-6283720D01*
X9219480Y-7276483D02*
X9249480Y-7306483D01*
X9249480Y-7276483D02*
X9219480Y-7306483D01*
X9276320Y-6009880D02*
X9306320Y-6039880D01*
X9306320Y-6009880D02*
X9276320Y-6039880D01*
X9296640Y-7640560D02*
X9326640Y-7670560D01*
X9326640Y-7640560D02*
X9296640Y-7670560D01*
X9347440Y-8128240D02*
X9377440Y-8158240D01*
X9377440Y-8128240D02*
X9347440Y-8158240D01*
X9692880Y-7345920D02*
X9722880Y-7375920D01*
X9722880Y-7345920D02*
X9692880Y-7375920D01*
X9762674Y-7225326D02*
X9792674Y-7255326D01*
X9792674Y-7225326D02*
X9762674Y-7255326D01*
X10145000Y-7432280D02*
X10175000Y-7462280D01*
X10175000Y-7432280D02*
X10145000Y-7462280D01*
X10185640Y-7244320D02*
X10215640Y-7274320D01*
X10215640Y-7244320D02*
X10185640Y-7274320D01*
D13*
X3995800Y-6446520D02*
G75*
G02*
X3725800Y-6446520I-135000J0D01*
G01*
X3725800Y-6446520D02*
G75*
G02*
X3995800Y-6446520I135000J0D01*
G01*
X3995800Y-6946520D02*
G75*
G02*
X3725800Y-6946520I-135000J0D01*
G01*
X3725800Y-6946520D02*
G75*
G02*
X3995800Y-6946520I135000J0D01*
G01*
D11*
X3732997Y-9259864D02*
X3732997Y-9059864D01*
X3732997Y-9059864D02*
X3780616Y-9059864D01*
X3780616Y-9059864D02*
X3809187Y-9069388D01*
X3809187Y-9069388D02*
X3828235Y-9088435D01*
X3828235Y-9088435D02*
X3837759Y-9107483D01*
X3837759Y-9107483D02*
X3847282Y-9145578D01*
X3847282Y-9145578D02*
X3847282Y-9174150D01*
X3847282Y-9174150D02*
X3837759Y-9212245D01*
X3837759Y-9212245D02*
X3828235Y-9231292D01*
X3828235Y-9231292D02*
X3809187Y-9250340D01*
X3809187Y-9250340D02*
X3780616Y-9259864D01*
X3780616Y-9259864D02*
X3732997Y-9259864D01*
X3932997Y-9259864D02*
X3932997Y-9126530D01*
X3932997Y-9164626D02*
X3942521Y-9145578D01*
X3942521Y-9145578D02*
X3952044Y-9136054D01*
X3952044Y-9136054D02*
X3971092Y-9126530D01*
X3971092Y-9126530D02*
X3990140Y-9126530D01*
X4056806Y-9259864D02*
X4056806Y-9126530D01*
X4056806Y-9059864D02*
X4047282Y-9069388D01*
X4047282Y-9069388D02*
X4056806Y-9078911D01*
X4056806Y-9078911D02*
X4066330Y-9069388D01*
X4066330Y-9069388D02*
X4056806Y-9059864D01*
X4056806Y-9059864D02*
X4056806Y-9078911D01*
X4180616Y-9259864D02*
X4161568Y-9250340D01*
X4161568Y-9250340D02*
X4152044Y-9231292D01*
X4152044Y-9231292D02*
X4152044Y-9059864D01*
X4285378Y-9259864D02*
X4266330Y-9250340D01*
X4266330Y-9250340D02*
X4256806Y-9231292D01*
X4256806Y-9231292D02*
X4256806Y-9059864D01*
X4513949Y-9259864D02*
X4513949Y-9059864D01*
X4513949Y-9059864D02*
X4580616Y-9202721D01*
X4580616Y-9202721D02*
X4647283Y-9059864D01*
X4647283Y-9059864D02*
X4647283Y-9259864D01*
X4828235Y-9259864D02*
X4828235Y-9155102D01*
X4828235Y-9155102D02*
X4818711Y-9136054D01*
X4818711Y-9136054D02*
X4799664Y-9126530D01*
X4799664Y-9126530D02*
X4761568Y-9126530D01*
X4761568Y-9126530D02*
X4742521Y-9136054D01*
X4828235Y-9250340D02*
X4809187Y-9259864D01*
X4809187Y-9259864D02*
X4761568Y-9259864D01*
X4761568Y-9259864D02*
X4742521Y-9250340D01*
X4742521Y-9250340D02*
X4732997Y-9231292D01*
X4732997Y-9231292D02*
X4732997Y-9212245D01*
X4732997Y-9212245D02*
X4742521Y-9193197D01*
X4742521Y-9193197D02*
X4761568Y-9183673D01*
X4761568Y-9183673D02*
X4809187Y-9183673D01*
X4809187Y-9183673D02*
X4828235Y-9174150D01*
X4923473Y-9126530D02*
X4923473Y-9326530D01*
X4923473Y-9136054D02*
X4942521Y-9126530D01*
X4942521Y-9126530D02*
X4980616Y-9126530D01*
X4980616Y-9126530D02*
X4999664Y-9136054D01*
X4999664Y-9136054D02*
X5009187Y-9145578D01*
X5009187Y-9145578D02*
X5018711Y-9164626D01*
X5018711Y-9164626D02*
X5018711Y-9221769D01*
X5018711Y-9221769D02*
X5009187Y-9240816D01*
X5009187Y-9240816D02*
X4999664Y-9250340D01*
X4999664Y-9250340D02*
X4980616Y-9259864D01*
X4980616Y-9259864D02*
X4942521Y-9259864D01*
X4942521Y-9259864D02*
X4923473Y-9250340D01*
X5104425Y-9240816D02*
X5113949Y-9250340D01*
X5113949Y-9250340D02*
X5104425Y-9259864D01*
X5104425Y-9259864D02*
X5094902Y-9250340D01*
X5094902Y-9250340D02*
X5104425Y-9240816D01*
X5104425Y-9240816D02*
X5104425Y-9259864D01*
X5104425Y-9136054D02*
X5113949Y-9145578D01*
X5113949Y-9145578D02*
X5104425Y-9155102D01*
X5104425Y-9155102D02*
X5094902Y-9145578D01*
X5094902Y-9145578D02*
X5104425Y-9136054D01*
X5104425Y-9136054D02*
X5104425Y-9155102D01*
D12*
X3442220Y-9573380D02*
X3472220Y-9603380D01*
X3472220Y-9573380D02*
X3442220Y-9603380D01*
D11*
X3771092Y-9479864D02*
X3790140Y-9479864D01*
X3790140Y-9479864D02*
X3809187Y-9489388D01*
X3809187Y-9489388D02*
X3818711Y-9498911D01*
X3818711Y-9498911D02*
X3828235Y-9517959D01*
X3828235Y-9517959D02*
X3837759Y-9556054D01*
X3837759Y-9556054D02*
X3837759Y-9603673D01*
X3837759Y-9603673D02*
X3828235Y-9641769D01*
X3828235Y-9641769D02*
X3818711Y-9660816D01*
X3818711Y-9660816D02*
X3809187Y-9670340D01*
X3809187Y-9670340D02*
X3790140Y-9679864D01*
X3790140Y-9679864D02*
X3771092Y-9679864D01*
X3771092Y-9679864D02*
X3752044Y-9670340D01*
X3752044Y-9670340D02*
X3742521Y-9660816D01*
X3742521Y-9660816D02*
X3732997Y-9641769D01*
X3732997Y-9641769D02*
X3723473Y-9603673D01*
X3723473Y-9603673D02*
X3723473Y-9556054D01*
X3723473Y-9556054D02*
X3732997Y-9517959D01*
X3732997Y-9517959D02*
X3742521Y-9498911D01*
X3742521Y-9498911D02*
X3752044Y-9489388D01*
X3752044Y-9489388D02*
X3771092Y-9479864D01*
X3923473Y-9660816D02*
X3932997Y-9670340D01*
X3932997Y-9670340D02*
X3923473Y-9679864D01*
X3923473Y-9679864D02*
X3913949Y-9670340D01*
X3913949Y-9670340D02*
X3923473Y-9660816D01*
X3923473Y-9660816D02*
X3923473Y-9679864D01*
X3999663Y-9479864D02*
X4123473Y-9479864D01*
X4123473Y-9479864D02*
X4056806Y-9556054D01*
X4056806Y-9556054D02*
X4085378Y-9556054D01*
X4085378Y-9556054D02*
X4104425Y-9565578D01*
X4104425Y-9565578D02*
X4113949Y-9575102D01*
X4113949Y-9575102D02*
X4123473Y-9594150D01*
X4123473Y-9594150D02*
X4123473Y-9641769D01*
X4123473Y-9641769D02*
X4113949Y-9660816D01*
X4113949Y-9660816D02*
X4104425Y-9670340D01*
X4104425Y-9670340D02*
X4085378Y-9679864D01*
X4085378Y-9679864D02*
X4028235Y-9679864D01*
X4028235Y-9679864D02*
X4009187Y-9670340D01*
X4009187Y-9670340D02*
X3999663Y-9660816D01*
X4247283Y-9479864D02*
X4266330Y-9479864D01*
X4266330Y-9479864D02*
X4285378Y-9489388D01*
X4285378Y-9489388D02*
X4294902Y-9498911D01*
X4294902Y-9498911D02*
X4304425Y-9517959D01*
X4304425Y-9517959D02*
X4313949Y-9556054D01*
X4313949Y-9556054D02*
X4313949Y-9603673D01*
X4313949Y-9603673D02*
X4304425Y-9641769D01*
X4304425Y-9641769D02*
X4294902Y-9660816D01*
X4294902Y-9660816D02*
X4285378Y-9670340D01*
X4285378Y-9670340D02*
X4266330Y-9679864D01*
X4266330Y-9679864D02*
X4247283Y-9679864D01*
X4247283Y-9679864D02*
X4228235Y-9670340D01*
X4228235Y-9670340D02*
X4218711Y-9660816D01*
X4218711Y-9660816D02*
X4209187Y-9641769D01*
X4209187Y-9641769D02*
X4199664Y-9603673D01*
X4199664Y-9603673D02*
X4199664Y-9556054D01*
X4199664Y-9556054D02*
X4209187Y-9517959D01*
X4209187Y-9517959D02*
X4218711Y-9498911D01*
X4218711Y-9498911D02*
X4228235Y-9489388D01*
X4228235Y-9489388D02*
X4247283Y-9479864D01*
X4437759Y-9479864D02*
X4456806Y-9479864D01*
X4456806Y-9479864D02*
X4475854Y-9489388D01*
X4475854Y-9489388D02*
X4485378Y-9498911D01*
X4485378Y-9498911D02*
X4494902Y-9517959D01*
X4494902Y-9517959D02*
X4504425Y-9556054D01*
X4504425Y-9556054D02*
X4504425Y-9603673D01*
X4504425Y-9603673D02*
X4494902Y-9641769D01*
X4494902Y-9641769D02*
X4485378Y-9660816D01*
X4485378Y-9660816D02*
X4475854Y-9670340D01*
X4475854Y-9670340D02*
X4456806Y-9679864D01*
X4456806Y-9679864D02*
X4437759Y-9679864D01*
X4437759Y-9679864D02*
X4418711Y-9670340D01*
X4418711Y-9670340D02*
X4409187Y-9660816D01*
X4409187Y-9660816D02*
X4399664Y-9641769D01*
X4399664Y-9641769D02*
X4390140Y-9603673D01*
X4390140Y-9603673D02*
X4390140Y-9556054D01*
X4390140Y-9556054D02*
X4399664Y-9517959D01*
X4399664Y-9517959D02*
X4409187Y-9498911D01*
X4409187Y-9498911D02*
X4418711Y-9489388D01*
X4418711Y-9489388D02*
X4437759Y-9479864D01*
X4590140Y-9679864D02*
X4590140Y-9546530D01*
X4590140Y-9565578D02*
X4599664Y-9556054D01*
X4599664Y-9556054D02*
X4618711Y-9546530D01*
X4618711Y-9546530D02*
X4647283Y-9546530D01*
X4647283Y-9546530D02*
X4666330Y-9556054D01*
X4666330Y-9556054D02*
X4675854Y-9575102D01*
X4675854Y-9575102D02*
X4675854Y-9679864D01*
X4675854Y-9575102D02*
X4685378Y-9556054D01*
X4685378Y-9556054D02*
X4704425Y-9546530D01*
X4704425Y-9546530D02*
X4732997Y-9546530D01*
X4732997Y-9546530D02*
X4752045Y-9556054D01*
X4752045Y-9556054D02*
X4761568Y-9575102D01*
X4761568Y-9575102D02*
X4761568Y-9679864D01*
X4856806Y-9679864D02*
X4856806Y-9546530D01*
X4856806Y-9565578D02*
X4866330Y-9556054D01*
X4866330Y-9556054D02*
X4885378Y-9546530D01*
X4885378Y-9546530D02*
X4913949Y-9546530D01*
X4913949Y-9546530D02*
X4932997Y-9556054D01*
X4932997Y-9556054D02*
X4942521Y-9575102D01*
X4942521Y-9575102D02*
X4942521Y-9679864D01*
X4942521Y-9575102D02*
X4952045Y-9556054D01*
X4952045Y-9556054D02*
X4971092Y-9546530D01*
X4971092Y-9546530D02*
X4999664Y-9546530D01*
X4999664Y-9546530D02*
X5018711Y-9556054D01*
X5018711Y-9556054D02*
X5028235Y-9575102D01*
X5028235Y-9575102D02*
X5028235Y-9679864D01*
X5418711Y-9470340D02*
X5247283Y-9727483D01*
X5675854Y-9479864D02*
X5694902Y-9479864D01*
X5694902Y-9479864D02*
X5713949Y-9489388D01*
X5713949Y-9489388D02*
X5723473Y-9498911D01*
X5723473Y-9498911D02*
X5732997Y-9517959D01*
X5732997Y-9517959D02*
X5742521Y-9556054D01*
X5742521Y-9556054D02*
X5742521Y-9603673D01*
X5742521Y-9603673D02*
X5732997Y-9641769D01*
X5732997Y-9641769D02*
X5723473Y-9660816D01*
X5723473Y-9660816D02*
X5713949Y-9670340D01*
X5713949Y-9670340D02*
X5694902Y-9679864D01*
X5694902Y-9679864D02*
X5675854Y-9679864D01*
X5675854Y-9679864D02*
X5656806Y-9670340D01*
X5656806Y-9670340D02*
X5647283Y-9660816D01*
X5647283Y-9660816D02*
X5637759Y-9641769D01*
X5637759Y-9641769D02*
X5628235Y-9603673D01*
X5628235Y-9603673D02*
X5628235Y-9556054D01*
X5628235Y-9556054D02*
X5637759Y-9517959D01*
X5637759Y-9517959D02*
X5647283Y-9498911D01*
X5647283Y-9498911D02*
X5656806Y-9489388D01*
X5656806Y-9489388D02*
X5675854Y-9479864D01*
X5828235Y-9660816D02*
X5837759Y-9670340D01*
X5837759Y-9670340D02*
X5828235Y-9679864D01*
X5828235Y-9679864D02*
X5818711Y-9670340D01*
X5818711Y-9670340D02*
X5828235Y-9660816D01*
X5828235Y-9660816D02*
X5828235Y-9679864D01*
X5961568Y-9479864D02*
X5980616Y-9479864D01*
X5980616Y-9479864D02*
X5999664Y-9489388D01*
X5999664Y-9489388D02*
X6009187Y-9498911D01*
X6009187Y-9498911D02*
X6018711Y-9517959D01*
X6018711Y-9517959D02*
X6028235Y-9556054D01*
X6028235Y-9556054D02*
X6028235Y-9603673D01*
X6028235Y-9603673D02*
X6018711Y-9641769D01*
X6018711Y-9641769D02*
X6009187Y-9660816D01*
X6009187Y-9660816D02*
X5999664Y-9670340D01*
X5999664Y-9670340D02*
X5980616Y-9679864D01*
X5980616Y-9679864D02*
X5961568Y-9679864D01*
X5961568Y-9679864D02*
X5942521Y-9670340D01*
X5942521Y-9670340D02*
X5932997Y-9660816D01*
X5932997Y-9660816D02*
X5923473Y-9641769D01*
X5923473Y-9641769D02*
X5913949Y-9603673D01*
X5913949Y-9603673D02*
X5913949Y-9556054D01*
X5913949Y-9556054D02*
X5923473Y-9517959D01*
X5923473Y-9517959D02*
X5932997Y-9498911D01*
X5932997Y-9498911D02*
X5942521Y-9489388D01*
X5942521Y-9489388D02*
X5961568Y-9479864D01*
X6218711Y-9679864D02*
X6104426Y-9679864D01*
X6161568Y-9679864D02*
X6161568Y-9479864D01*
X6161568Y-9479864D02*
X6142521Y-9508435D01*
X6142521Y-9508435D02*
X6123473Y-9527483D01*
X6123473Y-9527483D02*
X6104426Y-9537007D01*
X6409187Y-9679864D02*
X6294902Y-9679864D01*
X6352045Y-9679864D02*
X6352045Y-9479864D01*
X6352045Y-9479864D02*
X6332997Y-9508435D01*
X6332997Y-9508435D02*
X6313949Y-9527483D01*
X6313949Y-9527483D02*
X6294902Y-9537007D01*
X6523473Y-9565578D02*
X6504426Y-9556054D01*
X6504426Y-9556054D02*
X6494902Y-9546530D01*
X6494902Y-9546530D02*
X6485378Y-9527483D01*
X6485378Y-9527483D02*
X6485378Y-9517959D01*
X6485378Y-9517959D02*
X6494902Y-9498911D01*
X6494902Y-9498911D02*
X6504426Y-9489388D01*
X6504426Y-9489388D02*
X6523473Y-9479864D01*
X6523473Y-9479864D02*
X6561568Y-9479864D01*
X6561568Y-9479864D02*
X6580616Y-9489388D01*
X6580616Y-9489388D02*
X6590140Y-9498911D01*
X6590140Y-9498911D02*
X6599664Y-9517959D01*
X6599664Y-9517959D02*
X6599664Y-9527483D01*
X6599664Y-9527483D02*
X6590140Y-9546530D01*
X6590140Y-9546530D02*
X6580616Y-9556054D01*
X6580616Y-9556054D02*
X6561568Y-9565578D01*
X6561568Y-9565578D02*
X6523473Y-9565578D01*
X6523473Y-9565578D02*
X6504426Y-9575102D01*
X6504426Y-9575102D02*
X6494902Y-9584626D01*
X6494902Y-9584626D02*
X6485378Y-9603673D01*
X6485378Y-9603673D02*
X6485378Y-9641769D01*
X6485378Y-9641769D02*
X6494902Y-9660816D01*
X6494902Y-9660816D02*
X6504426Y-9670340D01*
X6504426Y-9670340D02*
X6523473Y-9679864D01*
X6523473Y-9679864D02*
X6561568Y-9679864D01*
X6561568Y-9679864D02*
X6580616Y-9670340D01*
X6580616Y-9670340D02*
X6590140Y-9660816D01*
X6590140Y-9660816D02*
X6599664Y-9641769D01*
X6599664Y-9641769D02*
X6599664Y-9603673D01*
X6599664Y-9603673D02*
X6590140Y-9584626D01*
X6590140Y-9584626D02*
X6580616Y-9575102D01*
X6580616Y-9575102D02*
X6561568Y-9565578D01*
X6675854Y-9479864D02*
X6675854Y-9517959D01*
X6752045Y-9479864D02*
X6752045Y-9517959D01*
X7047283Y-9756054D02*
X7037759Y-9746530D01*
X7037759Y-9746530D02*
X7018711Y-9717959D01*
X7018711Y-9717959D02*
X7009188Y-9698911D01*
X7009188Y-9698911D02*
X6999664Y-9670340D01*
X6999664Y-9670340D02*
X6990140Y-9622721D01*
X6990140Y-9622721D02*
X6990140Y-9584626D01*
X6990140Y-9584626D02*
X6999664Y-9537007D01*
X6999664Y-9537007D02*
X7009188Y-9508435D01*
X7009188Y-9508435D02*
X7018711Y-9489388D01*
X7018711Y-9489388D02*
X7037759Y-9460816D01*
X7037759Y-9460816D02*
X7047283Y-9451292D01*
X7228235Y-9679864D02*
X7113949Y-9679864D01*
X7171092Y-9679864D02*
X7171092Y-9479864D01*
X7171092Y-9479864D02*
X7152045Y-9508435D01*
X7152045Y-9508435D02*
X7132997Y-9527483D01*
X7132997Y-9527483D02*
X7113949Y-9537007D01*
X7323473Y-9679864D02*
X7361568Y-9679864D01*
X7361568Y-9679864D02*
X7380616Y-9670340D01*
X7380616Y-9670340D02*
X7390140Y-9660816D01*
X7390140Y-9660816D02*
X7409188Y-9632245D01*
X7409188Y-9632245D02*
X7418711Y-9594150D01*
X7418711Y-9594150D02*
X7418711Y-9517959D01*
X7418711Y-9517959D02*
X7409188Y-9498911D01*
X7409188Y-9498911D02*
X7399664Y-9489388D01*
X7399664Y-9489388D02*
X7380616Y-9479864D01*
X7380616Y-9479864D02*
X7342521Y-9479864D01*
X7342521Y-9479864D02*
X7323473Y-9489388D01*
X7323473Y-9489388D02*
X7313949Y-9498911D01*
X7313949Y-9498911D02*
X7304426Y-9517959D01*
X7304426Y-9517959D02*
X7304426Y-9565578D01*
X7304426Y-9565578D02*
X7313949Y-9584626D01*
X7313949Y-9584626D02*
X7323473Y-9594150D01*
X7323473Y-9594150D02*
X7342521Y-9603673D01*
X7342521Y-9603673D02*
X7380616Y-9603673D01*
X7380616Y-9603673D02*
X7399664Y-9594150D01*
X7399664Y-9594150D02*
X7409188Y-9584626D01*
X7409188Y-9584626D02*
X7418711Y-9565578D01*
X7590140Y-9479864D02*
X7552045Y-9479864D01*
X7552045Y-9479864D02*
X7532997Y-9489388D01*
X7532997Y-9489388D02*
X7523473Y-9498911D01*
X7523473Y-9498911D02*
X7504426Y-9527483D01*
X7504426Y-9527483D02*
X7494902Y-9565578D01*
X7494902Y-9565578D02*
X7494902Y-9641769D01*
X7494902Y-9641769D02*
X7504426Y-9660816D01*
X7504426Y-9660816D02*
X7513949Y-9670340D01*
X7513949Y-9670340D02*
X7532997Y-9679864D01*
X7532997Y-9679864D02*
X7571092Y-9679864D01*
X7571092Y-9679864D02*
X7590140Y-9670340D01*
X7590140Y-9670340D02*
X7599664Y-9660816D01*
X7599664Y-9660816D02*
X7609188Y-9641769D01*
X7609188Y-9641769D02*
X7609188Y-9594150D01*
X7609188Y-9594150D02*
X7599664Y-9575102D01*
X7599664Y-9575102D02*
X7590140Y-9565578D01*
X7590140Y-9565578D02*
X7571092Y-9556054D01*
X7571092Y-9556054D02*
X7532997Y-9556054D01*
X7532997Y-9556054D02*
X7513949Y-9565578D01*
X7513949Y-9565578D02*
X7504426Y-9575102D01*
X7504426Y-9575102D02*
X7494902Y-9594150D01*
X7847283Y-9679864D02*
X7847283Y-9479864D01*
X7932997Y-9679864D02*
X7932997Y-9575102D01*
X7932997Y-9575102D02*
X7923473Y-9556054D01*
X7923473Y-9556054D02*
X7904426Y-9546530D01*
X7904426Y-9546530D02*
X7875854Y-9546530D01*
X7875854Y-9546530D02*
X7856807Y-9556054D01*
X7856807Y-9556054D02*
X7847283Y-9565578D01*
X8056807Y-9679864D02*
X8037759Y-9670340D01*
X8037759Y-9670340D02*
X8028235Y-9660816D01*
X8028235Y-9660816D02*
X8018711Y-9641769D01*
X8018711Y-9641769D02*
X8018711Y-9584626D01*
X8018711Y-9584626D02*
X8028235Y-9565578D01*
X8028235Y-9565578D02*
X8037759Y-9556054D01*
X8037759Y-9556054D02*
X8056807Y-9546530D01*
X8056807Y-9546530D02*
X8085378Y-9546530D01*
X8085378Y-9546530D02*
X8104426Y-9556054D01*
X8104426Y-9556054D02*
X8113950Y-9565578D01*
X8113950Y-9565578D02*
X8123473Y-9584626D01*
X8123473Y-9584626D02*
X8123473Y-9641769D01*
X8123473Y-9641769D02*
X8113950Y-9660816D01*
X8113950Y-9660816D02*
X8104426Y-9670340D01*
X8104426Y-9670340D02*
X8085378Y-9679864D01*
X8085378Y-9679864D02*
X8056807Y-9679864D01*
X8237759Y-9679864D02*
X8218711Y-9670340D01*
X8218711Y-9670340D02*
X8209188Y-9651292D01*
X8209188Y-9651292D02*
X8209188Y-9479864D01*
X8390140Y-9670340D02*
X8371092Y-9679864D01*
X8371092Y-9679864D02*
X8332997Y-9679864D01*
X8332997Y-9679864D02*
X8313950Y-9670340D01*
X8313950Y-9670340D02*
X8304426Y-9651292D01*
X8304426Y-9651292D02*
X8304426Y-9575102D01*
X8304426Y-9575102D02*
X8313950Y-9556054D01*
X8313950Y-9556054D02*
X8332997Y-9546530D01*
X8332997Y-9546530D02*
X8371092Y-9546530D01*
X8371092Y-9546530D02*
X8390140Y-9556054D01*
X8390140Y-9556054D02*
X8399664Y-9575102D01*
X8399664Y-9575102D02*
X8399664Y-9594150D01*
X8399664Y-9594150D02*
X8304426Y-9613197D01*
X8475854Y-9670340D02*
X8494902Y-9679864D01*
X8494902Y-9679864D02*
X8532997Y-9679864D01*
X8532997Y-9679864D02*
X8552045Y-9670340D01*
X8552045Y-9670340D02*
X8561569Y-9651292D01*
X8561569Y-9651292D02*
X8561569Y-9641769D01*
X8561569Y-9641769D02*
X8552045Y-9622721D01*
X8552045Y-9622721D02*
X8532997Y-9613197D01*
X8532997Y-9613197D02*
X8504426Y-9613197D01*
X8504426Y-9613197D02*
X8485378Y-9603673D01*
X8485378Y-9603673D02*
X8475854Y-9584626D01*
X8475854Y-9584626D02*
X8475854Y-9575102D01*
X8475854Y-9575102D02*
X8485378Y-9556054D01*
X8485378Y-9556054D02*
X8504426Y-9546530D01*
X8504426Y-9546530D02*
X8532997Y-9546530D01*
X8532997Y-9546530D02*
X8552045Y-9556054D01*
X8628235Y-9756054D02*
X8637759Y-9746530D01*
X8637759Y-9746530D02*
X8656807Y-9717959D01*
X8656807Y-9717959D02*
X8666331Y-9698911D01*
X8666331Y-9698911D02*
X8675854Y-9670340D01*
X8675854Y-9670340D02*
X8685378Y-9622721D01*
X8685378Y-9622721D02*
X8685378Y-9584626D01*
X8685378Y-9584626D02*
X8675854Y-9537007D01*
X8675854Y-9537007D02*
X8666331Y-9508435D01*
X8666331Y-9508435D02*
X8656807Y-9489388D01*
X8656807Y-9489388D02*
X8637759Y-9460816D01*
X8637759Y-9460816D02*
X8628235Y-9451292D01*
X3472220Y-9852380D02*
G75*
G02*
X3272220Y-9852380I-100000J0D01*
G01*
X3272220Y-9852380D02*
G75*
G02*
X3472220Y-9852380I100000J0D01*
G01*
X3723473Y-9762911D02*
X3732997Y-9753388D01*
X3732997Y-9753388D02*
X3752044Y-9743864D01*
X3752044Y-9743864D02*
X3799663Y-9743864D01*
X3799663Y-9743864D02*
X3818711Y-9753388D01*
X3818711Y-9753388D02*
X3828235Y-9762911D01*
X3828235Y-9762911D02*
X3837759Y-9781959D01*
X3837759Y-9781959D02*
X3837759Y-9801007D01*
X3837759Y-9801007D02*
X3828235Y-9829578D01*
X3828235Y-9829578D02*
X3713949Y-9943864D01*
X3713949Y-9943864D02*
X3837759Y-9943864D01*
X3923473Y-9924816D02*
X3932997Y-9934340D01*
X3932997Y-9934340D02*
X3923473Y-9943864D01*
X3923473Y-9943864D02*
X3913949Y-9934340D01*
X3913949Y-9934340D02*
X3923473Y-9924816D01*
X3923473Y-9924816D02*
X3923473Y-9943864D01*
X3999663Y-9743864D02*
X4132997Y-9743864D01*
X4132997Y-9743864D02*
X4047282Y-9943864D01*
X4247283Y-9743864D02*
X4266330Y-9743864D01*
X4266330Y-9743864D02*
X4285378Y-9753388D01*
X4285378Y-9753388D02*
X4294902Y-9762911D01*
X4294902Y-9762911D02*
X4304425Y-9781959D01*
X4304425Y-9781959D02*
X4313949Y-9820054D01*
X4313949Y-9820054D02*
X4313949Y-9867673D01*
X4313949Y-9867673D02*
X4304425Y-9905769D01*
X4304425Y-9905769D02*
X4294902Y-9924816D01*
X4294902Y-9924816D02*
X4285378Y-9934340D01*
X4285378Y-9934340D02*
X4266330Y-9943864D01*
X4266330Y-9943864D02*
X4247283Y-9943864D01*
X4247283Y-9943864D02*
X4228235Y-9934340D01*
X4228235Y-9934340D02*
X4218711Y-9924816D01*
X4218711Y-9924816D02*
X4209187Y-9905769D01*
X4209187Y-9905769D02*
X4199664Y-9867673D01*
X4199664Y-9867673D02*
X4199664Y-9820054D01*
X4199664Y-9820054D02*
X4209187Y-9781959D01*
X4209187Y-9781959D02*
X4218711Y-9762911D01*
X4218711Y-9762911D02*
X4228235Y-9753388D01*
X4228235Y-9753388D02*
X4247283Y-9743864D01*
X4437759Y-9743864D02*
X4456806Y-9743864D01*
X4456806Y-9743864D02*
X4475854Y-9753388D01*
X4475854Y-9753388D02*
X4485378Y-9762911D01*
X4485378Y-9762911D02*
X4494902Y-9781959D01*
X4494902Y-9781959D02*
X4504425Y-9820054D01*
X4504425Y-9820054D02*
X4504425Y-9867673D01*
X4504425Y-9867673D02*
X4494902Y-9905769D01*
X4494902Y-9905769D02*
X4485378Y-9924816D01*
X4485378Y-9924816D02*
X4475854Y-9934340D01*
X4475854Y-9934340D02*
X4456806Y-9943864D01*
X4456806Y-9943864D02*
X4437759Y-9943864D01*
X4437759Y-9943864D02*
X4418711Y-9934340D01*
X4418711Y-9934340D02*
X4409187Y-9924816D01*
X4409187Y-9924816D02*
X4399664Y-9905769D01*
X4399664Y-9905769D02*
X4390140Y-9867673D01*
X4390140Y-9867673D02*
X4390140Y-9820054D01*
X4390140Y-9820054D02*
X4399664Y-9781959D01*
X4399664Y-9781959D02*
X4409187Y-9762911D01*
X4409187Y-9762911D02*
X4418711Y-9753388D01*
X4418711Y-9753388D02*
X4437759Y-9743864D01*
X4590140Y-9943864D02*
X4590140Y-9810530D01*
X4590140Y-9829578D02*
X4599664Y-9820054D01*
X4599664Y-9820054D02*
X4618711Y-9810530D01*
X4618711Y-9810530D02*
X4647283Y-9810530D01*
X4647283Y-9810530D02*
X4666330Y-9820054D01*
X4666330Y-9820054D02*
X4675854Y-9839102D01*
X4675854Y-9839102D02*
X4675854Y-9943864D01*
X4675854Y-9839102D02*
X4685378Y-9820054D01*
X4685378Y-9820054D02*
X4704425Y-9810530D01*
X4704425Y-9810530D02*
X4732997Y-9810530D01*
X4732997Y-9810530D02*
X4752045Y-9820054D01*
X4752045Y-9820054D02*
X4761568Y-9839102D01*
X4761568Y-9839102D02*
X4761568Y-9943864D01*
X4856806Y-9943864D02*
X4856806Y-9810530D01*
X4856806Y-9829578D02*
X4866330Y-9820054D01*
X4866330Y-9820054D02*
X4885378Y-9810530D01*
X4885378Y-9810530D02*
X4913949Y-9810530D01*
X4913949Y-9810530D02*
X4932997Y-9820054D01*
X4932997Y-9820054D02*
X4942521Y-9839102D01*
X4942521Y-9839102D02*
X4942521Y-9943864D01*
X4942521Y-9839102D02*
X4952045Y-9820054D01*
X4952045Y-9820054D02*
X4971092Y-9810530D01*
X4971092Y-9810530D02*
X4999664Y-9810530D01*
X4999664Y-9810530D02*
X5018711Y-9820054D01*
X5018711Y-9820054D02*
X5028235Y-9839102D01*
X5028235Y-9839102D02*
X5028235Y-9943864D01*
X5418711Y-9734340D02*
X5247283Y-9991483D01*
X5675854Y-9743864D02*
X5694902Y-9743864D01*
X5694902Y-9743864D02*
X5713949Y-9753388D01*
X5713949Y-9753388D02*
X5723473Y-9762911D01*
X5723473Y-9762911D02*
X5732997Y-9781959D01*
X5732997Y-9781959D02*
X5742521Y-9820054D01*
X5742521Y-9820054D02*
X5742521Y-9867673D01*
X5742521Y-9867673D02*
X5732997Y-9905769D01*
X5732997Y-9905769D02*
X5723473Y-9924816D01*
X5723473Y-9924816D02*
X5713949Y-9934340D01*
X5713949Y-9934340D02*
X5694902Y-9943864D01*
X5694902Y-9943864D02*
X5675854Y-9943864D01*
X5675854Y-9943864D02*
X5656806Y-9934340D01*
X5656806Y-9934340D02*
X5647283Y-9924816D01*
X5647283Y-9924816D02*
X5637759Y-9905769D01*
X5637759Y-9905769D02*
X5628235Y-9867673D01*
X5628235Y-9867673D02*
X5628235Y-9820054D01*
X5628235Y-9820054D02*
X5637759Y-9781959D01*
X5637759Y-9781959D02*
X5647283Y-9762911D01*
X5647283Y-9762911D02*
X5656806Y-9753388D01*
X5656806Y-9753388D02*
X5675854Y-9743864D01*
X5828235Y-9924816D02*
X5837759Y-9934340D01*
X5837759Y-9934340D02*
X5828235Y-9943864D01*
X5828235Y-9943864D02*
X5818711Y-9934340D01*
X5818711Y-9934340D02*
X5828235Y-9924816D01*
X5828235Y-9924816D02*
X5828235Y-9943864D01*
X6028235Y-9943864D02*
X5913949Y-9943864D01*
X5971092Y-9943864D02*
X5971092Y-9743864D01*
X5971092Y-9743864D02*
X5952045Y-9772435D01*
X5952045Y-9772435D02*
X5932997Y-9791483D01*
X5932997Y-9791483D02*
X5913949Y-9801007D01*
X6152045Y-9743864D02*
X6171092Y-9743864D01*
X6171092Y-9743864D02*
X6190140Y-9753388D01*
X6190140Y-9753388D02*
X6199664Y-9762911D01*
X6199664Y-9762911D02*
X6209187Y-9781959D01*
X6209187Y-9781959D02*
X6218711Y-9820054D01*
X6218711Y-9820054D02*
X6218711Y-9867673D01*
X6218711Y-9867673D02*
X6209187Y-9905769D01*
X6209187Y-9905769D02*
X6199664Y-9924816D01*
X6199664Y-9924816D02*
X6190140Y-9934340D01*
X6190140Y-9934340D02*
X6171092Y-9943864D01*
X6171092Y-9943864D02*
X6152045Y-9943864D01*
X6152045Y-9943864D02*
X6132997Y-9934340D01*
X6132997Y-9934340D02*
X6123473Y-9924816D01*
X6123473Y-9924816D02*
X6113949Y-9905769D01*
X6113949Y-9905769D02*
X6104426Y-9867673D01*
X6104426Y-9867673D02*
X6104426Y-9820054D01*
X6104426Y-9820054D02*
X6113949Y-9781959D01*
X6113949Y-9781959D02*
X6123473Y-9762911D01*
X6123473Y-9762911D02*
X6132997Y-9753388D01*
X6132997Y-9753388D02*
X6152045Y-9743864D01*
X6390140Y-9743864D02*
X6352045Y-9743864D01*
X6352045Y-9743864D02*
X6332997Y-9753388D01*
X6332997Y-9753388D02*
X6323473Y-9762911D01*
X6323473Y-9762911D02*
X6304426Y-9791483D01*
X6304426Y-9791483D02*
X6294902Y-9829578D01*
X6294902Y-9829578D02*
X6294902Y-9905769D01*
X6294902Y-9905769D02*
X6304426Y-9924816D01*
X6304426Y-9924816D02*
X6313949Y-9934340D01*
X6313949Y-9934340D02*
X6332997Y-9943864D01*
X6332997Y-9943864D02*
X6371092Y-9943864D01*
X6371092Y-9943864D02*
X6390140Y-9934340D01*
X6390140Y-9934340D02*
X6399664Y-9924816D01*
X6399664Y-9924816D02*
X6409187Y-9905769D01*
X6409187Y-9905769D02*
X6409187Y-9858150D01*
X6409187Y-9858150D02*
X6399664Y-9839102D01*
X6399664Y-9839102D02*
X6390140Y-9829578D01*
X6390140Y-9829578D02*
X6371092Y-9820054D01*
X6371092Y-9820054D02*
X6332997Y-9820054D01*
X6332997Y-9820054D02*
X6313949Y-9829578D01*
X6313949Y-9829578D02*
X6304426Y-9839102D01*
X6304426Y-9839102D02*
X6294902Y-9858150D01*
X6475854Y-9743864D02*
X6599664Y-9743864D01*
X6599664Y-9743864D02*
X6532997Y-9820054D01*
X6532997Y-9820054D02*
X6561568Y-9820054D01*
X6561568Y-9820054D02*
X6580616Y-9829578D01*
X6580616Y-9829578D02*
X6590140Y-9839102D01*
X6590140Y-9839102D02*
X6599664Y-9858150D01*
X6599664Y-9858150D02*
X6599664Y-9905769D01*
X6599664Y-9905769D02*
X6590140Y-9924816D01*
X6590140Y-9924816D02*
X6580616Y-9934340D01*
X6580616Y-9934340D02*
X6561568Y-9943864D01*
X6561568Y-9943864D02*
X6504426Y-9943864D01*
X6504426Y-9943864D02*
X6485378Y-9934340D01*
X6485378Y-9934340D02*
X6475854Y-9924816D01*
X6675854Y-9743864D02*
X6675854Y-9781959D01*
X6752045Y-9743864D02*
X6752045Y-9781959D01*
X7047283Y-10020054D02*
X7037759Y-10010530D01*
X7037759Y-10010530D02*
X7018711Y-9981959D01*
X7018711Y-9981959D02*
X7009188Y-9962911D01*
X7009188Y-9962911D02*
X6999664Y-9934340D01*
X6999664Y-9934340D02*
X6990140Y-9886721D01*
X6990140Y-9886721D02*
X6990140Y-9848626D01*
X6990140Y-9848626D02*
X6999664Y-9801007D01*
X6999664Y-9801007D02*
X7009188Y-9772435D01*
X7009188Y-9772435D02*
X7018711Y-9753388D01*
X7018711Y-9753388D02*
X7037759Y-9724816D01*
X7037759Y-9724816D02*
X7047283Y-9715292D01*
X7113949Y-9762911D02*
X7123473Y-9753388D01*
X7123473Y-9753388D02*
X7142521Y-9743864D01*
X7142521Y-9743864D02*
X7190140Y-9743864D01*
X7190140Y-9743864D02*
X7209188Y-9753388D01*
X7209188Y-9753388D02*
X7218711Y-9762911D01*
X7218711Y-9762911D02*
X7228235Y-9781959D01*
X7228235Y-9781959D02*
X7228235Y-9801007D01*
X7228235Y-9801007D02*
X7218711Y-9829578D01*
X7218711Y-9829578D02*
X7104426Y-9943864D01*
X7104426Y-9943864D02*
X7228235Y-9943864D01*
X7466330Y-9943864D02*
X7466330Y-9743864D01*
X7552045Y-9943864D02*
X7552045Y-9839102D01*
X7552045Y-9839102D02*
X7542521Y-9820054D01*
X7542521Y-9820054D02*
X7523473Y-9810530D01*
X7523473Y-9810530D02*
X7494902Y-9810530D01*
X7494902Y-9810530D02*
X7475854Y-9820054D01*
X7475854Y-9820054D02*
X7466330Y-9829578D01*
X7675854Y-9943864D02*
X7656807Y-9934340D01*
X7656807Y-9934340D02*
X7647283Y-9924816D01*
X7647283Y-9924816D02*
X7637759Y-9905769D01*
X7637759Y-9905769D02*
X7637759Y-9848626D01*
X7637759Y-9848626D02*
X7647283Y-9829578D01*
X7647283Y-9829578D02*
X7656807Y-9820054D01*
X7656807Y-9820054D02*
X7675854Y-9810530D01*
X7675854Y-9810530D02*
X7704426Y-9810530D01*
X7704426Y-9810530D02*
X7723473Y-9820054D01*
X7723473Y-9820054D02*
X7732997Y-9829578D01*
X7732997Y-9829578D02*
X7742521Y-9848626D01*
X7742521Y-9848626D02*
X7742521Y-9905769D01*
X7742521Y-9905769D02*
X7732997Y-9924816D01*
X7732997Y-9924816D02*
X7723473Y-9934340D01*
X7723473Y-9934340D02*
X7704426Y-9943864D01*
X7704426Y-9943864D02*
X7675854Y-9943864D01*
X7856807Y-9943864D02*
X7837759Y-9934340D01*
X7837759Y-9934340D02*
X7828235Y-9915292D01*
X7828235Y-9915292D02*
X7828235Y-9743864D01*
X8009188Y-9934340D02*
X7990140Y-9943864D01*
X7990140Y-9943864D02*
X7952045Y-9943864D01*
X7952045Y-9943864D02*
X7932997Y-9934340D01*
X7932997Y-9934340D02*
X7923473Y-9915292D01*
X7923473Y-9915292D02*
X7923473Y-9839102D01*
X7923473Y-9839102D02*
X7932997Y-9820054D01*
X7932997Y-9820054D02*
X7952045Y-9810530D01*
X7952045Y-9810530D02*
X7990140Y-9810530D01*
X7990140Y-9810530D02*
X8009188Y-9820054D01*
X8009188Y-9820054D02*
X8018711Y-9839102D01*
X8018711Y-9839102D02*
X8018711Y-9858150D01*
X8018711Y-9858150D02*
X7923473Y-9877197D01*
X8094902Y-9934340D02*
X8113950Y-9943864D01*
X8113950Y-9943864D02*
X8152045Y-9943864D01*
X8152045Y-9943864D02*
X8171092Y-9934340D01*
X8171092Y-9934340D02*
X8180616Y-9915292D01*
X8180616Y-9915292D02*
X8180616Y-9905769D01*
X8180616Y-9905769D02*
X8171092Y-9886721D01*
X8171092Y-9886721D02*
X8152045Y-9877197D01*
X8152045Y-9877197D02*
X8123473Y-9877197D01*
X8123473Y-9877197D02*
X8104426Y-9867673D01*
X8104426Y-9867673D02*
X8094902Y-9848626D01*
X8094902Y-9848626D02*
X8094902Y-9839102D01*
X8094902Y-9839102D02*
X8104426Y-9820054D01*
X8104426Y-9820054D02*
X8123473Y-9810530D01*
X8123473Y-9810530D02*
X8152045Y-9810530D01*
X8152045Y-9810530D02*
X8171092Y-9820054D01*
X8247283Y-10020054D02*
X8256807Y-10010530D01*
X8256807Y-10010530D02*
X8275854Y-9981959D01*
X8275854Y-9981959D02*
X8285378Y-9962911D01*
X8285378Y-9962911D02*
X8294902Y-9934340D01*
X8294902Y-9934340D02*
X8304426Y-9886721D01*
X8304426Y-9886721D02*
X8304426Y-9848626D01*
X8304426Y-9848626D02*
X8294902Y-9801007D01*
X8294902Y-9801007D02*
X8285378Y-9772435D01*
X8285378Y-9772435D02*
X8275854Y-9753388D01*
X8275854Y-9753388D02*
X8256807Y-9724816D01*
X8256807Y-9724816D02*
X8247283Y-9715292D01*
M02*
